<?xml version="1.0" standalone="no"?>
<!DOCTYPE svg PUBLIC "-//W3C//DTD SVG 20010904//EN"
 "http://www.w3.org/TR/2001/REC-SVG-20010904/DTD/svg10.dtd">
<svg version="1.0" xmlns="http://www.w3.org/2000/svg"
 width="600.000000pt" height="600.000000pt" viewBox="0 0 600.000000 600.000000"
 preserveAspectRatio="xMidYMid meet">
<metadata>
Created by potrace 1.11, written by Peter Selinger 2001-2013
</metadata>
<g transform="translate(0.000000,600.000000) scale(0.100000,-0.100000)"
fill="#000000" stroke="none">
<path d="M3555 5198 c-355 -47 -625 -181 -877 -433 -49 -49 -88 -92 -88 -96 0
-21 -61 -39 -113 -34 -28 3 -83 9 -122 13 -268 28 -571 -48 -813 -204 -193
-126 -361 -318 -459 -526 -43 -90 -93 -241 -98 -293 -1 -5 -4 -23 -8 -40 -9
-41 -16 -118 -18 -185 -2 -68 -18 -95 -66 -111 -116 -37 -301 -142 -403 -228
-187 -156 -358 -421 -410 -633 -6 -23 -12 -47 -14 -53 -31 -110 -37 -171 -33
-326 3 -90 7 -173 9 -184 3 -11 10 -47 18 -80 76 -358 337 -690 679 -864 127
-64 206 -91 386 -129 16 -3 806 -7 1755 -9 1733 -2 1758 -1 1920 30 159 31
372 122 517 220 101 69 111 77 208 172 229 225 389 540 432 851 10 76 10 322
0 399 -25 187 -111 421 -214 583 -109 172 -273 337 -443 447 -85 55 -87 58
-80 122 8 68 5 234 -4 313 -10 80 -51 246 -79 321 -142 376 -438 691 -794 843
-136 58 -236 86 -412 115 -65 11 -294 10 -376 -1z m405 -1545 c30 -20 35 -25
81 -83 44 -54 139 -196 139 -206 0 -4 6 -15 14 -23 43 -48 137 -327 151 -449
3 -26 8 -56 10 -67 56 -286 -3 -639 -157 -940 -70 -137 -190 -299 -240 -326
-31 -17 -96 -21 -133 -9 -75 25 -125 91 -125 165 0 44 15 75 90 185 90 133
151 269 190 423 30 120 35 166 35 297 0 158 -17 255 -65 386 -40 108 -130 278
-180 339 -102 123 -87 260 35 316 47 22 115 18 155 -8z m-1242 -222 c7 0 21
-15 32 -33 20 -34 22 -94 22 -1083 0 -462 -2 -490 -42 -522 -22 -18 -71 -15
-105 6 -16 10 -120 107 -230 215 -125 123 -216 204 -243 218 -39 18 -64 21
-215 23 -189 2 -209 7 -227 60 -13 36 -12 559 0 592 12 29 54 56 88 54 15 0
72 -3 127 -5 108 -6 166 5 240 46 61 33 77 47 272 239 178 176 207 198 248
194 11 -1 26 -3 33 -4z m651 -185 c63 -33 153 -148 210 -268 115 -243 102
-575 -32 -803 -37 -63 -90 -130 -136 -172 -78 -71 -187 -69 -255 3 -64 70 -59
150 15 251 92 124 124 210 128 343 3 124 -34 231 -126 362 -77 110 -81 184
-13 249 59 56 141 70 209 35z"/>
</g>
</svg>
