<svg id="Layer_1" data-name="Layer 1" xmlns="http://www.w3.org/2000/svg" viewBox="0 0 456.27 48.1"><defs><style>.cls-1{fill:#fff;}</style></defs><path class="cls-1" d="M809,558.61h5.33V525.17H809v-4.66h11.33l21,30.65a25.54,25.54,0,0,1,1.45,3.09H843a30.49,30.49,0,0,1-.31-3.45V525.17h-5.46v-4.66h16.92v4.66h-5.4v38.14h-5.94l-21-30.69a18.66,18.66,0,0,1-1.46-3.1h-.18a22.28,22.28,0,0,1,.24,3.46v25.63h5.52v4.73H809Z" transform="translate(-731.87 -515.95)"/><path class="cls-1" d="M859.31,537.17h-5.15v-4.55h11v18.44c0,4.25.85,7.64,5.76,7.64,6.13,0,10-5.88,10-11.94v-9.59h-5.16v-4.55h11v24.85a1.22,1.22,0,0,0,1.08,1.34h3.47v4.49h-6.37c-2.67,0-3.88-1.22-3.88-3.4v-1.29a13.79,13.79,0,0,1,.12-1.82h-.12A12.55,12.55,0,0,1,869.37,564c-6.6,0-10.06-3.64-10.06-11.77Z" transform="translate(-731.87 -515.95)"/><path class="cls-1" d="M896.5,525.05h-5.15V520.5h11v14.19a16.61,16.61,0,0,1-.19,2.54h.12a11.1,11.1,0,0,1,9.89-5.33c8.31,0,13.52,6.55,13.52,16.07,0,9.76-5.88,16.07-14,16.07a10.71,10.71,0,0,1-9.7-5.58h-.12a16.32,16.32,0,0,1,.18,2.42v2.43H896.5ZM910.93,559c4.79,0,8.79-4,8.79-10.92,0-6.66-3.58-11-8.66-11-4.55,0-8.85,3.22-8.85,11,0,5.46,2.82,10.86,8.7,10.86Z" transform="translate(-731.87 -515.95)"/><path class="cls-1" d="M946.17,544.45h1.94v-1.17c0-4.85-2.79-6.55-6.56-6.55a16.33,16.33,0,0,0-8.79,3l-2.36-4.19A19.72,19.72,0,0,1,942,531.88c7.82,0,12,4.06,12,11.82v13.73a1.18,1.18,0,0,0,1,1.33h3.42v4.55h-6.12c-2.73,0-3.82-1.33-3.82-3.33v-.42a7.45,7.45,0,0,1,.24-2h-.12a11.14,11.14,0,0,1-10.13,6.49c-5.09,0-10.18-3-10.18-9.28C928.28,545.12,941.07,544.45,946.17,544.45Zm-6.43,15c5.21,0,8.43-5.34,8.43-10v-1.27h-1.52c-2.79,0-12.43.13-12.43,6a5.18,5.18,0,0,0,5.52,5.22Z" transform="translate(-731.87 -515.95)"/><path class="cls-1" d="M961,558.76h4.61V538.51a1.19,1.19,0,0,0-1-1.33h-4.09v-4.56h6.91c2.67,0,3.94,1.09,3.94,3.57v2a15.16,15.16,0,0,1-.12,2.12h.12c1.4-4.49,5-8,9.7-8a8.59,8.59,0,0,1,1.52.13v5.81a8.11,8.11,0,0,0-1.7-.18c-6.54,0-9.33,6.61-9.33,12.61v8.12h4.55v4.55H961Z" transform="translate(-731.87 -515.95)"/><path class="cls-1" d="M990.24,537.17h-5.15v-4.55h5.27V524.2h5.77v8.42h7.33v4.54h-7.33v14.39c0,6.24,4.24,7,6.54,7,.86,0,1.4-.06,1.4-.06v4.91a15.16,15.16,0,0,1-2.12.12c-3.88,0-11.71-1.21-11.71-11.46Z" transform="translate(-731.87 -515.95)"/><path class="cls-1" d="M788.29,533.59a15.33,15.33,0,0,0-27.55-11.32,15.57,15.57,0,0,0-2-.16,15.34,15.34,0,0,0-15.33,15.17,13.06,13.06,0,0,0,1.59,26h38a15.33,15.33,0,0,0,5.34-29.72ZM763.4,554.05h-1.33l-4.66-6.83h-5.33v-7.77h5.33l4.66-6.82h1.33Zm3.54-5.53a5.49,5.49,0,0,0,3.28-7,5.43,5.43,0,0,0-3.28-3.28l1.54-2.24a8.16,8.16,0,0,1,0,14.82Zm5.33,7.8-1.51-2.21a12.19,12.19,0,0,0,5-16.49,12,12,0,0,0-5-5l1.51-2.21a14.85,14.85,0,0,1,0,25.93Z" transform="translate(-731.87 -515.95)"/><path class="cls-1" d="M1045.27,520c7.48,0,16.35,3,16.35,8.39v5.24h-5.55V530.5c0-3.56-5.61-5.31-10.62-5.31-10,0-16.22,6.76-16.22,16.53s6.39,17.07,16.4,17.07c3.8,0,11.4-1.15,11.4-5.31v-5.61h-8.32v-4.71h13.87v12c0,6.57-11,8.92-17.37,8.92-13.09,0-22.25-9.53-22.25-22.13S1032,520,1045.27,520Z" transform="translate(-731.87 -515.95)"/><path class="cls-1" d="M1070.93,537.31h-5.12v-4.52h11v18.34c0,4.22.85,7.6,5.73,7.6,6.1,0,9.9-5.85,9.9-11.89v-9.53h-5.13v-4.52h11v24.73a1.21,1.21,0,0,0,1.32,1.33h3.2v4.46h-6.33c-2.66,0-3.86-1.21-3.86-3.38v-1.32a13.21,13.21,0,0,1,.12-1.81h-.12A12.5,12.5,0,0,1,1081,564c-6.58,0-10-3.61-10-11.7Z" transform="translate(-731.87 -515.95)"/><path class="cls-1" d="M1106.31,558.79h4.77V537.31H1106v-4.52h10.92v26h4.82v4.52h-15.44Zm4.64-38.06h6.16v6H1111Z" transform="translate(-731.87 -515.95)"/><path class="cls-1" d="M1137.82,532.07c6.94,0,9.41,5.12,9.41,5.12h.12a13.74,13.74,0,0,1-.18-2.29v-9.65h-5.07v-4.52H1153v36.73a1.18,1.18,0,0,0,1.33,1.33h3.07v4.52h-6.09c-2.71,0-3.8-1.33-3.8-3.32v-.42a6.32,6.32,0,0,1,.18-1.63h-.12s-2.47,6.09-10.31,6.09c-8.21,0-13.33-6.51-13.33-16C1124,538.34,1129.62,532.07,1137.82,532.07Zm.73,26.9c4.52,0,8.8-3.26,8.8-10.86,0-5.61-2.83-10.92-8.62-10.92-4.89,0-8.81,3.92-8.81,10.86C1129.92,554.69,1133.48,559,1138.55,559Z" transform="translate(-731.87 -515.95)"/><path class="cls-1" d="M1174.92,532.07c8.69,0,13.21,6.39,13.21,14.29,0,.79-.18,2.23-.18,2.23h-22.32c.37,6.76,5.13,10.38,10.56,10.38a14.85,14.85,0,0,0,9.11-3.44l2.41,4.28a18.69,18.69,0,0,1-11.88,4.22c-9.59,0-16.17-6.93-16.17-16C1159.66,538.34,1166.24,532.07,1174.92,532.07Zm7.18,12.78c-.18-5.36-3.44-8.14-7.3-8.14-4.46,0-8.08,3-8.92,8.14Z" transform="translate(-731.87 -515.95)"/></svg>