<svg id="Layer_1" data-name="Layer 1" xmlns="http://www.w3.org/2000/svg" viewBox="0 0 426.91 60.03"><defs><style>.cls-1{fill:#fff;}</style></defs><path class="cls-1" d="M823.66,912.64H829V879.21h-5.34v-4.67H835l21,30.66a24.91,24.91,0,0,1,1.46,3.09h.18a30.69,30.69,0,0,1-.3-3.45V879.21h-5.46v-4.67h16.92v4.67h-5.4v38.14h-5.94l-21-30.7a18.51,18.51,0,0,1-1.45-3.09h-.18a24.94,24.94,0,0,1,.24,3.46v25.62h5.52v4.73H823.66Z" transform="translate(-746.54 -869.99)"/><path class="cls-1" d="M874,891.21h-5.16v-4.56h11V905.1c0,4.24.85,7.64,5.76,7.64,6.12,0,9.94-5.88,9.94-12v-9.58H890.4v-4.56h11v24.86a1.21,1.21,0,0,0,1.08,1.33H906v4.49H899.6c-2.66,0-3.87-1.21-3.87-3.4v-1.29a11.13,11.13,0,0,1,.12-1.82h-.12a12.53,12.53,0,0,1-11.68,7.25c-6.6,0-10.06-3.64-10.06-11.76Z" transform="translate(-746.54 -869.99)"/><path class="cls-1" d="M911.17,879.09H906v-4.55h11v14.18a16.65,16.65,0,0,1-.19,2.55H917a11.08,11.08,0,0,1,9.88-5.33c8.31,0,13.53,6.54,13.53,16.07,0,9.76-5.88,16.06-14,16.06a10.7,10.7,0,0,1-9.7-5.57h-.12a16.32,16.32,0,0,1,.18,2.42v2.43h-5.57ZM925.6,913c4.79,0,8.8-3.94,8.8-10.91,0-6.67-3.58-11-8.67-11-4.54,0-8.85,3.21-8.85,11,0,5.45,2.82,10.85,8.7,10.85Z" transform="translate(-746.54 -869.99)"/><path class="cls-1" d="M960.84,898.49h1.94v-1.18c0-4.85-2.78-6.54-6.55-6.54a16.36,16.36,0,0,0-8.79,3l-2.36-4.18a19.65,19.65,0,0,1,11.64-3.64c7.82,0,11.95,4.06,11.95,11.82v13.72a1.18,1.18,0,0,0,1,1.34h3.42v4.55H967c-2.74,0-3.82-1.34-3.82-3.34v-.42a7.43,7.43,0,0,1,.24-2h-.12a11.16,11.16,0,0,1-10.13,6.49c-5.09,0-10.18-3-10.18-9.28C943,899.15,955.75,898.49,960.84,898.49Zm-6.42,15c5.21,0,8.42-5.33,8.42-9.94v-1.27h-1.51c-2.79,0-12.43.12-12.43,6a5.18,5.18,0,0,0,5.52,5.22Z" transform="translate(-746.54 -869.99)"/><path class="cls-1" d="M975.66,912.8h4.62V892.55a1.2,1.2,0,0,0-1-1.33.76.76,0,0,0-.3,0h-3.79v-4.57h6.91c2.67,0,3.94,1.09,3.94,3.58v1.95a18.7,18.7,0,0,1-.12,2.12H986c1.39-4.48,5-8,9.7-8a11.14,11.14,0,0,1,1.52.13v5.82a8.11,8.11,0,0,0-1.7-.18c-6.55,0-9.33,6.6-9.33,12.61v8.12h4.54v4.55H975.66Z" transform="translate(-746.54 -869.99)"/><path class="cls-1" d="M1004.92,891.21h-5.15v-4.56H1005v-8.42h5.76v8.42h7.33v4.55h-7.33v14.38c0,6.25,4.24,7,6.55,7,.85,0,1.39-.06,1.39-.06v4.91a18.7,18.7,0,0,1-2.12.12c-3.88,0-11.7-1.22-11.7-11.47Z" transform="translate(-746.54 -869.99)"/><path class="cls-1" d="M803,887.63a15.33,15.33,0,0,0-27.56-11.33,17.17,17.17,0,0,0-2-.15,15.32,15.32,0,0,0-15.33,15.17,13.06,13.06,0,0,0,1.58,26h38A15.33,15.33,0,0,0,803,887.63Zm-24.89,20.45h-1.33l-4.67-6.82h-5.33v-7.77h5.33l4.67-6.83h1.33Zm3.54-5.53a5.5,5.5,0,0,0,0-10.33l1.54-2.24a8.16,8.16,0,0,1,0,14.82Zm5.33,7.81-1.51-2.22a12.19,12.19,0,0,0,0-21.51l1.51-2.2a14.85,14.85,0,0,1,0,25.93Z" transform="translate(-746.54 -869.99)"/><path class="cls-1" d="M1043.42,904.56v3.14c0,3.13,4,5,8.51,5,4.88,0,8.44-2.29,8.44-6.51,0-5-5-6.58-10.25-8.63-5.61-2.11-11.34-4.52-11.34-12.06,0-8,6.45-11.46,13.63-11.46,6.39,0,12.91,2.41,12.91,7.06v5h-5.61v-3c0-2.48-3.8-3.8-7.3-3.8-4.16,0-7.48,1.93-7.48,5.85,0,4.52,4.28,6,9,7.84,6.27,2.35,12.48,4.76,12.48,12.67,0,8.14-6.63,12.36-14.53,12.36-6.64,0-14.06-3-14.06-9.05v-4.46Z" transform="translate(-746.54 -869.99)"/><path class="cls-1" d="M1076.07,925.13c2.59,0,4.58-1.81,5.61-4.22l1.26-3-10.67-26.54h-3.86v-4.52h13.93v4.52h-4l6.81,18.16a13.68,13.68,0,0,1,.55,2.65h.18a18.36,18.36,0,0,1,.72-2.65l6.76-18.16h-3.92v-4.52h13.51v4.52h-3.8L1087,922.17c-2,5.19-6,7.84-10.73,7.84a12.09,12.09,0,0,1-6.58-1.93l2-4.4A7.35,7.35,0,0,0,1076.07,925.13Z" transform="translate(-746.54 -869.99)"/><path class="cls-1" d="M1106,912.82h4.77V892.68a1.18,1.18,0,0,0-1.33-1.33h-3.74v-4.52h6.87c2.66,0,3.87,1.14,3.87,3.37v1.57a8.23,8.23,0,0,1-.19,1.75h.13a12.83,12.83,0,0,1,11.88-7.42c7,0,10.13,3.92,10.13,11.7v15h4.83v4.53H1132.5V899.13c0-4.28-.84-7.66-5.73-7.66-6.15,0-10.19,5.61-10.19,11.7v9.65h4.82v4.53H1106Z" transform="translate(-746.54 -869.99)"/><path class="cls-1" d="M1160.91,886.1c4.52,0,11.94,1.69,11.94,6.94v3.74h-5.18v-2.11c0-2.35-3.86-3.5-6.58-3.5-6.15,0-10.37,4.34-10.37,10.86,0,6.93,4.88,11,10.73,11a15.49,15.49,0,0,0,9.78-3.92l2.23,4.29a18.66,18.66,0,0,1-12.25,4.7c-8.8,0-16.46-6.09-16.46-15.92C1144.75,892.8,1151.8,886.1,1160.91,886.1Z" transform="translate(-746.54 -869.99)"/></svg>