<svg id="Layer_1" data-name="Layer 1" xmlns="http://www.w3.org/2000/svg" viewBox="0 0 492.49 48.1"><defs><style>.cls-1{fill:#fff;}</style></defs><path class="cls-1" d="M150.87,918.61h5.34V885.17h-5.34v-4.66H162.2l21,30.65a25.61,25.61,0,0,1,1.46,3.09h.18a30.48,30.48,0,0,1-.3-3.45V885.17h-5.46v-4.66H196v4.66h-5.4v38.14H184.7l-21-30.69a18.61,18.61,0,0,1-1.45-3.1H162a25,25,0,0,1,.24,3.46v25.63h5.52v4.73H150.87Z" transform="translate(-73.75 -875.95)"/><path class="cls-1" d="M201.2,897.17h-5.15v-4.55h11v18.44c0,4.25.85,7.64,5.76,7.64,6.12,0,9.94-5.88,9.94-11.94v-9.59h-5.15v-4.55h11v24.85a1.22,1.22,0,0,0,1.08,1.34h3.47v4.49h-6.38c-2.66,0-3.87-1.22-3.87-3.4v-1.29a11.06,11.06,0,0,1,.12-1.82h-.12A12.56,12.56,0,0,1,211.26,924c-6.6,0-10.06-3.64-10.06-11.77Z" transform="translate(-73.75 -875.95)"/><path class="cls-1" d="M238.38,885.05h-5.15V880.5h11v14.19a16.61,16.61,0,0,1-.19,2.54h.12a11.08,11.08,0,0,1,9.88-5.33c8.32,0,13.53,6.55,13.53,16.07,0,9.76-5.88,16.07-14,16.07a10.71,10.71,0,0,1-9.7-5.58h-.12a16.32,16.32,0,0,1,.18,2.42v2.43h-5.57ZM252.81,919c4.79,0,8.8-4,8.8-10.92,0-6.66-3.58-11-8.66-11-4.55,0-8.86,3.22-8.86,11,0,5.46,2.82,10.86,8.7,10.86Z" transform="translate(-73.75 -875.95)"/><path class="cls-1" d="M288.05,904.45H290v-1.17c0-4.85-2.78-6.55-6.55-6.55a16.33,16.33,0,0,0-8.79,3l-2.36-4.19a19.72,19.72,0,0,1,11.64-3.64c7.82,0,11.95,4.06,11.95,11.82v13.73a1.17,1.17,0,0,0,1,1.33h3.42v4.55h-6.12c-2.74,0-3.82-1.33-3.82-3.33v-.42a7.45,7.45,0,0,1,.24-2h-.12a11.16,11.16,0,0,1-10.13,6.49c-5.09,0-10.18-3-10.18-9.28C270.17,905.12,283,904.45,288.05,904.45Zm-6.42,15c5.21,0,8.42-5.34,8.42-10v-1.27h-1.51c-2.79,0-12.43.13-12.43,6a5.18,5.18,0,0,0,5.52,5.22Z" transform="translate(-73.75 -875.95)"/><path class="cls-1" d="M302.87,918.76h4.62V898.51a1.19,1.19,0,0,0-1-1.33h-4.09v-4.56h6.91c2.67,0,3.94,1.09,3.94,3.57v2a19,19,0,0,1-.12,2.12h.12c1.39-4.49,5-8,9.7-8a8.67,8.67,0,0,1,1.52.13v5.81a8.11,8.11,0,0,0-1.7-.18c-6.55,0-9.33,6.61-9.33,12.61v8.12h4.54v4.55H302.87Z" transform="translate(-73.75 -875.95)"/><path class="cls-1" d="M332.13,897.17H327v-4.55h5.27V884.2H338v8.42h7.34v4.54H338v14.39c0,6.24,4.24,7,6.55,7,.85,0,1.39-.06,1.39-.06v4.91a15,15,0,0,1-2.12.12c-3.88,0-11.7-1.21-11.7-11.46Z" transform="translate(-73.75 -875.95)"/><path class="cls-1" d="M130.18,893.59a15.33,15.33,0,0,0-27.55-11.32,15.57,15.57,0,0,0-2-.16,15.33,15.33,0,0,0-15.33,15.17,13.06,13.06,0,0,0,1.58,26h38a15.33,15.33,0,0,0,5.33-29.72Zm-24.89,20.46H104l-4.67-6.83H94v-7.77h5.33l4.67-6.82h1.33Zm3.54-5.53a5.5,5.5,0,0,0,0-10.33l1.54-2.24a8.16,8.16,0,0,1,0,14.82Zm5.33,7.8-1.51-2.21a12.19,12.19,0,0,0,0-21.51l1.51-2.21a14.85,14.85,0,0,1,0,25.93Z" transform="translate(-73.75 -875.95)"/><path class="cls-1" d="M364.18,918.61h5.31l2.71-33.24h-5.43v-4.64h12.07l10.91,25.93a24.9,24.9,0,0,1,1,3.08h.12a25.78,25.78,0,0,1,1-3.08l10.92-25.93h12.07v4.64h-5.43l2.71,33.24h5.31v4.7H401v-4.7h5.13l-1.93-25.46a29.39,29.39,0,0,1,.18-3.5h-.18a28.44,28.44,0,0,1-1,3.26l-9.77,22.38h-5.31l-9.77-22.38a29.82,29.82,0,0,1-1-3.26h-.18a29.39,29.39,0,0,1,.18,3.5l-1.93,25.46h5.13v4.7H364.18Z" transform="translate(-73.75 -875.95)"/><path class="cls-1" d="M436,892.07c9.11,0,16.46,6.69,16.46,15.92S445.1,924,436,924s-16.47-6.75-16.47-16S426.88,892.07,436,892.07Zm0,26.9c5.73,0,10.49-4.59,10.49-11a10.5,10.5,0,1,0-21,0C425.49,914.38,430.2,919,436,919Z" transform="translate(-73.75 -875.95)"/><path class="cls-1" d="M458.77,897.31h-5.13v-4.52h5.25v-8.38h5.73v8.38h7.3v4.52h-7.3v14.3c0,6.21,4.22,7,6.52,7,.84,0,1.38-.06,1.38-.06v4.88a16.49,16.49,0,0,1-2.11.12c-3.86,0-11.64-1.2-11.64-11.4Z" transform="translate(-73.75 -875.95)"/><path class="cls-1" d="M475.9,918.79h4.77V897.31H475.6v-4.52h10.92v26h4.82v4.52H475.9Zm4.65-38.06h6.15v6h-6.15Z" transform="translate(-73.75 -875.95)"/><path class="cls-1" d="M509.75,892.07c9.1,0,16.46,6.69,16.46,15.92s-7.36,16-16.46,16-16.47-6.75-16.47-16S500.64,892.07,509.75,892.07Zm0,26.9c5.73,0,10.49-4.59,10.49-11a10.5,10.5,0,1,0-21,0C499.25,914.38,504,919,509.75,919Z" transform="translate(-73.75 -875.95)"/><path class="cls-1" d="M529,918.79h4.77V898.64a1.19,1.19,0,0,0-1.33-1.33h-3.74v-4.52h6.88c2.65,0,3.86,1.15,3.86,3.38v1.57a8.19,8.19,0,0,1-.19,1.74h.13a12.84,12.84,0,0,1,11.88-7.41c7,0,10.13,3.92,10.13,11.7v15h4.83v4.52H555.57V905.1c0-4.29-.84-7.67-5.73-7.67-6.15,0-10.19,5.61-10.19,11.71v9.65h4.82v4.52H529Z" transform="translate(-73.75 -875.95)"/></svg>