<svg xmlns="http://www.w3.org/2000/svg" xmlns:xlink="http://www.w3.org/1999/xlink" width="1400" zoomAndPan="magnify" viewBox="0 0 1050 149.999998" height="200" preserveAspectRatio="xMidYMid meet" version="1.2"><defs><clipPath id="fc5bae8b8a"><path d="M 0 30.078125 L 126.75 30.078125 L 126.75 120 L 0 120 Z M 0 30.078125 "/></clipPath><clipPath id="54193104a8"><rect x="0" width="905" y="0" height="127"/></clipPath></defs><g id="174f3cfea6"><g clip-rule="nonzero" clip-path="url(#fc5bae8b8a)"><path style=" stroke:none;fill-rule:nonzero;fill:#ffffff;fill-opacity:1;" d="M 107.378906 63.5625 C 109.78125 47.640625 98.914062 32.859375 82.992188 30.457031 C 72.253906 28.816406 61.511719 33.363281 55.070312 42.082031 C 53.804688 41.957031 52.542969 41.828125 51.152344 41.828125 C 35.234375 41.828125 22.21875 54.71875 22.09375 70.636719 C 8.574219 72.15625 -1.03125 84.535156 0.484375 98.054688 C 2.003906 110.566406 12.617188 119.914062 25.125 119.914062 L 97.144531 119.914062 C 113.191406 119.914062 126.207031 107.027344 126.332031 90.980469 C 126.332031 78.726562 118.75 67.730469 107.378906 63.5625 Z M 60.125 102.351562 L 57.597656 102.351562 L 48.753906 89.464844 L 38.644531 89.464844 L 38.644531 74.679688 L 48.753906 74.679688 L 57.597656 61.792969 L 60.125 61.792969 Z M 66.820312 91.863281 C 72.253906 89.84375 75.035156 83.90625 73.011719 78.472656 C 72 75.566406 69.726562 73.292969 66.820312 72.28125 L 69.726562 67.984375 C 77.433594 71.523438 80.84375 80.746094 77.308594 88.453125 C 75.792969 91.863281 73.011719 94.519531 69.726562 96.035156 Z M 76.929688 106.648438 L 74.023438 102.480469 C 85.269531 96.414062 89.5625 82.515625 83.5 71.269531 C 81.351562 67.226562 78.066406 63.941406 74.023438 61.792969 L 76.929688 57.625 C 90.449219 65.203125 95.375 82.390625 87.792969 95.910156 C 85.269531 100.332031 81.476562 104.121094 76.929688 106.648438 Z M 76.929688 106.648438 "/></g><g transform="matrix(1,0,0,1,145,23)"><g clip-path="url(#54193104a8)"><g style="fill:#ffffff;fill-opacity:1;"><g transform="translate(0.242642, 99.387073)"><path style="stroke:none" d="M 5.59375 0 L 5.59375 -8.21875 L 14.859375 -8.21875 L 14.859375 -66.3125 L 5.59375 -66.3125 L 5.59375 -74.421875 L 25.296875 -74.421875 L 61.875 -21.078125 C 62.507812 -20.023438 63.085938 -18.863281 63.609375 -17.59375 C 64.140625 -16.332031 64.40625 -15.703125 64.40625 -15.703125 L 64.734375 -15.703125 C 64.734375 -15.703125 64.644531 -16.421875 64.46875 -17.859375 C 64.289062 -19.304688 64.203125 -20.59375 64.203125 -21.71875 L 64.203125 -66.3125 L 54.71875 -66.3125 L 54.71875 -74.421875 L 84.125 -74.421875 L 84.125 -66.3125 L 74.75 -66.3125 L 74.75 0 L 64.40625 0 L 27.828125 -53.34375 C 27.128906 -54.394531 26.53125 -55.550781 26.03125 -56.8125 C 25.539062 -58.082031 25.296875 -58.71875 25.296875 -58.71875 L 24.984375 -58.71875 C 24.984375 -58.71875 25.070312 -58.015625 25.25 -56.609375 C 25.425781 -55.203125 25.476562 -53.898438 25.40625 -52.703125 L 25.40625 -8.21875 L 35 -8.21875 L 35 0 Z M 5.59375 0 "/></g></g><g style="fill:#ffffff;fill-opacity:1;"><g transform="translate(90.896186, 99.387073)"><path style="stroke:none" d="M 11.0625 -19.1875 L 11.0625 -45.4375 L 2.109375 -45.4375 L 2.109375 -53.34375 L 21.296875 -53.34375 L 21.296875 -21.296875 C 21.296875 -18.835938 21.539062 -16.601562 22.03125 -14.59375 C 22.519531 -12.59375 23.484375 -10.992188 24.921875 -9.796875 C 26.367188 -8.609375 28.5 -8.015625 31.3125 -8.015625 C 34.894531 -8.015625 37.96875 -9.015625 40.53125 -11.015625 C 43.09375 -13.015625 45.078125 -15.597656 46.484375 -18.765625 C 47.890625 -21.929688 48.59375 -25.269531 48.59375 -28.78125 L 48.59375 -45.4375 L 39.640625 -45.4375 L 39.640625 -53.34375 L 58.828125 -53.34375 L 58.828125 -10.125 C 58.828125 -8.570312 59.597656 -7.796875 61.140625 -7.796875 L 66.734375 -7.796875 L 66.734375 0 L 55.65625 0 C 51.164062 0 48.921875 -1.96875 48.921875 -5.90625 L 48.921875 -8.21875 C 48.921875 -9.132812 48.953125 -9.890625 49.015625 -10.484375 C 49.085938 -11.085938 49.125 -11.390625 49.125 -11.390625 L 48.921875 -11.390625 C 48.640625 -10.679688 48.039062 -9.640625 47.125 -8.265625 C 46.207031 -6.898438 44.941406 -5.476562 43.328125 -4 C 41.710938 -2.53125 39.675781 -1.285156 37.21875 -0.265625 C 34.757812 0.753906 31.875 1.265625 28.5625 1.265625 C 22.800781 1.265625 18.441406 -0.382812 15.484375 -3.6875 C 12.535156 -6.988281 11.0625 -12.15625 11.0625 -19.1875 Z M 11.0625 -19.1875 "/></g></g><g style="fill:#ffffff;fill-opacity:1;"><g transform="translate(163.313664, 99.387073)"><path style="stroke:none" d="M 8.953125 0 L 8.953125 -66.515625 L 0 -66.515625 L 0 -74.421875 L 19.1875 -74.421875 L 19.1875 -49.765625 C 19.1875 -48.492188 19.132812 -47.4375 19.03125 -46.59375 C 18.925781 -45.75 18.875 -45.328125 18.875 -45.328125 L 19.078125 -45.328125 C 19.078125 -45.328125 19.394531 -45.800781 20.03125 -46.75 C 20.664062 -47.695312 21.664062 -48.769531 23.03125 -49.96875 C 24.40625 -51.164062 26.179688 -52.238281 28.359375 -53.1875 C 30.535156 -54.132812 33.171875 -54.609375 36.265625 -54.609375 C 41.117188 -54.609375 45.300781 -53.429688 48.8125 -51.078125 C 52.320312 -48.722656 55.023438 -45.453125 56.921875 -41.265625 C 58.828125 -37.085938 59.78125 -32.222656 59.78125 -26.671875 C 59.78125 -21.046875 58.722656 -16.125 56.609375 -11.90625 C 54.503906 -7.695312 51.625 -4.445312 47.96875 -2.15625 C 44.3125 0.125 40.128906 1.265625 35.421875 1.265625 C 32.328125 1.265625 29.707031 0.773438 27.5625 -0.203125 C 25.425781 -1.191406 23.6875 -2.316406 22.34375 -3.578125 C 21.007812 -4.847656 20.039062 -5.972656 19.4375 -6.953125 C 18.84375 -7.941406 18.546875 -8.4375 18.546875 -8.4375 L 18.34375 -8.4375 C 18.34375 -8.4375 18.394531 -8.03125 18.5 -7.21875 C 18.601562 -6.414062 18.65625 -5.414062 18.65625 -4.21875 L 18.65625 0 Z M 18.875 -26.453125 C 18.875 -23.296875 19.4375 -20.273438 20.5625 -17.390625 C 21.6875 -14.515625 23.367188 -12.160156 25.609375 -10.328125 C 27.859375 -8.503906 30.671875 -7.59375 34.046875 -7.59375 C 36.859375 -7.59375 39.40625 -8.328125 41.6875 -9.796875 C 43.976562 -11.273438 45.828125 -13.4375 47.234375 -16.28125 C 48.640625 -19.132812 49.34375 -22.5625 49.34375 -26.5625 C 49.34375 -32.394531 47.9375 -37.03125 45.125 -40.46875 C 42.3125 -43.914062 38.691406 -45.640625 34.265625 -45.640625 C 31.660156 -45.640625 29.179688 -44.988281 26.828125 -43.6875 C 24.472656 -42.394531 22.554688 -40.34375 21.078125 -37.53125 C 19.609375 -34.71875 18.875 -31.023438 18.875 -26.453125 Z M 18.875 -26.453125 "/></g></g><g style="fill:#ffffff;fill-opacity:1;"><g transform="translate(229.828127, 99.387073)"><path style="stroke:none" d="M 3.484375 -14.859375 C 3.484375 -18.234375 4.253906 -21.007812 5.796875 -23.1875 C 7.347656 -25.363281 9.367188 -27.101562 11.859375 -28.40625 C 14.359375 -29.707031 17.007812 -30.675781 19.8125 -31.3125 C 22.625 -31.945312 25.347656 -32.347656 27.984375 -32.515625 C 30.617188 -32.691406 32.816406 -32.78125 34.578125 -32.78125 L 37.953125 -32.78125 L 37.953125 -34.796875 C 37.953125 -39.003906 36.878906 -41.953125 34.734375 -43.640625 C 32.585938 -45.328125 29.863281 -46.171875 26.5625 -46.171875 C 23.75 -46.171875 21.179688 -45.75 18.859375 -44.90625 C 16.546875 -44.0625 14.703125 -43.203125 13.328125 -42.328125 C 11.960938 -41.453125 11.28125 -41.015625 11.28125 -41.015625 L 7.171875 -48.28125 C 7.171875 -48.28125 7.992188 -48.804688 9.640625 -49.859375 C 11.296875 -50.921875 13.632812 -51.976562 16.65625 -53.03125 C 19.675781 -54.082031 23.257812 -54.609375 27.40625 -54.609375 C 34.226562 -54.609375 39.394531 -52.867188 42.90625 -49.390625 C 46.414062 -45.910156 48.171875 -40.796875 48.171875 -34.046875 L 48.171875 -10.21875 C 48.171875 -8.675781 48.945312 -7.90625 50.5 -7.90625 L 55.875 -7.90625 L 55.875 0 L 45.21875 0 C 42.832031 0 41.128906 -0.523438 40.109375 -1.578125 C 39.085938 -2.628906 38.578125 -4.035156 38.578125 -5.796875 L 38.578125 -6.53125 C 38.578125 -7.59375 38.644531 -8.4375 38.78125 -9.0625 C 38.925781 -9.695312 39 -10.015625 39 -10.015625 L 38.796875 -10.015625 C 38.796875 -10.015625 38.476562 -9.453125 37.84375 -8.328125 C 37.207031 -7.203125 36.203125 -5.882812 34.828125 -4.375 C 33.460938 -2.863281 31.65625 -1.546875 29.40625 -0.421875 C 27.164062 0.703125 24.425781 1.265625 21.1875 1.265625 C 18.238281 1.265625 15.410156 0.6875 12.703125 -0.46875 C 9.992188 -1.632812 7.78125 -3.410156 6.0625 -5.796875 C 4.34375 -8.179688 3.484375 -11.203125 3.484375 -14.859375 Z M 13.8125 -15.703125 C 13.8125 -13.316406 14.65625 -11.207031 16.34375 -9.375 C 18.03125 -7.550781 20.382812 -6.640625 23.40625 -6.640625 C 26.425781 -6.640625 29.023438 -7.515625 31.203125 -9.265625 C 33.378906 -11.023438 35.066406 -13.238281 36.265625 -15.90625 C 37.460938 -18.582031 38.0625 -21.257812 38.0625 -23.9375 L 38.0625 -26.140625 L 35.421875 -26.140625 C 34.441406 -26.140625 33.085938 -26.101562 31.359375 -26.03125 C 29.640625 -25.96875 27.773438 -25.757812 25.765625 -25.40625 C 23.765625 -25.050781 21.851562 -24.503906 20.03125 -23.765625 C 18.207031 -23.035156 16.710938 -22.019531 15.546875 -20.71875 C 14.390625 -19.414062 13.8125 -17.742188 13.8125 -15.703125 Z M 13.8125 -15.703125 "/></g></g><g style="fill:#ffffff;fill-opacity:1;"><g transform="translate(290.650417, 99.387073)"><path style="stroke:none" d="M 5.265625 0 L 5.265625 -7.90625 L 13.28125 -7.90625 L 13.28125 -43.125 C 13.28125 -44.664062 12.507812 -45.4375 10.96875 -45.4375 L 4.328125 -45.4375 L 4.328125 -53.34375 L 16.34375 -53.34375 C 20.90625 -53.34375 23.1875 -51.269531 23.1875 -47.125 L 23.1875 -43.75 C 23.1875 -42.695312 23.148438 -41.816406 23.078125 -41.109375 C 23.015625 -40.410156 22.984375 -40.0625 22.984375 -40.0625 L 23.1875 -40.0625 C 24.382812 -44 26.476562 -47.300781 29.46875 -49.96875 C 32.457031 -52.632812 35.988281 -53.96875 40.0625 -53.96875 C 40.757812 -53.96875 41.375 -53.929688 41.90625 -53.859375 C 42.4375 -53.796875 42.703125 -53.765625 42.703125 -53.765625 L 42.703125 -43.640625 C 42.703125 -43.640625 42.421875 -43.691406 41.859375 -43.796875 C 41.296875 -43.898438 40.59375 -43.953125 39.75 -43.953125 C 35.945312 -43.953125 32.847656 -42.84375 30.453125 -40.625 C 28.066406 -38.414062 26.3125 -35.640625 25.1875 -32.296875 C 24.070312 -28.960938 23.515625 -25.539062 23.515625 -22.03125 L 23.515625 -7.90625 L 31.421875 -7.90625 L 31.421875 0 Z M 5.265625 0 "/></g></g><g style="fill:#ffffff;fill-opacity:1;"><g transform="translate(337.558494, 99.387073)"><path style="stroke:none" d="M 10.859375 -19.5 L 10.859375 -45.4375 L 1.890625 -45.4375 L 1.890625 -53.34375 L 11.0625 -53.34375 L 11.0625 -68 L 21.078125 -68 L 21.078125 -53.34375 L 33.84375 -53.34375 L 33.84375 -45.4375 L 21.078125 -45.4375 L 21.078125 -20.453125 C 21.078125 -16.867188 21.742188 -14.195312 23.078125 -12.4375 C 24.421875 -10.675781 25.988281 -9.53125 27.78125 -9 C 29.570312 -8.476562 31.132812 -8.21875 32.46875 -8.21875 C 33.238281 -8.21875 33.832031 -8.234375 34.25 -8.265625 C 34.675781 -8.304688 34.890625 -8.328125 34.890625 -8.328125 L 34.890625 0.203125 C 34.890625 0.203125 34.554688 0.238281 33.890625 0.3125 C 33.222656 0.382812 32.328125 0.421875 31.203125 0.421875 C 29.515625 0.421875 27.53125 0.210938 25.25 -0.203125 C 22.96875 -0.628906 20.71875 -1.507812 18.5 -2.84375 C 16.289062 -4.175781 14.460938 -6.175781 13.015625 -8.84375 C 11.578125 -11.519531 10.859375 -15.070312 10.859375 -19.5 Z M 10.859375 -19.5 "/></g></g><g style="fill:#ffffff;fill-opacity:1;"><g transform="translate(377.825677, 99.387073)"><path style="stroke:none" d=""/></g></g><g style="fill:#ffffff;fill-opacity:1;"><g transform="translate(406.497672, 99.387073)"><path style="stroke:none" d="M 20.34375 0 L 20.34375 -8.21875 L 29.734375 -8.21875 L 29.734375 -65.78125 L 12.234375 -65.78125 L 12.234375 -54.1875 L 3.0625 -54.1875 L 3.0625 -74.421875 L 66.9375 -74.421875 L 66.9375 -54.1875 L 57.765625 -54.1875 L 57.765625 -65.78125 L 40.265625 -65.78125 L 40.265625 -8.21875 L 49.65625 -8.21875 L 49.65625 0 Z M 20.34375 0 "/></g></g><g style="fill:#ffffff;fill-opacity:1;"><g transform="translate(478.809746, 99.387073)"><path style="stroke:none" d="M 5.265625 0 L 5.265625 -7.90625 L 13.28125 -7.90625 L 13.28125 -43.125 C 13.28125 -44.664062 12.507812 -45.4375 10.96875 -45.4375 L 4.328125 -45.4375 L 4.328125 -53.34375 L 16.34375 -53.34375 C 20.90625 -53.34375 23.1875 -51.269531 23.1875 -47.125 L 23.1875 -43.75 C 23.1875 -42.695312 23.148438 -41.816406 23.078125 -41.109375 C 23.015625 -40.410156 22.984375 -40.0625 22.984375 -40.0625 L 23.1875 -40.0625 C 24.382812 -44 26.476562 -47.300781 29.46875 -49.96875 C 32.457031 -52.632812 35.988281 -53.96875 40.0625 -53.96875 C 40.757812 -53.96875 41.375 -53.929688 41.90625 -53.859375 C 42.4375 -53.796875 42.703125 -53.765625 42.703125 -53.765625 L 42.703125 -43.640625 C 42.703125 -43.640625 42.421875 -43.691406 41.859375 -43.796875 C 41.296875 -43.898438 40.59375 -43.953125 39.75 -43.953125 C 35.945312 -43.953125 32.847656 -42.84375 30.453125 -40.625 C 28.066406 -38.414062 26.3125 -35.640625 25.1875 -32.296875 C 24.070312 -28.960938 23.515625 -25.539062 23.515625 -22.03125 L 23.515625 -7.90625 L 31.421875 -7.90625 L 31.421875 0 Z M 5.265625 0 "/></g></g><g style="fill:#ffffff;fill-opacity:1;"><g transform="translate(525.717823, 99.387073)"><path style="stroke:none" d="M 3.484375 -14.859375 C 3.484375 -18.234375 4.253906 -21.007812 5.796875 -23.1875 C 7.347656 -25.363281 9.367188 -27.101562 11.859375 -28.40625 C 14.359375 -29.707031 17.007812 -30.675781 19.8125 -31.3125 C 22.625 -31.945312 25.347656 -32.347656 27.984375 -32.515625 C 30.617188 -32.691406 32.816406 -32.78125 34.578125 -32.78125 L 37.953125 -32.78125 L 37.953125 -34.796875 C 37.953125 -39.003906 36.878906 -41.953125 34.734375 -43.640625 C 32.585938 -45.328125 29.863281 -46.171875 26.5625 -46.171875 C 23.75 -46.171875 21.179688 -45.75 18.859375 -44.90625 C 16.546875 -44.0625 14.703125 -43.203125 13.328125 -42.328125 C 11.960938 -41.453125 11.28125 -41.015625 11.28125 -41.015625 L 7.171875 -48.28125 C 7.171875 -48.28125 7.992188 -48.804688 9.640625 -49.859375 C 11.296875 -50.921875 13.632812 -51.976562 16.65625 -53.03125 C 19.675781 -54.082031 23.257812 -54.609375 27.40625 -54.609375 C 34.226562 -54.609375 39.394531 -52.867188 42.90625 -49.390625 C 46.414062 -45.910156 48.171875 -40.796875 48.171875 -34.046875 L 48.171875 -10.21875 C 48.171875 -8.675781 48.945312 -7.90625 50.5 -7.90625 L 55.875 -7.90625 L 55.875 0 L 45.21875 0 C 42.832031 0 41.128906 -0.523438 40.109375 -1.578125 C 39.085938 -2.628906 38.578125 -4.035156 38.578125 -5.796875 L 38.578125 -6.53125 C 38.578125 -7.59375 38.644531 -8.4375 38.78125 -9.0625 C 38.925781 -9.695312 39 -10.015625 39 -10.015625 L 38.796875 -10.015625 C 38.796875 -10.015625 38.476562 -9.453125 37.84375 -8.328125 C 37.207031 -7.203125 36.203125 -5.882812 34.828125 -4.375 C 33.460938 -2.863281 31.65625 -1.546875 29.40625 -0.421875 C 27.164062 0.703125 24.425781 1.265625 21.1875 1.265625 C 18.238281 1.265625 15.410156 0.6875 12.703125 -0.46875 C 9.992188 -1.632812 7.78125 -3.410156 6.0625 -5.796875 C 4.34375 -8.179688 3.484375 -11.203125 3.484375 -14.859375 Z M 13.8125 -15.703125 C 13.8125 -13.316406 14.65625 -11.207031 16.34375 -9.375 C 18.03125 -7.550781 20.382812 -6.640625 23.40625 -6.640625 C 26.425781 -6.640625 29.023438 -7.515625 31.203125 -9.265625 C 33.378906 -11.023438 35.066406 -13.238281 36.265625 -15.90625 C 37.460938 -18.582031 38.0625 -21.257812 38.0625 -23.9375 L 38.0625 -26.140625 L 35.421875 -26.140625 C 34.441406 -26.140625 33.085938 -26.101562 31.359375 -26.03125 C 29.640625 -25.96875 27.773438 -25.757812 25.765625 -25.40625 C 23.765625 -25.050781 21.851562 -24.503906 20.03125 -23.765625 C 18.207031 -23.035156 16.710938 -22.019531 15.546875 -20.71875 C 14.390625 -19.414062 13.8125 -17.742188 13.8125 -15.703125 Z M 13.8125 -15.703125 "/></g></g><g style="fill:#ffffff;fill-opacity:1;"><g transform="translate(586.540147, 99.387073)"><path style="stroke:none" d="M 5.0625 0 L 5.0625 -7.90625 L 13.390625 -7.90625 L 13.390625 -43.125 C 13.390625 -44.664062 12.613281 -45.4375 11.0625 -45.4375 L 4.53125 -45.4375 L 4.53125 -53.34375 L 16.546875 -53.34375 C 21.046875 -53.34375 23.296875 -51.375 23.296875 -47.4375 L 23.296875 -44.703125 C 23.296875 -43.859375 23.242188 -43.132812 23.140625 -42.53125 C 23.035156 -41.9375 22.984375 -41.640625 22.984375 -41.640625 L 23.1875 -41.640625 C 23.46875 -42.347656 24.066406 -43.398438 24.984375 -44.796875 C 25.898438 -46.203125 27.203125 -47.660156 28.890625 -49.171875 C 30.578125 -50.691406 32.664062 -51.976562 35.15625 -53.03125 C 37.65625 -54.082031 40.585938 -54.609375 43.953125 -54.609375 C 50.066406 -54.609375 54.546875 -52.898438 57.390625 -49.484375 C 60.242188 -46.078125 61.671875 -40.96875 61.671875 -34.15625 L 61.671875 -7.90625 L 70.109375 -7.90625 L 70.109375 0 L 51.453125 0 L 51.453125 -31.84375 C 51.453125 -34.363281 51.203125 -36.625 50.703125 -38.625 C 50.210938 -40.632812 49.265625 -42.234375 47.859375 -43.421875 C 46.453125 -44.617188 44.3125 -45.21875 41.4375 -45.21875 C 37.84375 -45.21875 34.710938 -44.25 32.046875 -42.3125 C 29.378906 -40.382812 27.304688 -37.875 25.828125 -34.78125 C 24.347656 -31.695312 23.609375 -28.363281 23.609375 -24.78125 L 23.609375 -7.90625 L 32.046875 -7.90625 L 32.046875 0 Z M 5.0625 0 "/></g></g><g style="fill:#ffffff;fill-opacity:1;"><g transform="translate(661.487457, 99.387073)"><path style="stroke:none" d="M 4.21875 -11.484375 L 4.21875 -17.1875 L 13.171875 -17.1875 L 13.171875 -13.703125 C 13.171875 -12.222656 13.785156 -10.992188 15.015625 -10.015625 C 16.253906 -9.035156 17.800781 -8.296875 19.65625 -7.796875 C 21.519531 -7.304688 23.4375 -7.0625 25.40625 -7.0625 C 28.425781 -7.0625 30.972656 -7.65625 33.046875 -8.84375 C 35.117188 -10.039062 36.15625 -11.734375 36.15625 -13.921875 C 36.15625 -15.742188 35.554688 -17.195312 34.359375 -18.28125 C 33.171875 -19.375 31.570312 -20.320312 29.5625 -21.125 C 27.5625 -21.9375 25.332031 -22.765625 22.875 -23.609375 C 20.269531 -24.597656 17.6875 -25.722656 15.125 -26.984375 C 12.5625 -28.253906 10.4375 -29.90625 8.75 -31.9375 C 7.0625 -33.976562 6.21875 -36.613281 6.21875 -39.84375 C 6.21875 -43.363281 7.21875 -46.210938 9.21875 -48.390625 C 11.226562 -50.566406 13.742188 -52.144531 16.765625 -53.125 C 19.785156 -54.113281 22.84375 -54.609375 25.9375 -54.609375 C 27.832031 -54.609375 29.832031 -54.414062 31.9375 -54.03125 C 34.050781 -53.644531 36.054688 -53.03125 37.953125 -52.1875 C 39.847656 -51.34375 41.390625 -50.234375 42.578125 -48.859375 C 43.773438 -47.492188 44.375 -45.828125 44.375 -43.859375 L 44.375 -37.421875 L 35.421875 -37.421875 L 35.421875 -40.90625 C 35.421875 -42.519531 34.503906 -43.835938 32.671875 -44.859375 C 30.847656 -45.878906 28.640625 -46.390625 26.046875 -46.390625 C 23.515625 -46.390625 21.296875 -45.859375 19.390625 -44.796875 C 17.492188 -43.742188 16.546875 -42.128906 16.546875 -39.953125 C 16.546875 -38.265625 17.125 -36.859375 18.28125 -35.734375 C 19.445312 -34.609375 20.976562 -33.660156 22.875 -32.890625 C 24.769531 -32.117188 26.773438 -31.347656 28.890625 -30.578125 C 31.628906 -29.660156 34.347656 -28.585938 37.046875 -27.359375 C 39.753906 -26.128906 42.003906 -24.492188 43.796875 -22.453125 C 45.585938 -20.410156 46.484375 -17.738281 46.484375 -14.4375 C 46.484375 -11.0625 45.535156 -8.210938 43.640625 -5.890625 C 41.742188 -3.578125 39.195312 -1.804688 36 -0.578125 C 32.800781 0.648438 29.164062 1.265625 25.09375 1.265625 C 21.851562 1.265625 18.632812 0.789062 15.4375 -0.15625 C 12.238281 -1.101562 9.566406 -2.523438 7.421875 -4.421875 C 5.285156 -6.328125 4.21875 -8.679688 4.21875 -11.484375 Z M 4.21875 -11.484375 "/></g></g><g style="fill:#ffffff;fill-opacity:1;"><g transform="translate(714.509375, 99.387073)"><path style="stroke:none" d="M 8.953125 -15.1875 L 8.953125 -66.515625 L 0.109375 -66.515625 L 0.109375 -74.421875 L 19.1875 -74.421875 L 19.1875 -15.8125 C 19.1875 -13.5625 19.554688 -11.734375 20.296875 -10.328125 C 21.035156 -8.921875 22.5625 -8.21875 24.875 -8.21875 C 25.71875 -8.21875 26.398438 -8.234375 26.921875 -8.265625 C 27.453125 -8.304688 27.71875 -8.328125 27.71875 -8.328125 L 27.625 0.109375 C 27.625 0.109375 27.164062 0.140625 26.25 0.203125 C 25.332031 0.273438 24.28125 0.3125 23.09375 0.3125 C 20.5625 0.3125 18.222656 -0.109375 16.078125 -0.953125 C 13.929688 -1.796875 12.207031 -3.335938 10.90625 -5.578125 C 9.601562 -7.828125 8.953125 -11.03125 8.953125 -15.1875 Z M 8.953125 -15.1875 "/></g></g><g style="fill:#ffffff;fill-opacity:1;"><g transform="translate(747.71398, 99.387073)"><path style="stroke:none" d="M 3.484375 -14.859375 C 3.484375 -18.234375 4.253906 -21.007812 5.796875 -23.1875 C 7.347656 -25.363281 9.367188 -27.101562 11.859375 -28.40625 C 14.359375 -29.707031 17.007812 -30.675781 19.8125 -31.3125 C 22.625 -31.945312 25.347656 -32.347656 27.984375 -32.515625 C 30.617188 -32.691406 32.816406 -32.78125 34.578125 -32.78125 L 37.953125 -32.78125 L 37.953125 -34.796875 C 37.953125 -39.003906 36.878906 -41.953125 34.734375 -43.640625 C 32.585938 -45.328125 29.863281 -46.171875 26.5625 -46.171875 C 23.75 -46.171875 21.179688 -45.75 18.859375 -44.90625 C 16.546875 -44.0625 14.703125 -43.203125 13.328125 -42.328125 C 11.960938 -41.453125 11.28125 -41.015625 11.28125 -41.015625 L 7.171875 -48.28125 C 7.171875 -48.28125 7.992188 -48.804688 9.640625 -49.859375 C 11.296875 -50.921875 13.632812 -51.976562 16.65625 -53.03125 C 19.675781 -54.082031 23.257812 -54.609375 27.40625 -54.609375 C 34.226562 -54.609375 39.394531 -52.867188 42.90625 -49.390625 C 46.414062 -45.910156 48.171875 -40.796875 48.171875 -34.046875 L 48.171875 -10.21875 C 48.171875 -8.675781 48.945312 -7.90625 50.5 -7.90625 L 55.875 -7.90625 L 55.875 0 L 45.21875 0 C 42.832031 0 41.128906 -0.523438 40.109375 -1.578125 C 39.085938 -2.628906 38.578125 -4.035156 38.578125 -5.796875 L 38.578125 -6.53125 C 38.578125 -7.59375 38.644531 -8.4375 38.78125 -9.0625 C 38.925781 -9.695312 39 -10.015625 39 -10.015625 L 38.796875 -10.015625 C 38.796875 -10.015625 38.476562 -9.453125 37.84375 -8.328125 C 37.207031 -7.203125 36.203125 -5.882812 34.828125 -4.375 C 33.460938 -2.863281 31.65625 -1.546875 29.40625 -0.421875 C 27.164062 0.703125 24.425781 1.265625 21.1875 1.265625 C 18.238281 1.265625 15.410156 0.6875 12.703125 -0.46875 C 9.992188 -1.632812 7.78125 -3.410156 6.0625 -5.796875 C 4.34375 -8.179688 3.484375 -11.203125 3.484375 -14.859375 Z M 13.8125 -15.703125 C 13.8125 -13.316406 14.65625 -11.207031 16.34375 -9.375 C 18.03125 -7.550781 20.382812 -6.640625 23.40625 -6.640625 C 26.425781 -6.640625 29.023438 -7.515625 31.203125 -9.265625 C 33.378906 -11.023438 35.066406 -13.238281 36.265625 -15.90625 C 37.460938 -18.582031 38.0625 -21.257812 38.0625 -23.9375 L 38.0625 -26.140625 L 35.421875 -26.140625 C 34.441406 -26.140625 33.085938 -26.101562 31.359375 -26.03125 C 29.640625 -25.96875 27.773438 -25.757812 25.765625 -25.40625 C 23.765625 -25.050781 21.851562 -24.503906 20.03125 -23.765625 C 18.207031 -23.035156 16.710938 -22.019531 15.546875 -20.71875 C 14.390625 -19.414062 13.8125 -17.742188 13.8125 -15.703125 Z M 13.8125 -15.703125 "/></g></g><g style="fill:#ffffff;fill-opacity:1;"><g transform="translate(808.53627, 99.387073)"><path style="stroke:none" d="M 10.859375 -19.5 L 10.859375 -45.4375 L 1.890625 -45.4375 L 1.890625 -53.34375 L 11.0625 -53.34375 L 11.0625 -68 L 21.078125 -68 L 21.078125 -53.34375 L 33.84375 -53.34375 L 33.84375 -45.4375 L 21.078125 -45.4375 L 21.078125 -20.453125 C 21.078125 -16.867188 21.742188 -14.195312 23.078125 -12.4375 C 24.421875 -10.675781 25.988281 -9.53125 27.78125 -9 C 29.570312 -8.476562 31.132812 -8.21875 32.46875 -8.21875 C 33.238281 -8.21875 33.832031 -8.234375 34.25 -8.265625 C 34.675781 -8.304688 34.890625 -8.328125 34.890625 -8.328125 L 34.890625 0.203125 C 34.890625 0.203125 34.554688 0.238281 33.890625 0.3125 C 33.222656 0.382812 32.328125 0.421875 31.203125 0.421875 C 29.515625 0.421875 27.53125 0.210938 25.25 -0.203125 C 22.96875 -0.628906 20.71875 -1.507812 18.5 -2.84375 C 16.289062 -4.175781 14.460938 -6.175781 13.015625 -8.84375 C 11.578125 -11.519531 10.859375 -15.070312 10.859375 -19.5 Z M 10.859375 -19.5 "/></g></g><g style="fill:#ffffff;fill-opacity:1;"><g transform="translate(848.803521, 99.387073)"><path style="stroke:none" d="M 4.328125 -26.671875 C 4.328125 -32.359375 5.484375 -37.289062 7.796875 -41.46875 C 10.117188 -45.65625 13.300781 -48.890625 17.34375 -51.171875 C 21.382812 -53.460938 25.9375 -54.609375 31 -54.609375 C 36.050781 -54.609375 40.300781 -53.484375 43.75 -51.234375 C 47.195312 -48.984375 49.78125 -45.976562 51.5 -42.21875 C 53.21875 -38.457031 54.078125 -34.257812 54.078125 -29.625 C 54.078125 -28.914062 54.023438 -28.085938 53.921875 -27.140625 C 53.816406 -26.191406 53.765625 -25.71875 53.765625 -25.71875 L 14.765625 -25.71875 C 14.972656 -21.78125 15.953125 -18.457031 17.703125 -15.75 C 19.460938 -13.050781 21.695312 -11.015625 24.40625 -9.640625 C 27.113281 -8.273438 30.046875 -7.59375 33.203125 -7.59375 C 36.296875 -7.59375 39.035156 -8.082031 41.421875 -9.0625 C 43.816406 -10.050781 45.695312 -11.050781 47.0625 -12.0625 C 48.4375 -13.082031 49.125 -13.59375 49.125 -13.59375 L 53.34375 -6.109375 C 53.34375 -6.109375 52.867188 -5.738281 51.921875 -5 C 50.972656 -4.269531 49.582031 -3.410156 47.75 -2.421875 C 45.925781 -1.441406 43.726562 -0.582031 41.15625 0.15625 C 38.59375 0.894531 35.734375 1.265625 32.578125 1.265625 C 27.023438 1.265625 22.117188 0.0351562 17.859375 -2.421875 C 13.609375 -4.878906 10.289062 -8.21875 7.90625 -12.4375 C 5.519531 -16.65625 4.328125 -21.398438 4.328125 -26.671875 Z M 15.1875 -32.265625 L 43.546875 -32.265625 C 43.398438 -36.972656 42.078125 -40.519531 39.578125 -42.90625 C 37.085938 -45.289062 34.15625 -46.484375 30.78125 -46.484375 C 26.914062 -46.484375 23.539062 -45.234375 20.65625 -42.734375 C 17.78125 -40.242188 15.957031 -36.753906 15.1875 -32.265625 Z M 15.1875 -32.265625 "/></g></g></g></g></g></svg>