<svg id="Layer_1" data-name="Layer 1" xmlns="http://www.w3.org/2000/svg" viewBox="0 0 548.84 48.1"><defs><style>.cls-1{fill:#fff;}</style></defs><path class="cls-1" d="M762.7,918.61H768V885.17H762.7v-4.66H774l21,30.65a24.11,24.11,0,0,1,1.45,3.09h.19a33,33,0,0,1-.31-3.45V885.17H791v-4.66h16.92v4.66h-5.4v38.14h-6l-21-30.69a17.84,17.84,0,0,1-1.45-3.1h-.18a25,25,0,0,1,.24,3.46v25.63h5.52v4.73H762.7Z" transform="translate(-685.58 -875.95)"/><path class="cls-1" d="M813,897.17h-5.16v-4.55h11v18.44c0,4.25.85,7.64,5.76,7.64,6.12,0,9.94-5.88,9.94-11.94v-9.59h-5.15v-4.55h11v24.85a1.22,1.22,0,0,0,1.08,1.34H845v4.49h-6.37c-2.66,0-3.88-1.22-3.88-3.4v-1.29a13.79,13.79,0,0,1,.12-1.82h-.12A12.53,12.53,0,0,1,823.09,924c-6.61,0-10.06-3.64-10.06-11.77Z" transform="translate(-685.58 -875.95)"/><path class="cls-1" d="M850.21,885.05h-5.15V880.5h11v14.19a16.61,16.61,0,0,1-.19,2.54H856a11.08,11.08,0,0,1,9.88-5.33c8.31,0,13.52,6.55,13.52,16.07,0,9.76-5.87,16.07-14,16.07a10.69,10.69,0,0,1-9.7-5.58h-.12a16.32,16.32,0,0,1,.18,2.42v2.43h-5.57ZM864.64,919c4.79,0,8.8-4,8.8-10.92,0-6.66-3.58-11-8.67-11-4.54,0-8.85,3.22-8.85,11,0,5.46,2.82,10.86,8.7,10.86Z" transform="translate(-685.58 -875.95)"/><path class="cls-1" d="M899.88,904.45h1.94v-1.17c0-4.85-2.79-6.55-6.55-6.55a16.28,16.28,0,0,0-8.79,3l-2.36-4.19a19.72,19.72,0,0,1,11.64-3.64c7.82,0,11.94,4.06,11.94,11.82v13.73a1.18,1.18,0,0,0,1,1.33h3.42v4.55H906c-2.74,0-3.82-1.33-3.82-3.33v-.42a7.45,7.45,0,0,1,.24-2h-.12a11.16,11.16,0,0,1-10.13,6.49c-5.09,0-10.19-3-10.19-9.28C882,905.12,894.79,904.45,899.88,904.45Zm-6.42,15c5.21,0,8.42-5.34,8.42-10v-1.27h-1.51c-2.79,0-12.43.13-12.43,6a5.18,5.18,0,0,0,5.52,5.22Z" transform="translate(-685.58 -875.95)"/><path class="cls-1" d="M914.7,918.76h4.61V898.51a1.18,1.18,0,0,0-1-1.33h-4.09v-4.56h6.91c2.67,0,3.94,1.09,3.94,3.57v2a19,19,0,0,1-.12,2.12H925c1.39-4.49,5-8,9.7-8a8.56,8.56,0,0,1,1.51.13v5.81a8,8,0,0,0-1.69-.18c-6.55,0-9.33,6.61-9.33,12.61v8.12h4.54v4.55H914.7Z" transform="translate(-685.58 -875.95)"/><path class="cls-1" d="M944,897.17h-5.15v-4.55h5.27V884.2h5.76v8.42h7.33v4.54h-7.33v14.39c0,6.24,4.24,7,6.55,7,.85,0,1.39-.06,1.39-.06v4.91a15,15,0,0,1-2.12.12c-3.88,0-11.7-1.21-11.7-11.46Z" transform="translate(-685.58 -875.95)"/><path class="cls-1" d="M742,893.59a15.33,15.33,0,0,0-27.55-11.32,15.16,15.16,0,0,0-17.36,15,13.06,13.06,0,0,0,1.58,26h38A15.33,15.33,0,0,0,742,893.59Zm-24.88,20.46h-1.33l-4.67-6.83h-5.33v-7.77h5.33l4.67-6.82h1.33Zm3.54-5.53a5.5,5.5,0,0,0,0-10.33L722.2,896a8.16,8.16,0,0,1,0,14.82Zm5.33,7.8-1.51-2.21a12.19,12.19,0,0,0,0-21.51l1.51-2.21a14.85,14.85,0,0,1,0,25.93Z" transform="translate(-685.58 -875.95)"/><path class="cls-1" d="M985.36,918.61h5.36V885.67h-10v6.64h-5.25V880.73H1012v11.58h-5.25v-6.64h-10v32.94h5.36v4.7H985.36Z" transform="translate(-685.58 -875.95)"/><path class="cls-1" d="M1016,918.79h4.59V898.64a1.19,1.19,0,0,0-1.33-1.33h-3.8v-4.52h6.88c2.65,0,3.92,1.09,3.92,3.56v1.93a17.71,17.71,0,0,1-.12,2.11h.12c1.38-4.46,4.94-8,9.65-8a10.33,10.33,0,0,1,1.5.12v5.79a7.66,7.66,0,0,0-1.68-.18c-6.52,0-9.29,6.57-9.29,12.54v8.09H1031v4.52h-15Z" transform="translate(-685.58 -875.95)"/><path class="cls-1" d="M1056.75,904.55h1.93v-1.14c0-4.83-2.78-6.52-6.52-6.52a16.21,16.21,0,0,0-8.74,3l-2.35-4.16a19.59,19.59,0,0,1,11.58-3.62c7.78,0,11.88,4,11.88,11.76v13.63a1.18,1.18,0,0,0,1.33,1.33h3.07v4.52h-6.09c-2.71,0-3.8-1.33-3.8-3.32v-.42a7.42,7.42,0,0,1,.24-2h-.12a11.08,11.08,0,0,1-10.07,6.45c-5.07,0-10.13-2.95-10.13-9.22C1039,905.22,1051.68,904.55,1056.75,904.55Zm-6.39,15c5.18,0,8.38-5.31,8.38-9.89v-1.27h-1.51c-2.77,0-12.36.12-12.36,6A5.15,5.15,0,0,0,1050.36,919.51Z" transform="translate(-685.58 -875.95)"/><path class="cls-1" d="M1072.23,918.79H1077V898.64a1.18,1.18,0,0,0-1.33-1.33h-3.74v-4.52h6.88c2.65,0,3.86,1.15,3.86,3.38v1.57a8.79,8.79,0,0,1-.18,1.75h.12a12.83,12.83,0,0,1,11.88-7.42c7,0,10.13,3.92,10.13,11.7v15h4.83v4.52h-10.68V905.09c0-4.28-.84-7.66-5.73-7.66-6.15,0-10.19,5.61-10.19,11.71v9.65h4.82v4.52h-15.44Z" transform="translate(-685.58 -875.95)"/><path class="cls-1" d="M1112.47,913.48h5.12v2c0,2.59,3.62,3.8,7,3.8s6.15-1.39,6.15-3.92c0-3.08-3.38-4-7.6-5.55-4.52-1.69-9.53-3.74-9.53-9.29,0-6,6-8.44,11.28-8.44,4.28,0,10.56,1.68,10.56,6.15v3.68h-5.13v-2c0-1.87-2.41-3.14-5.37-3.14s-5.43,1.21-5.43,3.68c0,2.9,3.38,4.1,7.06,5.37,4.71,1.57,10.07,3.56,10.07,9.23s-5.3,9-12.24,9c-5.55,0-11.94-2.47-11.94-7.29Z" transform="translate(-685.58 -875.95)"/><path class="cls-1" d="M1142.4,885.25h-5.06v-4.52h10.91v33.53c0,2.6.61,4.35,3.26,4.35,1,0,1.63-.06,1.63-.06l-.06,4.82s-1.21.12-2.6.12c-4.34,0-8.08-1.75-8.08-8.87Z" transform="translate(-685.58 -875.95)"/><path class="cls-1" d="M1173.63,904.55h1.93v-1.14c0-4.83-2.77-6.52-6.51-6.52a16.22,16.22,0,0,0-8.75,3l-2.35-4.16a19.59,19.59,0,0,1,11.58-3.62c7.78,0,11.88,4,11.88,11.76v13.63a1.18,1.18,0,0,0,1.33,1.33h3.07v4.52h-6.09c-2.71,0-3.8-1.33-3.8-3.32v-.42a7.42,7.42,0,0,1,.24-2H1176A11.08,11.08,0,0,1,1166,924c-5.07,0-10.13-2.95-10.13-9.22C1155.84,905.22,1168.56,904.55,1173.63,904.55Zm-6.39,15c5.18,0,8.38-5.31,8.38-9.89v-1.27h-1.51c-2.77,0-12.36.12-12.36,6A5.15,5.15,0,0,0,1167.24,919.51Z" transform="translate(-685.58 -875.95)"/><path class="cls-1" d="M1190.74,897.31h-5.13v-4.52h5.25v-8.38h5.73v8.38h7.3v4.52h-7.3v14.3c0,6.21,4.22,7,6.51,7,.85,0,1.39-.06,1.39-.06v4.88a16.68,16.68,0,0,1-2.11.12c-3.86,0-11.64-1.2-11.64-11.4Z" transform="translate(-685.58 -875.95)"/><path class="cls-1" d="M1221.21,892.07c8.68,0,13.21,6.39,13.21,14.29,0,.79-.18,2.23-.18,2.23h-22.32c.36,6.76,5.13,10.38,10.56,10.38a14.84,14.84,0,0,0,9.1-3.44l2.42,4.28a18.73,18.73,0,0,1-11.89,4.22c-9.59,0-16.16-6.93-16.16-16C1206,898.34,1212.52,892.07,1221.21,892.07Zm7.18,12.78c-.18-5.36-3.44-8.14-7.3-8.14-4.47,0-8.08,3-8.93,8.14Z" transform="translate(-685.58 -875.95)"/></svg>