<svg id="Layer_1" data-name="Layer 1" xmlns="http://www.w3.org/2000/svg" viewBox="0 0 292.73 150.03"><defs><style>.cls-1{fill:#6dc7b9;}</style></defs><path class="cls-1" d="M0,141.84H8V91.71H0v-7H17l31.57,46a38.06,38.06,0,0,1,2.19,4.64H51a47.07,47.07,0,0,1-.46-5.19V91.71H42.4v-7H67.78v7h-8.1v57.23H50.77l-31.57-46A27.31,27.31,0,0,1,17,98.26h-.27a35.61,35.61,0,0,1,.37,5.19v38.39h8.27v7.1H0Z" transform="translate(0 0)"/><path class="cls-1" d="M75.51,109.72H67.78V102.9H84.34v27.66c0,6.36,1.27,11.46,8.64,11.46,9.19,0,14.92-8.82,14.92-17.92V109.72h-7.73V102.9h16.56v37.3a1.82,1.82,0,0,0,2,2h4.82v6.74H114c-4,0-5.83-1.82-5.83-5.1v-2a19.06,19.06,0,0,1,.19-2.73h-.19A18.81,18.81,0,0,1,90.61,150c-9.91,0-15.1-5.46-15.1-17.65Z" transform="translate(0 0)"/><path class="cls-1" d="M131.28,91.53h-7.73V84.7h16.56V106a25,25,0,0,1-.28,3.82H140s4.09-8,14.83-8c12.46,0,20.28,9.82,20.28,24.11,0,14.64-8.82,24.11-21,24.11a16.07,16.07,0,0,1-14.56-8.37h-.18a24.84,24.84,0,0,1,.27,3.64v3.64h-8.37Zm21.66,50.85c7.18,0,13.19-5.91,13.19-16.37,0-10-5.37-16.47-13-16.47-6.82,0-13.29,4.82-13.29,16.56C139.83,134.29,144.11,142.38,152.94,142.38Z" transform="translate(0 0)"/><path class="cls-1" d="M205.84,120.64h2.91v-1.73c0-7.28-4.18-9.82-9.82-9.82-7.28,0-13.2,4.46-13.2,4.46l-3.54-6.28a29.56,29.56,0,0,1,17.47-5.46c11.73,0,17.92,6.09,17.92,17.74v20.56a1.78,1.78,0,0,0,2,2h4.64v6.83H215c-4.09,0-5.73-2-5.73-5v-.64a11.27,11.27,0,0,1,.36-3h-.18s-4,9.74-15.19,9.74c-7.65,0-15.29-4.46-15.29-13.92C179,121.64,198.2,120.64,205.84,120.64ZM196.2,143.2c7.82,0,12.64-8,12.64-14.92v-1.91h-2.27c-4.19,0-18.65.18-18.65,9C187.92,139.47,190.92,143.2,196.2,143.2Z" transform="translate(0 0)"/><path class="cls-1" d="M228.09,142.11H235V111.73a1.79,1.79,0,0,0-2-2h-5.73V102.9h10.37c4,0,5.91,1.64,5.91,5.37v2.91a26.89,26.89,0,0,1-.18,3.18h.18c2.09-6.73,7.46-12,14.56-12a15,15,0,0,1,2.27.19v8.73a11.69,11.69,0,0,0-2.54-.27c-9.83,0-14,9.91-14,18.92v12.19h6.82v6.83H228.09Z" transform="translate(0 0)"/><path class="cls-1" d="M272,109.72h-7.73V102.9h7.92V90.25h8.64V102.9h11v6.82h-11v21.56c0,9.38,6.37,10.56,9.82,10.56,1.28,0,2.1-.09,2.1-.09v7.37a25.32,25.32,0,0,1-3.19.18c-5.82,0-17.56-1.82-17.56-17.2Z" transform="translate(0 0)"/><path class="cls-1" d="M177.48,26.47a23,23,0,0,0-41.34-17,23.69,23.69,0,0,0-3.06-.23,23,23,0,0,0-23,22.72,19.6,19.6,0,0,0,2.37,39.06H169.5a23,23,0,0,0,8-44.59ZM140.14,57.16h-2l-7-10.24h-8V35.26h8l7-10.24h2Zm5.31-8.3a8.25,8.25,0,0,0,0-15.5L147.76,30a12.24,12.24,0,0,1,0,22.24Zm8,11.71-2.27-3.32a18.29,18.29,0,0,0,0-32.28l2.27-3.31a22.28,22.28,0,0,1,0,38.91Z" transform="translate(0 0)"/></svg>