<svg id="Layer_1" data-name="Layer 1" xmlns="http://www.w3.org/2000/svg" viewBox="0 0 405.21 48.1"><defs><style>.cls-1{fill:#6bcaba;}</style></defs><path class="cls-1" d="M1474.52,558.61h5.33V525.17h-5.33v-4.66h11.32l21,30.65a25.61,25.61,0,0,1,1.46,3.09h.18a30.48,30.48,0,0,1-.3-3.45V525.17h-5.46v-4.66h16.92v4.66h-5.4v38.14h-5.94l-21-30.69a18.61,18.61,0,0,1-1.45-3.1h-.18a25,25,0,0,1,.24,3.46v25.63h5.52v4.73h-16.91Z" transform="translate(-1397.39 -515.95)"/><path class="cls-1" d="M1524.84,537.17h-5.15v-4.55h11v18.44c0,4.25.85,7.64,5.76,7.64,6.12,0,9.94-5.88,9.94-11.94v-9.59h-5.15v-4.55h11v24.85a1.22,1.22,0,0,0,1.08,1.34h3.47v4.49h-6.37c-2.67,0-3.88-1.22-3.88-3.4v-1.29a13.79,13.79,0,0,1,.12-1.82h-.12A12.56,12.56,0,0,1,1534.9,564c-6.6,0-10.06-3.64-10.06-11.77Z" transform="translate(-1397.39 -515.95)"/><path class="cls-1" d="M1562,525.05h-5.15V520.5h11v14.19a16.61,16.61,0,0,1-.19,2.54h.12a11.09,11.09,0,0,1,9.89-5.33c8.31,0,13.52,6.55,13.52,16.07,0,9.76-5.88,16.07-14,16.07a10.71,10.71,0,0,1-9.7-5.58h-.12a16.32,16.32,0,0,1,.18,2.42v2.43H1562Zm14.43,33.9c4.79,0,8.8-4,8.8-10.92,0-6.66-3.58-11-8.66-11-4.55,0-8.85,3.22-8.85,11,0,5.46,2.81,10.86,8.69,10.86Z" transform="translate(-1397.39 -515.95)"/><path class="cls-1" d="M1611.69,544.45h1.94v-1.17c0-4.85-2.78-6.55-6.55-6.55a16.33,16.33,0,0,0-8.79,3l-2.36-4.19a19.72,19.72,0,0,1,11.64-3.64c7.82,0,12,4.06,12,11.82v13.73a1.18,1.18,0,0,0,1,1.33h3.42v4.55h-6.12c-2.73,0-3.82-1.33-3.82-3.33v-.42a7.45,7.45,0,0,1,.24-2h-.12a11.16,11.16,0,0,1-10.13,6.49c-5.09,0-10.18-3-10.18-9.28C1593.81,545.12,1606.6,544.45,1611.69,544.45Zm-6.42,15c5.21,0,8.42-5.34,8.42-10v-1.27h-1.51c-2.79,0-12.43.13-12.43,6a5.18,5.18,0,0,0,5.52,5.22Z" transform="translate(-1397.39 -515.95)"/><path class="cls-1" d="M1626.51,558.76h4.62V538.51a1.19,1.19,0,0,0-1-1.33H1626v-4.56h6.91c2.67,0,3.94,1.09,3.94,3.57v2a19,19,0,0,1-.12,2.12h.12c1.39-4.49,5-8,9.7-8a8.67,8.67,0,0,1,1.52.13v5.81a8.11,8.11,0,0,0-1.7-.18c-6.55,0-9.33,6.61-9.33,12.61v8.12h4.54v4.55h-15.07Z" transform="translate(-1397.39 -515.95)"/><path class="cls-1" d="M1655.77,537.17h-5.15v-4.55h5.27V524.2h5.77v8.42H1669v4.54h-7.33v14.39c0,6.24,4.23,7,6.54,7,.85,0,1.39-.06,1.39-.06v4.91a15,15,0,0,1-2.12.12c-3.88,0-11.7-1.21-11.7-11.46Z" transform="translate(-1397.39 -515.95)"/><path class="cls-1" d="M1453.82,533.59a15.33,15.33,0,0,0-27.55-11.32,15.57,15.57,0,0,0-2-.16,15.33,15.33,0,0,0-15.33,15.17,13.06,13.06,0,0,0,1.59,26h38a15.33,15.33,0,0,0,5.33-29.72Zm-24.89,20.46h-1.33l-4.67-6.83h-5.33v-7.77h5.33l4.67-6.82h1.33Zm3.54-5.53a5.5,5.5,0,0,0,0-10.33L1434,536a8.16,8.16,0,0,1,0,14.82Zm5.33,7.8-1.51-2.21a12.19,12.19,0,0,0,0-21.51l1.51-2.21a14.85,14.85,0,0,1,0,25.93Z" transform="translate(-1397.39 -515.95)"/><path class="cls-1" d="M1688.78,558.61h5.31V525.67h-5.31v-4.94h16.71v4.94h-5.37v32.69H1715v-6.87h5.31v11.82h-31.49Z" transform="translate(-1397.39 -515.95)"/><path class="cls-1" d="M1723.9,558.79h4.76V537.31h-5.07v-4.52h10.92v26h4.83v4.52H1723.9Zm4.64-38.06h6.15v6h-6.15Z" transform="translate(-1397.39 -515.95)"/><path class="cls-1" d="M1739.08,532.79h13.69v4.52h-3.92l6.45,17.8a14.25,14.25,0,0,1,.67,2.83h.18a14.66,14.66,0,0,1,.66-2.83l6.52-17.8h-3.92v-4.52H1773v4.52h-3.8l-9.9,26h-6.57l-9.83-26h-3.86Z" transform="translate(-1397.39 -515.95)"/><path class="cls-1" d="M1789.4,532.07c8.68,0,13.21,6.39,13.21,14.29,0,.79-.19,2.23-.19,2.23h-22.31c.36,6.76,5.12,10.38,10.55,10.38a14.85,14.85,0,0,0,9.11-3.44l2.41,4.28A18.69,18.69,0,0,1,1790.3,564c-9.59,0-16.16-6.93-16.16-16C1774.14,538.34,1780.71,532.07,1789.4,532.07Zm7.17,12.78c-.18-5.36-3.43-8.14-7.29-8.14-4.47,0-8.09,3-8.93,8.14Z" transform="translate(-1397.39 -515.95)"/></svg>