<svg id="Layer_1" data-name="Layer 1" xmlns="http://www.w3.org/2000/svg" viewBox="0 0 454.87 48.1"><defs><style>.cls-1{fill:#fff;}</style></defs><path class="cls-1" d="M169.69,558.61H175V525.17h-5.33v-4.66H181l21,30.65a25.54,25.54,0,0,1,1.45,3.09h.19a30.49,30.49,0,0,1-.31-3.45V525.17h-5.46v-4.66h16.92v4.66h-5.4v38.14h-5.94l-21-30.69a17.89,17.89,0,0,1-1.46-3.1h-.18a22.28,22.28,0,0,1,.24,3.46v25.63h5.52v4.73H169.69Z" transform="translate(-92.57 -515.95)"/><path class="cls-1" d="M220,537.17h-5.15v-4.55h11v18.44c0,4.25.85,7.64,5.76,7.64,6.13,0,10-5.88,10-11.94v-9.59h-5.16v-4.55h11v24.85a1.22,1.22,0,0,0,1.08,1.34H252v4.49h-6.37c-2.67,0-3.88-1.22-3.88-3.4v-1.29a13.79,13.79,0,0,1,.12-1.82h-.12A12.55,12.55,0,0,1,230.07,564c-6.6,0-10.06-3.64-10.06-11.77Z" transform="translate(-92.57 -515.95)"/><path class="cls-1" d="M257.2,525.05H252V520.5h11v14.19a16.61,16.61,0,0,1-.19,2.54H263a11.1,11.1,0,0,1,9.89-5.33c8.31,0,13.52,6.55,13.52,16.07,0,9.76-5.88,16.07-14,16.07a10.71,10.71,0,0,1-9.7-5.58h-.12a16.32,16.32,0,0,1,.18,2.42v2.43H257.2ZM271.62,559c4.8,0,8.8-4,8.8-10.92,0-6.66-3.58-11-8.66-11-4.55,0-8.85,3.22-8.85,11,0,5.46,2.82,10.86,8.69,10.86Z" transform="translate(-92.57 -515.95)"/><path class="cls-1" d="M306.87,544.45h1.93v-1.17c0-4.85-2.78-6.55-6.55-6.55a16.33,16.33,0,0,0-8.79,3l-2.36-4.19a19.72,19.72,0,0,1,11.64-3.64c7.82,0,11.95,4.06,11.95,11.82v13.73a1.18,1.18,0,0,0,1,1.33h3.42v4.55H313c-2.73,0-3.82-1.33-3.82-3.33v-.42a7.45,7.45,0,0,1,.24-2h-.12a11.14,11.14,0,0,1-10.13,6.49c-5.09,0-10.18-3-10.18-9.28C289,545.12,301.77,544.45,306.87,544.45Zm-6.43,15c5.21,0,8.42-5.34,8.42-10v-1.27h-1.51c-2.79,0-12.43.13-12.43,6a5.18,5.18,0,0,0,5.52,5.22Z" transform="translate(-92.57 -515.95)"/><path class="cls-1" d="M321.69,558.76h4.61V538.51a1.19,1.19,0,0,0-1-1.33h-4.09v-4.56h6.91c2.67,0,3.94,1.09,3.94,3.57v2a19,19,0,0,1-.12,2.12H332c1.4-4.49,5-8,9.7-8a8.59,8.59,0,0,1,1.52.13v5.81a8.11,8.11,0,0,0-1.7-.18c-6.54,0-9.33,6.61-9.33,12.61v8.12h4.54v4.55H321.69Z" transform="translate(-92.57 -515.95)"/><path class="cls-1" d="M350.94,537.17h-5.15v-4.55h5.27V524.2h5.77v8.42h7.33v4.54h-7.33v14.39c0,6.24,4.24,7,6.54,7,.85,0,1.39-.06,1.39-.06v4.91a14.93,14.93,0,0,1-2.11.12c-3.88,0-11.71-1.21-11.71-11.46Z" transform="translate(-92.57 -515.95)"/><path class="cls-1" d="M149,533.59a15.33,15.33,0,0,0-27.55-11.32,15.57,15.57,0,0,0-2-.16,15.34,15.34,0,0,0-15.33,15.17,13.06,13.06,0,0,0,1.59,26h38A15.33,15.33,0,0,0,149,533.59ZM124.1,554.05h-1.33l-4.66-6.83h-5.34v-7.77h5.34l4.66-6.82h1.33Zm3.54-5.53a5.49,5.49,0,0,0,3.28-7,5.43,5.43,0,0,0-3.28-3.28l1.54-2.24a8.16,8.16,0,0,1,0,14.82Zm5.33,7.8-1.51-2.21a12.19,12.19,0,0,0,5-16.49,12,12,0,0,0-5-5l1.51-2.21a14.85,14.85,0,0,1,0,25.93Z" transform="translate(-92.57 -515.95)"/><path class="cls-1" d="M406,520c7.48,0,16.35,3,16.35,8.39v5.24h-5.55V530.5c0-3.56-5.61-5.31-10.62-5.31-9.95,0-16.22,6.76-16.22,16.53s6.39,17.07,16.4,17.07c3.8,0,11.4-1.15,11.4-5.31v-5.61h-8.32v-4.71h13.87v12c0,6.57-11,8.92-17.37,8.92-13.09,0-22.26-9.53-22.26-22.13S392.7,520,406,520Z" transform="translate(-92.57 -515.95)"/><path class="cls-1" d="M445.84,544.55h1.93v-1.14c0-4.83-2.77-6.52-6.51-6.52a16.22,16.22,0,0,0-8.75,3l-2.35-4.16a19.59,19.59,0,0,1,11.58-3.62c7.78,0,11.88,4,11.88,11.76v13.63a1.19,1.19,0,0,0,1.33,1.33H458v4.52h-6.09c-2.72,0-3.8-1.33-3.8-3.32v-.42a7.42,7.42,0,0,1,.24-2h-.12A11.1,11.1,0,0,1,438.18,564c-5.06,0-10.13-2.95-10.13-9.22C428.05,545.22,440.78,544.55,445.84,544.55Zm-6.39,15c5.19,0,8.38-5.31,8.38-9.89v-1.27h-1.5c-2.78,0-12.37.12-12.37,6A5.15,5.15,0,0,0,439.45,559.51Z" transform="translate(-92.57 -515.95)"/><path class="cls-1" d="M461.33,558.79h4.76V538.58a1.16,1.16,0,0,0-1.32-1.27H461v-4.52h6.87c2.6,0,3.86,1.15,3.86,3.38v1.57a8.62,8.62,0,0,1-.18,1.74h.12c1.51-3.61,5.91-7.41,10.86-7.41s7.9,2.23,8.93,7.17h.12a12.3,12.3,0,0,1,10.91-7.17c6.76,0,10,3.92,10,11.7v15h4.82v4.52H506.63V545c0-4.28-.79-7.66-5.37-7.66-5.73,0-9,5.86-9,11.89v9.53H497v4.52H486.42V545c0-4-.6-7.66-5.31-7.66-5.79,0-9.17,6.16-9.17,12.13v9.29h4.83v4.52H461.33Z" transform="translate(-92.57 -515.95)"/><path class="cls-1" d="M534.22,532.07c8.69,0,13.21,6.39,13.21,14.29,0,.79-.18,2.23-.18,2.23H524.93c.37,6.76,5.13,10.38,10.56,10.38a14.85,14.85,0,0,0,9.11-3.44l2.41,4.28A18.69,18.69,0,0,1,535.13,564c-9.59,0-16.17-6.93-16.17-16C519,538.34,525.54,532.07,534.22,532.07Zm7.18,12.78c-.18-5.37-3.44-8.14-7.3-8.14-4.46,0-8.08,3-8.92,8.14Z" transform="translate(-92.57 -515.95)"/></svg>