<svg xmlns="http://www.w3.org/2000/svg" xmlns:xlink="http://www.w3.org/1999/xlink" width="1400" zoomAndPan="magnify" viewBox="0 0 1050 149.999998" height="200" preserveAspectRatio="xMidYMid meet" version="1.2"><defs><clipPath id="47ba76e31f"><path d="M 0 30.078125 L 126.75 30.078125 L 126.75 120 L 0 120 Z M 0 30.078125 "/></clipPath></defs><g id="cfb086c93b"><g clip-rule="nonzero" clip-path="url(#47ba76e31f)"><path style=" stroke:none;fill-rule:nonzero;fill:#ffffff;fill-opacity:1;" d="M 107.378906 63.5625 C 109.78125 47.640625 98.914062 32.859375 82.992188 30.457031 C 72.253906 28.816406 61.511719 33.363281 55.070312 42.082031 C 53.804688 41.957031 52.542969 41.828125 51.152344 41.828125 C 35.234375 41.828125 22.21875 54.71875 22.09375 70.636719 C 8.574219 72.15625 -1.03125 84.535156 0.484375 98.054688 C 2.003906 110.566406 12.617188 119.914062 25.125 119.914062 L 97.144531 119.914062 C 113.191406 119.914062 126.207031 107.027344 126.332031 90.980469 C 126.332031 78.726562 118.75 67.730469 107.378906 63.5625 Z M 60.125 102.351562 L 57.597656 102.351562 L 48.753906 89.464844 L 38.644531 89.464844 L 38.644531 74.679688 L 48.753906 74.679688 L 57.597656 61.792969 L 60.125 61.792969 Z M 66.820312 91.863281 C 72.253906 89.84375 75.035156 83.90625 73.011719 78.472656 C 72 75.566406 69.726562 73.292969 66.820312 72.28125 L 69.726562 67.984375 C 77.433594 71.523438 80.84375 80.746094 77.308594 88.453125 C 75.792969 91.863281 73.011719 94.519531 69.726562 96.035156 Z M 76.929688 106.648438 L 74.023438 102.480469 C 85.269531 96.414062 89.5625 82.515625 83.5 71.269531 C 81.351562 67.226562 78.066406 63.941406 74.023438 61.792969 L 76.929688 57.625 C 90.449219 65.203125 95.375 82.390625 87.792969 95.910156 C 85.269531 100.332031 81.476562 104.121094 76.929688 106.648438 Z M 76.929688 106.648438 "/></g><g style="fill:#ffffff;fill-opacity:1;"><g transform="translate(154.560336, 118.342041)"><path style="stroke:none" d="M 6.28125 0 L 6.28125 -9.234375 L 16.703125 -9.234375 L 16.703125 -74.484375 L 6.28125 -74.484375 L 6.28125 -83.609375 L 28.421875 -83.609375 L 69.515625 -23.6875 C 70.222656 -22.5 70.875 -21.191406 71.46875 -19.765625 C 72.0625 -18.347656 72.359375 -17.640625 72.359375 -17.640625 L 72.71875 -17.640625 C 72.71875 -17.640625 72.617188 -18.445312 72.421875 -20.0625 C 72.222656 -21.6875 72.125 -23.128906 72.125 -24.390625 L 72.125 -74.484375 L 61.453125 -74.484375 L 61.453125 -83.609375 L 94.5 -83.609375 L 94.5 -74.484375 L 83.96875 -74.484375 L 83.96875 0 L 72.359375 0 L 31.265625 -59.921875 C 30.472656 -61.109375 29.800781 -62.410156 29.25 -63.828125 C 28.695312 -65.253906 28.421875 -65.96875 28.421875 -65.96875 L 28.0625 -65.96875 C 28.0625 -65.96875 28.160156 -65.175781 28.359375 -63.59375 C 28.554688 -62.007812 28.617188 -60.546875 28.546875 -59.203125 L 28.546875 -9.234375 L 39.3125 -9.234375 L 39.3125 0 Z M 6.28125 0 "/></g></g><g style="fill:#ffffff;fill-opacity:1;"><g transform="translate(256.390053, 118.342041)"><path style="stroke:none" d="M 12.4375 -21.546875 L 12.4375 -51.046875 L 2.375 -51.046875 L 2.375 -59.921875 L 23.921875 -59.921875 L 23.921875 -23.921875 C 23.921875 -21.160156 24.195312 -18.65625 24.75 -16.40625 C 25.300781 -14.15625 26.382812 -12.359375 28 -11.015625 C 29.625 -9.671875 32.015625 -9 35.171875 -9 C 39.191406 -9 42.644531 -10.125 45.53125 -12.375 C 48.414062 -14.625 50.644531 -17.523438 52.21875 -21.078125 C 53.800781 -24.628906 54.59375 -28.378906 54.59375 -32.328125 L 54.59375 -51.046875 L 44.53125 -51.046875 L 44.53125 -59.921875 L 66.078125 -59.921875 L 66.078125 -11.375 C 66.078125 -9.632812 66.945312 -8.765625 68.6875 -8.765625 L 74.96875 -8.765625 L 74.96875 0 L 62.53125 0 C 57.476562 0 54.953125 -2.207031 54.953125 -6.625 L 54.953125 -9.234375 C 54.953125 -10.265625 54.988281 -11.113281 55.0625 -11.78125 C 55.144531 -12.457031 55.1875 -12.796875 55.1875 -12.796875 L 54.953125 -12.796875 C 54.628906 -12.003906 53.953125 -10.835938 52.921875 -9.296875 C 51.898438 -7.753906 50.484375 -6.15625 48.671875 -4.5 C 46.859375 -2.84375 44.566406 -1.441406 41.796875 -0.296875 C 39.035156 0.847656 35.800781 1.421875 32.09375 1.421875 C 25.613281 1.421875 20.71875 -0.429688 17.40625 -4.140625 C 14.09375 -7.847656 12.4375 -13.648438 12.4375 -21.546875 Z M 12.4375 -21.546875 "/></g></g><g style="fill:#ffffff;fill-opacity:1;"><g transform="translate(337.735488, 118.342041)"><path style="stroke:none" d="M 10.0625 0 L 10.0625 -74.71875 L 0 -74.71875 L 0 -83.609375 L 21.546875 -83.609375 L 21.546875 -55.890625 C 21.546875 -54.472656 21.488281 -53.289062 21.375 -52.34375 C 21.257812 -51.394531 21.203125 -50.921875 21.203125 -50.921875 L 21.4375 -50.921875 C 21.4375 -50.921875 21.789062 -51.453125 22.5 -52.515625 C 23.207031 -53.585938 24.332031 -54.789062 25.875 -56.125 C 27.414062 -57.46875 29.410156 -58.671875 31.859375 -59.734375 C 34.304688 -60.804688 37.265625 -61.34375 40.734375 -61.34375 C 46.179688 -61.34375 50.878906 -60.019531 54.828125 -57.375 C 58.773438 -54.726562 61.8125 -51.054688 63.9375 -46.359375 C 66.070312 -41.660156 67.140625 -36.191406 67.140625 -29.953125 C 67.140625 -23.640625 65.957031 -18.113281 63.59375 -13.375 C 61.226562 -8.644531 57.988281 -4.992188 53.875 -2.421875 C 49.769531 0.140625 45.078125 1.421875 39.796875 1.421875 C 36.316406 1.421875 33.375 0.867188 30.96875 -0.234375 C 28.5625 -1.335938 26.609375 -2.597656 25.109375 -4.015625 C 23.609375 -5.441406 22.519531 -6.707031 21.84375 -7.8125 C 21.175781 -8.914062 20.84375 -9.46875 20.84375 -9.46875 L 20.609375 -9.46875 C 20.609375 -9.46875 20.664062 -9.015625 20.78125 -8.109375 C 20.894531 -7.203125 20.953125 -6.078125 20.953125 -4.734375 L 20.953125 0 Z M 21.203125 -29.71875 C 21.203125 -26.164062 21.832031 -22.769531 23.09375 -19.53125 C 24.351562 -16.300781 26.242188 -13.660156 28.765625 -11.609375 C 31.296875 -9.554688 34.457031 -8.53125 38.25 -8.53125 C 41.40625 -8.53125 44.265625 -9.359375 46.828125 -11.015625 C 49.398438 -12.671875 51.472656 -15.097656 53.046875 -18.296875 C 54.628906 -21.492188 55.421875 -25.34375 55.421875 -29.84375 C 55.421875 -36.394531 53.84375 -41.601562 50.6875 -45.46875 C 47.53125 -49.34375 43.460938 -51.28125 38.484375 -51.28125 C 35.566406 -51.28125 32.785156 -50.546875 30.140625 -49.078125 C 27.492188 -47.617188 25.34375 -45.3125 23.6875 -42.15625 C 22.03125 -39 21.203125 -34.851562 21.203125 -29.71875 Z M 21.203125 -29.71875 "/></g></g><g style="fill:#ffffff;fill-opacity:1;"><g transform="translate(412.450182, 118.342041)"><path style="stroke:none" d="M 3.90625 -16.703125 C 3.90625 -20.484375 4.773438 -23.597656 6.515625 -26.046875 C 8.253906 -28.492188 10.523438 -30.445312 13.328125 -31.90625 C 16.128906 -33.375 19.109375 -34.460938 22.265625 -35.171875 C 25.421875 -35.878906 28.476562 -36.332031 31.4375 -36.53125 C 34.394531 -36.726562 36.863281 -36.828125 38.84375 -36.828125 L 42.625 -36.828125 L 42.625 -39.078125 C 42.625 -43.816406 41.421875 -47.132812 39.015625 -49.03125 C 36.609375 -50.925781 33.550781 -51.875 29.84375 -51.875 C 26.6875 -51.875 23.804688 -51.398438 21.203125 -50.453125 C 18.597656 -49.503906 16.523438 -48.535156 14.984375 -47.546875 C 13.441406 -46.554688 12.671875 -46.0625 12.671875 -46.0625 L 8.046875 -54.234375 C 8.046875 -54.234375 8.972656 -54.828125 10.828125 -56.015625 C 12.691406 -57.203125 15.316406 -58.382812 18.703125 -59.5625 C 22.097656 -60.75 26.128906 -61.34375 30.796875 -61.34375 C 38.453125 -61.34375 44.253906 -59.390625 48.203125 -55.484375 C 52.148438 -51.578125 54.125 -45.832031 54.125 -38.25 L 54.125 -11.484375 C 54.125 -9.742188 54.988281 -8.875 56.71875 -8.875 L 62.765625 -8.875 L 62.765625 0 L 50.796875 0 C 48.117188 0 46.207031 -0.585938 45.0625 -1.765625 C 43.914062 -2.953125 43.34375 -4.535156 43.34375 -6.515625 L 43.34375 -7.34375 C 43.34375 -8.53125 43.421875 -9.476562 43.578125 -10.1875 C 43.734375 -10.894531 43.8125 -11.25 43.8125 -11.25 L 43.578125 -11.25 C 43.578125 -11.25 43.222656 -10.613281 42.515625 -9.34375 C 41.804688 -8.082031 40.679688 -6.601562 39.140625 -4.90625 C 37.597656 -3.21875 35.5625 -1.738281 33.03125 -0.46875 C 30.507812 0.789062 27.429688 1.421875 23.796875 1.421875 C 20.484375 1.421875 17.304688 0.769531 14.265625 -0.53125 C 11.222656 -1.832031 8.734375 -3.828125 6.796875 -6.515625 C 4.867188 -9.203125 3.90625 -12.597656 3.90625 -16.703125 Z M 15.515625 -17.640625 C 15.515625 -14.960938 16.460938 -12.59375 18.359375 -10.53125 C 20.253906 -8.476562 22.898438 -7.453125 26.296875 -7.453125 C 29.679688 -7.453125 32.597656 -8.4375 35.046875 -10.40625 C 37.492188 -12.382812 39.390625 -14.875 40.734375 -17.875 C 42.078125 -20.875 42.75 -23.875 42.75 -26.875 L 42.75 -29.375 L 39.796875 -29.375 C 38.679688 -29.375 37.15625 -29.332031 35.21875 -29.25 C 33.289062 -29.164062 31.203125 -28.925781 28.953125 -28.53125 C 26.703125 -28.144531 24.550781 -27.535156 22.5 -26.703125 C 20.445312 -25.867188 18.769531 -24.722656 17.46875 -23.265625 C 16.164062 -21.804688 15.515625 -19.929688 15.515625 -17.640625 Z M 15.515625 -17.640625 "/></g></g><g style="fill:#ffffff;fill-opacity:1;"><g transform="translate(480.770903, 118.342041)"><path style="stroke:none" d="M 5.921875 0 L 5.921875 -8.875 L 14.921875 -8.875 L 14.921875 -48.4375 C 14.921875 -50.175781 14.050781 -51.046875 12.3125 -51.046875 L 4.859375 -51.046875 L 4.859375 -59.921875 L 18.359375 -59.921875 C 23.484375 -59.921875 26.046875 -57.59375 26.046875 -52.9375 L 26.046875 -49.140625 C 26.046875 -47.960938 26.003906 -46.976562 25.921875 -46.1875 C 25.847656 -45.394531 25.8125 -45 25.8125 -45 L 26.046875 -45 C 27.390625 -49.414062 29.738281 -53.125 33.09375 -56.125 C 36.445312 -59.125 40.414062 -60.625 45 -60.625 C 45.789062 -60.625 46.476562 -60.582031 47.0625 -60.5 C 47.65625 -60.425781 47.953125 -60.390625 47.953125 -60.390625 L 47.953125 -49.03125 C 47.953125 -49.03125 47.632812 -49.085938 47 -49.203125 C 46.375 -49.316406 45.585938 -49.375 44.640625 -49.375 C 40.378906 -49.375 36.90625 -48.128906 34.21875 -45.640625 C 31.539062 -43.160156 29.566406 -40.046875 28.296875 -36.296875 C 27.035156 -32.546875 26.40625 -28.695312 26.40625 -24.75 L 26.40625 -8.875 L 35.296875 -8.875 L 35.296875 0 Z M 5.921875 0 "/></g></g><g style="fill:#ffffff;fill-opacity:1;"><g transform="translate(533.462016, 118.342041)"><path style="stroke:none" d="M 12.203125 -21.90625 L 12.203125 -51.046875 L 2.125 -51.046875 L 2.125 -59.921875 L 12.4375 -59.921875 L 12.4375 -76.375 L 23.6875 -76.375 L 23.6875 -59.921875 L 38.015625 -59.921875 L 38.015625 -51.046875 L 23.6875 -51.046875 L 23.6875 -22.96875 C 23.6875 -18.945312 24.4375 -15.945312 25.9375 -13.96875 C 27.4375 -12 29.191406 -10.71875 31.203125 -10.125 C 33.210938 -9.53125 34.96875 -9.234375 36.46875 -9.234375 C 37.34375 -9.234375 38.015625 -9.253906 38.484375 -9.296875 C 38.960938 -9.335938 39.203125 -9.359375 39.203125 -9.359375 L 39.203125 0.234375 C 39.203125 0.234375 38.828125 0.269531 38.078125 0.34375 C 37.328125 0.425781 36.316406 0.46875 35.046875 0.46875 C 33.148438 0.46875 30.921875 0.234375 28.359375 -0.234375 C 25.796875 -0.710938 23.269531 -1.703125 20.78125 -3.203125 C 18.289062 -4.703125 16.238281 -6.953125 14.625 -9.953125 C 13.007812 -12.953125 12.203125 -16.9375 12.203125 -21.90625 Z M 12.203125 -21.90625 "/></g></g><g style="fill:#ffffff;fill-opacity:1;"><g transform="translate(578.69355, 118.342041)"><path style="stroke:none" d=""/></g></g><g style="fill:#ffffff;fill-opacity:1;"><g transform="translate(610.900336, 118.342041)"><path style="stroke:none" d="M 4.5 0 L 4.5 -9.234375 L 14.921875 -9.234375 L 20.25 -74.484375 L 9.59375 -74.484375 L 9.59375 -83.609375 L 33.28125 -83.609375 L 54.703125 -32.6875 C 55.335938 -30.945312 55.8125 -29.503906 56.125 -28.359375 C 56.445312 -27.210938 56.609375 -26.640625 56.609375 -26.640625 L 56.84375 -26.640625 C 56.84375 -26.640625 57 -27.210938 57.3125 -28.359375 C 57.632812 -29.503906 58.109375 -30.945312 58.734375 -32.6875 L 80.171875 -83.609375 L 103.859375 -83.609375 L 103.859375 -74.484375 L 93.203125 -74.484375 L 98.53125 -9.234375 L 108.953125 -9.234375 L 108.953125 0 L 76.734375 0 L 76.734375 -9.234375 L 86.796875 -9.234375 L 83.015625 -59.203125 C 82.929688 -60.546875 82.96875 -62.023438 83.125 -63.640625 C 83.289062 -65.265625 83.375 -66.078125 83.375 -66.078125 L 83.015625 -66.078125 C 83.015625 -66.078125 82.816406 -65.304688 82.421875 -63.765625 C 82.023438 -62.222656 81.59375 -60.863281 81.125 -59.6875 L 61.9375 -15.75 L 51.515625 -15.75 L 32.328125 -59.6875 C 31.859375 -60.863281 31.425781 -62.222656 31.03125 -63.765625 C 30.632812 -65.304688 30.4375 -66.078125 30.4375 -66.078125 L 30.078125 -66.078125 C 30.078125 -66.078125 30.15625 -65.265625 30.3125 -63.640625 C 30.46875 -62.023438 30.507812 -60.546875 30.4375 -59.203125 L 26.640625 -9.234375 L 36.703125 -9.234375 L 36.703125 0 Z M 4.5 0 "/></g></g><g style="fill:#ffffff;fill-opacity:1;"><g transform="translate(726.938843, 118.342041)"><path style="stroke:none" d="M 4.734375 -30.078125 C 4.734375 -36.160156 6.191406 -41.550781 9.109375 -46.25 C 12.035156 -50.945312 15.945312 -54.632812 20.84375 -57.3125 C 25.738281 -60 31.144531 -61.34375 37.0625 -61.34375 C 43.0625 -61.34375 48.488281 -60 53.34375 -57.3125 C 58.195312 -54.632812 62.082031 -50.945312 65 -46.25 C 67.925781 -41.550781 69.390625 -36.160156 69.390625 -30.078125 C 69.390625 -23.992188 67.925781 -18.582031 65 -13.84375 C 62.082031 -9.113281 58.195312 -5.382812 53.34375 -2.65625 C 48.488281 0.0625 43.0625 1.421875 37.0625 1.421875 C 31.144531 1.421875 25.738281 0.0625 20.84375 -2.65625 C 15.945312 -5.382812 12.035156 -9.113281 9.109375 -13.84375 C 6.191406 -18.582031 4.734375 -23.992188 4.734375 -30.078125 Z M 16.453125 -30.078125 C 16.453125 -25.890625 17.378906 -22.175781 19.234375 -18.9375 C 21.097656 -15.707031 23.585938 -13.164062 26.703125 -11.3125 C 29.816406 -9.457031 33.269531 -8.53125 37.0625 -8.53125 C 40.851562 -8.53125 44.304688 -9.457031 47.421875 -11.3125 C 50.546875 -13.164062 53.035156 -15.707031 54.890625 -18.9375 C 56.742188 -22.175781 57.671875 -25.890625 57.671875 -30.078125 C 57.671875 -34.265625 56.742188 -37.957031 54.890625 -41.15625 C 53.035156 -44.351562 50.546875 -46.859375 47.421875 -48.671875 C 44.304688 -50.484375 40.851562 -51.390625 37.0625 -51.390625 C 33.269531 -51.390625 29.816406 -50.484375 26.703125 -48.671875 C 23.585938 -46.859375 21.097656 -44.351562 19.234375 -41.15625 C 17.378906 -37.957031 16.453125 -34.265625 16.453125 -30.078125 Z M 16.453125 -30.078125 "/></g></g><g style="fill:#ffffff;fill-opacity:1;"><g transform="translate(803.666438, 118.342041)"><path style="stroke:none" d="M 12.203125 -21.90625 L 12.203125 -51.046875 L 2.125 -51.046875 L 2.125 -59.921875 L 12.4375 -59.921875 L 12.4375 -76.375 L 23.6875 -76.375 L 23.6875 -59.921875 L 38.015625 -59.921875 L 38.015625 -51.046875 L 23.6875 -51.046875 L 23.6875 -22.96875 C 23.6875 -18.945312 24.4375 -15.945312 25.9375 -13.96875 C 27.4375 -12 29.191406 -10.71875 31.203125 -10.125 C 33.210938 -9.53125 34.96875 -9.234375 36.46875 -9.234375 C 37.34375 -9.234375 38.015625 -9.253906 38.484375 -9.296875 C 38.960938 -9.335938 39.203125 -9.359375 39.203125 -9.359375 L 39.203125 0.234375 C 39.203125 0.234375 38.828125 0.269531 38.078125 0.34375 C 37.328125 0.425781 36.316406 0.46875 35.046875 0.46875 C 33.148438 0.46875 30.921875 0.234375 28.359375 -0.234375 C 25.796875 -0.710938 23.269531 -1.703125 20.78125 -3.203125 C 18.289062 -4.703125 16.238281 -6.953125 14.625 -9.953125 C 13.007812 -12.953125 12.203125 -16.9375 12.203125 -21.90625 Z M 12.203125 -21.90625 "/></g></g><g style="fill:#ffffff;fill-opacity:1;"><g transform="translate(848.897927, 118.342041)"><path style="stroke:none" d="M 14.796875 -71.875 L 14.796875 -83.609375 L 26.875 -83.609375 L 26.875 -71.875 Z M 5.6875 0 L 5.6875 -8.875 L 15.046875 -8.875 L 15.046875 -51.046875 L 5.09375 -51.046875 L 5.09375 -59.921875 L 26.53125 -59.921875 L 26.53125 -8.875 L 36 -8.875 L 36 0 Z M 5.6875 0 "/></g></g><g style="fill:#ffffff;fill-opacity:1;"><g transform="translate(891.28771, 118.342041)"><path style="stroke:none" d="M 4.734375 -30.078125 C 4.734375 -36.160156 6.191406 -41.550781 9.109375 -46.25 C 12.035156 -50.945312 15.945312 -54.632812 20.84375 -57.3125 C 25.738281 -60 31.144531 -61.34375 37.0625 -61.34375 C 43.0625 -61.34375 48.488281 -60 53.34375 -57.3125 C 58.195312 -54.632812 62.082031 -50.945312 65 -46.25 C 67.925781 -41.550781 69.390625 -36.160156 69.390625 -30.078125 C 69.390625 -23.992188 67.925781 -18.582031 65 -13.84375 C 62.082031 -9.113281 58.195312 -5.382812 53.34375 -2.65625 C 48.488281 0.0625 43.0625 1.421875 37.0625 1.421875 C 31.144531 1.421875 25.738281 0.0625 20.84375 -2.65625 C 15.945312 -5.382812 12.035156 -9.113281 9.109375 -13.84375 C 6.191406 -18.582031 4.734375 -23.992188 4.734375 -30.078125 Z M 16.453125 -30.078125 C 16.453125 -25.890625 17.378906 -22.175781 19.234375 -18.9375 C 21.097656 -15.707031 23.585938 -13.164062 26.703125 -11.3125 C 29.816406 -9.457031 33.269531 -8.53125 37.0625 -8.53125 C 40.851562 -8.53125 44.304688 -9.457031 47.421875 -11.3125 C 50.546875 -13.164062 53.035156 -15.707031 54.890625 -18.9375 C 56.742188 -22.175781 57.671875 -25.890625 57.671875 -30.078125 C 57.671875 -34.265625 56.742188 -37.957031 54.890625 -41.15625 C 53.035156 -44.351562 50.546875 -46.859375 47.421875 -48.671875 C 44.304688 -50.484375 40.851562 -51.390625 37.0625 -51.390625 C 33.269531 -51.390625 29.816406 -50.484375 26.703125 -48.671875 C 23.585938 -46.859375 21.097656 -44.351562 19.234375 -41.15625 C 17.378906 -37.957031 16.453125 -34.265625 16.453125 -30.078125 Z M 16.453125 -30.078125 "/></g></g><g style="fill:#ffffff;fill-opacity:1;"><g transform="translate(968.015306, 118.342041)"><path style="stroke:none" d="M 5.6875 0 L 5.6875 -8.875 L 15.046875 -8.875 L 15.046875 -48.4375 C 15.046875 -50.175781 14.175781 -51.046875 12.4375 -51.046875 L 5.09375 -51.046875 L 5.09375 -59.921875 L 18.59375 -59.921875 C 23.644531 -59.921875 26.171875 -57.710938 26.171875 -53.296875 L 26.171875 -50.203125 C 26.171875 -49.265625 26.109375 -48.457031 25.984375 -47.78125 C 25.867188 -47.113281 25.8125 -46.78125 25.8125 -46.78125 L 26.046875 -46.78125 C 26.367188 -47.5625 27.039062 -48.742188 28.0625 -50.328125 C 29.09375 -51.910156 30.554688 -53.550781 32.453125 -55.25 C 34.347656 -56.945312 36.695312 -58.382812 39.5 -59.5625 C 42.300781 -60.75 45.59375 -61.34375 49.375 -61.34375 C 56.25 -61.34375 61.285156 -59.425781 64.484375 -55.59375 C 67.679688 -51.769531 69.28125 -46.03125 69.28125 -38.375 L 69.28125 -8.875 L 78.75 -8.875 L 78.75 0 L 57.796875 0 L 57.796875 -35.765625 C 57.796875 -38.609375 57.515625 -41.15625 56.953125 -43.40625 C 56.398438 -45.65625 55.332031 -47.445312 53.75 -48.78125 C 52.175781 -50.125 49.773438 -50.796875 46.546875 -50.796875 C 42.515625 -50.796875 39 -49.710938 36 -47.546875 C 33 -45.378906 30.671875 -42.554688 29.015625 -39.078125 C 27.359375 -35.609375 26.53125 -31.859375 26.53125 -27.828125 L 26.53125 -8.875 L 36 -8.875 L 36 0 Z M 5.6875 0 "/></g></g></g></svg>