<svg xmlns="http://www.w3.org/2000/svg" xmlns:xlink="http://www.w3.org/1999/xlink" width="1400" zoomAndPan="magnify" viewBox="0 0 1050 149.999998" height="200" preserveAspectRatio="xMidYMid meet" version="1.2"><defs><clipPath id="7e26813cf8"><path d="M 1 24.101562 L 144.203125 24.101562 L 144.203125 126 L 1 126 Z M 1 24.101562 "/></clipPath><clipPath id="38a84b0449"><rect x="0" width="870" y="0" height="144"/></clipPath></defs><g id="4bca4874ef"><g clip-rule="nonzero" clip-path="url(#7e26813cf8)"><path style=" stroke:none;fill-rule:nonzero;fill:#ffffff;fill-opacity:1;" d="M 122.625 62.039062 C 125.34375 44 113.03125 27.25 94.996094 24.53125 C 82.824219 22.667969 70.65625 27.824219 63.355469 37.699219 C 61.921875 37.558594 60.492188 37.414062 58.917969 37.414062 C 40.878906 37.414062 26.132812 52.015625 25.988281 70.054688 C 10.671875 71.773438 -0.210938 85.804688 1.507812 101.121094 C 3.226562 115.296875 15.253906 125.890625 29.425781 125.890625 L 111.027344 125.890625 C 129.210938 125.890625 143.957031 111.285156 144.097656 93.105469 C 144.097656 79.21875 135.507812 66.761719 122.625 62.039062 Z M 69.082031 105.988281 L 66.21875 105.988281 L 56.195312 91.386719 L 44.742188 91.386719 L 44.742188 74.636719 L 56.195312 74.636719 L 66.21875 60.035156 L 69.082031 60.035156 Z M 76.667969 94.105469 C 82.824219 91.816406 85.976562 85.089844 83.683594 78.933594 C 82.539062 75.640625 79.960938 73.0625 76.667969 71.917969 L 79.960938 67.050781 C 88.695312 71.058594 92.558594 81.507812 88.550781 90.242188 C 86.832031 94.105469 83.683594 97.113281 79.960938 98.832031 Z M 88.121094 110.855469 L 84.828125 106.132812 C 97.570312 99.261719 102.4375 83.511719 95.566406 70.773438 C 93.132812 66.191406 89.410156 62.46875 84.828125 60.035156 L 88.121094 55.308594 C 103.441406 63.898438 109.023438 83.371094 100.433594 98.6875 C 97.570312 103.699219 93.277344 107.992188 88.121094 110.855469 Z M 88.121094 110.855469 "/></g><g transform="matrix(1,0,0,1,169,6)"><g clip-path="url(#38a84b0449)"><g style="fill:#ffffff;fill-opacity:1;"><g transform="translate(1.085804, 118.710431)"><path style="stroke:none" d="M 6.65625 0 L 6.65625 -9.78125 L 17.703125 -9.78125 L 17.703125 -78.9375 L 6.65625 -78.9375 L 6.65625 -88.609375 L 30.125 -88.609375 L 73.671875 -25.09375 C 74.421875 -23.84375 75.109375 -22.460938 75.734375 -20.953125 C 76.367188 -19.453125 76.6875 -18.703125 76.6875 -18.703125 L 77.0625 -18.703125 C 77.0625 -18.703125 76.953125 -19.554688 76.734375 -21.265625 C 76.523438 -22.984375 76.421875 -24.515625 76.421875 -25.859375 L 76.421875 -78.9375 L 65.140625 -78.9375 L 65.140625 -88.609375 L 100.15625 -88.609375 L 100.15625 -78.9375 L 88.984375 -78.9375 L 88.984375 0 L 76.6875 0 L 33.125 -63.5 C 32.289062 -64.757812 31.582031 -66.140625 31 -67.640625 C 30.414062 -69.148438 30.125 -69.90625 30.125 -69.90625 L 29.75 -69.90625 C 29.75 -69.90625 29.851562 -69.066406 30.0625 -67.390625 C 30.269531 -65.722656 30.332031 -64.175781 30.25 -62.75 L 30.25 -9.78125 L 41.671875 -9.78125 L 41.671875 0 Z M 6.65625 0 "/></g></g><g style="fill:#ffffff;fill-opacity:1;"><g transform="translate(109.001058, 118.710431)"><path style="stroke:none" d="M 13.171875 -22.84375 L 13.171875 -54.09375 L 2.515625 -54.09375 L 2.515625 -63.5 L 25.34375 -63.5 L 25.34375 -25.34375 C 25.34375 -22.414062 25.632812 -19.757812 26.21875 -17.375 C 26.8125 -15 27.960938 -13.097656 29.671875 -11.671875 C 31.390625 -10.242188 33.925781 -9.53125 37.28125 -9.53125 C 41.539062 -9.53125 45.195312 -10.722656 48.25 -13.109375 C 51.300781 -15.492188 53.664062 -18.566406 55.34375 -22.328125 C 57.019531 -26.097656 57.859375 -30.078125 57.859375 -34.265625 L 57.859375 -54.09375 L 47.1875 -54.09375 L 47.1875 -63.5 L 70.03125 -63.5 L 70.03125 -12.046875 C 70.03125 -10.203125 70.953125 -9.28125 72.796875 -9.28125 L 79.4375 -9.28125 L 79.4375 0 L 66.265625 0 C 60.910156 0 58.234375 -2.34375 58.234375 -7.03125 L 58.234375 -9.78125 C 58.234375 -10.875 58.273438 -11.773438 58.359375 -12.484375 C 58.441406 -13.191406 58.484375 -13.546875 58.484375 -13.546875 L 58.234375 -13.546875 C 57.898438 -12.710938 57.1875 -11.476562 56.09375 -9.84375 C 55.007812 -8.21875 53.503906 -6.523438 51.578125 -4.765625 C 49.648438 -3.015625 47.222656 -1.53125 44.296875 -0.3125 C 41.367188 0.894531 37.941406 1.5 34.015625 1.5 C 27.148438 1.5 21.957031 -0.460938 18.4375 -4.390625 C 14.925781 -8.328125 13.171875 -14.476562 13.171875 -22.84375 Z M 13.171875 -22.84375 "/></g></g><g style="fill:#ffffff;fill-opacity:1;"><g transform="translate(195.207843, 118.710431)"><path style="stroke:none" d="M 10.671875 0 L 10.671875 -79.1875 L 0 -79.1875 L 0 -88.609375 L 22.84375 -88.609375 L 22.84375 -59.234375 C 22.84375 -57.734375 22.78125 -56.476562 22.65625 -55.46875 C 22.53125 -54.46875 22.46875 -53.96875 22.46875 -53.96875 L 22.71875 -53.96875 C 22.71875 -53.96875 23.09375 -54.53125 23.84375 -55.65625 C 24.59375 -56.789062 25.785156 -58.066406 27.421875 -59.484375 C 29.054688 -60.910156 31.171875 -62.1875 33.765625 -63.3125 C 36.359375 -64.445312 39.492188 -65.015625 43.171875 -65.015625 C 48.941406 -65.015625 53.914062 -63.609375 58.09375 -60.796875 C 62.28125 -57.992188 65.503906 -54.101562 67.765625 -49.125 C 70.023438 -44.15625 71.15625 -38.363281 71.15625 -31.75 C 71.15625 -25.0625 69.898438 -19.207031 67.390625 -14.1875 C 64.878906 -9.164062 61.445312 -5.296875 57.09375 -2.578125 C 52.75 0.140625 47.773438 1.5 42.171875 1.5 C 38.484375 1.5 35.363281 0.914062 32.8125 -0.25 C 30.257812 -1.425781 28.1875 -2.765625 26.59375 -4.265625 C 25.007812 -5.773438 23.863281 -7.113281 23.15625 -8.28125 C 22.445312 -9.457031 22.09375 -10.046875 22.09375 -10.046875 L 21.84375 -10.046875 C 21.84375 -10.046875 21.90625 -9.5625 22.03125 -8.59375 C 22.15625 -7.632812 22.21875 -6.441406 22.21875 -5.015625 L 22.21875 0 Z M 22.46875 -31.5 C 22.46875 -27.738281 23.132812 -24.140625 24.46875 -20.703125 C 25.8125 -17.273438 27.820312 -14.472656 30.5 -12.296875 C 33.175781 -10.117188 36.519531 -9.03125 40.53125 -9.03125 C 43.882812 -9.03125 46.921875 -9.910156 49.640625 -11.671875 C 52.359375 -13.429688 54.550781 -16.003906 56.21875 -19.390625 C 57.894531 -22.773438 58.734375 -26.851562 58.734375 -31.625 C 58.734375 -38.570312 57.054688 -44.09375 53.703125 -48.1875 C 50.359375 -52.289062 46.050781 -54.34375 40.78125 -54.34375 C 37.6875 -54.34375 34.738281 -53.566406 31.9375 -52.015625 C 29.132812 -50.472656 26.851562 -48.023438 25.09375 -44.671875 C 23.34375 -41.328125 22.46875 -36.9375 22.46875 -31.5 Z M 22.46875 -31.5 "/></g></g><g style="fill:#ffffff;fill-opacity:1;"><g transform="translate(274.387595, 118.710431)"><path style="stroke:none" d="M 4.140625 -17.703125 C 4.140625 -21.710938 5.054688 -25.015625 6.890625 -27.609375 C 8.734375 -30.203125 11.140625 -32.269531 14.109375 -33.8125 C 17.085938 -35.363281 20.25 -36.515625 23.59375 -37.265625 C 26.9375 -38.023438 30.175781 -38.507812 33.3125 -38.71875 C 36.457031 -38.925781 39.070312 -39.03125 41.15625 -39.03125 L 45.1875 -39.03125 L 45.1875 -41.421875 C 45.1875 -46.429688 43.910156 -49.941406 41.359375 -51.953125 C 38.804688 -53.960938 35.5625 -54.96875 31.625 -54.96875 C 28.28125 -54.96875 25.226562 -54.460938 22.46875 -53.453125 C 19.707031 -52.453125 17.507812 -51.425781 15.875 -50.375 C 14.238281 -49.332031 13.421875 -48.8125 13.421875 -48.8125 L 8.53125 -57.484375 C 8.53125 -57.484375 9.515625 -58.109375 11.484375 -59.359375 C 13.453125 -60.617188 16.234375 -61.875 19.828125 -63.125 C 23.421875 -64.382812 27.6875 -65.015625 32.625 -65.015625 C 40.738281 -65.015625 46.890625 -62.941406 51.078125 -58.796875 C 55.265625 -54.648438 57.359375 -48.5625 57.359375 -40.53125 L 57.359375 -12.171875 C 57.359375 -10.328125 58.273438 -9.40625 60.109375 -9.40625 L 66.515625 -9.40625 L 66.515625 0 L 53.84375 0 C 51 0 48.96875 -0.625 47.75 -1.875 C 46.539062 -3.132812 45.9375 -4.8125 45.9375 -6.90625 L 45.9375 -7.78125 C 45.9375 -9.03125 46.019531 -10.03125 46.1875 -10.78125 C 46.351562 -11.539062 46.4375 -11.921875 46.4375 -11.921875 L 46.1875 -11.921875 C 46.1875 -11.921875 45.804688 -11.25 45.046875 -9.90625 C 44.296875 -8.570312 43.101562 -7.003906 41.46875 -5.203125 C 39.84375 -3.410156 37.691406 -1.84375 35.015625 -0.5 C 32.335938 0.832031 29.070312 1.5 25.21875 1.5 C 21.707031 1.5 18.34375 0.8125 15.125 -0.5625 C 11.90625 -1.945312 9.269531 -4.0625 7.21875 -6.90625 C 5.164062 -9.75 4.140625 -13.347656 4.140625 -17.703125 Z M 16.4375 -18.703125 C 16.4375 -15.859375 17.441406 -13.347656 19.453125 -11.171875 C 21.460938 -8.992188 24.265625 -7.90625 27.859375 -7.90625 C 31.453125 -7.90625 34.546875 -8.953125 37.140625 -11.046875 C 39.734375 -13.140625 41.742188 -15.773438 43.171875 -18.953125 C 44.597656 -22.128906 45.3125 -25.304688 45.3125 -28.484375 L 45.3125 -31.125 L 42.171875 -31.125 C 40.992188 -31.125 39.378906 -31.082031 37.328125 -31 C 35.285156 -30.914062 33.070312 -30.664062 30.6875 -30.25 C 28.300781 -29.832031 26.019531 -29.179688 23.84375 -28.296875 C 21.664062 -27.421875 19.882812 -26.207031 18.5 -24.65625 C 17.125 -23.113281 16.4375 -21.128906 16.4375 -18.703125 Z M 16.4375 -18.703125 "/></g></g><g style="fill:#ffffff;fill-opacity:1;"><g transform="translate(346.791305, 118.710431)"><path style="stroke:none" d="M 6.28125 0 L 6.28125 -9.40625 L 15.8125 -9.40625 L 15.8125 -51.328125 C 15.8125 -53.171875 14.890625 -54.09375 13.046875 -54.09375 L 5.140625 -54.09375 L 5.140625 -63.5 L 19.453125 -63.5 C 24.890625 -63.5 27.609375 -61.03125 27.609375 -56.09375 L 27.609375 -52.078125 C 27.609375 -50.828125 27.566406 -49.78125 27.484375 -48.9375 C 27.398438 -48.101562 27.359375 -47.6875 27.359375 -47.6875 L 27.609375 -47.6875 C 29.035156 -52.375 31.523438 -56.304688 35.078125 -59.484375 C 38.628906 -62.660156 42.832031 -64.25 47.6875 -64.25 C 48.519531 -64.25 49.25 -64.207031 49.875 -64.125 C 50.507812 -64.039062 50.828125 -64 50.828125 -64 L 50.828125 -51.953125 C 50.828125 -51.953125 50.488281 -52.015625 49.8125 -52.140625 C 49.144531 -52.265625 48.3125 -52.328125 47.3125 -52.328125 C 42.789062 -52.328125 39.109375 -51.007812 36.265625 -48.375 C 33.421875 -45.738281 31.328125 -42.429688 29.984375 -38.453125 C 28.648438 -34.484375 27.984375 -30.410156 27.984375 -26.234375 L 27.984375 -9.40625 L 37.40625 -9.40625 L 37.40625 0 Z M 6.28125 0 "/></g></g><g style="fill:#ffffff;fill-opacity:1;"><g transform="translate(402.63134, 118.710431)"><path style="stroke:none" d="M 12.921875 -23.21875 L 12.921875 -54.09375 L 2.265625 -54.09375 L 2.265625 -63.5 L 13.171875 -63.5 L 13.171875 -80.953125 L 25.09375 -80.953125 L 25.09375 -63.5 L 40.28125 -63.5 L 40.28125 -54.09375 L 25.09375 -54.09375 L 25.09375 -24.34375 C 25.09375 -20.082031 25.890625 -16.90625 27.484375 -14.8125 C 29.078125 -12.71875 30.9375 -11.351562 33.0625 -10.71875 C 35.195312 -10.09375 37.0625 -9.78125 38.65625 -9.78125 C 39.570312 -9.78125 40.28125 -9.800781 40.78125 -9.84375 C 41.289062 -9.894531 41.546875 -9.921875 41.546875 -9.921875 L 41.546875 0.25 C 41.546875 0.25 41.144531 0.289062 40.34375 0.375 C 39.550781 0.457031 38.484375 0.5 37.140625 0.5 C 35.140625 0.5 32.78125 0.25 30.0625 -0.25 C 27.34375 -0.75 24.664062 -1.789062 22.03125 -3.375 C 19.394531 -4.96875 17.21875 -7.351562 15.5 -10.53125 C 13.78125 -13.71875 12.921875 -17.945312 12.921875 -23.21875 Z M 12.921875 -23.21875 "/></g></g><g style="fill:#ffffff;fill-opacity:1;"><g transform="translate(450.565961, 118.710431)"><path style="stroke:none" d=""/></g></g><g style="fill:#ffffff;fill-opacity:1;"><g transform="translate(484.697507, 118.710431)"><path style="stroke:none" d="M 6.15625 -44.546875 C 6.15625 -53.335938 8.097656 -61.160156 11.984375 -68.015625 C 15.878906 -74.878906 21.316406 -80.273438 28.296875 -84.203125 C 35.285156 -88.140625 43.378906 -90.109375 52.578125 -90.109375 C 56.515625 -90.109375 60.46875 -89.726562 64.4375 -88.96875 C 68.414062 -88.21875 72.078125 -87.085938 75.421875 -85.578125 C 78.773438 -84.078125 81.472656 -82.238281 83.515625 -80.0625 C 85.566406 -77.894531 86.59375 -75.429688 86.59375 -72.671875 L 86.59375 -61.75 L 75.046875 -61.75 L 75.046875 -68.265625 C 75.046875 -70.773438 73.9375 -72.847656 71.71875 -74.484375 C 69.5 -76.117188 66.695312 -77.332031 63.3125 -78.125 C 59.925781 -78.914062 56.476562 -79.3125 52.96875 -79.3125 C 46.101562 -79.3125 40.140625 -77.867188 35.078125 -74.984375 C 30.015625 -72.097656 26.101562 -68.0625 23.34375 -62.875 C 20.582031 -57.6875 19.203125 -51.703125 19.203125 -44.921875 C 19.203125 -38.148438 20.601562 -32.085938 23.40625 -26.734375 C 26.207031 -21.378906 30.160156 -17.148438 35.265625 -14.046875 C 40.367188 -10.953125 46.394531 -9.40625 53.34375 -9.40625 C 55.34375 -9.40625 57.679688 -9.570312 60.359375 -9.90625 C 63.035156 -10.25 65.648438 -10.835938 68.203125 -11.671875 C 70.753906 -12.503906 72.867188 -13.628906 74.546875 -15.046875 C 76.222656 -16.472656 77.0625 -18.273438 77.0625 -20.453125 L 77.0625 -32.125 L 59.734375 -32.125 L 59.734375 -41.921875 L 88.609375 -41.921875 L 88.609375 -17.0625 C 88.609375 -13.632812 87.375 -10.726562 84.90625 -8.34375 C 82.4375 -5.957031 79.296875 -4.050781 75.484375 -2.625 C 71.679688 -1.207031 67.726562 -0.164062 63.625 0.5 C 59.53125 1.164062 55.804688 1.5 52.453125 1.5 C 45.679688 1.5 39.445312 0.351562 33.75 -1.9375 C 28.0625 -4.238281 23.164062 -7.484375 19.0625 -11.671875 C 14.96875 -15.859375 11.789062 -20.753906 9.53125 -26.359375 C 7.28125 -31.960938 6.15625 -38.023438 6.15625 -44.546875 Z M 6.15625 -44.546875 "/></g></g><g style="fill:#ffffff;fill-opacity:1;"><g transform="translate(583.578057, 118.710431)"><path style="stroke:none" d="M 13.171875 -22.84375 L 13.171875 -54.09375 L 2.515625 -54.09375 L 2.515625 -63.5 L 25.34375 -63.5 L 25.34375 -25.34375 C 25.34375 -22.414062 25.632812 -19.757812 26.21875 -17.375 C 26.8125 -15 27.960938 -13.097656 29.671875 -11.671875 C 31.390625 -10.242188 33.925781 -9.53125 37.28125 -9.53125 C 41.539062 -9.53125 45.195312 -10.722656 48.25 -13.109375 C 51.300781 -15.492188 53.664062 -18.566406 55.34375 -22.328125 C 57.019531 -26.097656 57.859375 -30.078125 57.859375 -34.265625 L 57.859375 -54.09375 L 47.1875 -54.09375 L 47.1875 -63.5 L 70.03125 -63.5 L 70.03125 -12.046875 C 70.03125 -10.203125 70.953125 -9.28125 72.796875 -9.28125 L 79.4375 -9.28125 L 79.4375 0 L 66.265625 0 C 60.910156 0 58.234375 -2.34375 58.234375 -7.03125 L 58.234375 -9.78125 C 58.234375 -10.875 58.273438 -11.773438 58.359375 -12.484375 C 58.441406 -13.191406 58.484375 -13.546875 58.484375 -13.546875 L 58.234375 -13.546875 C 57.898438 -12.710938 57.1875 -11.476562 56.09375 -9.84375 C 55.007812 -8.21875 53.503906 -6.523438 51.578125 -4.765625 C 49.648438 -3.015625 47.222656 -1.53125 44.296875 -0.3125 C 41.367188 0.894531 37.941406 1.5 34.015625 1.5 C 27.148438 1.5 21.957031 -0.460938 18.4375 -4.390625 C 14.925781 -8.328125 13.171875 -14.476562 13.171875 -22.84375 Z M 13.171875 -22.84375 "/></g></g><g style="fill:#ffffff;fill-opacity:1;"><g transform="translate(669.784842, 118.710431)"><path style="stroke:none" d="M 15.6875 -76.171875 L 15.6875 -88.609375 L 28.484375 -88.609375 L 28.484375 -76.171875 Z M 6.03125 0 L 6.03125 -9.40625 L 15.9375 -9.40625 L 15.9375 -54.09375 L 5.390625 -54.09375 L 5.390625 -63.5 L 28.109375 -63.5 L 28.109375 -9.40625 L 38.15625 -9.40625 L 38.15625 0 Z M 6.03125 0 "/></g></g><g style="fill:#ffffff;fill-opacity:1;"><g transform="translate(714.707915, 118.710431)"><path style="stroke:none" d="M 5.265625 -31.75 C 5.265625 -38.53125 6.476562 -44.40625 8.90625 -49.375 C 11.332031 -54.351562 14.722656 -58.203125 19.078125 -60.921875 C 23.429688 -63.648438 28.453125 -65.015625 34.140625 -65.015625 C 37.734375 -65.015625 40.785156 -64.46875 43.296875 -63.375 C 45.804688 -62.289062 47.8125 -61.054688 49.3125 -59.671875 C 50.820312 -58.296875 51.929688 -57.0625 52.640625 -55.96875 C 53.359375 -54.882812 53.71875 -54.34375 53.71875 -54.34375 L 53.96875 -54.34375 C 53.96875 -54.34375 53.90625 -54.800781 53.78125 -55.71875 C 53.65625 -56.644531 53.59375 -57.773438 53.59375 -59.109375 L 53.59375 -79.1875 L 43.046875 -79.1875 L 43.046875 -88.609375 L 65.765625 -88.609375 L 65.765625 -12.171875 C 65.765625 -10.328125 66.679688 -9.40625 68.515625 -9.40625 L 74.921875 -9.40625 L 74.921875 0 L 62.25 0 C 59.40625 0 57.375 -0.625 56.15625 -1.875 C 54.945312 -3.132812 54.34375 -4.8125 54.34375 -6.90625 L 54.34375 -7.78125 C 54.34375 -8.863281 54.40625 -9.695312 54.53125 -10.28125 C 54.65625 -10.875 54.71875 -11.171875 54.71875 -11.171875 L 54.46875 -11.171875 C 54.46875 -11.171875 54.109375 -10.519531 53.390625 -9.21875 C 52.679688 -7.925781 51.507812 -6.460938 49.875 -4.828125 C 48.25 -3.203125 46.054688 -1.738281 43.296875 -0.4375 C 40.535156 0.851562 37.101562 1.5 33 1.5 C 27.3125 1.5 22.394531 0.0976562 18.25 -2.703125 C 14.113281 -5.503906 10.914062 -9.414062 8.65625 -14.4375 C 6.394531 -19.457031 5.265625 -25.226562 5.265625 -31.75 Z M 17.703125 -31.75 C 17.703125 -24.882812 19.375 -19.378906 22.71875 -15.234375 C 26.0625 -11.097656 30.367188 -9.03125 35.640625 -9.03125 C 38.816406 -9.03125 41.785156 -9.828125 44.546875 -11.421875 C 47.304688 -13.015625 49.566406 -15.460938 51.328125 -18.765625 C 53.085938 -22.066406 53.96875 -26.351562 53.96875 -31.625 C 53.96875 -35.5625 53.296875 -39.242188 51.953125 -42.671875 C 50.617188 -46.097656 48.632812 -48.898438 46 -51.078125 C 43.363281 -53.253906 40.035156 -54.34375 36.015625 -54.34375 C 30.910156 -54.34375 26.582031 -52.375 23.03125 -48.4375 C 19.476562 -44.507812 17.703125 -38.945312 17.703125 -31.75 Z M 17.703125 -31.75 "/></g></g><g style="fill:#ffffff;fill-opacity:1;"><g transform="translate(796.397297, 118.710431)"><path style="stroke:none" d="M 5.140625 -31.75 C 5.140625 -38.53125 6.519531 -44.40625 9.28125 -49.375 C 12.039062 -54.351562 15.828125 -58.203125 20.640625 -60.921875 C 25.453125 -63.648438 30.867188 -65.015625 36.890625 -65.015625 C 42.921875 -65.015625 47.984375 -63.675781 52.078125 -61 C 56.179688 -58.320312 59.253906 -54.742188 61.296875 -50.265625 C 63.347656 -45.785156 64.375 -40.785156 64.375 -35.265625 C 64.375 -34.429688 64.3125 -33.445312 64.1875 -32.3125 C 64.0625 -31.1875 64 -30.625 64 -30.625 L 17.5625 -30.625 C 17.820312 -25.9375 18.992188 -21.984375 21.078125 -18.765625 C 23.171875 -15.546875 25.828125 -13.117188 29.046875 -11.484375 C 32.273438 -9.847656 35.769531 -9.03125 39.53125 -9.03125 C 43.207031 -9.03125 46.46875 -9.613281 49.3125 -10.78125 C 52.164062 -11.957031 54.40625 -13.148438 56.03125 -14.359375 C 57.664062 -15.578125 58.484375 -16.1875 58.484375 -16.1875 L 63.5 -7.28125 C 63.5 -7.28125 62.929688 -6.835938 61.796875 -5.953125 C 60.671875 -5.078125 59.019531 -4.050781 56.84375 -2.875 C 54.675781 -1.707031 52.0625 -0.6875 49 0.1875 C 45.945312 1.0625 42.539062 1.5 38.78125 1.5 C 32.164062 1.5 26.328125 0.0351562 21.265625 -2.890625 C 16.203125 -5.816406 12.25 -9.789062 9.40625 -14.8125 C 6.5625 -19.832031 5.140625 -25.476562 5.140625 -31.75 Z M 18.078125 -38.40625 L 51.828125 -38.40625 C 51.660156 -44.007812 50.09375 -48.234375 47.125 -51.078125 C 44.15625 -53.921875 40.660156 -55.34375 36.640625 -55.34375 C 32.046875 -55.34375 28.03125 -53.859375 24.59375 -50.890625 C 21.164062 -47.921875 18.992188 -43.757812 18.078125 -38.40625 Z M 18.078125 -38.40625 "/></g></g></g></g></g></svg>