<svg xmlns="http://www.w3.org/2000/svg" xmlns:xlink="http://www.w3.org/1999/xlink" width="1080" zoomAndPan="magnify" viewBox="0 0 810 809.999993" height="1080" preserveAspectRatio="xMidYMid meet" version="1.0"><defs><clipPath id="b37ff3f6cd"><path d="M 27.25 213.5 L 768.167969 213.5 L 768.167969 590 L 27.25 590 Z M 27.25 213.5 " clip-rule="nonzero"/></clipPath><clipPath id="37298fa703"><path d="M 113.03125 40.460938 L 248 40.460938 L 248 175.460938 L 113.03125 175.460938 Z M 113.03125 40.460938 " clip-rule="nonzero"/></clipPath><clipPath id="88f9ff8825"><path d="M 657 41 L 696.917969 41 L 696.917969 175 L 657 175 Z M 657 41 " clip-rule="nonzero"/></clipPath><clipPath id="56f7a1bcca"><path d="M 0 650 L 183.75 650 L 183.75 767 L 0 767 Z M 0 650 " clip-rule="nonzero"/></clipPath><clipPath id="0e18d498c4"><path d="M 33 528.054688 L 151 528.054688 L 151 645 L 33 645 Z M 33 528.054688 " clip-rule="nonzero"/></clipPath><clipPath id="3556086333"><path d="M 208.664062 650 L 392.414062 650 L 392.414062 767 L 208.664062 767 Z M 208.664062 650 " clip-rule="nonzero"/></clipPath><clipPath id="32bf5f70c6"><path d="M 242 528.054688 L 359 528.054688 L 359 645 L 242 645 Z M 242 528.054688 " clip-rule="nonzero"/></clipPath><clipPath id="e0207397d9"><path d="M 417.324219 650 L 601.074219 650 L 601.074219 767 L 417.324219 767 Z M 417.324219 650 " clip-rule="nonzero"/></clipPath><clipPath id="0ab60f7a6a"><path d="M 451 528.054688 L 568 528.054688 L 568 645 L 451 645 Z M 451 528.054688 " clip-rule="nonzero"/></clipPath><clipPath id="95025803e1"><path d="M 625.988281 650 L 809.738281 650 L 809.738281 767 L 625.988281 767 Z M 625.988281 650 " clip-rule="nonzero"/></clipPath><clipPath id="3d96912a2c"><path d="M 659 528.054688 L 777 528.054688 L 777 645 L 659 645 Z M 659 528.054688 " clip-rule="nonzero"/></clipPath><clipPath id="3e46240d22"><path d="M 295 40.460938 L 491 40.460938 L 491 176 L 295 176 Z M 295 40.460938 " clip-rule="nonzero"/></clipPath></defs><g clip-path="url(#b37ff3f6cd)"><path stroke-linecap="butt" transform="matrix(0.75, 0, 0, 0.75, 27.250261, 213.501806)" fill="none" stroke-linejoin="miter" d="M -0.000348545 -0.00240808 L 987.890263 -0.00240808 L 987.890263 502.20071 L -0.000348545 502.20071 Z M -0.000348545 -0.00240808 " stroke="#028a8c" stroke-width="40" stroke-opacity="1" stroke-miterlimit="4"/></g><g clip-path="url(#37298fa703)"><path fill="#028a8c" d="M 207.316406 175.15625 L 234.253906 175.15625 C 241.695312 175.15625 247.726562 169.125 247.726562 161.6875 L 247.726562 134.746094 C 247.726562 132.269531 245.714844 130.257812 243.234375 130.257812 C 240.757812 130.257812 238.746094 132.269531 238.746094 134.746094 L 238.746094 161.6875 C 238.746094 164.164062 236.734375 166.175781 234.253906 166.175781 C 234.253906 166.175781 207.316406 166.175781 207.316406 166.175781 C 204.839844 166.175781 202.828125 168.1875 202.828125 170.664062 C 202.828125 173.144531 204.839844 175.15625 207.316406 175.15625 Z M 153.4375 166.175781 L 126.5 166.175781 C 124.019531 166.175781 122.011719 164.164062 122.011719 161.6875 C 122.011719 161.6875 122.011719 134.746094 122.011719 134.746094 C 122.011719 132.269531 120 130.257812 117.519531 130.257812 C 115.042969 130.257812 113.03125 132.269531 113.03125 134.746094 L 113.03125 161.6875 C 113.03125 169.125 119.058594 175.15625 126.5 175.15625 L 153.4375 175.15625 C 155.917969 175.15625 157.929688 173.144531 157.929688 170.664062 C 157.929688 168.1875 155.917969 166.175781 153.4375 166.175781 Z M 175.886719 125.765625 L 175.886719 152.707031 C 175.886719 155.183594 177.898438 157.195312 180.378906 157.195312 C 182.855469 157.195312 184.867188 155.183594 184.867188 152.707031 L 184.867188 125.765625 C 184.867188 123.289062 182.855469 121.277344 180.378906 121.277344 C 177.898438 121.277344 175.886719 123.289062 175.886719 125.765625 Z M 166.90625 125.765625 C 166.90625 123.289062 164.898438 121.277344 162.417969 121.277344 L 135.480469 121.277344 C 133 121.277344 130.988281 123.289062 130.988281 125.765625 L 130.988281 152.707031 C 130.988281 155.183594 133 157.195312 135.480469 157.195312 L 162.417969 157.195312 C 164.898438 157.195312 166.90625 155.183594 166.90625 152.707031 Z M 229.765625 125.765625 C 229.765625 123.289062 227.753906 121.277344 225.277344 121.277344 L 198.335938 121.277344 C 195.859375 121.277344 193.847656 123.289062 193.847656 125.765625 L 193.847656 152.707031 C 193.847656 155.183594 195.859375 157.195312 198.335938 157.195312 L 225.277344 157.195312 C 227.753906 157.195312 229.765625 155.183594 229.765625 152.707031 Z M 157.929688 130.257812 L 157.929688 148.214844 C 157.929688 148.214844 139.96875 148.214844 139.96875 148.214844 C 139.96875 148.214844 139.96875 130.257812 139.96875 130.257812 Z M 220.785156 130.257812 L 220.785156 148.214844 C 220.785156 148.214844 202.828125 148.214844 202.828125 148.214844 C 202.828125 148.214844 202.828125 130.257812 202.828125 130.257812 Z M 175.886719 112.296875 L 180.378906 112.296875 C 182.855469 112.296875 184.867188 110.285156 184.867188 107.808594 C 184.867188 105.328125 182.855469 103.316406 180.378906 103.316406 L 175.886719 103.316406 C 173.410156 103.316406 171.398438 105.328125 171.398438 107.808594 C 171.398438 110.285156 173.410156 112.296875 175.886719 112.296875 Z M 135.480469 112.296875 L 157.929688 112.296875 C 160.40625 112.296875 162.417969 110.285156 162.417969 107.808594 C 162.417969 105.328125 160.40625 103.316406 157.929688 103.316406 L 135.480469 103.316406 C 133 103.316406 130.988281 105.328125 130.988281 107.808594 C 130.988281 110.285156 133 112.296875 135.480469 112.296875 Z M 216.296875 103.316406 L 220.785156 103.316406 C 220.785156 103.316406 220.785156 107.808594 220.785156 107.808594 C 220.785156 110.285156 222.796875 112.296875 225.277344 112.296875 C 227.753906 112.296875 229.765625 110.285156 229.765625 107.808594 L 229.765625 98.828125 C 229.765625 96.351562 227.753906 94.339844 225.277344 94.339844 L 216.296875 94.339844 C 213.816406 94.339844 211.804688 96.351562 211.804688 98.828125 C 211.804688 101.304688 213.816406 103.316406 216.296875 103.316406 Z M 202.828125 107.808594 L 202.828125 85.359375 C 202.828125 85.359375 207.316406 85.359375 207.316406 85.359375 C 209.796875 85.359375 211.804688 83.347656 211.804688 80.867188 C 211.804688 78.390625 209.796875 76.378906 207.316406 76.378906 L 198.335938 76.378906 C 195.859375 76.378906 193.847656 78.390625 193.847656 80.867188 L 193.847656 107.808594 C 193.847656 110.285156 195.859375 112.296875 198.335938 112.296875 C 200.816406 112.296875 202.828125 110.285156 202.828125 107.808594 Z M 175.886719 80.867188 L 175.886719 89.847656 C 175.886719 92.328125 177.898438 94.339844 180.378906 94.339844 C 182.855469 94.339844 184.867188 92.328125 184.867188 89.847656 L 184.867188 80.867188 C 184.867188 78.390625 182.855469 76.378906 180.378906 76.378906 C 177.898438 76.378906 175.886719 78.390625 175.886719 80.867188 Z M 166.90625 62.910156 C 166.90625 60.429688 164.898438 58.417969 162.417969 58.417969 L 135.480469 58.417969 C 133 58.417969 130.988281 60.429688 130.988281 62.910156 L 130.988281 89.847656 C 130.988281 92.328125 133 94.339844 135.480469 94.339844 L 162.417969 94.339844 C 164.898438 94.339844 166.90625 92.328125 166.90625 89.847656 Z M 153.4375 40.460938 L 126.5 40.460938 C 119.058594 40.460938 113.03125 46.488281 113.03125 53.929688 L 113.03125 80.867188 C 113.03125 83.347656 115.042969 85.359375 117.519531 85.359375 C 120 85.359375 122.011719 83.347656 122.011719 80.867188 L 122.011719 53.929688 C 122.011719 51.453125 124.019531 49.441406 126.5 49.441406 C 126.5 49.441406 153.4375 49.441406 153.4375 49.441406 C 155.917969 49.441406 157.929688 47.429688 157.929688 44.949219 C 157.929688 42.472656 155.917969 40.460938 153.4375 40.460938 Z M 157.929688 67.398438 L 157.929688 85.359375 C 157.929688 85.359375 139.96875 85.359375 139.96875 85.359375 C 139.96875 85.359375 139.96875 67.398438 139.96875 67.398438 Z M 207.316406 49.441406 L 234.253906 49.441406 C 236.734375 49.441406 238.746094 51.453125 238.746094 53.929688 C 238.746094 53.929688 238.746094 80.867188 238.746094 80.867188 C 238.746094 83.347656 240.757812 85.359375 243.234375 85.359375 C 245.714844 85.359375 247.726562 83.347656 247.726562 80.867188 L 247.726562 53.929688 C 247.726562 46.488281 241.695312 40.460938 234.253906 40.460938 L 207.316406 40.460938 C 204.839844 40.460938 202.828125 42.472656 202.828125 44.949219 C 202.828125 47.429688 204.839844 49.441406 207.316406 49.441406 Z M 180.378906 67.398438 L 220.785156 67.398438 C 220.785156 67.398438 220.785156 80.867188 220.785156 80.867188 C 220.785156 83.347656 222.796875 85.359375 225.277344 85.359375 C 227.753906 85.359375 229.765625 83.347656 229.765625 80.867188 L 229.765625 62.910156 C 229.765625 60.429688 227.753906 58.417969 225.277344 58.417969 L 180.378906 58.417969 C 177.898438 58.417969 175.886719 60.429688 175.886719 62.910156 C 175.886719 65.386719 177.898438 67.398438 180.378906 67.398438 Z M 180.378906 67.398438 " fill-opacity="1" fill-rule="evenodd"/></g><path fill="#028a8c" d="M 608.195312 41.5625 C 607.566406 41.320312 606.914062 41.179688 606.238281 41.136719 C 605.566406 41.09375 604.902344 41.152344 604.246094 41.308594 C 603.585938 41.46875 602.96875 41.71875 602.390625 42.0625 C 601.808594 42.410156 601.292969 42.832031 600.84375 43.335938 L 572.734375 74.550781 L 548.96875 74.550781 C 548.53125 74.550781 548.097656 74.59375 547.664062 74.679688 C 547.234375 74.765625 546.816406 74.894531 546.410156 75.0625 C 546.007812 75.230469 545.621094 75.433594 545.253906 75.679688 C 544.890625 75.921875 544.554688 76.199219 544.242188 76.507812 C 543.933594 76.820312 543.65625 77.15625 543.410156 77.523438 C 543.167969 77.886719 542.960938 78.273438 542.792969 78.679688 C 542.625 79.082031 542.5 79.5 542.414062 79.933594 C 542.328125 80.363281 542.285156 80.796875 542.285156 81.238281 L 542.285156 138.054688 C 542.285156 138.496094 542.328125 138.929688 542.414062 139.359375 C 542.5 139.789062 542.625 140.207031 542.792969 140.613281 C 542.960938 141.019531 543.167969 141.40625 543.410156 141.769531 C 543.65625 142.132812 543.933594 142.472656 544.242188 142.78125 C 544.554688 143.09375 544.890625 143.371094 545.253906 143.613281 C 545.621094 143.859375 546.007812 144.0625 546.410156 144.230469 C 546.816406 144.398438 547.234375 144.527344 547.664062 144.613281 C 548.097656 144.699219 548.53125 144.742188 548.96875 144.742188 L 572.933594 144.742188 L 601.042969 172.847656 C 601.507812 173.320312 602.035156 173.710938 602.617188 174.027344 C 603.199219 174.339844 603.816406 174.5625 604.464844 174.695312 C 605.117188 174.824219 605.769531 174.859375 606.429688 174.796875 C 607.089844 174.734375 607.722656 174.574219 608.335938 174.320312 C 608.949219 174.070312 609.511719 173.734375 610.023438 173.3125 C 610.535156 172.894531 610.976562 172.410156 611.34375 171.859375 C 611.714844 171.308594 611.992188 170.714844 612.1875 170.082031 C 612.378906 169.445312 612.472656 168.800781 612.472656 168.136719 L 612.472656 47.8125 C 612.476562 47.136719 612.375 46.476562 612.175781 45.828125 C 611.976562 45.183594 611.6875 44.582031 611.304688 44.023438 C 610.921875 43.464844 610.46875 42.976562 609.9375 42.558594 C 609.40625 42.136719 608.824219 41.804688 608.195312 41.5625 Z M 599.105469 151.992188 L 580.421875 133.308594 C 579.792969 132.6875 579.074219 132.210938 578.257812 131.875 C 577.441406 131.539062 576.589844 131.371094 575.707031 131.371094 L 555.652344 131.371094 L 555.652344 87.921875 L 575.707031 87.921875 C 576.65625 87.921875 577.566406 87.734375 578.433594 87.347656 C 579.300781 86.964844 580.050781 86.417969 580.6875 85.714844 L 599.105469 65.226562 L 599.105469 152.125 Z M 599.105469 151.992188 " fill-opacity="1" fill-rule="nonzero"/><path fill="#028a8c" d="M 651.042969 61.183594 C 650.730469 60.871094 650.394531 60.597656 650.027344 60.351562 C 649.660156 60.109375 649.273438 59.90625 648.867188 59.738281 C 648.460938 59.570312 648.042969 59.445312 647.613281 59.359375 C 647.179688 59.277344 646.746094 59.234375 646.304688 59.234375 C 645.867188 59.238281 645.433594 59.28125 645 59.367188 C 644.570312 59.457031 644.152344 59.585938 643.746094 59.753906 C 643.339844 59.921875 642.957031 60.128906 642.59375 60.375 C 642.226562 60.621094 641.890625 60.898438 641.582031 61.210938 C 641.269531 61.523438 640.996094 61.863281 640.753906 62.230469 C 640.507812 62.59375 640.304688 62.980469 640.136719 63.386719 C 639.972656 63.792969 639.847656 64.214844 639.761719 64.644531 C 639.679688 65.078125 639.636719 65.511719 639.636719 65.949219 C 639.640625 66.390625 639.683594 66.824219 639.773438 67.257812 C 639.859375 67.6875 639.988281 68.105469 640.160156 68.511719 C 640.328125 68.914062 640.535156 69.300781 640.78125 69.664062 C 641.027344 70.027344 641.304688 70.367188 641.617188 70.675781 C 642.851562 71.898438 644.023438 73.175781 645.132812 74.515625 C 646.238281 75.851562 647.277344 77.242188 648.246094 78.683594 C 649.21875 80.125 650.113281 81.609375 650.9375 83.136719 C 651.761719 84.667969 652.507812 86.234375 653.175781 87.835938 C 653.84375 89.441406 654.433594 91.070312 654.941406 92.734375 C 655.445312 94.394531 655.871094 96.078125 656.210938 97.78125 C 656.554688 99.484375 656.808594 101.199219 656.980469 102.925781 C 657.152344 104.65625 657.238281 106.386719 657.238281 108.125 C 657.238281 109.863281 657.152344 111.59375 656.980469 113.324219 C 656.808594 115.050781 656.554688 116.769531 656.210938 118.472656 C 655.871094 120.175781 655.445312 121.855469 654.941406 123.515625 C 654.433594 125.179688 653.84375 126.8125 653.175781 128.414062 C 652.507812 130.015625 651.761719 131.582031 650.9375 133.113281 C 650.113281 134.640625 649.21875 136.128906 648.246094 137.566406 C 647.277344 139.007812 646.238281 140.398438 645.132812 141.734375 C 644.023438 143.074219 642.851562 144.355469 641.617188 145.574219 C 641.222656 145.859375 640.859375 146.183594 640.535156 146.550781 C 640.210938 146.914062 639.929688 147.308594 639.6875 147.734375 C 639.449219 148.160156 639.261719 148.605469 639.117188 149.074219 C 638.976562 149.539062 638.890625 150.019531 638.851562 150.503906 C 638.816406 150.992188 638.832031 151.476562 638.902344 151.960938 C 638.972656 152.441406 639.09375 152.914062 639.265625 153.371094 C 639.4375 153.824219 639.660156 154.257812 639.925781 154.667969 C 640.195312 155.074219 640.503906 155.449219 640.851562 155.789062 C 641.199219 156.132812 641.582031 156.429688 642 156.6875 C 642.414062 156.945312 642.851562 157.152344 643.3125 157.316406 C 643.773438 157.476562 644.246094 157.585938 644.730469 157.644531 C 645.214844 157.699219 645.699219 157.703125 646.1875 157.65625 C 646.671875 157.605469 647.148438 157.507812 647.609375 157.355469 C 648.074219 157.199219 648.515625 157 648.933594 156.75 C 649.355469 156.5 649.742188 156.207031 650.097656 155.875 C 650.453125 155.539062 650.769531 155.171875 651.042969 154.765625 C 651.8125 154.003906 652.558594 153.21875 653.289062 152.417969 C 654.015625 151.617188 654.726562 150.796875 655.414062 149.960938 C 656.101562 149.125 656.769531 148.269531 657.414062 147.402344 C 658.0625 146.53125 658.6875 145.644531 659.289062 144.746094 C 659.890625 143.847656 660.472656 142.929688 661.03125 142.003906 C 661.589844 141.074219 662.125 140.132812 662.636719 139.175781 C 663.148438 138.222656 663.632812 137.253906 664.097656 136.277344 C 664.5625 135.296875 665.003906 134.308594 665.417969 133.304688 C 665.832031 132.304688 666.222656 131.296875 666.589844 130.277344 C 666.953125 129.257812 667.296875 128.226562 667.609375 127.191406 C 667.925781 126.15625 668.214844 125.109375 668.476562 124.058594 C 668.742188 123.007812 668.980469 121.953125 669.191406 120.890625 C 669.402344 119.828125 669.589844 118.761719 669.75 117.6875 C 669.90625 116.617188 670.039062 115.542969 670.148438 114.464844 C 670.253906 113.386719 670.332031 112.304688 670.386719 111.222656 C 670.441406 110.140625 670.464844 109.058594 670.464844 107.976562 C 670.464844 106.890625 670.441406 105.808594 670.386719 104.726562 C 670.332031 103.644531 670.253906 102.5625 670.148438 101.484375 C 670.039062 100.40625 669.90625 99.332031 669.75 98.261719 C 669.589844 97.191406 669.402344 96.121094 669.191406 95.058594 C 668.980469 93.996094 668.742188 92.941406 668.476562 91.890625 C 668.214844 90.839844 667.925781 89.796875 667.609375 88.757812 C 667.296875 87.722656 666.953125 86.695312 666.589844 85.675781 C 666.222656 84.652344 665.832031 83.644531 665.417969 82.644531 C 665.003906 81.644531 664.5625 80.652344 664.097656 79.675781 C 663.632812 78.695312 663.148438 77.726562 662.636719 76.773438 C 662.125 75.816406 661.589844 74.875 661.03125 73.945312 C 660.472656 73.019531 659.890625 72.105469 659.289062 71.203125 C 658.6875 70.304688 658.0625 69.417969 657.414062 68.550781 C 656.769531 67.679688 656.101562 66.828125 655.414062 65.988281 C 654.726562 65.152344 654.015625 64.335938 653.289062 63.53125 C 652.558594 62.730469 651.8125 61.949219 651.042969 61.183594 Z M 651.042969 61.183594 " fill-opacity="1" fill-rule="nonzero"/><g clip-path="url(#88f9ff8825)"><path fill="#028a8c" d="M 669.027344 43.199219 C 668.722656 42.867188 668.386719 42.566406 668.019531 42.296875 C 667.652344 42.03125 667.265625 41.804688 666.851562 41.617188 C 666.441406 41.429688 666.015625 41.285156 665.574219 41.183594 C 665.132812 41.082031 664.683594 41.027344 664.234375 41.015625 C 663.78125 41.003906 663.332031 41.039062 662.886719 41.121094 C 662.441406 41.203125 662.007812 41.328125 661.585938 41.496094 C 661.167969 41.664062 660.769531 41.875 660.390625 42.125 C 660.011719 42.375 659.664062 42.660156 659.34375 42.980469 C 659.023438 43.300781 658.742188 43.648438 658.492188 44.027344 C 658.242188 44.40625 658.035156 44.804688 657.867188 45.226562 C 657.703125 45.648438 657.578125 46.082031 657.5 46.527344 C 657.417969 46.972656 657.386719 47.421875 657.398438 47.875 C 657.410156 48.328125 657.46875 48.773438 657.570312 49.214844 C 657.671875 49.65625 657.816406 50.082031 658.007812 50.492188 C 658.195312 50.90625 658.425781 51.292969 658.695312 51.65625 C 658.960938 52.023438 659.265625 52.355469 659.601562 52.660156 C 660.511719 53.5625 661.398438 54.484375 662.261719 55.429688 C 663.128906 56.375 663.96875 57.34375 664.785156 58.332031 C 665.601562 59.316406 666.394531 60.324219 667.160156 61.351562 C 667.929688 62.378906 668.671875 63.421875 669.386719 64.484375 C 670.101562 65.546875 670.789062 66.628906 671.453125 67.726562 C 672.117188 68.824219 672.75 69.933594 673.359375 71.0625 C 673.964844 72.191406 674.542969 73.335938 675.09375 74.492188 C 675.644531 75.648438 676.167969 76.820312 676.660156 78 C 677.15625 79.183594 677.617188 80.378906 678.050781 81.585938 C 678.488281 82.789062 678.890625 84.007812 679.265625 85.230469 C 679.640625 86.457031 679.984375 87.691406 680.296875 88.933594 C 680.609375 90.175781 680.890625 91.425781 681.144531 92.683594 C 681.394531 93.941406 681.613281 95.203125 681.804688 96.46875 C 681.992188 97.738281 682.152344 99.007812 682.277344 100.285156 C 682.402344 101.558594 682.5 102.835938 682.5625 104.117188 C 682.625 105.394531 682.65625 106.675781 682.65625 107.957031 C 682.65625 109.238281 682.625 110.519531 682.5625 111.800781 C 682.5 113.082031 682.402344 114.359375 682.277344 115.632812 C 682.152344 116.910156 681.992188 118.179688 681.804688 119.449219 C 681.613281 120.714844 681.394531 121.976562 681.144531 123.234375 C 680.890625 124.488281 680.609375 125.738281 680.296875 126.980469 C 679.984375 128.226562 679.640625 129.460938 679.265625 130.683594 C 678.890625 131.910156 678.488281 133.125 678.050781 134.332031 C 677.617188 135.539062 677.15625 136.730469 676.660156 137.914062 C 676.167969 139.097656 675.644531 140.265625 675.09375 141.425781 C 674.542969 142.582031 673.964844 143.722656 673.359375 144.851562 C 672.75 145.980469 672.117188 147.09375 671.453125 148.191406 C 670.789062 149.289062 670.101562 150.367188 669.386719 151.429688 C 668.671875 152.492188 667.929688 153.539062 667.160156 154.566406 C 666.394531 155.589844 665.601562 156.597656 664.785156 157.585938 C 663.96875 158.574219 663.128906 159.539062 662.261719 160.484375 C 661.398438 161.429688 660.511719 162.355469 659.601562 163.257812 C 659.289062 163.566406 659.011719 163.902344 658.765625 164.265625 C 658.519531 164.632812 658.3125 165.015625 658.144531 165.421875 C 657.972656 165.828125 657.84375 166.246094 657.757812 166.675781 C 657.671875 167.105469 657.625 167.539062 657.625 167.980469 C 657.621094 168.417969 657.664062 168.855469 657.75 169.285156 C 657.832031 169.714844 657.957031 170.132812 658.125 170.539062 C 658.292969 170.945312 658.496094 171.332031 658.738281 171.699219 C 658.980469 172.066406 659.257812 172.402344 659.566406 172.714844 C 659.875 173.027344 660.214844 173.304688 660.578125 173.550781 C 660.941406 173.796875 661.328125 174.003906 661.730469 174.171875 C 662.136719 174.34375 662.554688 174.472656 662.984375 174.558594 C 663.414062 174.644531 663.851562 174.691406 664.289062 174.691406 C 664.726562 174.691406 665.164062 174.652344 665.59375 174.566406 C 666.027344 174.484375 666.445312 174.359375 666.851562 174.191406 C 667.257812 174.023438 667.644531 173.820312 668.007812 173.578125 C 668.375 173.335938 668.714844 173.058594 669.027344 172.75 C 670.089844 171.691406 671.128906 170.609375 672.144531 169.5 C 673.15625 168.394531 674.140625 167.261719 675.097656 166.105469 C 676.054688 164.949219 676.980469 163.769531 677.878906 162.566406 C 678.777344 161.363281 679.644531 160.140625 680.484375 158.894531 C 681.320312 157.648438 682.128906 156.382812 682.902344 155.097656 C 683.679688 153.8125 684.421875 152.511719 685.132812 151.1875 C 685.84375 149.867188 686.523438 148.527344 687.167969 147.171875 C 687.8125 145.816406 688.421875 144.449219 689 143.0625 C 689.578125 141.675781 690.121094 140.277344 690.628906 138.867188 C 691.136719 137.453125 691.609375 136.027344 692.050781 134.59375 C 692.488281 133.15625 692.890625 131.710938 693.257812 130.257812 C 693.621094 128.800781 693.953125 127.335938 694.246094 125.867188 C 694.542969 124.394531 694.800781 122.914062 695.023438 121.429688 C 695.242188 119.945312 695.425781 118.457031 695.574219 116.964844 C 695.722656 115.46875 695.835938 113.972656 695.910156 112.476562 C 695.984375 110.976562 696.019531 109.476562 696.019531 107.976562 C 696.019531 106.472656 695.984375 104.972656 695.910156 103.476562 C 695.835938 101.976562 695.722656 100.480469 695.574219 98.984375 C 695.425781 97.492188 695.242188 96.003906 695.023438 94.519531 C 694.800781 93.035156 694.542969 91.554688 694.246094 90.082031 C 693.953125 88.613281 693.621094 87.148438 693.257812 85.691406 C 692.890625 84.238281 692.488281 82.792969 692.050781 81.355469 C 691.609375 79.921875 691.136719 78.496094 690.628906 77.085938 C 690.121094 75.671875 689.578125 74.273438 689 72.886719 C 688.421875 71.503906 687.8125 70.132812 687.167969 68.777344 C 686.523438 67.421875 685.84375 66.082031 685.132812 64.761719 C 684.421875 63.441406 683.679688 62.136719 682.902344 60.851562 C 682.128906 59.566406 681.320312 58.300781 680.484375 57.054688 C 679.644531 55.808594 678.777344 54.585938 677.878906 53.382812 C 676.980469 52.179688 676.054688 51 675.097656 49.84375 C 674.140625 48.6875 673.15625 47.554688 672.144531 46.449219 C 671.128906 45.339844 670.089844 44.257812 669.027344 43.199219 Z M 669.027344 43.199219 " fill-opacity="1" fill-rule="nonzero"/></g><path fill="#028a8c" d="M 632.191406 79.765625 C 631.882812 79.457031 631.542969 79.179688 631.175781 78.9375 C 630.8125 78.695312 630.425781 78.492188 630.019531 78.324219 C 629.613281 78.15625 629.191406 78.03125 628.761719 77.949219 C 628.332031 77.863281 627.894531 77.820312 627.457031 77.824219 C 627.019531 77.824219 626.582031 77.871094 626.152344 77.957031 C 625.722656 78.042969 625.304688 78.171875 624.898438 78.339844 C 624.492188 78.511719 624.109375 78.71875 623.746094 78.964844 C 623.378906 79.210938 623.042969 79.488281 622.734375 79.800781 C 622.425781 80.109375 622.148438 80.449219 621.90625 80.816406 C 621.664062 81.183594 621.457031 81.566406 621.292969 81.972656 C 621.125 82.378906 621 82.800781 620.917969 83.230469 C 620.832031 83.660156 620.789062 84.097656 620.792969 84.535156 C 620.792969 84.976562 620.839844 85.410156 620.925781 85.839844 C 621.011719 86.269531 621.140625 86.6875 621.308594 87.09375 C 621.480469 87.5 621.6875 87.882812 621.933594 88.246094 C 622.175781 88.613281 622.457031 88.949219 622.769531 89.257812 C 623.386719 89.871094 623.96875 90.511719 624.523438 91.179688 C 625.078125 91.847656 625.597656 92.542969 626.082031 93.265625 C 626.566406 93.984375 627.015625 94.726562 627.429688 95.492188 C 627.839844 96.257812 628.214844 97.042969 628.546875 97.84375 C 628.882812 98.644531 629.175781 99.460938 629.429688 100.292969 C 629.683594 101.125 629.894531 101.964844 630.066406 102.816406 C 630.238281 103.667969 630.363281 104.527344 630.449219 105.390625 C 630.535156 106.257812 630.578125 107.121094 630.578125 107.992188 C 630.578125 108.859375 630.535156 109.726562 630.449219 110.589844 C 630.363281 111.457031 630.238281 112.316406 630.066406 113.167969 C 629.894531 114.019531 629.683594 114.859375 629.429688 115.691406 C 629.175781 116.523438 628.882812 117.339844 628.546875 118.140625 C 628.214844 118.941406 627.839844 119.726562 627.429688 120.492188 C 627.015625 121.253906 626.566406 122 626.082031 122.71875 C 625.597656 123.441406 625.078125 124.132812 624.523438 124.804688 C 623.96875 125.472656 623.386719 126.113281 622.769531 126.726562 C 622.457031 127.035156 622.175781 127.371094 621.933594 127.734375 C 621.6875 128.101562 621.480469 128.484375 621.308594 128.890625 C 621.140625 129.296875 621.011719 129.714844 620.921875 130.144531 C 620.835938 130.574219 620.792969 131.007812 620.789062 131.449219 C 620.789062 131.886719 620.828125 132.324219 620.914062 132.753906 C 620.996094 133.183594 621.121094 133.605469 621.289062 134.011719 C 621.457031 134.417969 621.660156 134.804688 621.902344 135.167969 C 622.144531 135.535156 622.421875 135.875 622.730469 136.1875 C 623.042969 136.5 623.378906 136.777344 623.742188 137.023438 C 624.105469 137.265625 624.492188 137.476562 624.898438 137.644531 C 625.304688 137.8125 625.722656 137.941406 626.152344 138.027344 C 626.582031 138.117188 627.015625 138.160156 627.457031 138.160156 C 627.894531 138.164062 628.332031 138.121094 628.761719 138.039062 C 629.191406 137.953125 629.613281 137.828125 630.019531 137.660156 C 630.425781 137.496094 630.8125 137.289062 631.175781 137.046875 C 631.542969 136.804688 631.882812 136.527344 632.191406 136.21875 C 633.121094 135.296875 634.003906 134.332031 634.839844 133.324219 C 635.671875 132.3125 636.457031 131.265625 637.1875 130.179688 C 637.917969 129.09375 638.59375 127.976562 639.214844 126.824219 C 639.832031 125.671875 640.394531 124.488281 640.898438 123.28125 C 641.402344 122.074219 641.847656 120.84375 642.226562 119.589844 C 642.609375 118.339844 642.929688 117.070312 643.1875 115.789062 C 643.441406 114.503906 643.636719 113.210938 643.765625 111.910156 C 643.894531 110.605469 643.957031 109.300781 643.957031 107.992188 C 643.957031 106.683594 643.894531 105.375 643.765625 104.074219 C 643.636719 102.773438 643.441406 101.480469 643.1875 100.195312 C 642.929688 98.910156 642.609375 97.644531 642.226562 96.390625 C 641.847656 95.140625 641.402344 93.910156 640.898438 92.703125 C 640.394531 91.492188 639.832031 90.3125 639.214844 89.160156 C 638.59375 88.007812 637.917969 86.886719 637.1875 85.800781 C 636.457031 84.714844 635.671875 83.667969 634.839844 82.660156 C 634.003906 81.652344 633.121094 80.6875 632.191406 79.765625 Z M 632.191406 79.765625 " fill-opacity="1" fill-rule="nonzero"/><g clip-path="url(#56f7a1bcca)"><path fill="#028a8c" d="M 143.613281 650.40625 C 129.535156 661.792969 111.535156 668.605469 92.003906 668.605469 C 72.574219 668.605469 54.574219 661.820312 40.496094 650.40625 C 16.089844 666.871094 0 694.925781 0 726.625 L 0 751.132812 C 0 759.855469 7.1875 766.945312 15.886719 766.945312 L 168.222656 766.945312 C 176.945312 766.945312 184.007812 759.855469 184.007812 751.132812 L 184.007812 726.625 C 184.007812 701.160156 173.75 678.183594 157.109375 661.515625 C 152.988281 657.394531 148.488281 653.675781 143.613281 650.40625 Z M 143.613281 650.40625 " fill-opacity="1" fill-rule="nonzero"/></g><g clip-path="url(#0e18d498c4)"><path fill="#028a8c" d="M 92.054688 644.699219 C 124.253906 644.699219 150.324219 618.605469 150.324219 586.429688 C 150.324219 554.253906 124.230469 528.136719 92.054688 528.136719 C 59.878906 528.136719 33.785156 554.230469 33.785156 586.40625 C 33.785156 618.582031 59.851562 644.699219 92.054688 644.699219 Z M 92.054688 644.699219 " fill-opacity="1" fill-rule="nonzero"/></g><g clip-path="url(#3556086333)"><path fill="#028a8c" d="M 352.273438 650.40625 C 338.195312 661.792969 320.199219 668.605469 300.667969 668.605469 C 281.234375 668.605469 263.234375 661.820312 249.160156 650.40625 C 224.75 666.871094 208.664062 694.925781 208.664062 726.625 L 208.664062 751.132812 C 208.664062 759.855469 215.851562 766.945312 224.550781 766.945312 L 376.882812 766.945312 C 385.605469 766.945312 392.667969 759.855469 392.667969 751.132812 L 392.667969 726.625 C 392.667969 701.160156 382.414062 678.183594 365.773438 661.515625 C 361.648438 657.394531 357.148438 653.675781 352.273438 650.40625 Z M 352.273438 650.40625 " fill-opacity="1" fill-rule="nonzero"/></g><g clip-path="url(#32bf5f70c6)"><path fill="#028a8c" d="M 300.714844 644.699219 C 332.917969 644.699219 358.984375 618.605469 358.984375 586.429688 C 358.984375 554.253906 332.890625 528.136719 300.714844 528.136719 C 268.539062 528.136719 242.445312 554.230469 242.445312 586.40625 C 242.445312 618.582031 268.515625 644.699219 300.714844 644.699219 Z M 300.714844 644.699219 " fill-opacity="1" fill-rule="nonzero"/></g><g clip-path="url(#e0207397d9)"><path fill="#028a8c" d="M 560.9375 650.40625 C 546.859375 661.792969 528.859375 668.605469 509.328125 668.605469 C 489.898438 668.605469 471.898438 661.820312 457.820312 650.40625 C 433.414062 666.871094 417.324219 694.925781 417.324219 726.625 L 417.324219 751.132812 C 417.324219 759.855469 424.511719 766.945312 433.210938 766.945312 L 585.546875 766.945312 C 594.269531 766.945312 601.332031 759.855469 601.332031 751.132812 L 601.332031 726.625 C 601.332031 701.160156 591.074219 678.183594 574.433594 661.515625 C 570.3125 657.394531 565.8125 653.675781 560.9375 650.40625 Z M 560.9375 650.40625 " fill-opacity="1" fill-rule="nonzero"/></g><g clip-path="url(#0ab60f7a6a)"><path fill="#028a8c" d="M 509.378906 644.699219 C 541.578125 644.699219 567.648438 618.605469 567.648438 586.429688 C 567.648438 554.253906 541.554688 528.136719 509.378906 528.136719 C 477.203125 528.136719 451.109375 554.230469 451.109375 586.40625 C 451.109375 618.582031 477.175781 644.699219 509.378906 644.699219 Z M 509.378906 644.699219 " fill-opacity="1" fill-rule="nonzero"/></g><g clip-path="url(#95025803e1)"><path fill="#028a8c" d="M 769.597656 650.40625 C 755.519531 661.792969 737.523438 668.605469 717.992188 668.605469 C 698.558594 668.605469 680.558594 661.820312 666.484375 650.40625 C 642.074219 666.871094 625.988281 694.925781 625.988281 726.625 L 625.988281 751.132812 C 625.988281 759.855469 633.175781 766.945312 641.875 766.945312 L 794.207031 766.945312 C 802.929688 766.945312 809.996094 759.855469 809.996094 751.132812 L 809.996094 726.625 C 809.996094 701.160156 799.738281 678.183594 783.097656 661.515625 C 778.972656 657.394531 774.476562 653.675781 769.597656 650.40625 Z M 769.597656 650.40625 " fill-opacity="1" fill-rule="nonzero"/></g><g clip-path="url(#3d96912a2c)"><path fill="#028a8c" d="M 718.039062 644.699219 C 750.242188 644.699219 776.308594 618.605469 776.308594 586.429688 C 776.308594 554.253906 750.214844 528.136719 718.039062 528.136719 C 685.863281 528.136719 659.769531 554.230469 659.769531 586.40625 C 659.769531 618.582031 685.839844 644.699219 718.039062 644.699219 Z M 718.039062 644.699219 " fill-opacity="1" fill-rule="nonzero"/></g><g clip-path="url(#3e46240d22)"><path fill="#028a8c" d="M 490.429688 110.933594 C 490.804688 110.015625 490.996094 109.058594 490.996094 108.066406 C 490.996094 107.070312 490.804688 106.113281 490.429688 105.195312 C 490.042969 104.273438 489.496094 103.457031 488.792969 102.746094 L 428.699219 42.652344 C 428.351562 42.304688 427.972656 41.992188 427.5625 41.71875 C 427.148438 41.445312 426.71875 41.214844 426.261719 41.027344 C 425.804688 40.835938 425.335938 40.695312 424.851562 40.597656 C 424.367188 40.503906 423.878906 40.453125 423.382812 40.453125 C 422.890625 40.453125 422.402344 40.503906 421.917969 40.601562 C 421.433594 40.695312 420.964844 40.839844 420.507812 41.027344 C 420.050781 41.21875 419.617188 41.449219 419.207031 41.722656 C 418.796875 41.996094 418.417969 42.308594 418.066406 42.65625 C 417.71875 43.007812 417.40625 43.386719 417.132812 43.796875 C 416.859375 44.207031 416.628906 44.640625 416.4375 45.097656 C 416.25 45.550781 416.105469 46.023438 416.011719 46.507812 C 415.914062 46.992188 415.867188 47.480469 415.867188 47.972656 C 415.867188 48.464844 415.914062 48.957031 416.007812 49.441406 C 416.105469 49.921875 416.246094 50.394531 416.4375 50.851562 C 416.625 51.304688 416.855469 51.738281 417.128906 52.148438 C 417.402344 52.5625 417.714844 52.941406 418.0625 53.289062 L 465.355469 100.554688 L 303.210938 100.554688 C 302.71875 100.554688 302.230469 100.601562 301.746094 100.695312 C 301.261719 100.792969 300.792969 100.9375 300.335938 101.125 C 299.882812 101.3125 299.449219 101.542969 299.039062 101.820312 C 298.628906 102.09375 298.25 102.402344 297.902344 102.753906 C 297.550781 103.101562 297.242188 103.480469 296.964844 103.890625 C 296.691406 104.300781 296.460938 104.734375 296.273438 105.191406 C 296.082031 105.644531 295.941406 106.117188 295.84375 106.597656 C 295.75 107.082031 295.699219 107.570312 295.699219 108.066406 C 295.699219 108.558594 295.75 109.046875 295.84375 109.53125 C 295.941406 110.011719 296.082031 110.484375 296.273438 110.9375 C 296.460938 111.394531 296.691406 111.828125 296.964844 112.238281 C 297.242188 112.648438 297.550781 113.027344 297.902344 113.375 C 298.25 113.726562 298.628906 114.035156 299.039062 114.308594 C 299.449219 114.585938 299.882812 114.816406 300.335938 115.003906 C 300.792969 115.191406 301.261719 115.335938 301.746094 115.433594 C 302.230469 115.527344 302.71875 115.574219 303.210938 115.574219 L 465.355469 115.574219 L 418.078125 162.839844 C 417.730469 163.1875 417.417969 163.566406 417.144531 163.980469 C 416.871094 164.390625 416.640625 164.824219 416.453125 165.277344 C 416.261719 165.734375 416.121094 166.207031 416.023438 166.6875 C 415.929688 167.171875 415.878906 167.664062 415.878906 168.15625 C 415.878906 168.648438 415.929688 169.136719 416.027344 169.621094 C 416.121094 170.105469 416.265625 170.578125 416.453125 171.03125 C 416.640625 171.488281 416.875 171.921875 417.148438 172.332031 C 417.421875 172.742188 417.734375 173.121094 418.082031 173.472656 C 418.433594 173.820312 418.8125 174.132812 419.222656 174.40625 C 419.632812 174.679688 420.066406 174.914062 420.523438 175.101562 C 420.976562 175.289062 421.449219 175.433594 421.933594 175.527344 C 422.417969 175.625 422.90625 175.675781 423.398438 175.675781 C 423.890625 175.675781 424.382812 175.625 424.867188 175.53125 C 425.347656 175.433594 425.820312 175.292969 426.277344 175.101562 C 426.730469 174.914062 427.164062 174.683594 427.574219 174.410156 C 427.988281 174.136719 428.367188 173.824219 428.714844 173.476562 L 488.808594 113.382812 C 489.507812 112.671875 490.046875 111.855469 490.429688 110.933594 Z M 490.429688 110.933594 " fill-opacity="1" fill-rule="nonzero"/></g></svg>