<svg xmlns="http://www.w3.org/2000/svg" xmlns:xlink="http://www.w3.org/1999/xlink" width="1080" zoomAndPan="magnify" viewBox="0 0 810 809.999993" height="1080" preserveAspectRatio="xMidYMid meet" version="1.0"><defs><clipPath id="132f5174a2"><path d="M 256 83.699219 L 359 83.699219 L 359 186 L 256 186 Z M 256 83.699219 " clip-rule="nonzero"/></clipPath><clipPath id="1538f2f13c"><path d="M 140 310 L 474.003906 310 L 474.003906 346.949219 L 140 346.949219 Z M 140 310 " clip-rule="nonzero"/></clipPath><clipPath id="e8468b2388"><path d="M 138.003906 169 L 223 169 L 223 322 L 138.003906 322 Z M 138.003906 169 " clip-rule="nonzero"/></clipPath><clipPath id="2710b7c9ab"><path d="M 463 35.320312 L 729 35.320312 L 729 240.820312 L 463 240.820312 Z M 463 35.320312 " clip-rule="nonzero"/></clipPath><clipPath id="9c81c7fa3f"><path d="M 618 657 L 809 657 L 809 774.867188 L 618 774.867188 Z M 618 657 " clip-rule="nonzero"/></clipPath><clipPath id="4ef48f8b22"><path d="M 412 657 L 603 657 L 603 774.867188 L 412 774.867188 Z M 412 657 " clip-rule="nonzero"/></clipPath><clipPath id="92dc296a14"><path d="M 1 657 L 192 657 L 192 774.867188 L 1 774.867188 Z M 1 657 " clip-rule="nonzero"/></clipPath><clipPath id="7ff1278722"><path d="M 207 657 L 398 657 L 398 774.867188 L 207 774.867188 Z M 207 657 " clip-rule="nonzero"/></clipPath></defs><path fill="#028a8c" d="M 330.511719 192.027344 C 323.375 194.910156 315.582031 196.496094 307.421875 196.496094 C 299.265625 196.496094 291.46875 194.910156 284.332031 192.027344 C 241.9375 202.386719 210.472656 240.621094 210.472656 286.203125 L 210.472656 299.855469 L 404.371094 299.855469 L 404.371094 286.203125 C 404.371094 240.621094 372.902344 202.386719 330.511719 192.027344 " fill-opacity="1" fill-rule="nonzero"/><g clip-path="url(#132f5174a2)"><path fill="#028a8c" d="M 358.292969 134.570312 C 358.292969 162.667969 335.515625 185.4375 307.421875 185.4375 C 279.328125 185.4375 256.550781 162.667969 256.550781 134.570312 C 256.550781 106.476562 279.328125 83.699219 307.421875 83.699219 C 335.515625 83.699219 358.292969 106.476562 358.292969 134.570312 " fill-opacity="1" fill-rule="nonzero"/></g><g clip-path="url(#1538f2f13c)"><path fill="#028a8c" d="M 474.042969 346.644531 L 140.800781 346.644531 L 140.800781 310.363281 L 474.042969 310.363281 L 474.042969 346.644531 " fill-opacity="1" fill-rule="nonzero"/></g><g clip-path="url(#e8468b2388)"><path fill="#028a8c" d="M 220.125 171.074219 C 217.351562 168.492188 212.984375 168.691406 210.304688 171.371094 L 187.59375 194.078125 C 189.199219 195.683594 189.199219 198.285156 187.59375 199.886719 L 138.027344 249.449219 L 142.105469 253.53125 L 177.203125 218.433594 L 177.203125 321.09375 L 183.285156 321.09375 L 183.285156 212.351562 L 191.671875 203.964844 C 193.277344 202.359375 195.875 202.359375 197.476562 203.964844 L 220.304688 181.136719 C 223.097656 178.347656 223.035156 173.789062 220.125 171.074219 " fill-opacity="1" fill-rule="nonzero"/></g><g clip-path="url(#2710b7c9ab)"><path fill="#028a8c" d="M 695.234375 35.289062 L 606.339844 35.289062 C 605.25 35.289062 604.160156 35.339844 603.078125 35.445312 C 601.992188 35.550781 600.914062 35.710938 599.84375 35.921875 C 598.773438 36.132812 597.71875 36.398438 596.675781 36.714844 C 595.632812 37.027344 594.605469 37.394531 593.597656 37.8125 C 592.589844 38.226562 591.605469 38.691406 590.644531 39.207031 C 589.679688 39.71875 588.746094 40.277344 587.839844 40.882812 C 586.933594 41.488281 586.058594 42.136719 585.214844 42.824219 C 584.371094 43.515625 583.5625 44.246094 582.789062 45.015625 C 582.019531 45.789062 581.285156 46.59375 580.59375 47.4375 C 579.902344 48.277344 579.253906 49.152344 578.644531 50.058594 C 578.039062 50.964844 577.480469 51.898438 576.964844 52.859375 C 576.449219 53.820312 575.984375 54.804688 575.5625 55.8125 C 575.144531 56.816406 574.777344 57.84375 574.460938 58.886719 C 574.144531 59.929688 573.878906 60.984375 573.664062 62.054688 C 573.449219 63.125 573.289062 64.199219 573.183594 65.285156 C 573.074219 66.371094 573.019531 67.457031 573.019531 68.546875 L 573.019531 86.941406 L 496.660156 86.941406 C 495.570312 86.941406 494.480469 86.996094 493.394531 87.105469 C 492.3125 87.210938 491.234375 87.371094 490.164062 87.585938 C 489.09375 87.800781 488.039062 88.066406 486.996094 88.382812 C 485.949219 88.699219 484.925781 89.066406 483.917969 89.484375 C 482.910156 89.902344 481.925781 90.371094 480.964844 90.886719 C 480.003906 91.398438 479.070312 91.960938 478.164062 92.566406 C 477.257812 93.171875 476.382812 93.824219 475.539062 94.515625 C 474.695312 95.207031 473.890625 95.9375 473.117188 96.710938 C 472.347656 97.480469 471.617188 98.289062 470.925781 99.132812 C 470.234375 99.976562 469.585938 100.851562 468.980469 101.757812 C 468.375 102.664062 467.8125 103.601562 467.300781 104.5625 C 466.785156 105.523438 466.320312 106.507812 465.902344 107.515625 C 465.484375 108.523438 465.121094 109.550781 464.804688 110.59375 C 464.488281 111.636719 464.222656 112.695312 464.007812 113.765625 C 463.796875 114.835938 463.636719 115.910156 463.53125 116.996094 C 463.421875 118.082031 463.371094 119.171875 463.371094 120.261719 L 463.371094 170.777344 C 463.371094 171.773438 463.417969 172.761719 463.507812 173.753906 C 463.597656 174.742188 463.730469 175.726562 463.910156 176.703125 C 464.085938 177.679688 464.308594 178.648438 464.574219 179.605469 C 464.835938 180.5625 465.144531 181.507812 465.492188 182.4375 C 465.839844 183.367188 466.230469 184.28125 466.660156 185.175781 C 467.09375 186.070312 467.5625 186.945312 468.070312 187.796875 C 468.578125 188.652344 469.125 189.480469 469.707031 190.285156 C 470.289062 191.089844 470.910156 191.867188 471.558594 192.613281 C 472.210938 193.363281 472.898438 194.082031 473.613281 194.769531 C 474.332031 195.457031 475.078125 196.113281 475.851562 196.734375 C 476.625 197.355469 477.429688 197.941406 478.253906 198.492188 C 479.082031 199.039062 479.933594 199.550781 480.808594 200.023438 C 481.679688 200.5 482.574219 200.933594 483.484375 201.328125 C 484.398438 201.71875 485.324219 202.070312 486.269531 202.382812 C 487.210938 202.695312 488.167969 202.960938 489.136719 203.1875 C 490.101562 203.410156 491.078125 203.59375 492.0625 203.730469 L 492.0625 236.164062 C 492.066406 237 492.28125 237.773438 492.710938 238.492188 C 493.136719 239.207031 493.71875 239.769531 494.449219 240.167969 C 495.183594 240.570312 495.964844 240.757812 496.800781 240.730469 C 497.636719 240.707031 498.40625 240.472656 499.113281 240.027344 L 556.097656 204.039062 L 585.769531 204.039062 C 586.855469 204.035156 587.941406 203.976562 589.019531 203.863281 C 590.101562 203.753906 591.171875 203.589844 592.238281 203.375 C 593.300781 203.15625 594.351562 202.890625 595.390625 202.570312 C 596.429688 202.25 597.449219 201.882812 598.453125 201.460938 C 599.453125 201.042969 600.433594 200.578125 601.386719 200.0625 C 602.34375 199.546875 603.273438 198.984375 604.175781 198.378906 C 605.078125 197.773438 605.945312 197.125 606.785156 196.433594 C 607.621094 195.742188 608.421875 195.011719 609.191406 194.242188 C 609.957031 193.472656 610.683594 192.667969 611.371094 191.828125 C 612.058594 190.984375 612.703125 190.113281 613.304688 189.210938 C 613.90625 188.304688 614.460938 187.375 614.972656 186.414062 C 615.484375 185.457031 615.945312 184.476562 616.359375 183.472656 C 616.773438 182.46875 617.136719 181.445312 617.453125 180.40625 C 617.765625 179.367188 618.03125 178.3125 618.242188 177.25 C 618.453125 176.183594 618.613281 175.109375 618.71875 174.03125 C 618.824219 172.949219 618.875 171.863281 618.875 170.777344 L 618.875 152.386719 L 635.949219 152.386719 L 692.722656 188.3125 C 693.472656 188.777344 694.289062 189.011719 695.175781 189.019531 C 695.964844 189.015625 696.710938 188.832031 697.410156 188.464844 C 698.144531 188.054688 698.71875 187.488281 699.140625 186.761719 C 699.5625 186.039062 699.773438 185.257812 699.773438 184.417969 L 699.773438 152.019531 C 700.757812 151.878906 701.730469 151.699219 702.699219 151.472656 C 703.667969 151.25 704.621094 150.980469 705.566406 150.667969 C 706.507812 150.359375 707.4375 150.007812 708.347656 149.613281 C 709.261719 149.21875 710.152344 148.785156 711.027344 148.3125 C 711.902344 147.839844 712.75 147.328125 713.578125 146.777344 C 714.40625 146.226562 715.207031 145.640625 715.984375 145.019531 C 716.757812 144.398438 717.503906 143.746094 718.21875 143.058594 C 718.9375 142.371094 719.621094 141.652344 720.273438 140.902344 C 720.925781 140.152344 721.542969 139.375 722.125 138.570312 C 722.710938 137.765625 723.253906 136.9375 723.765625 136.085938 C 724.273438 135.230469 724.742188 134.355469 725.171875 133.460938 C 725.601562 132.566406 725.992188 131.652344 726.34375 130.722656 C 726.691406 129.792969 726.996094 128.851562 727.261719 127.890625 C 727.527344 126.933594 727.746094 125.96875 727.925781 124.988281 C 728.101562 124.011719 728.238281 123.027344 728.328125 122.039062 C 728.417969 121.050781 728.464844 120.058594 728.464844 119.066406 L 728.464844 68.546875 C 728.460938 67.460938 728.40625 66.375 728.300781 65.292969 C 728.191406 64.210938 728.03125 63.132812 727.816406 62.066406 C 727.601562 61 727.335938 59.945312 727.019531 58.90625 C 726.703125 57.863281 726.335938 56.84375 725.917969 55.835938 C 725.503906 54.832031 725.035156 53.851562 724.523438 52.890625 C 724.011719 51.929688 723.453125 51 722.847656 50.09375 C 722.242188 49.191406 721.59375 48.316406 720.90625 47.476562 C 720.214844 46.632812 719.484375 45.828125 718.714844 45.058594 C 717.945312 44.289062 717.140625 43.558594 716.300781 42.867188 C 715.460938 42.175781 714.589844 41.527344 713.683594 40.921875 C 712.78125 40.316406 711.847656 39.757812 710.890625 39.242188 C 709.929688 38.730469 708.949219 38.261719 707.945312 37.84375 C 706.941406 37.425781 705.917969 37.058594 704.875 36.742188 C 703.835938 36.425781 702.78125 36.15625 701.714844 35.941406 C 700.648438 35.726562 699.574219 35.566406 698.492188 35.457031 C 697.410156 35.347656 696.324219 35.292969 695.234375 35.289062 Z M 609.679688 170.777344 C 609.679688 171.566406 609.640625 172.351562 609.5625 173.136719 C 609.484375 173.921875 609.367188 174.699219 609.214844 175.472656 C 609.058594 176.242188 608.867188 177.007812 608.636719 177.761719 C 608.410156 178.515625 608.144531 179.253906 607.839844 179.984375 C 607.539062 180.710938 607.203125 181.421875 606.832031 182.117188 C 606.457031 182.8125 606.054688 183.484375 605.617188 184.140625 C 605.179688 184.796875 604.710938 185.425781 604.210938 186.035156 C 603.710938 186.644531 603.179688 187.226562 602.625 187.785156 C 602.066406 188.34375 601.484375 188.871094 600.875 189.371094 C 600.265625 189.871094 599.632812 190.339844 598.980469 190.777344 C 598.324219 191.214844 597.648438 191.621094 596.953125 191.992188 C 596.261719 192.363281 595.550781 192.699219 594.820312 193.003906 C 594.09375 193.304688 593.351562 193.570312 592.597656 193.800781 C 591.84375 194.027344 591.082031 194.21875 590.308594 194.375 C 589.539062 194.527344 588.757812 194.644531 587.976562 194.722656 C 587.191406 194.800781 586.40625 194.839844 585.617188 194.84375 L 554.625 194.84375 C 553.722656 194.835938 552.894531 195.082031 552.144531 195.578125 L 501.289062 227.796875 L 501.289062 199.316406 C 501.289062 199.015625 501.257812 198.714844 501.199219 198.421875 C 501.140625 198.125 501.054688 197.835938 500.9375 197.558594 C 500.824219 197.277344 500.679688 197.015625 500.511719 196.761719 C 500.347656 196.511719 500.15625 196.28125 499.941406 196.066406 C 499.726562 195.851562 499.496094 195.664062 499.246094 195.496094 C 498.992188 195.328125 498.730469 195.183594 498.449219 195.070312 C 498.171875 194.953125 497.882812 194.867188 497.585938 194.808594 C 497.292969 194.75 496.992188 194.71875 496.691406 194.71875 C 495.902344 194.71875 495.117188 194.679688 494.332031 194.601562 C 493.546875 194.523438 492.769531 194.40625 491.996094 194.253906 C 491.222656 194.097656 490.460938 193.90625 489.707031 193.675781 C 488.953125 193.449219 488.210938 193.183594 487.480469 192.878906 C 486.753906 192.578125 486.042969 192.242188 485.347656 191.871094 C 484.652344 191.5 483.976562 191.09375 483.320312 190.65625 C 482.664062 190.21875 482.035156 189.75 481.425781 189.25 C 480.816406 188.75 480.230469 188.222656 479.671875 187.664062 C 479.117188 187.109375 478.585938 186.523438 478.085938 185.914062 C 477.585938 185.308594 477.117188 184.675781 476.675781 184.019531 C 476.238281 183.363281 475.832031 182.691406 475.460938 181.996094 C 475.089844 181.300781 474.75 180.589844 474.449219 179.863281 C 474.144531 179.132812 473.878906 178.394531 473.648438 177.640625 C 473.417969 176.886719 473.226562 176.121094 473.070312 175.351562 C 472.914062 174.578125 472.796875 173.800781 472.71875 173.015625 C 472.640625 172.230469 472.597656 171.445312 472.597656 170.65625 L 472.597656 120.261719 C 472.597656 119.472656 472.640625 118.6875 472.71875 117.902344 C 472.796875 117.117188 472.914062 116.339844 473.070312 115.566406 C 473.226562 114.792969 473.417969 114.03125 473.648438 113.277344 C 473.878906 112.523438 474.144531 111.78125 474.449219 111.054688 C 474.75 110.328125 475.089844 109.617188 475.460938 108.921875 C 475.832031 108.226562 476.238281 107.550781 476.675781 106.898438 C 477.117188 106.242188 477.585938 105.609375 478.085938 105 C 478.585938 104.394531 479.117188 103.808594 479.671875 103.253906 C 480.230469 102.695312 480.816406 102.167969 481.425781 101.667969 C 482.035156 101.167969 482.664062 100.699219 483.320312 100.261719 C 483.976562 99.824219 484.652344 99.417969 485.347656 99.046875 C 486.042969 98.675781 486.753906 98.339844 487.480469 98.039062 C 488.210938 97.734375 488.953125 97.46875 489.707031 97.242188 C 490.460938 97.011719 491.222656 96.820312 491.996094 96.664062 C 492.769531 96.511719 493.546875 96.394531 494.332031 96.316406 C 495.117188 96.238281 495.902344 96.199219 496.691406 96.199219 L 585.585938 96.199219 C 586.375 96.199219 587.160156 96.238281 587.945312 96.316406 C 588.726562 96.394531 589.507812 96.511719 590.277344 96.664062 C 591.050781 96.820312 591.816406 97.011719 592.570312 97.242188 C 593.320312 97.46875 594.0625 97.734375 594.789062 98.039062 C 595.519531 98.339844 596.230469 98.675781 596.925781 99.046875 C 597.617188 99.421875 598.292969 99.824219 598.949219 100.261719 C 599.601562 100.699219 600.234375 101.167969 600.84375 101.667969 C 601.453125 102.167969 602.035156 102.699219 602.59375 103.253906 C 603.148438 103.8125 603.679688 104.394531 604.179688 105.003906 C 604.679688 105.613281 605.148438 106.246094 605.585938 106.898438 C 606.023438 107.554688 606.429688 108.230469 606.800781 108.925781 C 607.171875 109.617188 607.507812 110.328125 607.808594 111.058594 C 608.113281 111.785156 608.378906 112.527344 608.605469 113.28125 C 608.835938 114.03125 609.027344 114.796875 609.183594 115.570312 C 609.335938 116.339844 609.453125 117.121094 609.53125 117.902344 C 609.609375 118.6875 609.648438 119.472656 609.648438 120.261719 Z M 719.328125 119.066406 C 719.328125 119.855469 719.285156 120.640625 719.207031 121.425781 C 719.128906 122.207031 719.011719 122.988281 718.855469 123.757812 C 718.699219 124.53125 718.507812 125.296875 718.277344 126.050781 C 718.046875 126.804688 717.78125 127.542969 717.480469 128.273438 C 717.175781 129 716.839844 129.710938 716.464844 130.40625 C 716.09375 131.101562 715.6875 131.773438 715.25 132.429688 C 714.808594 133.085938 714.339844 133.714844 713.839844 134.324219 C 713.339844 134.933594 712.8125 135.515625 712.253906 136.074219 C 711.695312 136.632812 711.113281 137.160156 710.503906 137.660156 C 709.894531 138.160156 709.261719 138.628906 708.605469 139.066406 C 707.949219 139.503906 707.273438 139.90625 706.578125 140.28125 C 705.882812 140.652344 705.171875 140.988281 704.445312 141.289062 C 703.714844 141.589844 702.976562 141.855469 702.222656 142.085938 C 701.464844 142.316406 700.703125 142.507812 699.929688 142.660156 C 699.15625 142.816406 698.378906 142.933594 697.59375 143.011719 C 696.808594 143.089844 696.023438 143.128906 695.234375 143.128906 C 694.933594 143.128906 694.632812 143.160156 694.339844 143.21875 C 694.042969 143.277344 693.753906 143.363281 693.476562 143.480469 C 693.195312 143.59375 692.933594 143.734375 692.679688 143.902344 C 692.429688 144.070312 692.199219 144.261719 691.984375 144.476562 C 691.769531 144.6875 691.582031 144.921875 691.414062 145.171875 C 691.246094 145.421875 691.101562 145.6875 690.988281 145.96875 C 690.871094 146.246094 690.785156 146.535156 690.726562 146.828125 C 690.667969 147.125 690.636719 147.425781 690.636719 147.726562 L 690.636719 176.082031 L 639.753906 143.863281 C 639 143.367188 638.171875 143.121094 637.269531 143.128906 L 618.875 143.128906 L 618.875 120.261719 C 618.875 119.171875 618.820312 118.085938 618.714844 117.003906 C 618.605469 115.917969 618.445312 114.84375 618.234375 113.773438 C 618.019531 112.707031 617.753906 111.652344 617.4375 110.609375 C 617.121094 109.566406 616.753906 108.542969 616.335938 107.539062 C 615.917969 106.53125 615.453125 105.550781 614.941406 104.589844 C 614.425781 103.628906 613.867188 102.695312 613.261719 101.789062 C 612.65625 100.886719 612.007812 100.011719 611.316406 99.167969 C 610.628906 98.328125 609.894531 97.523438 609.125 96.753906 C 608.355469 95.980469 607.550781 95.25 606.707031 94.5625 C 605.867188 93.871094 604.992188 93.222656 604.089844 92.617188 C 603.183594 92.011719 602.25 91.453125 601.289062 90.9375 C 600.328125 90.425781 599.347656 89.957031 598.339844 89.542969 C 597.335938 89.125 596.3125 88.757812 595.269531 88.441406 C 594.226562 88.125 593.171875 87.859375 592.105469 87.644531 C 591.035156 87.433594 589.960938 87.273438 588.875 87.164062 C 587.792969 87.058594 586.707031 87.003906 585.617188 87 L 582.214844 87 L 582.214844 68.609375 C 582.214844 67.820312 582.253906 67.035156 582.332031 66.25 C 582.410156 65.46875 582.527344 64.691406 582.683594 63.917969 C 582.835938 63.144531 583.027344 62.382812 583.257812 61.628906 C 583.488281 60.875 583.753906 60.132812 584.054688 59.40625 C 584.355469 58.679688 584.695312 57.964844 585.066406 57.273438 C 585.4375 56.578125 585.839844 55.902344 586.28125 55.246094 C 586.71875 54.59375 587.1875 53.960938 587.6875 53.351562 C 588.1875 52.742188 588.714844 52.160156 589.273438 51.601562 C 589.828125 51.046875 590.410156 50.515625 591.019531 50.019531 C 591.628906 49.519531 592.261719 49.050781 592.917969 48.609375 C 593.570312 48.171875 594.246094 47.769531 594.941406 47.398438 C 595.636719 47.023438 596.347656 46.6875 597.074219 46.386719 C 597.800781 46.085938 598.542969 45.820312 599.296875 45.589844 C 600.050781 45.359375 600.8125 45.167969 601.585938 45.011719 C 602.359375 44.859375 603.136719 44.742188 603.921875 44.664062 C 604.703125 44.585938 605.492188 44.546875 606.277344 44.546875 L 695.175781 44.546875 C 695.960938 44.546875 696.75 44.585938 697.53125 44.664062 C 698.316406 44.742188 699.097656 44.859375 699.867188 45.011719 C 700.640625 45.167969 701.40625 45.359375 702.160156 45.589844 C 702.914062 45.816406 703.65625 46.082031 704.382812 46.386719 C 705.109375 46.6875 705.824219 47.023438 706.519531 47.394531 C 707.210938 47.765625 707.886719 48.171875 708.542969 48.609375 C 709.199219 49.046875 709.832031 49.515625 710.441406 50.015625 C 711.050781 50.515625 711.632812 51.042969 712.191406 51.601562 C 712.75 52.15625 713.277344 52.742188 713.777344 53.351562 C 714.28125 53.957031 714.75 54.589844 715.1875 55.246094 C 715.625 55.898438 716.03125 56.574219 716.40625 57.269531 C 716.777344 57.964844 717.113281 58.675781 717.417969 59.402344 C 717.71875 60.132812 717.988281 60.871094 718.214844 61.625 C 718.445312 62.378906 718.640625 63.144531 718.796875 63.914062 C 718.949219 64.6875 719.066406 65.464844 719.148438 66.25 C 719.226562 67.035156 719.265625 67.820312 719.269531 68.609375 Z M 719.328125 119.066406 " fill-opacity="1" fill-rule="nonzero"/></g><path fill="#028a8c" d="M 545.246094 114.988281 C 544.855469 114.210938 544.289062 113.597656 543.550781 113.140625 C 542.8125 112.683594 542.007812 112.457031 541.136719 112.457031 C 540.269531 112.457031 539.464844 112.683594 538.726562 113.140625 C 537.988281 113.597656 537.421875 114.210938 537.03125 114.988281 L 508.675781 170.839844 C 508.519531 171.109375 508.394531 171.394531 508.296875 171.6875 C 508.199219 171.984375 508.132812 172.289062 508.097656 172.597656 C 508.0625 172.90625 508.058594 173.214844 508.085938 173.527344 C 508.113281 173.835938 508.171875 174.140625 508.261719 174.4375 C 508.347656 174.738281 508.46875 175.023438 508.613281 175.296875 C 508.761719 175.574219 508.933594 175.828125 509.132812 176.070312 C 509.332031 176.308594 509.554688 176.523438 509.796875 176.71875 C 510.042969 176.914062 510.300781 177.082031 510.578125 177.222656 C 510.855469 177.363281 511.144531 177.476562 511.445312 177.558594 C 511.746094 177.640625 512.050781 177.691406 512.363281 177.710938 C 512.671875 177.734375 512.984375 177.722656 513.292969 177.679688 C 513.601562 177.636719 513.902344 177.566406 514.195312 177.460938 C 514.488281 177.359375 514.769531 177.226562 515.035156 177.066406 C 515.300781 176.90625 515.550781 176.71875 515.777344 176.507812 C 516.007812 176.296875 516.214844 176.066406 516.394531 175.8125 C 516.578125 175.5625 516.734375 175.292969 516.859375 175.007812 L 526.640625 155.757812 L 555.636719 155.757812 L 565.292969 175.007812 C 565.421875 175.292969 565.578125 175.5625 565.757812 175.8125 C 565.941406 176.066406 566.144531 176.296875 566.375 176.507812 C 566.605469 176.71875 566.851562 176.90625 567.121094 177.066406 C 567.386719 177.226562 567.667969 177.359375 567.960938 177.460938 C 568.253906 177.566406 568.554688 177.636719 568.863281 177.679688 C 569.171875 177.722656 569.480469 177.734375 569.792969 177.714844 C 570.101562 177.691406 570.410156 177.640625 570.707031 177.558594 C 571.007812 177.476562 571.296875 177.363281 571.574219 177.222656 C 571.851562 177.082031 572.113281 176.914062 572.355469 176.71875 C 572.601562 176.523438 572.820312 176.308594 573.019531 176.070312 C 573.21875 175.828125 573.394531 175.574219 573.539062 175.296875 C 573.6875 175.023438 573.804688 174.738281 573.894531 174.4375 C 573.984375 174.140625 574.042969 173.835938 574.070312 173.527344 C 574.097656 173.214844 574.089844 172.90625 574.054688 172.597656 C 574.019531 172.289062 573.953125 171.984375 573.855469 171.6875 C 573.757812 171.394531 573.632812 171.109375 573.476562 170.839844 Z M 531.296875 146.5625 L 541.136719 127.21875 L 550.949219 146.5625 Z M 531.296875 146.5625 " fill-opacity="1" fill-rule="nonzero"/><path fill="#028a8c" d="M 677.640625 115.417969 L 659.707031 103.339844 C 663.429688 97.453125 666.496094 91.238281 668.902344 84.703125 L 675.035156 84.703125 C 675.335938 84.703125 675.636719 84.671875 675.933594 84.613281 C 676.226562 84.554688 676.515625 84.46875 676.792969 84.351562 C 677.074219 84.238281 677.339844 84.09375 677.589844 83.929688 C 677.839844 83.761719 678.074219 83.570312 678.285156 83.355469 C 678.5 83.140625 678.691406 82.910156 678.859375 82.660156 C 679.027344 82.40625 679.167969 82.144531 679.28125 81.863281 C 679.398438 81.585938 679.484375 81.296875 679.542969 81 C 679.601562 80.707031 679.632812 80.40625 679.632812 80.105469 C 679.632812 79.804688 679.601562 79.503906 679.542969 79.207031 C 679.484375 78.910156 679.398438 78.625 679.28125 78.34375 C 679.167969 78.066406 679.027344 77.800781 678.859375 77.550781 C 678.691406 77.300781 678.5 77.066406 678.285156 76.851562 C 678.074219 76.640625 677.839844 76.449219 677.589844 76.28125 C 677.339844 76.113281 677.074219 75.972656 676.792969 75.855469 C 676.515625 75.742188 676.226562 75.652344 675.933594 75.59375 C 675.636719 75.535156 675.335938 75.507812 675.035156 75.507812 L 656.457031 75.507812 L 656.457031 65.941406 C 656.457031 65.640625 656.429688 65.339844 656.371094 65.046875 C 656.3125 64.75 656.222656 64.460938 656.109375 64.183594 C 655.992188 63.902344 655.851562 63.640625 655.683594 63.386719 C 655.515625 63.136719 655.324219 62.90625 655.113281 62.691406 C 654.898438 62.476562 654.664062 62.289062 654.414062 62.121094 C 654.164062 61.953125 653.898438 61.808594 653.621094 61.695312 C 653.339844 61.578125 653.054688 61.492188 652.757812 61.433594 C 652.460938 61.375 652.164062 61.34375 651.859375 61.34375 C 651.558594 61.34375 651.257812 61.375 650.964844 61.433594 C 650.667969 61.492188 650.378906 61.578125 650.101562 61.695312 C 649.820312 61.808594 649.558594 61.953125 649.304688 62.121094 C 649.054688 62.289062 648.824219 62.476562 648.609375 62.691406 C 648.394531 62.90625 648.203125 63.136719 648.039062 63.386719 C 647.871094 63.640625 647.726562 63.902344 647.613281 64.183594 C 647.496094 64.460938 647.410156 64.75 647.351562 65.046875 C 647.292969 65.339844 647.261719 65.640625 647.261719 65.941406 L 647.261719 75.507812 L 626.601562 75.507812 C 626.300781 75.507812 626 75.535156 625.703125 75.59375 C 625.410156 75.652344 625.121094 75.742188 624.84375 75.855469 C 624.5625 75.972656 624.296875 76.113281 624.046875 76.28125 C 623.796875 76.449219 623.5625 76.640625 623.351562 76.851562 C 623.136719 77.066406 622.945312 77.300781 622.777344 77.550781 C 622.609375 77.800781 622.46875 78.066406 622.355469 78.34375 C 622.238281 78.625 622.152344 78.910156 622.09375 79.207031 C 622.03125 79.503906 622.003906 79.804688 622.003906 80.105469 C 622.003906 80.40625 622.03125 80.707031 622.09375 81 C 622.152344 81.296875 622.238281 81.585938 622.355469 81.863281 C 622.46875 82.144531 622.609375 82.40625 622.777344 82.660156 C 622.945312 82.910156 623.136719 83.140625 623.351562 83.355469 C 623.5625 83.570312 623.796875 83.761719 624.046875 83.929688 C 624.296875 84.09375 624.5625 84.238281 624.84375 84.351562 C 625.121094 84.46875 625.410156 84.554688 625.703125 84.613281 C 626 84.671875 626.300781 84.703125 626.601562 84.703125 L 659.125 84.703125 C 657.160156 89.390625 654.8125 93.875 652.074219 98.160156 L 640.519531 90.375 C 640.261719 90.203125 639.992188 90.0625 639.710938 89.945312 C 639.425781 89.828125 639.132812 89.742188 638.832031 89.683594 C 638.53125 89.625 638.226562 89.59375 637.921875 89.597656 C 637.613281 89.597656 637.308594 89.628906 637.007812 89.691406 C 636.710938 89.75 636.417969 89.839844 636.132812 89.960938 C 635.851562 90.078125 635.582031 90.222656 635.328125 90.394531 C 635.074219 90.566406 634.839844 90.761719 634.625 90.976562 C 634.40625 91.195312 634.214844 91.433594 634.046875 91.6875 C 633.875 91.945312 633.734375 92.214844 633.617188 92.5 C 633.503906 92.78125 633.414062 93.074219 633.355469 93.375 C 633.296875 93.675781 633.269531 93.980469 633.273438 94.289062 C 633.273438 94.59375 633.304688 94.898438 633.367188 95.199219 C 633.425781 95.5 633.519531 95.789062 633.636719 96.074219 C 633.753906 96.355469 633.902344 96.625 634.074219 96.878906 C 634.246094 97.132812 634.4375 97.367188 634.65625 97.582031 C 634.875 97.796875 635.113281 97.992188 635.367188 98.160156 L 646.773438 105.824219 C 643.195312 110.34375 639.242188 114.5 634.910156 118.300781 C 634.683594 118.5 634.480469 118.722656 634.296875 118.964844 C 634.113281 119.207031 633.957031 119.460938 633.824219 119.734375 C 633.695312 120.007812 633.589844 120.289062 633.511719 120.582031 C 633.4375 120.875 633.390625 121.171875 633.371094 121.476562 C 633.355469 121.777344 633.367188 122.078125 633.410156 122.378906 C 633.449219 122.679688 633.519531 122.972656 633.621094 123.257812 C 633.71875 123.542969 633.847656 123.816406 634 124.078125 C 634.152344 124.339844 634.328125 124.582031 634.53125 124.808594 C 634.730469 125.035156 634.953125 125.238281 635.195312 125.421875 C 635.433594 125.605469 635.691406 125.761719 635.964844 125.894531 C 636.238281 126.027344 636.519531 126.132812 636.8125 126.207031 C 637.105469 126.285156 637.402344 126.332031 637.703125 126.347656 C 638.007812 126.367188 638.308594 126.355469 638.609375 126.316406 C 638.90625 126.273438 639.199219 126.203125 639.488281 126.105469 C 639.773438 126.003906 640.046875 125.878906 640.308594 125.726562 C 640.570312 125.574219 640.8125 125.398438 641.039062 125.195312 C 645.96875 120.875 650.453125 116.132812 654.496094 110.972656 L 672.582031 123.234375 C 673.351562 123.75 674.199219 124.007812 675.125 124 C 675.617188 124 676.097656 123.921875 676.5625 123.765625 C 677.027344 123.613281 677.457031 123.390625 677.851562 123.097656 C 678.246094 122.804688 678.585938 122.457031 678.871094 122.054688 C 679.152344 121.65625 679.367188 121.21875 679.511719 120.75 C 679.65625 120.28125 679.722656 119.800781 679.710938 119.308594 C 679.703125 118.820312 679.617188 118.34375 679.453125 117.878906 C 679.289062 117.414062 679.058594 116.988281 678.757812 116.601562 C 678.460938 116.210938 678.109375 115.878906 677.703125 115.601562 Z M 677.640625 115.417969 " fill-opacity="1" fill-rule="nonzero"/><path fill="#028a8c" d="M 333.269531 537.855469 C 324.019531 531.820312 313.238281 528.621094 302.117188 528.621094 C 291.117188 528.621094 280.382812 531.820312 271.085938 537.886719 C 255.09375 548.496094 245.515625 566.207031 245.515625 585.234375 C 245.515625 604.074219 254.78125 621.648438 270.28125 632.214844 C 289.339844 644.992188 314.847656 645.035156 334.03125 632.183594 C 349.574219 621.570312 358.886719 604.015625 358.886719 585.234375 C 358.886719 566.207031 349.3125 548.496094 333.269531 537.855469 Z M 333.269531 537.855469 " fill-opacity="1" fill-rule="nonzero"/><path fill="#028a8c" d="M 216.019531 387.511719 C 210.742188 385.890625 205.160156 385.070312 199.421875 385.070312 C 168.128906 385.070312 142.648438 410.46875 142.648438 441.683594 C 142.648438 472.902344 168.113281 498.300781 199.421875 498.300781 C 230.730469 498.300781 256.035156 472.902344 256.035156 441.683594 C 256.035156 416.59375 239.964844 394.828125 216.019531 387.511719 Z M 216.019531 387.511719 " fill-opacity="1" fill-rule="nonzero"/><path fill="#028a8c" d="M 199.359375 712.15625 C 211.222656 682.039062 235.894531 658.386719 266.679688 647.914062 C 264.992188 646.957031 263.261719 646.121094 261.636719 645.035156 C 241.851562 631.546875 230.0625 609.210938 230.0625 585.25 C 230.0625 564.644531 238.925781 545.324219 254.101562 531.667969 C 238.078125 520.28125 219.113281 513.785156 199.421875 513.785156 C 179.574219 513.785156 160.5 520.328125 144.429688 531.789062 C 159.1875 545 168.667969 563.996094 168.667969 585.328125 C 168.667969 609.488281 156.617188 630.789062 138.335938 643.890625 C 138.101562 644.140625 137.824219 644.308594 137.578125 644.527344 C 137.082031 644.867188 136.601562 645.207031 136.105469 645.53125 C 135.953125 645.609375 135.8125 645.71875 135.644531 645.78125 C 134.4375 646.566406 133.089844 647.140625 131.835938 647.851562 C 162.714844 658.292969 187.476562 681.992188 199.375 712.1875 Z M 199.359375 712.15625 " fill-opacity="1" fill-rule="nonzero"/><g clip-path="url(#9c81c7fa3f)"><path fill="#028a8c" d="M 713.554688 657.425781 C 713.554688 657.425781 713.492188 657.425781 713.460938 657.425781 C 713.429688 657.425781 713.398438 657.425781 713.371094 657.425781 C 660.976562 657.488281 618.390625 700.105469 618.390625 752.515625 L 618.390625 774.480469 L 808.5625 774.480469 L 808.5625 752.515625 C 808.5625 700.121094 765.964844 657.488281 713.570312 657.425781 Z M 713.554688 657.425781 " fill-opacity="1" fill-rule="nonzero"/></g><g clip-path="url(#4ef48f8b22)"><path fill="#028a8c" d="M 602.90625 752.515625 C 602.90625 700.230469 560.492188 657.707031 508.269531 657.457031 C 508.128906 657.457031 508.007812 657.488281 507.867188 657.488281 C 507.710938 657.488281 507.574219 657.457031 507.417969 657.457031 C 455.164062 657.675781 412.71875 700.214844 412.71875 752.53125 L 412.71875 774.496094 L 602.890625 774.496094 L 602.890625 752.53125 Z M 602.90625 752.515625 " fill-opacity="1" fill-rule="nonzero"/></g><g clip-path="url(#92dc296a14)"><path fill="#028a8c" d="M 191.625 752.515625 C 191.625 700.121094 149.039062 657.488281 96.644531 657.425781 C 96.613281 657.425781 96.585938 657.425781 96.554688 657.425781 C 96.523438 657.425781 96.492188 657.425781 96.460938 657.425781 C 44.066406 657.488281 1.464844 700.105469 1.464844 752.515625 L 1.464844 774.480469 L 191.640625 774.480469 L 191.640625 752.515625 Z M 191.625 752.515625 " fill-opacity="1" fill-rule="nonzero"/></g><path fill="#028a8c" d="M 678.179688 647.820312 C 676.925781 647.109375 675.59375 646.539062 674.386719 645.765625 C 674.1875 645.6875 674.03125 645.5625 673.847656 645.46875 C 673.429688 645.191406 673.011719 644.914062 672.578125 644.621094 C 672.238281 644.355469 671.882812 644.125 671.589844 643.800781 C 653.351562 630.699219 641.332031 609.429688 641.332031 585.3125 C 641.332031 563.980469 650.8125 544.984375 665.570312 531.773438 C 649.515625 520.3125 630.472656 513.769531 610.71875 513.769531 C 590.964844 513.769531 572.0625 520.28125 555.914062 531.683594 C 571.089844 545.355469 579.921875 564.660156 579.921875 585.234375 C 579.921875 609.195312 568.132812 631.53125 548.394531 644.992188 C 546.753906 646.089844 545.007812 646.941406 543.289062 647.898438 C 574.074219 658.371094 598.746094 682.023438 610.609375 712.140625 C 622.507812 681.945312 647.269531 658.246094 678.148438 647.820312 Z M 678.179688 647.820312 " fill-opacity="1" fill-rule="nonzero"/><g clip-path="url(#7ff1278722)"><path fill="#028a8c" d="M 397.265625 752.515625 C 397.265625 700.214844 354.835938 657.660156 302.566406 657.441406 C 302.410156 657.441406 302.273438 657.472656 302.117188 657.472656 C 301.976562 657.472656 301.855469 657.441406 301.714844 657.441406 C 249.492188 657.691406 207.078125 700.230469 207.078125 752.5 L 207.078125 774.464844 L 397.25 774.464844 L 397.25 752.5 Z M 397.265625 752.515625 " fill-opacity="1" fill-rule="nonzero"/></g><path fill="#028a8c" d="M 538.851562 537.855469 C 529.601562 531.820312 518.867188 528.621094 507.867188 528.621094 C 496.746094 528.621094 485.964844 531.820312 476.667969 537.886719 C 460.671875 548.496094 451.097656 566.207031 451.097656 585.234375 C 451.097656 604.015625 460.425781 621.570312 476.015625 632.214844 C 494.933594 644.898438 520.195312 644.992188 539.300781 632.445312 C 539.53125 632.273438 539.75 632.121094 539.996094 631.980469 C 555.292969 621.417969 564.46875 603.96875 564.46875 585.234375 C 564.46875 566.207031 554.890625 548.496094 538.851562 537.855469 Z M 538.851562 537.855469 " fill-opacity="1" fill-rule="nonzero"/><path fill="#028a8c" d="M 472.367188 647.882812 C 470.695312 646.941406 468.964844 646.105469 467.355469 645.023438 C 447.476562 631.457031 435.628906 609.117188 435.628906 585.21875 C 435.628906 564.613281 444.507812 545.261719 459.683594 531.621094 C 443.765625 520.25 424.800781 513.753906 404.984375 513.753906 C 385.167969 513.753906 366.203125 520.25 350.285156 531.621094 C 365.492188 545.292969 374.355469 564.628906 374.355469 585.21875 C 374.355469 609.101562 362.507812 631.457031 342.691406 644.976562 C 341.050781 646.074219 339.320312 646.910156 337.617188 647.867188 C 368.417969 658.339844 393.121094 681.992188 404.984375 712.125 C 416.847656 681.992188 441.550781 658.324219 472.351562 647.867188 Z M 472.367188 647.882812 " fill-opacity="1" fill-rule="nonzero"/><path fill="#028a8c" d="M 153.199219 585.3125 C 153.199219 554.066406 127.785156 528.648438 96.554688 528.648438 C 65.320312 528.648438 39.890625 554.066406 39.890625 585.3125 C 39.890625 616.558594 65.261719 641.898438 96.460938 641.957031 C 96.492188 641.957031 96.523438 641.957031 96.554688 641.957031 C 96.585938 641.957031 96.613281 641.957031 96.644531 641.957031 C 127.832031 641.898438 153.199219 616.511719 153.199219 585.3125 Z M 153.199219 585.3125 " fill-opacity="1" fill-rule="nonzero"/><path fill="#028a8c" d="M 713.445312 641.957031 C 713.445312 641.957031 713.507812 641.957031 713.539062 641.957031 C 744.726562 641.898438 770.109375 616.511719 770.109375 585.3125 C 770.109375 554.113281 744.679688 528.648438 713.445312 528.648438 C 682.214844 528.648438 656.800781 554.066406 656.800781 585.3125 C 656.800781 616.558594 682.152344 641.898438 713.355469 641.957031 C 713.386719 641.957031 713.417969 641.957031 713.445312 641.957031 Z M 713.445312 641.957031 " fill-opacity="1" fill-rule="nonzero"/><path fill="#028a8c" d="M 610.578125 385.070312 C 604.839844 385.070312 599.257812 385.890625 593.996094 387.511719 C 570.035156 394.828125 553.964844 416.59375 553.964844 441.683594 C 553.964844 450.039062 555.835938 458.160156 559.53125 465.863281 C 559.53125 465.878906 559.5625 465.894531 559.5625 465.925781 C 559.625 466.0625 559.71875 466.171875 559.78125 466.3125 C 569.125 485.769531 588.96875 498.300781 610.578125 498.300781 C 641.933594 498.160156 667.351562 472.777344 667.351562 441.683594 C 667.351562 410.59375 641.886719 385.070312 610.578125 385.070312 Z M 610.578125 385.070312 " fill-opacity="1" fill-rule="nonzero"/><path fill="#028a8c" d="M 421.597656 387.511719 C 416.324219 385.890625 410.738281 385.070312 405 385.070312 C 399.261719 385.070312 393.675781 385.890625 388.417969 387.511719 C 364.457031 394.828125 348.382812 416.59375 348.382812 441.683594 C 348.382812 450.191406 350.210938 458.265625 353.753906 465.707031 C 353.890625 465.972656 354.046875 466.203125 354.152344 466.480469 C 363.777344 486.109375 383.171875 498.300781 405 498.300781 C 436.230469 498.300781 461.617188 472.902344 461.617188 441.683594 C 461.617188 416.59375 445.542969 394.828125 421.597656 387.511719 Z M 421.597656 387.511719 " fill-opacity="1" fill-rule="nonzero"/></svg>