<svg xmlns="http://www.w3.org/2000/svg" xmlns:xlink="http://www.w3.org/1999/xlink" width="1080" zoomAndPan="magnify" viewBox="0 0 810 809.999993" height="1080" preserveAspectRatio="xMidYMid meet" version="1.0"><defs><clipPath id="8d7b82efd5"><path d="M 64.875 30.265625 L 715.867188 30.265625 L 715.867188 390.007812 L 64.875 390.007812 Z M 64.875 30.265625 " clip-rule="nonzero"/></clipPath><clipPath id="92764dbf70"><path d="M 95.175781 60.574219 L 681.578125 60.574219 L 681.578125 357.574219 L 95.175781 357.574219 Z M 95.175781 60.574219 " clip-rule="nonzero"/></clipPath><clipPath id="9d3f8f354e"><path d="M 474 158.917969 L 617 158.917969 L 617 302 L 474 302 Z M 474 158.917969 " clip-rule="nonzero"/></clipPath><clipPath id="7b3095913c"><path d="M 418.863281 309 L 672.363281 309 L 672.363281 779.917969 L 418.863281 779.917969 Z M 418.863281 309 " clip-rule="nonzero"/></clipPath><clipPath id="44d254be45"><path d="M 433.097656 81 L 658.097656 81 L 658.097656 281 L 433.097656 281 Z M 433.097656 81 " clip-rule="nonzero"/></clipPath><clipPath id="be704e6df1"><path d="M 48.503906 714.386719 L 86.835938 714.386719 L 86.835938 728.699219 L 48.503906 728.699219 Z M 48.503906 714.386719 " clip-rule="nonzero"/></clipPath><clipPath id="c740d40846"><path d="M 334 714.386719 L 372.144531 714.386719 L 372.144531 728.699219 L 334 728.699219 Z M 334 714.386719 " clip-rule="nonzero"/></clipPath><clipPath id="b66aed4c77"><path d="M 49 441.449219 L 372 441.449219 L 372 714 L 49 714 Z M 49 441.449219 " clip-rule="nonzero"/></clipPath><clipPath id="b2b2c0d100"><path d="M 170.355469 143.289062 L 381 143.289062 L 381 329 L 170.355469 329 Z M 170.355469 143.289062 " clip-rule="nonzero"/></clipPath><clipPath id="34b5d28946"><path d="M 1 0.289062 L 210 0.289062 L 210 185 L 1 185 Z M 1 0.289062 " clip-rule="nonzero"/></clipPath><clipPath id="16f005f858"><rect x="0" width="211" y="0" height="186"/></clipPath></defs><g clip-path="url(#8d7b82efd5)"><path stroke-linecap="butt" transform="matrix(0.75, 0, 0, 0.75, 64.87374, 30.264394)" fill="none" stroke-linejoin="miter" d="M 0.00167969 0.00164187 L 868.022557 0.00164187 L 868.022557 479.657916 L 0.00167969 479.657916 Z M 0.00167969 0.00164187 " stroke="#028a8c" stroke-width="28" stroke-opacity="1" stroke-miterlimit="4"/></g><g clip-path="url(#92764dbf70)"><path stroke-linecap="butt" transform="matrix(0.75, 0, 0, 0.75, 95.175738, 60.57283)" fill="none" stroke-linejoin="miter" d="M 0.0000577842 0.001852 L 781.869939 0.001852 L 781.869939 396.314397 L 0.0000577842 396.314397 Z M 0.0000577842 0.001852 " stroke="#028a8c" stroke-width="14" stroke-opacity="1" stroke-miterlimit="4"/></g><g clip-path="url(#9d3f8f354e)"><path fill="#028a8c" d="M 545.8125 158.917969 C 506.636719 158.917969 474.765625 190.789062 474.765625 229.964844 C 474.765625 269.140625 506.636719 301.011719 545.8125 301.011719 C 584.984375 301.011719 616.859375 269.140625 616.859375 229.964844 C 616.859375 190.789062 584.984375 158.917969 545.8125 158.917969 Z M 545.8125 158.917969 " fill-opacity="1" fill-rule="nonzero"/></g><g clip-path="url(#7b3095913c)"><path fill="#028a8c" d="M 609.578125 309.636719 L 482.042969 309.636719 C 447.246094 309.636719 418.9375 337.949219 418.9375 372.746094 L 418.9375 507.199219 C 418.9375 523.433594 432.140625 536.640625 448.375 536.640625 C 464.609375 536.640625 477.8125 523.433594 477.8125 507.199219 L 477.8125 396.53125 C 477.8125 395.554688 478.609375 394.757812 479.589844 394.757812 C 480.566406 394.757812 481.359375 395.554688 481.359375 396.53125 L 481.359375 750.292969 C 481.359375 766.523438 494.566406 779.730469 510.800781 779.730469 C 527.03125 779.730469 540.238281 766.527344 540.238281 750.292969 L 540.238281 567.636719 C 540.238281 566.660156 541.035156 565.863281 542.011719 565.863281 L 549.613281 565.863281 C 550.589844 565.863281 551.386719 566.660156 551.386719 567.636719 L 551.386719 750.292969 C 551.386719 766.523438 564.59375 779.730469 580.824219 779.730469 C 597.058594 779.730469 610.265625 766.527344 610.265625 750.292969 L 610.265625 396.53125 C 610.265625 395.550781 611.058594 394.757812 612.035156 394.757812 C 613.015625 394.757812 613.8125 395.550781 613.8125 396.53125 L 613.8125 507.199219 C 613.8125 523.433594 627.015625 536.636719 643.25 536.636719 C 659.484375 536.636719 672.6875 523.433594 672.6875 507.199219 L 672.6875 372.746094 C 672.6875 337.949219 644.378906 309.636719 609.582031 309.636719 Z M 609.578125 309.636719 " fill-opacity="1" fill-rule="nonzero"/></g><path fill="#028a8c" d="M 471.871094 189.03125 L 468.09375 189.03125 C 466.167969 189.03125 464.609375 190.59375 464.609375 192.511719 L 464.609375 277.117188 C 464.609375 279.050781 466.167969 280.601562 468.09375 280.601562 L 471.871094 280.601562 C 473.792969 280.601562 475.351562 279.046875 475.351562 277.117188 L 475.351562 192.511719 C 475.351562 190.589844 473.792969 189.03125 471.871094 189.03125 Z M 471.871094 189.03125 " fill-opacity="1" fill-rule="nonzero"/><g clip-path="url(#44d254be45)"><path fill="#028a8c" d="M 649.238281 197.625 C 649.703125 193.664062 649.957031 189.644531 649.957031 185.558594 C 649.957031 128.097656 603.203125 81.339844 545.738281 81.339844 C 488.273438 81.339844 441.519531 128.09375 441.519531 185.558594 C 441.519531 189.640625 441.773438 193.664062 442.238281 197.625 C 440.210938 198.886719 436.410156 202.046875 433.089844 209.289062 L 433.089844 260.335938 C 437.882812 270.789062 443.691406 272.75 443.691406 272.75 L 462.28125 280.589844 L 462.28125 189.03125 L 453.128906 192.894531 C 452.9375 190.472656 452.8125 188.03125 452.8125 185.558594 C 452.8125 134.320312 494.496094 92.632812 545.738281 92.632812 C 596.976562 92.632812 638.664062 134.320312 638.664062 185.558594 C 638.664062 188.03125 638.539062 190.472656 638.347656 192.894531 L 629.195312 189.03125 L 629.195312 280.601562 L 647.785156 272.761719 C 647.785156 272.761719 653.597656 270.800781 658.386719 260.347656 L 658.386719 209.300781 C 655.074219 202.050781 651.265625 198.886719 649.238281 197.625 Z M 649.238281 197.625 " fill-opacity="1" fill-rule="nonzero"/></g><path fill="#028a8c" d="M 623.382812 189.03125 L 619.605469 189.03125 C 617.679688 189.03125 616.121094 190.59375 616.121094 192.511719 L 616.121094 277.117188 C 616.121094 279.050781 617.683594 280.601562 619.605469 280.601562 L 623.382812 280.601562 C 625.308594 280.601562 626.867188 279.046875 626.867188 277.117188 L 626.867188 192.511719 C 626.867188 190.589844 625.308594 189.03125 623.382812 189.03125 Z M 623.382812 189.03125 " fill-opacity="1" fill-rule="nonzero"/><g clip-path="url(#be704e6df1)"><path fill="#028a8c" d="M 48.503906 728.964844 L 86.578125 728.964844 L 86.578125 714.523438 L 48.503906 714.523438 L 48.503906 728.964844 " fill-opacity="1" fill-rule="nonzero"/></g><g clip-path="url(#c740d40846)"><path fill="#028a8c" d="M 334.070312 714.523438 L 334.070312 728.964844 L 372.144531 728.964844 L 372.144531 714.523438 L 334.070312 714.523438 " fill-opacity="1" fill-rule="nonzero"/></g><g clip-path="url(#b66aed4c77)"><path fill="#028a8c" d="M 346.542969 512.660156 L 346.542969 713.214844 L 359.667969 713.214844 L 359.667969 476.980469 C 366.574219 474.332031 371.484375 467.664062 371.484375 459.828125 C 371.484375 449.675781 363.257812 441.449219 353.105469 441.449219 C 342.953125 441.449219 334.726562 449.675781 334.726562 459.828125 C 334.726562 467.664062 339.636719 474.332031 346.542969 476.980469 L 346.542969 501.4375 C 342.402344 506.28125 334.101562 514.570312 320.246094 522.796875 C 300.683594 534.421875 265.773438 548.246094 210.324219 548.515625 C 154.875 548.246094 119.964844 534.421875 100.402344 522.796875 C 86.546875 514.570312 78.246094 506.28125 74.105469 501.4375 L 74.105469 476.980469 C 81.011719 474.332031 85.921875 467.664062 85.921875 459.828125 C 85.921875 449.675781 77.691406 441.449219 67.539062 441.449219 C 57.390625 441.449219 49.160156 449.675781 49.160156 459.828125 C 49.160156 467.664062 54.074219 474.332031 60.976562 476.980469 L 60.976562 713.214844 L 74.105469 713.214844 L 74.105469 512.660156 C 79.113281 517.472656 86.226562 523.292969 95.917969 529.105469 C 116.160156 541.253906 152.0625 555.675781 208.691406 556.214844 L 208.691406 556.242188 C 209.242188 556.242188 209.777344 556.230469 210.324219 556.230469 C 210.871094 556.230469 211.40625 556.242188 211.957031 556.242188 L 211.957031 556.214844 C 268.585938 555.675781 304.488281 541.253906 324.730469 529.105469 C 334.417969 523.292969 341.535156 517.472656 346.542969 512.660156 " fill-opacity="1" fill-rule="nonzero"/></g><path fill="#028a8c" d="M 141.089844 112.070312 C 141.566406 109.585938 142.332031 107.199219 143.390625 104.90625 C 144.449219 102.613281 145.769531 100.480469 147.351562 98.507812 C 148.933594 96.535156 150.726562 94.785156 152.738281 93.253906 C 154.746094 91.722656 156.910156 90.453125 159.230469 89.453125 C 161.570312 88.496094 163.992188 87.835938 166.492188 87.472656 C 168.992188 87.109375 171.5 87.050781 174.015625 87.304688 C 176.53125 87.554688 178.980469 88.101562 181.359375 88.953125 C 183.738281 89.800781 185.984375 90.925781 188.089844 92.324219 C 193.539062 96.019531 197.855469 101.515625 204.007812 103.871094 C 208.847656 105.726562 214.25 105.386719 219.371094 104.726562 C 226.886719 103.734375 234.429688 102.089844 241.988281 102.84375 C 249.546875 103.597656 257.328125 107.316406 260.503906 114.195312 C 263.964844 121.6875 261.121094 130.492188 257.628906 137.96875 C 254.136719 145.445312 249.894531 153.167969 250.703125 161.398438 C 251.128906 165.902344 253.09375 170.121094 253.835938 174.582031 C 255.855469 186.757812 248.054688 199.308594 236.96875 204.730469 C 225.882812 210.15625 212.382812 209.160156 201.121094 204.113281 C 192.949219 200.445312 185.578125 194.753906 176.839844 192.785156 C 169.234375 191.078125 160.863281 192.261719 153.957031 188.644531 C 144.597656 183.742188 141.421875 172 140.242188 161.523438 C 138.722656 148.003906 138.902344 134.511719 140.785156 121.039062 " fill-opacity="1" fill-rule="nonzero"/><g clip-path="url(#b2b2c0d100)"><g transform="matrix(1, 0, 0, 1, 170, 143)"><g clip-path="url(#16f005f858)"><g clip-path="url(#34b5d28946)"><path fill="#028a8c" d="M 153.996094 180.703125 C 147.539062 184.742188 139.457031 185.878906 132.101562 183.996094 C 124.113281 181.234375 117.765625 174.773438 114.054688 167.289062 C 111.722656 162.855469 110.589844 157.933594 108.410156 153.4375 C 106.539062 148.601562 104.925781 143.652344 102.542969 139.035156 C 101.046875 136.078125 97.886719 133.933594 94.535156 133.890625 C 88.871094 133.65625 83.46875 136.425781 79.46875 140.28125 C 75.914062 143.773438 72.257812 147.230469 69.488281 151.402344 C 63.015625 160.785156 54.324219 169.183594 43.34375 172.886719 C 35.589844 174.398438 27.046875 173.976562 20.144531 169.78125 C 13.363281 166.332031 9.039062 158.839844 9.144531 151.28125 C 9.167969 146.792969 9.90625 142.355469 10.511719 137.925781 C 10.835938 138.183594 11.152344 138.4375 11.460938 138.695312 C 12.722656 130.515625 20.085938 124.195312 19.40625 115.585938 C 19.285156 111.285156 15.574219 108.570312 12.578125 106.058594 C 9.566406 103.558594 5.734375 102.246094 2.875 99.554688 C 0.703125 97.289062 0.355469 92.613281 3.394531 90.929688 C 6.414062 89.140625 10.101562 89 13.484375 89.464844 C 20.144531 90.476562 26.195312 93.699219 31.792969 97.289062 C 34.171875 98.722656 35.90625 100.941406 37.25 103.320312 C 38.71875 105.953125 40.894531 108.359375 41.179688 111.480469 C 41.714844 116.769531 41.730469 122.324219 39.648438 127.304688 C 37.378906 132.726562 32.980469 136.839844 30.238281 141.976562 C 28.8125 144.753906 27.992188 148.082031 28.875 151.152344 C 29.960938 153.105469 32.738281 154.621094 34.789062 153.167969 C 36.402344 152.109375 37.671875 150.601562 38.742188 149.015625 C 42.023438 143.945312 44.71875 138.4375 48.753906 133.890625 C 54.691406 127.960938 60.488281 121.515625 68.191406 117.84375 C 73.191406 115.648438 78.421875 113.570312 83.972656 113.632812 C 89.925781 113.65625 95.902344 113.324219 101.832031 113.84375 C 107.671875 114.832031 113.035156 117.96875 117.425781 121.863281 C 124.578125 129.257812 126.84375 139.746094 132.578125 148.074219 C 134.328125 150.753906 137.683594 151.085938 140.566406 150.464844 C 141.554688 144.820312 141.15625 139.027344 139.8125 133.476562 C 138.363281 127.636719 138.53125 121.578125 138.890625 115.617188 C 139.117188 113.203125 139.375 110.691406 140.597656 108.546875 C 144.617188 101.425781 150.519531 95.578125 156.832031 90.476562 C 158.492188 89.066406 160.273438 87.234375 159.964844 84.855469 C 160.070312 81.800781 156.945312 80.359375 154.742188 78.980469 C 150.933594 76.972656 147.636719 73.953125 145.554688 70.160156 C 143.863281 67 144.050781 63.21875 144.632812 59.792969 C 145.410156 55.773438 148.375 52.730469 151.265625 50.058594 C 154.261719 47.148438 158.425781 46.054688 162.273438 44.765625 C 167.667969 43.164062 172.730469 40.660156 177.980469 38.675781 C 180.636719 37.484375 183.640625 36.457031 185.433594 34.027344 C 187.222656 31.621094 184.953125 28.59375 182.621094 27.605469 C 175.890625 24.515625 169.046875 21.683594 162.25 18.734375 C 158.855469 17.210938 155.511719 15.40625 152.773438 12.835938 C 149.386719 10.066406 150.609375 4.089844 154.15625 2.03125 C 158.011719 0.429688 162.402344 0.816406 166.398438 1.609375 C 176.09375 4.203125 185.773438 6.875 195.214844 10.277344 C 198.730469 11.816406 201.511719 14.609375 204.28125 17.1875 C 211.992188 24.785156 211.894531 38.707031 203.90625 46.070312 C 195.636719 54.246094 184.539062 58.472656 174.292969 63.542969 C 171.328125 64.757812 171.46875 68.144531 171.671875 70.800781 C 177.226562 74.714844 184.128906 76.308594 189.296875 80.789062 C 192.859375 83.710938 192.707031 89.351562 189.902344 92.75 C 186.097656 98.851562 178.847656 101.0625 173.863281 105.921875 C 170.707031 108.933594 166.816406 111.347656 164.535156 115.164062 C 161.804688 120.332031 162.996094 126.449219 164.226562 131.867188 C 164.980469 135.542969 167.386719 138.644531 167.929688 142.371094 C 168.800781 147.726562 168.65625 153.175781 168.59375 158.570312 C 168.714844 168.074219 162.007812 176.304688 153.996094 180.703125 Z M 153.996094 180.703125 " fill-opacity="1" fill-rule="nonzero"/></g></g></g></g></svg>