<svg xmlns="http://www.w3.org/2000/svg" xmlns:xlink="http://www.w3.org/1999/xlink" width="1080" zoomAndPan="magnify" viewBox="0 0 810 809.999993" height="1080" preserveAspectRatio="xMidYMid meet" version="1.0"><defs><clipPath id="c8fc267bb4"><path d="M 0 38 L 318 38 L 318 780.796875 L 0 780.796875 Z M 0 38 " clip-rule="nonzero"/></clipPath><clipPath id="ae7c02d149"><path d="M 299 31.546875 L 541 31.546875 L 541 218.296875 L 299 218.296875 Z M 299 31.546875 " clip-rule="nonzero"/></clipPath></defs><path fill="#028a8c" d="M 270.984375 565.339844 L 352.839844 565.339844 L 352.839844 572.132812 L 270.984375 572.132812 Z M 270.984375 565.339844 " fill-opacity="1" fill-rule="nonzero"/><path fill="#028a8c" d="M 630.554688 565.339844 L 809.398438 565.339844 L 809.398438 572.132812 L 630.554688 572.132812 Z M 630.554688 565.339844 " fill-opacity="1" fill-rule="nonzero"/><path fill="#028a8c" d="M 626.175781 317.109375 C 633.625 327.351562 639.640625 336.34375 644.429688 344.355469 C 645.976562 318.609375 650.433594 302.890625 654.84375 293.863281 L 654.84375 364.804688 C 657.144531 370.621094 658.792969 376.742188 658.882812 383.179688 C 658.890625 387.75 657.996094 391.941406 656.210938 395.714844 C 655.816406 396.558594 655.339844 397.371094 654.84375 398.175781 L 654.84375 530.761719 C 654.84375 541.546875 663.59375 550.289062 674.375 550.289062 C 685.160156 550.289062 693.910156 541.546875 693.910156 530.761719 L 693.910156 388.175781 L 701.226562 388.175781 L 701.226562 530.761719 C 701.226562 541.546875 709.972656 550.289062 720.753906 550.289062 C 731.542969 550.289062 740.285156 541.546875 740.285156 530.761719 L 740.285156 371.25 C 695.730469 323.398438 665.273438 270.59375 657.910156 257.304688 C 656.507812 257.769531 655.035156 258.363281 653.503906 259.136719 C 645.007812 263.347656 635.847656 272.558594 629.4375 288.894531 C 626.742188 295.703125 624.421875 303.800781 622.621094 313.484375 C 623.949219 314.515625 625.164062 315.714844 626.175781 317.109375 Z M 626.175781 317.109375 " fill-opacity="1" fill-rule="nonzero"/><path fill="#028a8c" d="M 618.636719 372.328125 C 618.644531 372.773438 618.664062 373.234375 618.671875 373.679688 C 618.90625 373.730469 619.160156 373.785156 619.390625 373.832031 C 619.164062 373.363281 618.894531 372.835938 618.636719 372.328125 Z M 618.636719 372.328125 " fill-opacity="1" fill-rule="nonzero"/><path fill="#028a8c" d="M 684.449219 290.480469 C 698.097656 311.292969 717.199219 337.804688 740.28125 363.21875 L 740.28125 293.902344 C 741.21875 295.820312 742.164062 298.023438 743.09375 300.59375 C 747.546875 312.9375 751.289062 333.183594 751.277344 364.78125 C 751.277344 373.492188 750.996094 383.0625 750.382812 393.566406 C 749.976562 400.535156 755.296875 406.515625 762.261719 406.917969 C 762.515625 406.933594 762.765625 406.945312 763.011719 406.945312 C 769.652344 406.945312 775.21875 401.757812 775.613281 395.042969 C 776.25 384.089844 776.546875 374.035156 776.546875 364.78125 C 776.484375 317.113281 768.875 290.726562 758.488281 274.863281 C 753.300781 266.992188 747.226562 261.9375 741.621094 259.136719 C 736.019531 256.316406 731.097656 255.75 728.300781 255.757812 C 728.28125 255.757812 728.269531 255.761719 728.25 255.761719 C 728.1875 255.757812 728.136719 255.742188 728.074219 255.742188 L 667.050781 255.742188 C 666.980469 255.742188 666.910156 255.765625 666.839844 255.765625 C 666.832031 255.765625 666.828125 255.765625 666.824219 255.765625 C 665.90625 255.761719 664.738281 255.832031 663.410156 256.011719 C 666.914062 262.269531 674.109375 274.714844 684.449219 290.480469 Z M 684.449219 290.480469 " fill-opacity="1" fill-rule="nonzero"/><path fill="#028a8c" d="M 733.097656 211.203125 C 733.097656 212.367188 733.042969 213.527344 732.929688 214.683594 C 732.8125 215.84375 732.644531 216.992188 732.417969 218.132812 C 732.1875 219.277344 731.90625 220.402344 731.570312 221.519531 C 731.230469 222.632812 730.839844 223.726562 730.394531 224.800781 C 729.949219 225.875 729.453125 226.925781 728.902344 227.953125 C 728.355469 228.980469 727.757812 229.976562 727.109375 230.945312 C 726.464844 231.914062 725.769531 232.847656 725.03125 233.746094 C 724.292969 234.648438 723.511719 235.507812 722.691406 236.332031 C 721.867188 237.152344 721.007812 237.933594 720.105469 238.671875 C 719.207031 239.410156 718.273438 240.105469 717.304688 240.75 C 716.335938 241.398438 715.339844 241.996094 714.3125 242.542969 C 713.285156 243.09375 712.234375 243.589844 711.160156 244.035156 C 710.085938 244.480469 708.992188 244.871094 707.878906 245.210938 C 706.761719 245.546875 705.636719 245.828125 704.492188 246.058594 C 703.351562 246.285156 702.203125 246.453125 701.042969 246.570312 C 699.886719 246.683594 698.726562 246.738281 697.5625 246.738281 C 696.398438 246.738281 695.234375 246.683594 694.078125 246.570312 C 692.917969 246.453125 691.769531 246.285156 690.628906 246.058594 C 689.484375 245.828125 688.359375 245.546875 687.246094 245.210938 C 686.128906 244.871094 685.035156 244.480469 683.960938 244.035156 C 682.886719 243.589844 681.835938 243.09375 680.808594 242.542969 C 679.78125 241.996094 678.785156 241.398438 677.816406 240.75 C 676.847656 240.105469 675.914062 239.410156 675.015625 238.671875 C 674.117188 237.933594 673.253906 237.152344 672.429688 236.332031 C 671.609375 235.507812 670.828125 234.648438 670.089844 233.746094 C 669.351562 232.847656 668.660156 231.914062 668.011719 230.945312 C 667.363281 229.976562 666.765625 228.980469 666.21875 227.953125 C 665.671875 226.925781 665.171875 225.875 664.726562 224.800781 C 664.28125 223.726562 663.890625 222.632812 663.550781 221.519531 C 663.214844 220.402344 662.933594 219.277344 662.707031 218.132812 C 662.476562 216.992188 662.308594 215.84375 662.195312 214.683594 C 662.078125 213.527344 662.023438 212.367188 662.023438 211.203125 C 662.023438 210.039062 662.078125 208.875 662.195312 207.71875 C 662.308594 206.558594 662.476562 205.410156 662.707031 204.269531 C 662.933594 203.125 663.214844 202 663.550781 200.886719 C 663.890625 199.769531 664.28125 198.675781 664.726562 197.601562 C 665.171875 196.527344 665.671875 195.476562 666.21875 194.449219 C 666.765625 193.421875 667.363281 192.425781 668.011719 191.457031 C 668.660156 190.488281 669.351562 189.554688 670.089844 188.65625 C 670.828125 187.757812 671.609375 186.894531 672.429688 186.070312 C 673.253906 185.25 674.117188 184.46875 675.015625 183.730469 C 675.914062 182.992188 676.847656 182.300781 677.816406 181.652344 C 678.785156 181.003906 679.78125 180.40625 680.808594 179.859375 C 681.835938 179.3125 682.886719 178.8125 683.960938 178.367188 C 685.035156 177.921875 686.128906 177.53125 687.246094 177.195312 C 688.359375 176.855469 689.484375 176.574219 690.628906 176.347656 C 691.769531 176.117188 692.917969 175.949219 694.078125 175.835938 C 695.234375 175.71875 696.398438 175.664062 697.5625 175.664062 C 698.726562 175.664062 699.886719 175.71875 701.042969 175.835938 C 702.203125 175.949219 703.351562 176.117188 704.492188 176.347656 C 705.636719 176.574219 706.761719 176.855469 707.878906 177.195312 C 708.992188 177.53125 710.085938 177.921875 711.160156 178.367188 C 712.234375 178.8125 713.285156 179.3125 714.3125 179.859375 C 715.339844 180.40625 716.335938 181.003906 717.304688 181.652344 C 718.273438 182.300781 719.207031 182.992188 720.105469 183.730469 C 721.007812 184.46875 721.867188 185.25 722.691406 186.070312 C 723.511719 186.894531 724.292969 187.757812 725.03125 188.65625 C 725.769531 189.554688 726.464844 190.488281 727.109375 191.457031 C 727.757812 192.425781 728.355469 193.421875 728.902344 194.449219 C 729.453125 195.476562 729.949219 196.527344 730.394531 197.601562 C 730.839844 198.675781 731.230469 199.769531 731.570312 200.886719 C 731.90625 202 732.1875 203.125 732.417969 204.269531 C 732.644531 205.410156 732.8125 206.558594 732.929688 207.71875 C 733.042969 208.875 733.097656 210.039062 733.097656 211.203125 Z M 733.097656 211.203125 " fill-opacity="1" fill-rule="nonzero"/><g clip-path="url(#c8fc267bb4)"><path fill="#028a8c" d="M 107.679688 429.394531 L 107.679688 747.191406 C 107.679688 765.753906 122.726562 780.789062 141.277344 780.789062 C 159.832031 780.789062 174.878906 765.753906 174.878906 747.191406 L 174.878906 501.867188 L 187.476562 501.867188 L 187.476562 747.191406 C 187.476562 765.753906 202.523438 780.789062 221.074219 780.789062 C 239.628906 780.789062 254.675781 765.753906 254.675781 747.191406 L 254.675781 339.65625 C 256.285156 342.964844 257.910156 346.75 259.515625 351.171875 C 267.171875 372.40625 273.617188 407.242188 273.59375 461.613281 C 273.59375 476.601562 273.109375 493.0625 272.0625 511.144531 C 271.359375 523.128906 280.511719 533.410156 292.5 534.117188 C 292.925781 534.144531 293.355469 534.152344 293.785156 534.152344 C 305.214844 534.152344 314.796875 525.230469 315.46875 513.675781 C 316.570312 494.832031 317.078125 477.535156 317.078125 461.617188 C 316.96875 379.589844 303.867188 334.195312 286.007812 306.898438 C 277.074219 293.347656 266.632812 284.65625 256.984375 279.84375 C 247.632812 275.132812 239.414062 274.089844 234.527344 274.042969 C 234.246094 274.03125 233.964844 273.996094 233.675781 273.996094 L 220.917969 273.996094 L 214.238281 326.226562 L 187.742188 294.296875 L 206.058594 273.996094 L 156.289062 273.996094 L 174.609375 294.296875 L 148.109375 326.226562 L 141.429688 273.996094 L 128.679688 273.996094 C 127.867188 273.996094 127.066406 274.054688 126.277344 274.148438 C 116.652344 274.277344 106.761719 274.835938 97.183594 275.09375 C 94.46875 275.164062 91.769531 275.230469 89.128906 275.230469 C 73.609375 275.390625 60.160156 273.191406 53.914062 269.320312 C 50.683594 267.402344 48.921875 265.648438 47.25 262.625 C 45.636719 259.582031 44.109375 254.640625 44.097656 246.25 C 44.082031 237.191406 46.027344 224.324219 51.144531 207.550781 C 54.636719 196.0625 48.160156 183.917969 36.675781 180.425781 C 36.527344 180.378906 36.382812 180.355469 36.238281 180.316406 L 36.238281 123.660156 C 42.175781 114.132812 57.324219 97.117188 83.792969 112.898438 C 155.503906 155.640625 159.886719 55.820312 159.886719 55.820312 C 159.886719 55.820312 122.289062 76.660156 95.113281 52.203125 C 72.113281 31.5 44.253906 43.242188 36.234375 47.339844 L 36.234375 38.613281 L 26.269531 38.613281 L 26.269531 179.871094 C 18.597656 181.34375 11.972656 186.902344 9.542969 194.890625 C 3.585938 214.535156 0.640625 231.28125 0.617188 246.246094 C 0.605469 259.953125 3.210938 272.398438 8.847656 283.011719 C 17.277344 299.15625 32.246094 308.828125 46.492188 313.25 C 60.90625 317.855469 75.421875 318.660156 89.128906 318.707031 C 89.878906 318.707031 90.621094 318.6875 91.367188 318.683594 C 96.988281 318.636719 102.46875 318.457031 107.675781 318.25 L 107.675781 429.394531 Z M 107.679688 429.394531 " fill-opacity="1" fill-rule="nonzero"/></g><path fill="#028a8c" d="M 191.148438 257.6875 C 220.175781 252.925781 242.320312 227.738281 242.320312 197.367188 C 242.320312 163.589844 214.949219 136.21875 181.171875 136.21875 C 147.402344 136.21875 120.027344 163.589844 120.027344 197.367188 C 120.027344 227.738281 142.175781 252.925781 171.199219 257.6875 C 174.449219 258.222656 177.777344 258.511719 181.171875 258.511719 C 184.570312 258.511719 187.902344 258.226562 191.148438 257.6875 Z M 191.148438 257.6875 " fill-opacity="1" fill-rule="nonzero"/><path fill="#028a8c" d="M 499.878906 389.871094 C 497.140625 362.515625 491.011719 345.105469 483.375 333.433594 C 478.1875 325.5625 472.113281 320.507812 466.511719 317.710938 C 460.902344 314.886719 455.984375 314.324219 453.183594 314.335938 C 453.179688 314.335938 453.179688 314.335938 453.179688 314.335938 C 453.105469 314.335938 453.039062 314.3125 452.964844 314.3125 L 442.085938 314.3125 C 447.046875 335.257812 448.347656 354.554688 448.347656 368.984375 C 448.347656 377.675781 447.882812 384.597656 447.460938 389.078125 L 447.460938 418.09375 L 397.445312 418.09375 L 397.445312 389.117188 C 397.023438 384.640625 396.554688 377.699219 396.554688 368.988281 C 396.554688 354.554688 397.855469 335.261719 402.820312 314.316406 L 391.941406 314.316406 C 391.867188 314.316406 391.796875 314.339844 391.726562 314.339844 C 391.722656 314.339844 391.71875 314.339844 391.714844 314.339844 C 388.917969 314.328125 383.988281 314.882812 378.390625 317.714844 C 369.894531 321.921875 360.738281 331.140625 354.328125 347.46875 C 347.839844 363.863281 343.484375 387.566406 343.460938 423.355469 C 343.46875 432.605469 343.757812 442.664062 344.40625 453.621094 C 344.800781 460.332031 350.367188 465.515625 357.007812 465.515625 C 357.257812 465.515625 357.507812 465.507812 357.761719 465.496094 C 364.730469 465.085938 370.046875 459.105469 369.636719 452.140625 C 369.019531 441.632812 368.734375 432.066406 368.738281 423.355469 C 368.679688 385.097656 374.257812 363.640625 379.742188 352.429688 L 379.742188 589.335938 C 379.742188 600.125 388.484375 608.867188 399.269531 608.867188 C 410.050781 608.867188 418.800781 600.125 418.800781 589.335938 L 418.800781 446.753906 L 426.117188 446.753906 L 426.117188 589.335938 C 426.117188 600.125 434.867188 608.867188 445.648438 608.867188 C 456.433594 608.867188 465.183594 600.125 465.183594 589.335938 L 465.183594 352.484375 C 466.117188 354.402344 467.058594 356.601562 467.988281 359.167969 C 472.441406 371.515625 476.1875 391.757812 476.175781 423.363281 C 476.175781 432.066406 475.890625 441.636719 475.285156 452.144531 C 475.015625 456.75 477.273438 460.882812 480.824219 463.300781 C 482.089844 439.757812 485.613281 420.832031 491.527344 405.875 C 494.039062 399.445312 496.902344 394.191406 499.878906 389.871094 Z M 499.878906 389.871094 " fill-opacity="1" fill-rule="nonzero"/><path fill="#028a8c" d="M 401.289062 368.984375 C 401.289062 376.230469 401.621094 382.199219 401.976562 386.503906 L 442.929688 386.503906 C 443.277344 382.199219 443.613281 376.230469 443.613281 368.984375 C 443.613281 354.582031 442.261719 335.214844 437.191406 314.3125 L 407.710938 314.3125 C 402.636719 335.21875 401.289062 354.582031 401.289062 368.984375 Z M 401.289062 368.984375 " fill-opacity="1" fill-rule="nonzero"/><path fill="#028a8c" d="M 457.992188 269.777344 C 457.992188 270.941406 457.933594 272.101562 457.820312 273.261719 C 457.707031 274.417969 457.535156 275.570312 457.308594 276.710938 C 457.082031 277.851562 456.796875 278.980469 456.460938 280.09375 C 456.121094 281.207031 455.730469 282.300781 455.285156 283.378906 C 454.839844 284.453125 454.34375 285.503906 453.792969 286.53125 C 453.246094 287.554688 452.648438 288.554688 452 289.519531 C 451.355469 290.488281 450.664062 291.421875 449.925781 292.324219 C 449.1875 293.222656 448.40625 294.082031 447.582031 294.90625 C 446.757812 295.730469 445.898438 296.511719 444.996094 297.25 C 444.097656 297.988281 443.164062 298.679688 442.195312 299.328125 C 441.230469 299.972656 440.230469 300.570312 439.207031 301.121094 C 438.179688 301.667969 437.128906 302.164062 436.050781 302.609375 C 434.976562 303.054688 433.882812 303.449219 432.769531 303.785156 C 431.65625 304.125 430.527344 304.40625 429.386719 304.632812 C 428.246094 304.859375 427.09375 305.03125 425.9375 305.144531 C 424.777344 305.257812 423.617188 305.316406 422.453125 305.316406 C 421.289062 305.316406 420.128906 305.257812 418.96875 305.144531 C 417.8125 305.03125 416.660156 304.859375 415.519531 304.632812 C 414.378906 304.40625 413.25 304.125 412.136719 303.785156 C 411.023438 303.449219 409.929688 303.054688 408.851562 302.609375 C 407.777344 302.164062 406.726562 301.667969 405.699219 301.121094 C 404.671875 300.570312 403.675781 299.972656 402.707031 299.328125 C 401.742188 298.679688 400.808594 297.988281 399.90625 297.25 C 399.007812 296.511719 398.144531 295.730469 397.324219 294.90625 C 396.5 294.082031 395.71875 293.222656 394.980469 292.324219 C 394.242188 291.421875 393.550781 290.488281 392.902344 289.519531 C 392.257812 288.554688 391.660156 287.554688 391.109375 286.53125 C 390.5625 285.503906 390.066406 284.453125 389.621094 283.378906 C 389.175781 282.300781 388.78125 281.207031 388.445312 280.09375 C 388.105469 278.980469 387.824219 277.851562 387.597656 276.710938 C 387.371094 275.570312 387.199219 274.417969 387.085938 273.261719 C 386.972656 272.101562 386.914062 270.941406 386.914062 269.777344 C 386.914062 268.613281 386.972656 267.453125 387.085938 266.292969 C 387.199219 265.136719 387.371094 263.984375 387.597656 262.84375 C 387.824219 261.703125 388.105469 260.574219 388.445312 259.460938 C 388.78125 258.347656 389.175781 257.253906 389.621094 256.175781 C 390.066406 255.101562 390.5625 254.050781 391.109375 253.023438 C 391.660156 251.996094 392.257812 251 392.902344 250.03125 C 393.550781 249.066406 394.242188 248.132812 394.980469 247.230469 C 395.71875 246.332031 396.5 245.472656 397.324219 244.648438 C 398.144531 243.824219 399.007812 243.042969 399.90625 242.304688 C 400.808594 241.566406 401.742188 240.875 402.707031 240.226562 C 403.675781 239.582031 404.671875 238.984375 405.699219 238.433594 C 406.726562 237.886719 407.777344 237.390625 408.851562 236.945312 C 409.929688 236.5 411.023438 236.105469 412.136719 235.769531 C 413.25 235.429688 414.378906 235.148438 415.519531 234.921875 C 416.660156 234.695312 417.8125 234.523438 418.96875 234.410156 C 420.128906 234.296875 421.289062 234.238281 422.453125 234.238281 C 423.617188 234.238281 424.777344 234.296875 425.9375 234.410156 C 427.09375 234.523438 428.246094 234.695312 429.386719 234.921875 C 430.527344 235.148438 431.65625 235.429688 432.769531 235.769531 C 433.882812 236.105469 434.976562 236.5 436.050781 236.945312 C 437.128906 237.390625 438.179688 237.886719 439.207031 238.433594 C 440.230469 238.984375 441.230469 239.582031 442.195312 240.226562 C 443.164062 240.875 444.097656 241.566406 444.996094 242.304688 C 445.898438 243.042969 446.757812 243.824219 447.582031 244.648438 C 448.40625 245.472656 449.1875 246.332031 449.925781 247.230469 C 450.664062 248.132812 451.355469 249.066406 452 250.03125 C 452.648438 251 453.246094 251.996094 453.792969 253.023438 C 454.34375 254.050781 454.839844 255.101562 455.285156 256.175781 C 455.730469 257.253906 456.121094 258.347656 456.460938 259.460938 C 456.796875 260.574219 457.082031 261.703125 457.308594 262.84375 C 457.535156 263.984375 457.707031 265.136719 457.820312 266.292969 C 457.933594 267.453125 457.992188 268.613281 457.992188 269.777344 Z M 457.992188 269.777344 " fill-opacity="1" fill-rule="nonzero"/><path fill="#028a8c" d="M 431.300781 403.152344 C 431.300781 403.738281 431.246094 404.3125 431.128906 404.886719 C 431.015625 405.457031 430.847656 406.015625 430.625 406.554688 C 430.402344 407.089844 430.128906 407.605469 429.804688 408.089844 C 429.480469 408.574219 429.113281 409.023438 428.699219 409.433594 C 428.285156 409.847656 427.835938 410.214844 427.351562 410.539062 C 426.867188 410.863281 426.355469 411.136719 425.816406 411.359375 C 425.277344 411.582031 424.722656 411.753906 424.148438 411.867188 C 423.578125 411.980469 423 412.035156 422.417969 412.035156 C 421.832031 412.035156 421.257812 411.980469 420.683594 411.867188 C 420.113281 411.753906 419.554688 411.582031 419.015625 411.359375 C 418.480469 411.136719 417.964844 410.863281 417.480469 410.539062 C 416.996094 410.214844 416.546875 409.847656 416.136719 409.433594 C 415.722656 409.023438 415.355469 408.574219 415.03125 408.089844 C 414.707031 407.605469 414.433594 407.089844 414.210938 406.554688 C 413.984375 406.015625 413.816406 405.457031 413.703125 404.886719 C 413.589844 404.3125 413.535156 403.738281 413.535156 403.152344 C 413.535156 402.570312 413.589844 401.992188 413.703125 401.417969 C 413.816406 400.847656 413.984375 400.292969 414.210938 399.753906 C 414.433594 399.214844 414.707031 398.703125 415.03125 398.21875 C 415.355469 397.730469 415.722656 397.285156 416.136719 396.871094 C 416.546875 396.457031 416.996094 396.089844 417.480469 395.765625 C 417.964844 395.441406 418.480469 395.167969 419.015625 394.945312 C 419.554688 394.722656 420.113281 394.554688 420.683594 394.441406 C 421.257812 394.324219 421.832031 394.269531 422.417969 394.269531 C 423 394.269531 423.578125 394.324219 424.148438 394.441406 C 424.722656 394.554688 425.277344 394.722656 425.816406 394.945312 C 426.355469 395.167969 426.867188 395.441406 427.351562 395.765625 C 427.835938 396.089844 428.285156 396.457031 428.699219 396.871094 C 429.113281 397.285156 429.480469 397.730469 429.804688 398.21875 C 430.128906 398.703125 430.402344 399.214844 430.625 399.753906 C 430.847656 400.292969 431.015625 400.847656 431.128906 401.417969 C 431.246094 401.992188 431.300781 402.570312 431.300781 403.152344 Z M 431.300781 403.152344 " fill-opacity="1" fill-rule="nonzero"/><path fill="#028a8c" d="M 546.277344 311.417969 L 594.847656 311.417969 C 588.570312 301.355469 577.4375 294.636719 564.703125 294.636719 C 545.074219 294.636719 529.164062 310.546875 529.164062 330.175781 C 529.164062 349.804688 545.074219 365.714844 564.703125 365.714844 C 577.929688 365.714844 589.449219 358.46875 595.566406 347.742188 L 546.273438 347.742188 L 546.273438 311.417969 Z M 546.277344 311.417969 " fill-opacity="1" fill-rule="nonzero"/><path fill="#028a8c" d="M 586.289062 329.578125 C 586.289062 330.21875 586.226562 330.851562 586.101562 331.480469 C 585.976562 332.105469 585.792969 332.714844 585.546875 333.304688 C 585.304688 333.898438 585.003906 334.457031 584.648438 334.988281 C 584.292969 335.523438 583.890625 336.011719 583.4375 336.464844 C 582.984375 336.917969 582.492188 337.320312 581.960938 337.675781 C 581.429688 338.03125 580.867188 338.332031 580.277344 338.578125 C 579.6875 338.820312 579.078125 339.007812 578.449219 339.132812 C 577.824219 339.257812 577.191406 339.320312 576.550781 339.320312 C 575.910156 339.320312 575.277344 339.257812 574.648438 339.132812 C 574.023438 339.007812 573.414062 338.820312 572.824219 338.578125 C 572.230469 338.332031 571.671875 338.03125 571.140625 337.675781 C 570.605469 337.320312 570.113281 336.917969 569.664062 336.464844 C 569.210938 336.011719 568.808594 335.523438 568.453125 334.988281 C 568.097656 334.457031 567.796875 333.898438 567.550781 333.304688 C 567.308594 332.714844 567.121094 332.105469 566.996094 331.480469 C 566.871094 330.851562 566.808594 330.21875 566.808594 329.578125 C 566.808594 328.9375 566.871094 328.304688 566.996094 327.679688 C 567.121094 327.050781 567.308594 326.441406 567.550781 325.851562 C 567.796875 325.261719 568.097656 324.699219 568.453125 324.167969 C 568.808594 323.636719 569.210938 323.144531 569.664062 322.691406 C 570.113281 322.238281 570.605469 321.835938 571.140625 321.480469 C 571.671875 321.125 572.230469 320.824219 572.824219 320.578125 C 573.414062 320.335938 574.023438 320.152344 574.648438 320.027344 C 575.277344 319.902344 575.910156 319.839844 576.550781 319.839844 C 577.191406 319.839844 577.824219 319.902344 578.449219 320.027344 C 579.078125 320.152344 579.6875 320.335938 580.277344 320.578125 C 580.867188 320.824219 581.429688 321.125 581.960938 321.480469 C 582.492188 321.835938 582.984375 322.238281 583.4375 322.691406 C 583.890625 323.144531 584.292969 323.636719 584.648438 324.167969 C 585.003906 324.699219 585.304688 325.261719 585.546875 325.851562 C 585.792969 326.441406 585.976562 327.050781 586.101562 327.679688 C 586.226562 328.304688 586.289062 328.9375 586.289062 329.578125 Z M 586.289062 329.578125 " fill-opacity="1" fill-rule="nonzero"/><path fill="#028a8c" d="M 653.449219 383.25 C 653.335938 375.148438 650.53125 367.40625 645.511719 357.421875 C 640.421875 347.492188 632.792969 335.453125 621.78125 320.304688 C 617.675781 314.660156 609.769531 313.410156 604.128906 317.519531 C 598.488281 321.625 597.238281 329.527344 601.347656 335.167969 C 611.867188 349.625 618.859375 360.789062 623.019531 368.933594 C 625.683594 374.027344 627.082031 377.980469 627.730469 380.464844 C 624.136719 380.371094 618.367188 379.269531 612.785156 377.945312 C 609.777344 377.25 606.777344 376.515625 603.863281 375.917969 C 601.414062 375.429688 599.109375 375 596.460938 374.839844 C 596.046875 374.796875 595.640625 374.714844 595.21875 374.714844 L 534.191406 374.714844 C 534.121094 374.714844 534.054688 374.734375 533.980469 374.734375 C 533.976562 374.734375 533.972656 374.734375 533.96875 374.734375 C 531.164062 374.722656 526.246094 375.285156 520.644531 378.109375 C 512.148438 382.324219 502.988281 391.539062 496.578125 407.867188 C 490.09375 424.261719 485.738281 447.964844 485.714844 483.753906 C 485.714844 493.007812 486.015625 503.0625 486.660156 514.019531 C 487.054688 520.734375 492.617188 525.914062 499.261719 525.914062 C 499.511719 525.914062 499.761719 525.910156 500.011719 525.890625 C 506.976562 525.484375 512.296875 519.503906 511.886719 512.542969 C 511.269531 502.035156 510.988281 492.460938 510.988281 483.753906 C 510.9375 445.5 516.515625 424.050781 521.992188 412.832031 L 521.992188 649.734375 C 521.992188 660.527344 530.738281 669.261719 541.519531 669.261719 C 552.304688 669.261719 561.050781 660.527344 561.050781 649.734375 L 561.050781 507.152344 L 568.367188 507.152344 L 568.367188 649.734375 C 568.367188 660.527344 577.117188 669.261719 587.894531 669.261719 C 598.683594 669.261719 607.429688 660.527344 607.429688 649.734375 L 607.429688 402.636719 C 608.921875 402.980469 610.453125 403.328125 612.042969 403.667969 C 617.175781 404.734375 622.648438 405.722656 628.425781 405.75 C 633.273438 405.679688 638.789062 405.1875 644.457031 401.417969 C 647.222656 399.542969 649.761719 396.683594 651.296875 393.390625 C 652.851562 390.101562 653.453125 386.589844 653.449219 383.25 Z M 653.449219 383.25 " fill-opacity="1" fill-rule="nonzero"/><g clip-path="url(#ae7c02d149)"><path fill="#028a8c" d="M 509.996094 31.519531 L 429.164062 31.519531 C 428.171875 31.519531 427.183594 31.566406 426.195312 31.664062 C 425.210938 31.757812 424.230469 31.902344 423.257812 32.09375 C 422.285156 32.289062 421.324219 32.527344 420.375 32.816406 C 419.425781 33.101562 418.492188 33.433594 417.578125 33.8125 C 416.660156 34.191406 415.765625 34.613281 414.890625 35.082031 C 414.015625 35.546875 413.167969 36.054688 412.34375 36.605469 C 411.515625 37.15625 410.722656 37.746094 409.953125 38.371094 C 409.1875 39 408.453125 39.664062 407.75 40.367188 C 407.050781 41.066406 406.382812 41.800781 405.753906 42.566406 C 405.125 43.332031 404.535156 44.125 403.984375 44.949219 C 403.429688 45.773438 402.921875 46.621094 402.453125 47.496094 C 401.984375 48.371094 401.5625 49.265625 401.179688 50.179688 C 400.800781 51.097656 400.464844 52.027344 400.175781 52.976562 C 399.886719 53.925781 399.648438 54.886719 399.453125 55.855469 C 399.257812 56.828125 399.113281 57.808594 399.015625 58.796875 C 398.914062 59.78125 398.867188 60.769531 398.867188 61.761719 L 398.867188 78.484375 L 329.433594 78.484375 C 328.441406 78.488281 327.453125 78.535156 326.464844 78.632812 C 325.476562 78.734375 324.5 78.878906 323.527344 79.074219 C 322.554688 79.265625 321.59375 79.507812 320.644531 79.796875 C 319.695312 80.085938 318.761719 80.421875 317.847656 80.800781 C 316.929688 81.179688 316.035156 81.605469 315.160156 82.074219 C 314.285156 82.539062 313.4375 83.050781 312.613281 83.601562 C 311.789062 84.152344 310.992188 84.746094 310.226562 85.375 C 309.460938 86.003906 308.726562 86.667969 308.027344 87.371094 C 307.324219 88.070312 306.660156 88.804688 306.03125 89.574219 C 305.402344 90.339844 304.8125 91.136719 304.261719 91.960938 C 303.710938 92.785156 303.203125 93.636719 302.734375 94.511719 C 302.269531 95.382812 301.84375 96.28125 301.464844 97.195312 C 301.085938 98.113281 300.753906 99.046875 300.464844 99.996094 C 300.175781 100.945312 299.9375 101.90625 299.742188 102.878906 C 299.550781 103.851562 299.40625 104.828125 299.308594 105.816406 C 299.210938 106.804688 299.160156 107.792969 299.160156 108.785156 L 299.160156 154.71875 C 299.164062 155.625 299.203125 156.523438 299.285156 157.425781 C 299.367188 158.324219 299.488281 159.21875 299.652344 160.105469 C 299.8125 160.996094 300.015625 161.875 300.253906 162.746094 C 300.496094 163.617188 300.773438 164.476562 301.09375 165.320312 C 301.410156 166.167969 301.765625 166.996094 302.15625 167.8125 C 302.546875 168.625 302.972656 169.417969 303.4375 170.195312 C 303.898438 170.972656 304.394531 171.726562 304.925781 172.457031 C 305.457031 173.1875 306.015625 173.894531 306.609375 174.574219 C 307.203125 175.257812 307.824219 175.910156 308.476562 176.535156 C 309.128906 177.160156 309.808594 177.757812 310.511719 178.320312 C 311.214844 178.886719 311.945312 179.417969 312.699219 179.917969 C 313.449219 180.417969 314.222656 180.882812 315.015625 181.3125 C 315.8125 181.746094 316.625 182.140625 317.453125 182.496094 C 318.28125 182.855469 319.125 183.175781 319.984375 183.457031 C 320.839844 183.742188 321.710938 183.984375 322.589844 184.1875 C 323.46875 184.394531 324.355469 184.558594 325.25 184.683594 L 325.25 214.175781 C 325.257812 214.933594 325.453125 215.640625 325.839844 216.292969 C 326.230469 216.945312 326.757812 217.453125 327.421875 217.816406 C 328.089844 218.179688 328.800781 218.351562 329.5625 218.328125 C 330.320312 218.304688 331.019531 218.089844 331.664062 217.6875 L 383.480469 184.964844 L 410.460938 184.964844 C 411.449219 184.957031 412.433594 184.90625 413.414062 184.804688 C 414.398438 184.703125 415.375 184.554688 416.339844 184.359375 C 417.308594 184.160156 418.265625 183.917969 419.207031 183.628906 C 420.152344 183.339844 421.082031 183.003906 421.992188 182.621094 C 422.902344 182.238281 423.792969 181.816406 424.664062 181.347656 C 425.53125 180.878906 426.375 180.371094 427.195312 179.816406 C 428.015625 179.265625 428.804688 178.675781 429.566406 178.050781 C 430.328125 177.421875 431.058594 176.757812 431.753906 176.054688 C 432.453125 175.355469 433.113281 174.625 433.738281 173.859375 C 434.363281 173.09375 434.949219 172.300781 435.496094 171.480469 C 436.042969 170.65625 436.550781 169.808594 437.015625 168.9375 C 437.476562 168.066406 437.898438 167.175781 438.277344 166.261719 C 438.652344 165.347656 438.984375 164.417969 439.269531 163.472656 C 439.554688 162.527344 439.792969 161.570312 439.988281 160.601562 C 440.179688 159.632812 440.324219 158.660156 440.417969 157.675781 C 440.515625 156.691406 440.5625 155.707031 440.5625 154.71875 L 440.5625 137.996094 L 456.089844 137.996094 L 507.710938 170.664062 C 508.394531 171.085938 509.136719 171.300781 509.941406 171.304688 C 510.660156 171.304688 511.339844 171.136719 511.976562 170.804688 C 512.640625 170.429688 513.164062 169.914062 513.550781 169.253906 C 513.933594 168.597656 514.125 167.886719 514.121094 167.125 L 514.121094 137.660156 C 515.015625 137.535156 515.902344 137.371094 516.785156 137.167969 C 517.664062 136.960938 518.53125 136.71875 519.390625 136.433594 C 520.25 136.152344 521.09375 135.832031 521.921875 135.472656 C 522.75 135.117188 523.5625 134.722656 524.355469 134.292969 C 525.152344 133.859375 525.925781 133.394531 526.675781 132.894531 C 527.429688 132.394531 528.15625 131.863281 528.863281 131.300781 C 529.566406 130.734375 530.246094 130.140625 530.898438 129.511719 C 531.546875 128.886719 532.171875 128.234375 532.765625 127.554688 C 533.355469 126.871094 533.917969 126.164062 534.449219 125.433594 C 534.980469 124.703125 535.476562 123.949219 535.9375 123.171875 C 536.398438 122.398438 536.828125 121.601562 537.21875 120.789062 C 537.609375 119.972656 537.964844 119.144531 538.28125 118.296875 C 538.597656 117.453125 538.878906 116.59375 539.117188 115.722656 C 539.359375 114.851562 539.558594 113.972656 539.722656 113.085938 C 539.882812 112.195312 540.003906 111.300781 540.085938 110.402344 C 540.167969 109.503906 540.210938 108.601562 540.210938 107.699219 L 540.210938 61.761719 C 540.210938 60.773438 540.160156 59.785156 540.0625 58.800781 C 539.964844 57.816406 539.816406 56.839844 539.621094 55.871094 C 539.429688 54.898438 539.1875 53.941406 538.898438 52.996094 C 538.609375 52.046875 538.277344 51.117188 537.898438 50.203125 C 537.519531 49.289062 537.09375 48.398438 536.628906 47.523438 C 536.160156 46.652344 535.652344 45.804688 535.105469 44.980469 C 534.554688 44.160156 533.964844 43.367188 533.339844 42.601562 C 532.710938 41.835938 532.046875 41.101562 531.347656 40.402344 C 530.648438 39.703125 529.917969 39.039062 529.152344 38.410156 C 528.386719 37.78125 527.59375 37.195312 526.773438 36.644531 C 525.949219 36.09375 525.105469 35.582031 524.230469 35.117188 C 523.359375 34.648438 522.46875 34.222656 521.554688 33.84375 C 520.640625 33.464844 519.710938 33.128906 518.765625 32.839844 C 517.816406 32.550781 516.859375 32.308594 515.890625 32.113281 C 514.917969 31.917969 513.941406 31.773438 512.957031 31.671875 C 511.972656 31.574219 510.988281 31.523438 509.996094 31.519531 Z M 432.203125 154.71875 C 432.203125 155.4375 432.164062 156.152344 432.09375 156.863281 C 432.023438 157.578125 431.917969 158.285156 431.777344 158.988281 C 431.636719 159.691406 431.460938 160.382812 431.253906 161.070312 C 431.046875 161.753906 430.804688 162.429688 430.527344 163.089844 C 430.253906 163.75 429.949219 164.398438 429.609375 165.03125 C 429.273438 165.660156 428.90625 166.273438 428.507812 166.871094 C 428.109375 167.464844 427.679688 168.039062 427.226562 168.59375 C 426.773438 169.148438 426.292969 169.675781 425.785156 170.183594 C 425.277344 170.691406 424.75 171.171875 424.195312 171.625 C 423.640625 172.082031 423.066406 172.507812 422.472656 172.90625 C 421.875 173.304688 421.261719 173.671875 420.628906 174.007812 C 420 174.347656 419.351562 174.652344 418.691406 174.929688 C 418.027344 175.203125 417.355469 175.445312 416.671875 175.652344 C 415.984375 175.859375 415.289062 176.035156 414.589844 176.175781 C 413.886719 176.316406 413.179688 176.421875 412.464844 176.492188 C 411.753906 176.5625 411.039062 176.601562 410.320312 176.601562 L 382.140625 176.601562 C 381.320312 176.59375 380.566406 176.816406 379.882812 177.269531 L 333.640625 206.566406 L 333.640625 180.671875 C 333.640625 180.394531 333.613281 180.125 333.5625 179.855469 C 333.507812 179.585938 333.429688 179.324219 333.324219 179.070312 C 333.21875 178.816406 333.089844 178.574219 332.9375 178.347656 C 332.785156 178.121094 332.609375 177.910156 332.417969 177.714844 C 332.222656 177.519531 332.011719 177.347656 331.785156 177.195312 C 331.554688 177.042969 331.3125 176.914062 331.058594 176.808594 C 330.808594 176.703125 330.546875 176.625 330.277344 176.570312 C 330.007812 176.515625 329.734375 176.488281 329.460938 176.488281 C 328.742188 176.488281 328.027344 176.453125 327.316406 176.382812 C 326.601562 176.3125 325.894531 176.203125 325.191406 176.066406 C 324.488281 175.925781 323.792969 175.75 323.109375 175.542969 C 322.421875 175.332031 321.75 175.089844 321.085938 174.816406 C 320.425781 174.542969 319.777344 174.238281 319.144531 173.898438 C 318.515625 173.5625 317.898438 173.191406 317.304688 172.792969 C 316.707031 172.398438 316.132812 171.96875 315.578125 171.515625 C 315.023438 171.0625 314.492188 170.582031 313.988281 170.074219 C 313.480469 169.566406 313 169.039062 312.542969 168.484375 C 312.089844 167.929688 311.660156 167.355469 311.261719 166.761719 C 310.863281 166.164062 310.496094 165.550781 310.15625 164.921875 C 309.816406 164.289062 309.511719 163.640625 309.234375 162.980469 C 308.960938 162.316406 308.71875 161.644531 308.507812 160.960938 C 308.296875 160.273438 308.125 159.578125 307.980469 158.878906 C 307.839844 158.175781 307.734375 157.464844 307.664062 156.753906 C 307.589844 156.039062 307.554688 155.324219 307.550781 154.609375 L 307.550781 108.785156 C 307.554688 108.066406 307.589844 107.351562 307.664062 106.640625 C 307.734375 105.925781 307.839844 105.21875 307.980469 104.515625 C 308.125 103.8125 308.296875 103.121094 308.507812 102.433594 C 308.71875 101.75 308.960938 101.074219 309.234375 100.414062 C 309.511719 99.75 309.816406 99.105469 310.15625 98.472656 C 310.496094 97.84375 310.863281 97.226562 311.261719 96.632812 C 311.660156 96.039062 312.089844 95.464844 312.542969 94.910156 C 313 94.355469 313.480469 93.824219 313.988281 93.320312 C 314.492188 92.8125 315.023438 92.332031 315.578125 91.878906 C 316.132812 91.421875 316.707031 90.996094 317.304688 90.597656 C 317.898438 90.199219 318.515625 89.832031 319.144531 89.496094 C 319.777344 89.15625 320.425781 88.851562 321.085938 88.578125 C 321.75 88.300781 322.421875 88.0625 323.109375 87.851562 C 323.792969 87.644531 324.488281 87.46875 325.191406 87.328125 C 325.894531 87.1875 326.601562 87.082031 327.316406 87.011719 C 328.027344 86.941406 328.742188 86.90625 329.460938 86.902344 L 410.292969 86.902344 C 411.011719 86.90625 411.722656 86.941406 412.4375 87.011719 C 413.148438 87.082031 413.859375 87.1875 414.558594 87.328125 C 415.261719 87.46875 415.957031 87.644531 416.640625 87.851562 C 417.328125 88.0625 418 88.300781 418.664062 88.578125 C 419.324219 88.851562 419.972656 89.15625 420.601562 89.496094 C 421.234375 89.832031 421.847656 90.203125 422.441406 90.601562 C 423.039062 91 423.613281 91.425781 424.167969 91.878906 C 424.722656 92.332031 425.25 92.8125 425.757812 93.320312 C 426.265625 93.828125 426.746094 94.359375 427.199219 94.910156 C 427.652344 95.464844 428.078125 96.039062 428.476562 96.636719 C 428.875 97.230469 429.246094 97.84375 429.582031 98.476562 C 429.921875 99.109375 430.226562 99.753906 430.5 100.414062 C 430.777344 101.078125 431.015625 101.75 431.226562 102.4375 C 431.433594 103.121094 431.609375 103.816406 431.75 104.519531 C 431.890625 105.21875 431.996094 105.929688 432.066406 106.640625 C 432.136719 107.355469 432.171875 108.070312 432.175781 108.785156 Z M 531.90625 107.699219 C 531.902344 108.414062 531.867188 109.128906 531.796875 109.84375 C 531.722656 110.554688 531.617188 111.261719 531.476562 111.964844 C 531.335938 112.667969 531.160156 113.363281 530.949219 114.046875 C 530.742188 114.734375 530.496094 115.40625 530.222656 116.070312 C 529.949219 116.730469 529.640625 117.378906 529.300781 118.007812 C 528.964844 118.640625 528.59375 119.253906 528.195312 119.847656 C 527.796875 120.445312 527.371094 121.019531 526.914062 121.574219 C 526.460938 122.125 525.976562 122.65625 525.472656 123.164062 C 524.964844 123.667969 524.433594 124.148438 523.878906 124.605469 C 523.324219 125.058594 522.75 125.484375 522.152344 125.882812 C 521.558594 126.28125 520.945312 126.648438 520.3125 126.988281 C 519.679688 127.324219 519.03125 127.632812 518.371094 127.90625 C 517.707031 128.179688 517.035156 128.421875 516.347656 128.628906 C 515.664062 128.839844 514.96875 129.011719 514.265625 129.152344 C 513.5625 129.292969 512.855469 129.398438 512.140625 129.46875 C 511.429688 129.542969 510.714844 129.578125 509.996094 129.578125 C 509.722656 129.578125 509.449219 129.605469 509.179688 129.660156 C 508.914062 129.710938 508.652344 129.792969 508.398438 129.898438 C 508.144531 130 507.902344 130.128906 507.675781 130.28125 C 507.445312 130.4375 507.234375 130.609375 507.039062 130.804688 C 506.847656 130.996094 506.671875 131.207031 506.519531 131.4375 C 506.367188 131.664062 506.238281 131.90625 506.132812 132.160156 C 506.03125 132.414062 505.949219 132.675781 505.898438 132.945312 C 505.84375 133.214844 505.816406 133.484375 505.816406 133.757812 L 505.816406 159.542969 L 459.546875 130.246094 C 458.863281 129.796875 458.109375 129.570312 457.289062 129.578125 L 440.5625 129.578125 L 440.5625 108.785156 C 440.5625 107.792969 440.515625 106.808594 440.417969 105.820312 C 440.316406 104.835938 440.171875 103.859375 439.980469 102.886719 C 439.785156 101.914062 439.542969 100.957031 439.253906 100.007812 C 438.96875 99.0625 438.632812 98.128906 438.253906 97.214844 C 437.875 96.300781 437.453125 95.40625 436.984375 94.535156 C 436.519531 93.660156 436.007812 92.8125 435.457031 91.988281 C 434.910156 91.167969 434.320312 90.371094 433.691406 89.605469 C 433.0625 88.839844 432.398438 88.109375 431.699219 87.40625 C 430.996094 86.707031 430.265625 86.042969 429.5 85.414062 C 428.734375 84.785156 427.941406 84.199219 427.117188 83.648438 C 426.292969 83.097656 425.445312 82.589844 424.574219 82.121094 C 423.699219 81.652344 422.804688 81.230469 421.890625 80.851562 C 420.976562 80.472656 420.042969 80.136719 419.097656 79.851562 C 418.148438 79.5625 417.191406 79.320312 416.21875 79.128906 C 415.25 78.933594 414.269531 78.789062 413.285156 78.691406 C 412.300781 78.59375 411.3125 78.542969 410.320312 78.542969 L 407.226562 78.542969 L 407.226562 61.816406 C 407.226562 61.101562 407.265625 60.386719 407.335938 59.675781 C 407.40625 58.960938 407.511719 58.253906 407.652344 57.550781 C 407.792969 56.847656 407.96875 56.15625 408.175781 55.46875 C 408.382812 54.785156 408.625 54.109375 408.902344 53.449219 C 409.175781 52.789062 409.480469 52.140625 409.820312 51.507812 C 410.15625 50.878906 410.527344 50.265625 410.921875 49.667969 C 411.320312 49.074219 411.75 48.5 412.203125 47.945312 C 412.65625 47.390625 413.136719 46.859375 413.644531 46.355469 C 414.152344 45.847656 414.679688 45.367188 415.234375 44.914062 C 415.789062 44.457031 416.363281 44.03125 416.957031 43.632812 C 417.554688 43.234375 418.167969 42.867188 418.800781 42.527344 C 419.429688 42.191406 420.078125 41.886719 420.738281 41.609375 C 421.402344 41.335938 422.074219 41.09375 422.757812 40.886719 C 423.445312 40.675781 424.140625 40.503906 424.839844 40.363281 C 425.542969 40.222656 426.25 40.117188 426.964844 40.046875 C 427.675781 39.972656 428.390625 39.9375 429.109375 39.9375 L 509.941406 39.9375 C 510.65625 39.9375 511.375 39.972656 512.085938 40.046875 C 512.800781 40.117188 513.507812 40.222656 514.210938 40.363281 C 514.914062 40.503906 515.605469 40.675781 516.292969 40.886719 C 516.980469 41.09375 517.652344 41.335938 518.316406 41.609375 C 518.976562 41.882812 519.625 42.191406 520.257812 42.527344 C 520.886719 42.867188 521.503906 43.234375 522.097656 43.632812 C 522.695312 44.03125 523.269531 44.457031 523.824219 44.910156 C 524.378906 45.367188 524.90625 45.847656 525.414062 46.351562 C 525.921875 46.859375 526.402344 47.390625 526.859375 47.941406 C 527.3125 48.496094 527.742188 49.070312 528.140625 49.667969 C 528.539062 50.261719 528.90625 50.875 529.246094 51.507812 C 529.585938 52.136719 529.890625 52.785156 530.167969 53.445312 C 530.441406 54.109375 530.683594 54.78125 530.894531 55.46875 C 531.101562 56.152344 531.277344 56.847656 531.417969 57.550781 C 531.5625 58.253906 531.667969 58.960938 531.738281 59.671875 C 531.8125 60.386719 531.847656 61.101562 531.851562 61.816406 Z M 531.90625 107.699219 " fill-opacity="1" fill-rule="nonzero"/></g><path fill="#028a8c" d="M 373.613281 103.992188 C 373.257812 103.285156 372.742188 102.726562 372.070312 102.308594 C 371.398438 101.894531 370.667969 101.6875 369.878906 101.6875 C 369.085938 101.6875 368.355469 101.894531 367.683594 102.308594 C 367.011719 102.726562 366.496094 103.285156 366.140625 103.992188 L 340.359375 154.777344 C 340.21875 155.023438 340.105469 155.277344 340.015625 155.546875 C 339.925781 155.816406 339.867188 156.09375 339.835938 156.375 C 339.800781 156.65625 339.796875 156.9375 339.824219 157.21875 C 339.847656 157.5 339.898438 157.777344 339.980469 158.046875 C 340.0625 158.320312 340.167969 158.582031 340.304688 158.828125 C 340.4375 159.078125 340.59375 159.3125 340.777344 159.53125 C 340.957031 159.746094 341.15625 159.945312 341.378906 160.121094 C 341.601562 160.296875 341.835938 160.449219 342.089844 160.578125 C 342.34375 160.707031 342.605469 160.808594 342.878906 160.882812 C 343.152344 160.960938 343.429688 161.007812 343.710938 161.027344 C 343.992188 161.042969 344.273438 161.035156 344.554688 160.996094 C 344.835938 160.957031 345.109375 160.890625 345.375 160.796875 C 345.644531 160.703125 345.898438 160.582031 346.140625 160.4375 C 346.382812 160.292969 346.609375 160.121094 346.816406 159.929688 C 347.027344 159.738281 347.214844 159.527344 347.378906 159.296875 C 347.542969 159.070312 347.683594 158.824219 347.800781 158.566406 L 356.691406 141.0625 L 383.0625 141.0625 L 391.839844 158.566406 C 391.957031 158.824219 392.097656 159.070312 392.265625 159.296875 C 392.429688 159.527344 392.617188 159.738281 392.824219 159.929688 C 393.03125 160.121094 393.257812 160.292969 393.5 160.4375 C 393.742188 160.582031 394 160.703125 394.265625 160.796875 C 394.53125 160.890625 394.808594 160.957031 395.085938 160.996094 C 395.367188 161.035156 395.648438 161.042969 395.933594 161.027344 C 396.214844 161.007812 396.492188 160.960938 396.765625 160.882812 C 397.039062 160.808594 397.300781 160.707031 397.554688 160.578125 C 397.804688 160.449219 398.042969 160.296875 398.261719 160.121094 C 398.484375 159.945312 398.6875 159.746094 398.867188 159.53125 C 399.046875 159.3125 399.207031 159.078125 399.339844 158.828125 C 399.472656 158.582031 399.582031 158.320312 399.660156 158.046875 C 399.742188 157.777344 399.796875 157.5 399.820312 157.21875 C 399.84375 156.9375 399.839844 156.65625 399.808594 156.375 C 399.777344 156.09375 399.714844 155.816406 399.628906 155.546875 C 399.539062 155.277344 399.425781 155.023438 399.285156 154.777344 Z M 360.929688 132.699219 L 369.878906 115.113281 L 378.796875 132.699219 Z M 360.929688 132.699219 " fill-opacity="1" fill-rule="nonzero"/><path fill="#028a8c" d="M 493.996094 104.378906 L 477.691406 93.398438 C 481.078125 88.042969 483.863281 82.394531 486.054688 76.453125 L 491.628906 76.453125 C 491.902344 76.453125 492.175781 76.425781 492.445312 76.371094 C 492.714844 76.316406 492.976562 76.238281 493.230469 76.132812 C 493.480469 76.027344 493.722656 75.898438 493.953125 75.746094 C 494.179688 75.59375 494.390625 75.421875 494.585938 75.226562 C 494.777344 75.03125 494.953125 74.820312 495.105469 74.59375 C 495.257812 74.363281 495.386719 74.125 495.492188 73.871094 C 495.597656 73.617188 495.675781 73.355469 495.730469 73.085938 C 495.78125 72.816406 495.808594 72.546875 495.808594 72.269531 C 495.808594 71.996094 495.78125 71.722656 495.730469 71.453125 C 495.675781 71.1875 495.597656 70.925781 495.492188 70.671875 C 495.386719 70.417969 495.257812 70.175781 495.105469 69.949219 C 494.953125 69.71875 494.777344 69.507812 494.585938 69.3125 C 494.390625 69.121094 494.179688 68.945312 493.953125 68.792969 C 493.722656 68.640625 493.480469 68.511719 493.230469 68.40625 C 492.976562 68.300781 492.714844 68.222656 492.445312 68.167969 C 492.175781 68.117188 491.902344 68.089844 491.628906 68.089844 L 474.738281 68.089844 L 474.738281 59.394531 C 474.738281 59.117188 474.710938 58.847656 474.65625 58.578125 C 474.601562 58.308594 474.523438 58.046875 474.417969 57.792969 C 474.3125 57.539062 474.183594 57.296875 474.03125 57.070312 C 473.878906 56.84375 473.707031 56.628906 473.511719 56.4375 C 473.320312 56.242188 473.105469 56.070312 472.878906 55.917969 C 472.652344 55.765625 472.410156 55.636719 472.15625 55.53125 C 471.902344 55.425781 471.640625 55.347656 471.371094 55.292969 C 471.101562 55.238281 470.832031 55.210938 470.554688 55.210938 C 470.28125 55.210938 470.007812 55.238281 469.742188 55.292969 C 469.472656 55.347656 469.210938 55.425781 468.957031 55.53125 C 468.703125 55.636719 468.460938 55.765625 468.234375 55.917969 C 468.003906 56.070312 467.792969 56.242188 467.601562 56.4375 C 467.40625 56.628906 467.230469 56.84375 467.078125 57.070312 C 466.925781 57.296875 466.796875 57.539062 466.695312 57.792969 C 466.589844 58.046875 466.507812 58.308594 466.457031 58.578125 C 466.402344 58.847656 466.375 59.117188 466.375 59.394531 L 466.375 68.089844 L 447.589844 68.089844 C 447.3125 68.089844 447.042969 68.117188 446.773438 68.167969 C 446.503906 68.222656 446.242188 68.300781 445.988281 68.40625 C 445.734375 68.511719 445.492188 68.640625 445.265625 68.792969 C 445.039062 68.945312 444.824219 69.121094 444.632812 69.3125 C 444.4375 69.507812 444.265625 69.71875 444.113281 69.949219 C 443.960938 70.175781 443.832031 70.417969 443.726562 70.671875 C 443.621094 70.925781 443.542969 71.1875 443.488281 71.453125 C 443.433594 71.722656 443.40625 71.996094 443.40625 72.269531 C 443.40625 72.546875 443.433594 72.816406 443.488281 73.085938 C 443.542969 73.355469 443.621094 73.617188 443.726562 73.871094 C 443.832031 74.125 443.960938 74.363281 444.113281 74.59375 C 444.265625 74.820312 444.4375 75.03125 444.632812 75.226562 C 444.824219 75.421875 445.039062 75.59375 445.265625 75.746094 C 445.492188 75.898438 445.734375 76.027344 445.988281 76.132812 C 446.242188 76.238281 446.503906 76.316406 446.773438 76.371094 C 447.042969 76.425781 447.3125 76.453125 447.589844 76.453125 L 477.164062 76.453125 C 475.375 80.714844 473.238281 84.792969 470.75 88.6875 L 460.242188 81.609375 C 460.011719 81.453125 459.765625 81.324219 459.507812 81.21875 C 459.25 81.113281 458.984375 81.03125 458.710938 80.980469 C 458.4375 80.925781 458.160156 80.898438 457.878906 80.902344 C 457.601562 80.902344 457.324219 80.929688 457.050781 80.984375 C 456.777344 81.042969 456.515625 81.125 456.257812 81.230469 C 456 81.339844 455.753906 81.472656 455.523438 81.625 C 455.292969 81.78125 455.078125 81.960938 454.882812 82.15625 C 454.6875 82.355469 454.511719 82.570312 454.359375 82.804688 C 454.203125 83.035156 454.074219 83.28125 453.96875 83.539062 C 453.863281 83.796875 453.785156 84.0625 453.730469 84.339844 C 453.679688 84.613281 453.652344 84.886719 453.652344 85.167969 C 453.65625 85.445312 453.683594 85.722656 453.738281 85.996094 C 453.796875 86.269531 453.878906 86.535156 453.984375 86.789062 C 454.09375 87.046875 454.226562 87.292969 454.382812 87.523438 C 454.539062 87.753906 454.714844 87.96875 454.914062 88.164062 C 455.113281 88.359375 455.328125 88.535156 455.558594 88.6875 L 465.929688 95.65625 C 462.679688 99.765625 459.082031 103.546875 455.140625 107 C 454.9375 107.183594 454.75 107.386719 454.585938 107.605469 C 454.417969 107.824219 454.277344 108.058594 454.15625 108.304688 C 454.035156 108.554688 453.941406 108.8125 453.875 109.078125 C 453.804688 109.34375 453.761719 109.613281 453.746094 109.890625 C 453.730469 110.164062 453.742188 110.4375 453.777344 110.710938 C 453.816406 110.984375 453.878906 111.25 453.96875 111.507812 C 454.0625 111.769531 454.175781 112.019531 454.316406 112.253906 C 454.453125 112.492188 454.617188 112.714844 454.796875 112.921875 C 454.980469 113.125 455.183594 113.3125 455.402344 113.476562 C 455.621094 113.644531 455.855469 113.785156 456.101562 113.90625 C 456.351562 114.027344 456.605469 114.121094 456.875 114.191406 C 457.140625 114.261719 457.410156 114.304688 457.683594 114.320312 C 457.960938 114.335938 458.234375 114.328125 458.503906 114.289062 C 458.777344 114.25 459.042969 114.1875 459.304688 114.097656 C 459.566406 114.007812 459.8125 113.894531 460.050781 113.753906 C 460.289062 113.617188 460.511719 113.453125 460.71875 113.273438 C 465.199219 109.34375 469.277344 105.03125 472.953125 100.339844 L 489.398438 111.488281 C 490.097656 111.957031 490.871094 112.191406 491.710938 112.183594 C 492.160156 112.183594 492.59375 112.113281 493.015625 111.972656 C 493.441406 111.832031 493.832031 111.628906 494.191406 111.363281 C 494.550781 111.097656 494.859375 110.78125 495.117188 110.417969 C 495.375 110.050781 495.566406 109.65625 495.699219 109.230469 C 495.828125 108.804688 495.890625 108.367188 495.882812 107.921875 C 495.871094 107.472656 495.792969 107.039062 495.644531 106.617188 C 495.496094 106.199219 495.289062 105.808594 495.015625 105.457031 C 494.742188 105.101562 494.421875 104.800781 494.054688 104.546875 Z M 493.996094 104.378906 " fill-opacity="1" fill-rule="nonzero"/></svg>