<svg xmlns="http://www.w3.org/2000/svg" xmlns:xlink="http://www.w3.org/1999/xlink" width="1080" zoomAndPan="magnify" viewBox="0 0 810 809.999993" height="1080" preserveAspectRatio="xMidYMid meet" version="1.0"><defs><clipPath id="9ca064b58e"><path d="M 548.507812 495 L 810 495 L 810 773.414062 L 548.507812 773.414062 Z M 548.507812 495 " clip-rule="nonzero"/></clipPath><clipPath id="ecddc811a0"><path d="M 366 446.777344 L 451 446.777344 L 451 531 L 366 531 Z M 366 446.777344 " clip-rule="nonzero"/></clipPath><clipPath id="7018d061ea"><path d="M 296.769531 536 L 520 536 L 520 773.027344 L 296.769531 773.027344 Z M 296.769531 536 " clip-rule="nonzero"/></clipPath><clipPath id="1dbc469ec6"><path d="M 20.308594 541.4375 L 54.34375 541.4375 L 54.34375 554.089844 L 20.308594 554.089844 Z M 20.308594 541.4375 " clip-rule="nonzero"/></clipPath><clipPath id="b5900d2df0"><path d="M 273.804688 541.4375 L 307.675781 541.4375 L 307.675781 554.089844 L 273.804688 554.089844 Z M 273.804688 541.4375 " clip-rule="nonzero"/></clipPath><clipPath id="ce68eae6f0"><path d="M 20.144531 299.089844 L 308 299.089844 L 308 541 L 20.144531 541 Z M 20.144531 299.089844 " clip-rule="nonzero"/></clipPath><clipPath id="4e42dcfc20"><path d="M 307.832031 21.8125 L 732.292969 21.8125 L 732.292969 256.363281 L 307.832031 256.363281 Z M 307.832031 21.8125 " clip-rule="nonzero"/></clipPath><clipPath id="e75b1f8486"><path d="M 330.207031 43.101562 L 712.53125 43.101562 L 712.53125 236.601562 L 330.207031 236.601562 Z M 330.207031 43.101562 " clip-rule="nonzero"/></clipPath><clipPath id="8d8c2b7e18"><path d="M 506 61.609375 L 663.515625 61.609375 L 663.515625 200.359375 L 506 200.359375 Z M 506 61.609375 " clip-rule="nonzero"/></clipPath><clipPath id="9917dfa504"><path d="M 0.160156 1 L 157 1 L 157 139 L 0.160156 139 Z M 0.160156 1 " clip-rule="nonzero"/></clipPath><clipPath id="4c7fb84dbd"><rect x="0" width="158" y="0" height="140"/></clipPath><clipPath id="bf5251e5a3"><path d="M 408.417969 148.472656 L 480.261719 148.472656 L 480.261719 220.3125 L 408.417969 220.3125 Z M 408.417969 148.472656 " clip-rule="nonzero"/></clipPath><clipPath id="a48d6f7e1d"><path d="M 444.339844 148.472656 C 424.5 148.472656 408.417969 164.554688 408.417969 184.394531 C 408.417969 204.230469 424.5 220.3125 444.339844 220.3125 C 464.179688 220.3125 480.261719 204.230469 480.261719 184.394531 C 480.261719 164.554688 464.179688 148.472656 444.339844 148.472656 Z M 444.339844 148.472656 " clip-rule="nonzero"/></clipPath><clipPath id="2101720064"><path d="M 0.417969 0.472656 L 72.261719 0.472656 L 72.261719 72.3125 L 0.417969 72.3125 Z M 0.417969 0.472656 " clip-rule="nonzero"/></clipPath><clipPath id="19276984fb"><path d="M 36.339844 0.472656 C 16.5 0.472656 0.417969 16.554688 0.417969 36.394531 C 0.417969 56.230469 16.5 72.3125 36.339844 72.3125 C 56.179688 72.3125 72.261719 56.230469 72.261719 36.394531 C 72.261719 16.554688 56.179688 0.472656 36.339844 0.472656 Z M 36.339844 0.472656 " clip-rule="nonzero"/></clipPath><clipPath id="3d95fa5d37"><rect x="0" width="73" y="0" height="73"/></clipPath><clipPath id="d8030604bb"><path d="M 73.066406 123.894531 L 283.066406 123.894531 L 283.066406 256.363281 L 73.066406 256.363281 Z M 73.066406 123.894531 " clip-rule="nonzero"/></clipPath><clipPath id="e181b2545a"><path d="M 95.714844 148.472656 L 257.714844 148.472656 L 257.714844 234.425781 L 95.714844 234.425781 Z M 95.714844 148.472656 " clip-rule="nonzero"/></clipPath><clipPath id="6259c8b624"><path d="M 96.902344 168 L 258.902344 168 L 258.902344 234.234375 L 96.902344 234.234375 Z M 96.902344 168 " clip-rule="nonzero"/></clipPath></defs><path fill="#028a8c" d="M 678.953125 489.296875 C 651.863281 489.296875 629.824219 467.257812 629.824219 440.167969 C 629.824219 413.078125 651.863281 391.039062 678.953125 391.039062 C 706.042969 391.039062 728.082031 413.078125 728.082031 440.167969 C 728.082031 467.257812 706.042969 489.296875 678.953125 489.296875 Z M 678.953125 489.296875 " fill-opacity="1" fill-rule="nonzero"/><g clip-path="url(#9ca064b58e)"><path fill="#028a8c" d="M 716.589844 773.199219 L 708.226562 773.199219 C 695.707031 773.199219 685.523438 763.015625 685.523438 750.496094 L 685.523438 660.292969 C 685.457031 659.625 685.359375 658.878906 685.28125 658.488281 C 683.878906 655.539062 680.90625 655.214844 679.667969 655.214844 L 679.628906 655.214844 C 679.277344 655.253906 679.226562 655.253906 678.875 655.214844 L 678.839844 655.214844 C 677.601562 655.214844 674.625 655.539062 673.222656 658.488281 C 673.148438 658.878906 673.046875 659.625 672.980469 660.292969 L 672.980469 750.496094 C 672.980469 763.015625 662.796875 773.199219 650.28125 773.199219 L 641.917969 773.199219 C 629.398438 773.199219 619.214844 763.015625 619.214844 750.496094 L 619.214844 578.542969 L 585.324219 616.878906 C 585.210938 617.003906 585.089844 617.128906 584.964844 617.25 C 580.949219 621.070312 575.6875 623.171875 570.144531 623.171875 C 564.28125 623.171875 558.601562 620.738281 554.5625 616.492188 C 550.601562 612.328125 548.5 606.875 548.644531 601.132812 C 548.785156 595.480469 551.082031 590.214844 555.125 586.273438 L 620.539062 512.683594 C 620.675781 512.53125 620.816406 512.386719 620.964844 512.25 C 636.136719 498.328125 651.839844 495.820312 679.226562 495.699219 C 706.664062 495.820312 722.367188 498.328125 737.539062 512.25 C 737.6875 512.386719 737.832031 512.53125 737.964844 512.683594 L 803.382812 586.273438 C 807.421875 590.214844 809.722656 595.480469 809.863281 601.132812 C 810.003906 606.875 807.902344 612.328125 803.945312 616.492188 C 799.902344 620.738281 794.222656 623.171875 788.363281 623.171875 C 788.359375 623.171875 788.359375 623.171875 788.359375 623.171875 C 782.820312 623.171875 777.554688 621.070312 773.539062 617.25 C 773.414062 617.128906 773.296875 617.003906 773.179688 616.878906 L 739.289062 578.542969 L 739.289062 750.496094 C 739.289062 763.015625 729.105469 773.199219 716.589844 773.199219 Z M 716.589844 773.199219 " fill-opacity="1" fill-rule="nonzero"/></g><g clip-path="url(#ecddc811a0)"><path fill="#028a8c" d="M 408.160156 530.792969 C 385.027344 530.792969 366.207031 511.972656 366.207031 488.839844 C 366.207031 465.707031 385.027344 446.886719 408.160156 446.886719 C 431.292969 446.886719 450.109375 465.707031 450.109375 488.839844 C 450.109375 511.972656 431.292969 530.792969 408.160156 530.792969 Z M 408.160156 530.792969 " fill-opacity="1" fill-rule="nonzero"/></g><g clip-path="url(#7018d061ea)"><path fill="#028a8c" d="M 440.296875 773.214844 L 433.15625 773.214844 C 422.464844 773.214844 413.769531 764.519531 413.769531 753.832031 L 413.769531 676.804688 C 413.710938 676.238281 413.628906 675.597656 413.5625 675.265625 C 412.363281 672.746094 409.824219 672.46875 408.769531 672.46875 L 408.734375 672.46875 C 408.4375 672.5 408.390625 672.5 408.09375 672.46875 L 408.0625 672.46875 C 407.003906 672.46875 404.464844 672.746094 403.265625 675.265625 C 403.203125 675.597656 403.117188 676.234375 403.058594 676.804688 L 403.058594 753.832031 C 403.058594 764.519531 394.363281 773.214844 383.675781 773.214844 L 376.53125 773.214844 C 365.84375 773.214844 357.148438 764.519531 357.148438 753.832031 L 357.148438 606.996094 L 328.207031 639.730469 C 328.109375 639.84375 328.007812 639.949219 327.902344 640.050781 C 324.472656 643.3125 319.980469 645.109375 315.246094 645.109375 C 310.238281 645.109375 305.390625 643.027344 301.941406 639.402344 C 298.558594 635.847656 296.765625 631.191406 296.886719 626.289062 C 297.007812 621.460938 298.96875 616.964844 302.421875 613.601562 L 358.28125 550.761719 C 358.394531 550.632812 358.515625 550.507812 358.644531 550.390625 C 371.597656 538.503906 385.007812 536.363281 408.390625 536.257812 C 431.820312 536.363281 445.230469 538.503906 458.183594 550.390625 C 458.3125 550.507812 458.433594 550.632812 458.550781 550.761719 L 514.40625 613.601562 C 517.859375 616.964844 519.820312 621.460938 519.941406 626.289062 C 520.0625 631.191406 518.269531 635.847656 514.886719 639.402344 C 511.4375 643.027344 506.589844 645.109375 501.582031 645.109375 C 496.851562 645.109375 492.355469 643.3125 488.925781 640.050781 C 488.820312 639.949219 488.71875 639.84375 488.621094 639.730469 L 459.679688 606.996094 L 459.679688 753.832031 C 459.679688 764.519531 450.984375 773.214844 440.296875 773.214844 Z M 440.296875 773.214844 " fill-opacity="1" fill-rule="nonzero"/></g><g clip-path="url(#1dbc469ec6)"><path fill="#028a8c" d="M 20.308594 554.378906 L 54.113281 554.378906 L 54.113281 541.558594 L 20.308594 541.558594 L 20.308594 554.378906 " fill-opacity="1" fill-rule="nonzero"/></g><g clip-path="url(#b5900d2df0)"><path fill="#028a8c" d="M 273.867188 541.558594 L 273.867188 554.378906 L 307.675781 554.378906 L 307.675781 541.558594 L 273.867188 541.558594 " fill-opacity="1" fill-rule="nonzero"/></g><g clip-path="url(#ce68eae6f0)"><path fill="#028a8c" d="M 284.941406 362.320312 L 284.941406 540.394531 L 296.597656 540.394531 L 296.597656 330.636719 C 302.730469 328.285156 307.089844 322.363281 307.089844 315.40625 C 307.089844 306.394531 299.785156 299.085938 290.773438 299.085938 C 281.757812 299.085938 274.453125 306.394531 274.453125 315.40625 C 274.453125 322.363281 278.8125 328.285156 284.941406 330.636719 L 284.941406 352.355469 C 281.265625 356.652344 273.894531 364.015625 261.59375 371.320312 C 244.222656 381.640625 213.226562 393.917969 163.992188 394.15625 C 114.757812 393.917969 83.761719 381.640625 66.386719 371.320312 C 54.089844 364.015625 46.714844 356.652344 43.039062 352.355469 L 43.039062 330.636719 C 49.171875 328.285156 53.53125 322.363281 53.53125 315.40625 C 53.53125 306.394531 46.222656 299.085938 37.210938 299.085938 C 28.199219 299.085938 20.890625 306.394531 20.890625 315.40625 C 20.890625 322.363281 25.253906 328.285156 31.382812 330.636719 L 31.382812 540.394531 L 43.039062 540.394531 L 43.039062 362.320312 C 47.488281 366.589844 53.800781 371.757812 62.40625 376.917969 C 80.382812 387.707031 112.257812 400.511719 162.539062 400.992188 L 162.539062 401.015625 C 163.03125 401.015625 163.503906 401.007812 163.992188 401.003906 C 164.476562 401.007812 164.953125 401.015625 165.441406 401.015625 L 165.441406 400.992188 C 215.722656 400.511719 247.601562 387.707031 265.578125 376.917969 C 274.179688 371.757812 280.496094 366.589844 284.941406 362.320312 " fill-opacity="1" fill-rule="nonzero"/></g><g clip-path="url(#4e42dcfc20)"><path stroke-linecap="butt" transform="matrix(-0.75, 0, 0, -0.75, 732.293055, 256.363073)" fill="none" stroke-linejoin="miter" d="M 0.000114546 -0.000278063 L 565.94806 -0.000278063 L 565.94806 312.734113 L 0.000114546 312.734113 Z M 0.000114546 -0.000278063 " stroke="#028a8c" stroke-width="28" stroke-opacity="1" stroke-miterlimit="4"/></g><g clip-path="url(#e75b1f8486)"><path stroke-linecap="butt" transform="matrix(-0.75, 0, 0, -0.75, 712.53232, 236.601116)" fill="none" stroke-linejoin="miter" d="M 0.0014262 -0.000595204 L 509.767077 -0.000595204 L 509.767077 258.390043 L 0.0014262 258.390043 Z M 0.0014262 -0.000595204 " stroke="#028a8c" stroke-width="14" stroke-opacity="1" stroke-miterlimit="4"/></g><path fill="#028a8c" d="M 682.601562 203.03125 C 682.292969 204.648438 681.792969 206.207031 681.101562 207.703125 C 680.410156 209.199219 679.550781 210.589844 678.519531 211.875 C 677.488281 213.160156 676.316406 214.300781 675.007812 215.300781 C 673.695312 216.296875 672.285156 217.125 670.773438 217.777344 C 669.246094 218.402344 667.667969 218.832031 666.039062 219.070312 C 664.40625 219.304688 662.773438 219.34375 661.132812 219.179688 C 659.492188 219.015625 657.894531 218.65625 656.34375 218.105469 C 654.792969 217.550781 653.328125 216.816406 651.957031 215.90625 C 648.402344 213.496094 645.585938 209.914062 641.578125 208.375 C 638.421875 207.164062 634.898438 207.386719 631.558594 207.820312 C 626.660156 208.464844 621.742188 209.539062 616.8125 209.046875 C 611.886719 208.554688 606.808594 206.128906 604.738281 201.644531 C 602.484375 196.757812 604.339844 191.019531 606.613281 186.144531 C 608.890625 181.269531 611.65625 176.234375 611.132812 170.867188 C 610.851562 167.933594 609.574219 165.179688 609.089844 162.273438 C 607.769531 154.332031 612.855469 146.148438 620.085938 142.613281 C 627.3125 139.078125 636.117188 139.726562 643.457031 143.015625 C 648.789062 145.40625 653.59375 149.117188 659.292969 150.402344 C 664.25 151.515625 669.710938 150.742188 674.210938 153.105469 C 680.3125 156.296875 682.382812 163.957031 683.15625 170.785156 C 684.144531 179.601562 684.027344 188.398438 682.796875 197.183594 " fill-opacity="1" fill-rule="nonzero"/><g clip-path="url(#8d8c2b7e18)"><g transform="matrix(1, 0, 0, 1, 506, 61)"><g clip-path="url(#4c7fb84dbd)"><g clip-path="url(#9917dfa504)"><path fill="#028a8c" d="M 42.714844 4.550781 C 47.539062 1.53125 53.578125 0.683594 59.074219 2.089844 C 65.042969 4.152344 69.785156 8.984375 72.558594 14.574219 C 74.300781 17.886719 75.148438 21.566406 76.777344 24.925781 C 78.175781 28.539062 79.378906 32.234375 81.160156 35.683594 C 82.277344 37.894531 84.640625 39.5 87.144531 39.527344 C 91.375 39.703125 95.410156 37.632812 98.402344 34.753906 C 101.058594 32.144531 103.789062 29.558594 105.859375 26.445312 C 110.695312 19.433594 117.1875 13.160156 125.394531 10.394531 C 131.1875 9.261719 137.570312 9.574219 142.726562 12.710938 C 147.792969 15.289062 151.027344 20.886719 150.945312 26.535156 C 150.929688 29.886719 150.378906 33.203125 149.925781 36.515625 C 149.683594 36.320312 149.445312 36.132812 149.214844 35.941406 C 148.273438 42.050781 142.769531 46.773438 143.277344 53.207031 C 143.371094 56.421875 146.140625 58.449219 148.378906 60.324219 C 150.632812 62.195312 153.496094 63.175781 155.632812 65.183594 C 157.253906 66.878906 157.511719 70.371094 155.242188 71.628906 C 152.988281 72.96875 150.234375 73.070312 147.703125 72.726562 C 142.726562 71.96875 138.207031 69.558594 134.023438 66.878906 C 132.246094 65.808594 130.949219 64.148438 129.945312 62.371094 C 128.851562 60.402344 127.222656 58.605469 127.011719 56.273438 C 126.609375 52.324219 126.597656 48.171875 128.152344 44.449219 C 129.847656 40.398438 133.136719 37.324219 135.1875 33.488281 C 136.253906 31.414062 136.863281 28.925781 136.203125 26.632812 C 135.394531 25.171875 133.316406 24.039062 131.785156 25.125 C 130.582031 25.917969 129.632812 27.042969 128.832031 28.230469 C 126.378906 32.019531 124.367188 36.132812 121.351562 39.527344 C 116.914062 43.957031 112.582031 48.777344 106.824219 51.519531 C 103.09375 53.15625 99.183594 54.714844 95.035156 54.664062 C 90.589844 54.648438 86.121094 54.894531 81.691406 54.507812 C 77.328125 53.769531 73.320312 51.425781 70.039062 48.515625 C 64.695312 42.992188 63.003906 35.152344 58.71875 28.929688 C 57.410156 26.925781 54.902344 26.679688 52.75 27.144531 C 52.011719 31.363281 52.308594 35.691406 53.3125 39.835938 C 54.394531 44.199219 54.269531 48.726562 54.003906 53.183594 C 53.832031 54.984375 53.640625 56.863281 52.726562 58.464844 C 49.722656 63.785156 45.3125 68.15625 40.597656 71.96875 C 39.355469 73.019531 38.023438 74.390625 38.253906 76.167969 C 38.175781 78.449219 40.511719 79.527344 42.15625 80.554688 C 45.003906 82.058594 47.464844 84.316406 49.019531 87.148438 C 50.285156 89.507812 50.148438 92.335938 49.710938 94.894531 C 49.128906 97.894531 46.914062 100.171875 44.753906 102.167969 C 42.515625 104.339844 39.40625 105.160156 36.53125 106.121094 C 32.5 107.320312 28.714844 109.191406 24.792969 110.671875 C 22.808594 111.5625 20.5625 112.332031 19.226562 114.144531 C 17.890625 115.945312 19.582031 118.207031 21.328125 118.945312 C 26.355469 121.25 31.46875 123.371094 36.546875 125.574219 C 39.082031 126.710938 41.582031 128.058594 43.628906 129.980469 C 46.160156 132.046875 45.246094 136.515625 42.59375 138.050781 C 39.714844 139.25 36.433594 138.960938 33.449219 138.367188 C 26.203125 136.429688 18.972656 134.433594 11.914062 131.890625 C 9.289062 130.742188 7.210938 128.652344 5.144531 126.730469 C -0.617188 121.050781 -0.546875 110.648438 5.421875 105.148438 C 11.601562 99.039062 19.890625 95.878906 27.546875 92.09375 C 29.761719 91.183594 29.660156 88.65625 29.507812 86.667969 C 25.355469 83.746094 20.199219 82.554688 16.339844 79.207031 C 13.675781 77.023438 13.792969 72.808594 15.886719 70.269531 C 18.730469 65.710938 24.148438 64.058594 27.867188 60.425781 C 30.230469 58.175781 33.132812 56.371094 34.839844 53.519531 C 36.878906 49.660156 35.992188 45.089844 35.070312 41.042969 C 34.507812 38.292969 32.710938 35.976562 32.304688 33.191406 C 31.652344 29.191406 31.761719 25.117188 31.808594 21.085938 C 31.71875 13.988281 36.730469 7.839844 42.714844 4.550781 Z M 42.714844 4.550781 " fill-opacity="1" fill-rule="nonzero"/></g></g></g></g><g clip-path="url(#bf5251e5a3)"><g clip-path="url(#a48d6f7e1d)"><g transform="matrix(1, 0, 0, 1, 408, 148)"><g clip-path="url(#3d95fa5d37)"><g clip-path="url(#2101720064)"><g clip-path="url(#19276984fb)"><path fill="#028a8c" d="M 0.417969 0.472656 L 72.261719 0.472656 L 72.261719 72.3125 L 0.417969 72.3125 Z M 0.417969 0.472656 " fill-opacity="1" fill-rule="nonzero"/></g></g></g></g></g></g><g clip-path="url(#d8030604bb)"><path stroke-linecap="butt" transform="matrix(-0.75, 0, 0, -0.75, 283.06833, 256.362077)" fill="none" stroke-linejoin="miter" d="M 0.00256508 -0.00160606 L 280.455704 -0.00160606 L 280.455704 176.623403 L 0.00256508 176.623403 Z M 0.00256508 -0.00160606 " stroke="#028a8c" stroke-width="28" stroke-opacity="1" stroke-miterlimit="4"/></g><g clip-path="url(#e181b2545a)"><path stroke-linecap="butt" transform="matrix(-0.75, 0, 0, -0.75, 257.714259, 234.42704)" fill="none" stroke-linejoin="miter" d="M -0.000780287 0.00167861 L 216.264842 0.00167861 L 216.264842 114.605844 L -0.000780287 114.605844 Z M -0.000780287 0.00167861 " stroke="#028a8c" stroke-width="14" stroke-opacity="1" stroke-miterlimit="4"/></g><g clip-path="url(#6259c8b624)"><path fill="#028a8c" d="M 96.910156 234.359375 C 96.910156 234.359375 110.121094 223.929688 113.476562 219.859375 C 116.828125 215.78125 120.746094 213.03125 122.632812 209.84375 C 124.523438 206.667969 126.390625 203.78125 129.773438 203.171875 C 133.160156 202.554688 134.832031 202.039062 136.597656 199.960938 C 138.367188 197.894531 142.191406 193.882812 144.253906 195.851562 C 146.316406 197.828125 148.265625 201.003906 150.238281 198.96875 C 152.210938 196.933594 156.011719 192.632812 157.265625 190.363281 C 158.515625 188.09375 161.304688 187.226562 164.023438 186.601562 C 166.742188 185.96875 167.636719 184.960938 169.210938 182.925781 C 170.785156 180.898438 175.898438 174.160156 177.820312 172.117188 C 179.738281 170.082031 181.316406 166.011719 184.152344 169.480469 C 186.984375 172.953125 191.730469 178.570312 194.371094 182.097656 C 197.007812 185.636719 200.75 190.980469 201.875 192.898438 C 203.003906 194.816406 204.007812 195.835938 205.816406 194.234375 C 207.625 192.632812 213.113281 186.9375 215.398438 189.753906 C 217.683594 192.566406 223.234375 199.496094 224.976562 203.132812 C 226.722656 206.765625 231.15625 212.171875 232.488281 211.070312 C 233.820312 209.96875 236.363281 207.683594 238.203125 210.335938 C 240.042969 212.980469 246.984375 222.953125 249.882812 225.4375 C 252.785156 227.921875 257.382812 233.59375 258.90625 234.304688 Z M 121.882812 222.136719 C 132.1875 216.40625 133.539062 217.140625 136.480469 213.929688 C 136.851562 213.53125 141.808594 204.890625 142.234375 204.066406 C 140.269531 205.308594 136.023438 208.285156 134.375 208.84375 C 130.242188 210.234375 130.574219 211.820312 129.371094 213.136719 C 125.410156 217.492188 124.777344 216.992188 121.882812 222.136719 Z M 172.933594 212.710938 C 178.78125 201.929688 178.136719 201.605469 178.113281 198.351562 C 178.089844 195.226562 176.804688 193.308594 179.96875 191.347656 C 181.765625 190.230469 180.082031 188.144531 180.089844 177.0625 C 178.222656 179.613281 169.46875 191.621094 166.4375 192.089844 C 162.132812 192.75 162.394531 193.507812 159.929688 197.117188 C 151.480469 209.492188 153.636719 211.113281 149.609375 213.820312 C 147.25 215.40625 142.96875 220.300781 141.46875 221.769531 C 144.632812 220.785156 144.460938 220.46875 153.566406 215.738281 C 155.996094 214.472656 156.769531 212.289062 157.621094 211.761719 C 160.960938 209.710938 160.785156 209.503906 167.371094 200.710938 C 166.734375 209.011719 165.03125 215.515625 170.613281 217.28125 C 175.75 218.910156 175.0625 220.828125 181.996094 223.804688 C 187.789062 226.296875 182.4375 218.332031 180.570312 211.652344 C 179.859375 209.109375 178.707031 210.878906 176.070312 214.605469 C 174.613281 213.714844 173.183594 212.863281 172.933594 212.710938 Z M 194.621094 214.738281 C 194.59375 215.738281 195.992188 214.898438 196.523438 214.628906 C 202.851562 211.378906 202.847656 211.3125 207.5625 206.015625 C 207.5625 206.640625 207.574219 213.253906 208.355469 213.761719 C 212.855469 216.683594 212.390625 217.183594 216.625 220.460938 C 210.207031 211.6875 209.121094 212.453125 209 211.519531 C 208.425781 207.117188 210.507812 206.375 211.929688 196.519531 C 202.347656 204.390625 198.65625 205.957031 194.621094 214.738281 Z M 194.621094 214.738281 " fill-opacity="1" fill-rule="evenodd"/></g></svg>