<svg xmlns="http://www.w3.org/2000/svg" xmlns:xlink="http://www.w3.org/1999/xlink" width="1080" zoomAndPan="magnify" viewBox="0 0 810 809.999993" height="1080" preserveAspectRatio="xMidYMid meet" version="1.0"><defs><clipPath id="aee044d987"><path d="M 0 59.28125 L 810 59.28125 L 810 774.675781 L 0 774.675781 Z M 0 59.28125 " clip-rule="nonzero"/></clipPath><clipPath id="7097888bf8"><path d="M 206.125 218.578125 L 393.625 218.578125 L 393.625 363 L 206.125 363 Z M 206.125 218.578125 " clip-rule="nonzero"/></clipPath><clipPath id="5bb35377d7"><path d="M 346 469 L 437.414062 469 L 437.414062 536 L 346 536 Z M 346 469 " clip-rule="nonzero"/></clipPath><clipPath id="cf10902ea3"><path d="M 114.164062 469 L 207 469 L 207 536 L 114.164062 536 Z M 114.164062 469 " clip-rule="nonzero"/></clipPath><clipPath id="aaa5ea679f"><path d="M 395 248 L 661 248 L 661 624.960938 L 395 624.960938 Z M 395 248 " clip-rule="nonzero"/></clipPath><clipPath id="c27a19d332"><path d="M 445 209.460938 L 524 209.460938 L 524 289 L 445 289 Z M 445 209.460938 " clip-rule="nonzero"/></clipPath><clipPath id="08d970402b"><path d="M 374.515625 414 L 435 414 L 435 468 L 374.515625 468 Z M 374.515625 414 " clip-rule="nonzero"/></clipPath></defs><g clip-path="url(#aee044d987)"><path fill="#028a8c" d="M 31.433594 253.351562 L 31.433594 219.496094 C 31.433594 202.925781 37.148438 189.222656 47.382812 178.738281 C 57.492188 168.359375 71.765625 161.589844 89.007812 158.710938 C 96.574219 157.441406 103.71875 162.558594 104.972656 170.113281 C 106.242188 177.679688 101.136719 184.824219 93.570312 186.089844 C 82.164062 187.996094 73.125 192.058594 67.253906 198.066406 C 62.109375 203.339844 59.246094 210.53125 59.246094 219.496094 L 59.246094 253.378906 C 75.632812 253.90625 88.875 267.484375 88.875 283.988281 L 88.875 360.34375 C 88.875 377.183594 75.089844 390.980469 58.230469 390.980469 L 30.832031 390.980469 C 13.976562 390.980469 0.195312 377.183594 0.195312 360.34375 L 0.195312 283.988281 C 0.195312 267.136719 13.976562 253.351562 30.832031 253.351562 Z M 750.804688 253.378906 L 750.804688 219.496094 C 750.804688 210.53125 747.925781 203.339844 742.78125 198.066406 C 736.914062 192.058594 727.886719 187.996094 716.480469 186.089844 C 708.914062 184.824219 703.816406 177.679688 705.066406 170.113281 C 706.332031 162.558594 713.476562 157.441406 721.042969 158.710938 C 738.277344 161.589844 752.558594 168.359375 762.667969 178.738281 C 772.902344 189.222656 778.625 202.925781 778.625 219.496094 L 778.625 253.351562 L 779.21875 253.351562 C 796.058594 253.351562 809.855469 267.136719 809.855469 283.988281 L 809.855469 360.34375 C 809.855469 377.183594 796.058594 390.980469 779.21875 390.980469 L 751.808594 390.980469 C 734.96875 390.980469 721.171875 377.183594 721.171875 360.34375 L 721.171875 283.988281 C 721.171875 267.484375 734.40625 253.90625 750.804688 253.378906 Z M 168.726562 546.902344 C 188.894531 546.902344 276.902344 586.59375 276.902344 603.667969 C 276.902344 614.855469 267.441406 622.582031 256.175781 622.582031 L 187.601562 622.582031 C 167.128906 622.582031 150.535156 607.441406 150.535156 588.746094 C 150.535156 570.054688 148.574219 546.902344 168.726562 546.902344 Z M 171.886719 197.035156 L 635.054688 197.035156 C 649.292969 197.035156 660.960938 207.914062 660.960938 221.210938 L 660.960938 473.511719 C 660.960938 516.441406 145.972656 516.441406 145.972656 473.511719 L 145.972656 221.210938 C 145.972656 207.914062 157.640625 197.035156 171.886719 197.035156 Z M 234.097656 101.015625 L 568.679688 101.015625 C 579.519531 101.015625 588.367188 109.863281 588.367188 120.6875 L 588.367188 154.523438 C 588.367188 165.34375 579.519531 174.199219 568.679688 174.199219 L 234.097656 174.199219 C 223.269531 174.199219 214.414062 165.34375 214.414062 154.523438 L 214.414062 120.6875 C 214.414062 109.863281 223.269531 101.015625 234.097656 101.015625 Z M 322.242188 659.96875 L 487.085938 659.96875 C 490.941406 659.96875 494.085938 663.113281 494.085938 666.957031 L 494.085938 692.722656 C 494.085938 696.5625 490.941406 699.707031 487.085938 699.707031 L 322.242188 699.707031 C 318.398438 699.707031 315.242188 696.5625 315.242188 692.722656 L 315.242188 666.957031 C 315.242188 663.113281 318.398438 659.96875 322.242188 659.96875 Z M 641.351562 546.902344 C 621.183594 546.902344 533.179688 586.59375 533.179688 603.667969 C 533.179688 614.855469 542.632812 622.582031 553.902344 622.582031 L 622.480469 622.582031 C 642.949219 622.582031 659.542969 607.441406 659.542969 588.746094 C 659.542969 570.054688 661.515625 546.902344 641.351562 546.902344 Z M 693.089844 125.941406 L 693.089844 643.402344 L 696.019531 643.402344 C 703.714844 643.402344 710.015625 649.707031 710.015625 657.394531 L 710.015625 711.027344 C 710.015625 718.714844 703.714844 725.003906 696.019531 725.003906 L 658.484375 725.003906 L 658.484375 759.691406 C 658.484375 767.992188 651.699219 774.777344 643.410156 774.777344 L 562.773438 774.777344 C 554.484375 774.777344 547.6875 767.992188 547.6875 759.691406 L 547.6875 725.003906 L 269.90625 725.003906 L 269.90625 759.691406 C 269.90625 767.992188 263.121094 774.777344 254.832031 774.777344 L 174.195312 774.777344 C 165.902344 774.777344 159.105469 767.992188 159.105469 759.691406 L 159.105469 725.003906 L 113.890625 725.003906 C 106.195312 725.003906 99.914062 718.714844 99.914062 711.027344 L 99.914062 657.394531 C 99.914062 649.707031 106.195312 643.402344 113.890625 643.402344 L 115.878906 643.402344 L 115.878906 125.941406 C 115.878906 37.308594 693.089844 37.308594 693.089844 125.941406 " fill-opacity="1" fill-rule="evenodd"/><path stroke-linecap="round" transform="matrix(0.171284, 0, 0, -0.171284, 0.0000035, 774.971573)" fill="none" stroke-linejoin="round" d="M 183.517821 3045.35902 L 183.517821 3243.016424 C 183.517821 3339.7584 216.882628 3419.760959 276.633683 3480.971582 C 335.654955 3541.56645 418.987152 3581.088809 519.651717 3597.896644 C 563.826448 3605.308511 605.538158 3575.432983 612.858802 3531.32667 C 620.27067 3487.151939 590.463559 3445.440229 546.288829 3438.051167 C 479.696049 3426.921963 426.923552 3403.203987 392.646515 3368.128749 C 362.611347 3337.340991 345.894735 3295.355612 345.894735 3243.016424 L 345.894735 3045.19938 C 441.564841 3042.120604 518.876321 2962.84783 518.876321 2866.493551 L 518.876321 2420.709626 C 518.876321 2322.394054 438.394842 2241.844157 339.965241 2241.844157 L 180.005736 2241.844157 C 81.59894 2241.844157 1.140267 2322.394054 1.140267 2420.709626 L 1.140267 2866.493551 C 1.140267 2964.877541 81.59894 3045.35902 180.005736 3045.35902 Z M 4383.40127 3045.19938 L 4383.40127 3243.016424 C 4383.40127 3295.355612 4366.593435 3337.340991 4336.558267 3368.128749 C 4302.304036 3403.203987 4249.599956 3426.921963 4183.007177 3438.051167 C 4138.832446 3445.440229 4109.070947 3487.151939 4116.368786 3531.32667 C 4123.757848 3575.432983 4165.469558 3605.308511 4209.644289 3597.896644 C 4310.263242 3581.088809 4393.64105 3541.56645 4452.662322 3480.971582 C 4512.413378 3419.760959 4545.823796 3339.7584 4545.823796 3243.016424 L 4545.823796 3045.35902 L 4549.29027 3045.35902 C 4647.605842 3045.35902 4728.155739 2964.877541 4728.155739 2866.493551 L 4728.155739 2420.709626 C 4728.155739 2322.394054 4647.605842 2241.844157 4549.29027 2241.844157 L 4389.262347 2241.844157 C 4290.946774 2241.844157 4210.396878 2322.394054 4210.396878 2420.709626 L 4210.396878 2866.493551 C 4210.396878 2962.84783 4287.662747 3042.120604 4383.40127 3045.19938 Z M 985.071389 1331.529985 C 1102.817458 1331.529985 1616.630924 1099.800795 1616.630924 1000.116878 C 1616.630924 934.80122 1561.395406 889.691454 1495.623634 889.691454 L 1095.268756 889.691454 C 975.743839 889.691454 878.865028 978.086527 878.865028 1087.234829 C 878.865028 1196.360326 867.416544 1331.529985 985.071389 1331.529985 Z M 1003.521238 3374.149466 L 3707.621393 3374.149466 C 3790.748339 3374.149466 3858.869103 3310.635462 3858.869103 3233.004701 L 3858.869103 1760.004348 C 3858.869103 1509.369195 852.227916 1509.369195 852.227916 1760.004348 L 852.227916 3233.004701 C 852.227916 3310.635462 920.348681 3374.149466 1003.521238 3374.149466 Z M 1366.725555 3934.737518 L 3320.106151 3934.737518 C 3383.392097 3934.737518 3435.047112 3883.082502 3435.047112 3819.887779 L 3435.047112 3622.344404 C 3435.047112 3559.172486 3383.392097 3507.471859 3320.106151 3507.471859 L 1366.725555 3507.471859 C 1303.508026 3507.471859 1251.807399 3559.172486 1251.807399 3622.344404 L 1251.807399 3819.887779 C 1251.807399 3883.082502 1303.508026 3934.737518 1366.725555 3934.737518 Z M 1881.337222 671.417655 L 2843.73972 671.417655 C 2866.248992 671.417655 2884.607618 653.059029 2884.607618 630.618175 L 2884.607618 480.191472 C 2884.607618 457.773423 2866.248992 439.414797 2843.73972 439.414797 L 1881.337222 439.414797 C 1858.896368 439.414797 1840.469325 457.773423 1840.469325 480.191472 L 1840.469325 630.618175 C 1840.469325 653.059029 1858.896368 671.417655 1881.337222 671.417655 Z M 3744.384256 1331.529985 C 3626.638188 1331.529985 3112.847527 1099.800795 3112.847527 1000.116878 C 3112.847527 934.80122 3168.037434 889.691454 3233.832012 889.691454 L 3634.209696 889.691454 C 3753.711807 889.691454 3850.590617 978.086527 3850.590617 1087.234829 C 3850.590617 1196.360326 3862.107519 1331.529985 3744.384256 1331.529985 Z M 4046.446367 3789.21405 L 4046.446367 768.136826 L 4063.550677 768.136826 C 4108.477998 768.136826 4145.263667 731.328351 4145.263667 686.446642 L 4145.263667 373.323744 C 4145.263667 328.442035 4108.477998 291.724784 4063.550677 291.724784 L 3844.41026 291.724784 L 3844.41026 89.209756 C 3844.41026 40.747545 3804.796679 1.133963 3756.402885 1.133963 L 3285.623862 1.133963 C 3237.230068 1.133963 3197.54807 40.747545 3197.54807 89.209756 L 3197.54807 291.724784 L 1575.785832 291.724784 L 1575.785832 89.209756 C 1575.785832 40.747545 1536.172251 1.133963 1487.778457 1.133963 L 1016.999434 1.133963 C 968.582835 1.133963 928.900836 40.747545 928.900836 89.209756 L 928.900836 291.724784 L 664.924321 291.724784 C 619.997001 291.724784 583.325361 328.442035 583.325361 373.323744 L 583.325361 686.446642 C 583.325361 731.328351 619.997001 768.136826 664.924321 768.136826 L 676.532446 768.136826 L 676.532446 3789.21405 C 676.532446 4306.676436 4046.446367 4306.676436 4046.446367 3789.21405 Z M 4046.446367 3789.21405 " stroke="#000000" stroke-width="2.268" stroke-opacity="1" stroke-miterlimit="10"/></g><g clip-path="url(#7097888bf8)"><path fill="#028a8c" d="M 369.8125 218.558594 L 307.367188 218.558594 C 306.601562 218.554688 305.835938 218.59375 305.074219 218.667969 C 304.3125 218.742188 303.554688 218.851562 302.804688 219.003906 C 302.050781 219.152344 301.308594 219.335938 300.578125 219.558594 C 299.84375 219.777344 299.121094 220.035156 298.414062 220.328125 C 297.707031 220.621094 297.015625 220.949219 296.339844 221.308594 C 295.664062 221.667969 295.007812 222.0625 294.371094 222.484375 C 293.730469 222.910156 293.117188 223.367188 292.523438 223.851562 C 291.933594 224.335938 291.363281 224.851562 290.824219 225.390625 C 290.28125 225.933594 289.765625 226.5 289.28125 227.089844 C 288.792969 227.683594 288.335938 228.296875 287.910156 228.933594 C 287.484375 229.570312 287.089844 230.222656 286.730469 230.898438 C 286.367188 231.574219 286.039062 232.265625 285.746094 232.972656 C 285.453125 233.679688 285.195312 234.402344 284.972656 235.132812 C 284.75 235.867188 284.5625 236.609375 284.410156 237.359375 C 284.261719 238.109375 284.148438 238.867188 284.074219 239.628906 C 283.996094 240.390625 283.960938 241.15625 283.957031 241.921875 L 283.957031 254.839844 L 230.316406 254.839844 C 229.550781 254.84375 228.785156 254.878906 228.023438 254.957031 C 227.261719 255.03125 226.503906 255.144531 225.753906 255.292969 C 225.003906 255.445312 224.261719 255.632812 223.527344 255.855469 C 222.792969 256.078125 222.074219 256.335938 221.367188 256.628906 C 220.660156 256.921875 219.96875 257.25 219.292969 257.613281 C 218.617188 257.972656 217.960938 258.367188 217.324219 258.792969 C 216.6875 259.21875 216.070312 259.675781 215.480469 260.164062 C 214.886719 260.648438 214.320312 261.164062 213.78125 261.703125 C 213.238281 262.246094 212.726562 262.8125 212.238281 263.40625 C 211.753906 264 211.296875 264.613281 210.871094 265.25 C 210.445312 265.886719 210.054688 266.542969 209.691406 267.21875 C 209.332031 267.894531 209.003906 268.589844 208.710938 269.296875 C 208.417969 270.003906 208.160156 270.722656 207.9375 271.457031 C 207.714844 272.191406 207.53125 272.933594 207.382812 273.683594 C 207.230469 274.4375 207.121094 275.191406 207.042969 275.957031 C 206.96875 276.71875 206.933594 277.484375 206.933594 278.25 L 206.933594 313.738281 C 206.933594 315.136719 207.058594 316.523438 207.308594 317.898438 C 207.5625 319.273438 207.933594 320.617188 208.421875 321.925781 C 208.914062 323.234375 209.519531 324.492188 210.234375 325.691406 C 210.949219 326.894531 211.765625 328.019531 212.6875 329.074219 C 213.605469 330.128906 214.609375 331.09375 215.699219 331.96875 C 216.792969 332.84375 217.953125 333.613281 219.179688 334.28125 C 220.410156 334.949219 221.6875 335.5 223.015625 335.9375 C 224.347656 336.375 225.703125 336.691406 227.085938 336.886719 L 227.085938 359.667969 C 227.089844 360.253906 227.242188 360.800781 227.542969 361.304688 C 227.84375 361.808594 228.25 362.199219 228.765625 362.480469 C 229.28125 362.765625 229.832031 362.894531 230.417969 362.878906 C 231.003906 362.859375 231.542969 362.695312 232.039062 362.382812 L 272.070312 337.101562 L 292.917969 337.101562 C 293.679688 337.097656 294.441406 337.054688 295.199219 336.976562 C 295.957031 336.898438 296.710938 336.785156 297.460938 336.632812 C 298.207031 336.480469 298.945312 336.292969 299.675781 336.070312 C 300.402344 335.84375 301.121094 335.585938 301.824219 335.292969 C 302.527344 334.996094 303.214844 334.667969 303.886719 334.308594 C 304.558594 333.945312 305.210938 333.550781 305.84375 333.125 C 306.476562 332.699219 307.089844 332.246094 307.675781 331.757812 C 308.265625 331.273438 308.828125 330.761719 309.367188 330.21875 C 309.90625 329.679688 310.417969 329.113281 310.898438 328.523438 C 311.382812 327.933594 311.835938 327.320312 312.257812 326.683594 C 312.679688 326.046875 313.070312 325.394531 313.429688 324.722656 C 313.789062 324.046875 314.113281 323.359375 314.40625 322.652344 C 314.695312 321.949219 314.953125 321.230469 315.171875 320.5 C 315.394531 319.769531 315.578125 319.03125 315.726562 318.28125 C 315.875 317.53125 315.988281 316.777344 316.0625 316.019531 C 316.136719 315.261719 316.171875 314.5 316.171875 313.738281 L 316.171875 300.816406 L 328.167969 300.816406 L 368.046875 326.054688 C 368.574219 326.378906 369.148438 326.546875 369.769531 326.550781 C 370.328125 326.546875 370.851562 326.417969 371.34375 326.160156 C 371.855469 325.871094 372.261719 325.472656 372.558594 324.964844 C 372.855469 324.457031 373.003906 323.90625 373 323.320312 L 373 300.558594 C 374.386719 300.363281 375.742188 300.046875 377.070312 299.609375 C 378.398438 299.171875 379.679688 298.621094 380.90625 297.953125 C 382.136719 297.289062 383.296875 296.515625 384.386719 295.640625 C 385.480469 294.765625 386.484375 293.804688 387.402344 292.75 C 388.320312 291.695312 389.136719 290.566406 389.855469 289.363281 C 390.570312 288.164062 391.175781 286.90625 391.664062 285.597656 C 392.15625 284.289062 392.527344 282.945312 392.777344 281.570312 C 393.027344 280.195312 393.15625 278.808594 393.15625 277.410156 L 393.15625 241.921875 C 393.15625 241.15625 393.117188 240.394531 393.039062 239.632812 C 392.964844 238.875 392.851562 238.117188 392.699219 237.367188 C 392.550781 236.617188 392.363281 235.878906 392.140625 235.148438 C 391.917969 234.417969 391.660156 233.699219 391.367188 232.992188 C 391.074219 232.285156 390.75 231.59375 390.386719 230.921875 C 390.027344 230.246094 389.636719 229.59375 389.210938 228.957031 C 388.785156 228.320312 388.332031 227.707031 387.847656 227.117188 C 387.359375 226.527344 386.847656 225.960938 386.308594 225.421875 C 385.769531 224.878906 385.203125 224.367188 384.613281 223.882812 C 384.023438 223.394531 383.410156 222.941406 382.773438 222.515625 C 382.140625 222.089844 381.484375 221.695312 380.8125 221.335938 C 380.136719 220.972656 379.449219 220.648438 378.742188 220.351562 C 378.035156 220.058594 377.316406 219.800781 376.585938 219.578125 C 375.855469 219.355469 375.117188 219.167969 374.367188 219.015625 C 373.617188 218.867188 372.863281 218.753906 372.101562 218.675781 C 371.339844 218.597656 370.578125 218.558594 369.8125 218.558594 Z M 309.710938 313.738281 C 309.710938 314.289062 309.683594 314.84375 309.628906 315.394531 C 309.574219 315.945312 309.492188 316.488281 309.382812 317.03125 C 309.277344 317.574219 309.140625 318.113281 308.980469 318.640625 C 308.820312 319.171875 308.632812 319.691406 308.421875 320.203125 C 308.207031 320.714844 307.972656 321.210938 307.710938 321.699219 C 307.449219 322.1875 307.164062 322.664062 306.855469 323.121094 C 306.550781 323.582031 306.21875 324.027344 305.871094 324.453125 C 305.519531 324.882812 305.148438 325.292969 304.753906 325.683594 C 304.363281 326.074219 303.953125 326.445312 303.527344 326.796875 C 303.097656 327.148438 302.65625 327.476562 302.195312 327.785156 C 301.734375 328.09375 301.261719 328.378906 300.773438 328.636719 C 300.285156 328.898438 299.785156 329.136719 299.273438 329.347656 C 298.761719 329.558594 298.242188 329.746094 297.714844 329.90625 C 297.183594 330.070312 296.648438 330.203125 296.105469 330.3125 C 295.5625 330.421875 295.015625 330.503906 294.464844 330.558594 C 293.914062 330.613281 293.363281 330.640625 292.808594 330.640625 L 271.039062 330.640625 C 270.402344 330.636719 269.824219 330.808594 269.292969 331.15625 L 233.570312 353.789062 L 233.570312 333.785156 C 233.570312 333.355469 233.488281 332.945312 233.324219 332.546875 C 233.160156 332.152344 232.925781 331.804688 232.625 331.5 C 232.320312 331.199219 231.972656 330.964844 231.574219 330.800781 C 231.179688 330.636719 230.765625 330.554688 230.339844 330.554688 C 229.785156 330.554688 229.234375 330.527344 228.683594 330.472656 C 228.132812 330.417969 227.585938 330.335938 227.042969 330.226562 C 226.5 330.117188 225.960938 329.984375 225.433594 329.820312 C 224.902344 329.660156 224.382812 329.472656 223.871094 329.261719 C 223.359375 329.050781 222.859375 328.8125 222.371094 328.550781 C 221.882812 328.292969 221.40625 328.007812 220.949219 327.699219 C 220.488281 327.390625 220.042969 327.0625 219.613281 326.710938 C 219.1875 326.359375 218.777344 325.988281 218.382812 325.597656 C 217.992188 325.207031 217.621094 324.796875 217.269531 324.371094 C 216.917969 323.941406 216.589844 323.5 216.28125 323.039062 C 215.972656 322.578125 215.6875 322.105469 215.425781 321.617188 C 215.164062 321.128906 214.925781 320.628906 214.714844 320.117188 C 214.5 319.605469 214.3125 319.085938 214.152344 318.554688 C 213.992188 318.027344 213.855469 317.492188 213.746094 316.949219 C 213.636719 316.40625 213.554688 315.859375 213.5 315.308594 C 213.441406 314.757812 213.414062 314.203125 213.414062 313.648438 L 213.414062 278.25 C 213.414062 277.695312 213.441406 277.144531 213.5 276.59375 C 213.554688 276.039062 213.636719 275.492188 213.746094 274.953125 C 213.855469 274.410156 213.992188 273.871094 214.152344 273.34375 C 214.3125 272.8125 214.5 272.292969 214.714844 271.78125 C 214.925781 271.269531 215.164062 270.769531 215.425781 270.28125 C 215.6875 269.792969 215.972656 269.320312 216.28125 268.859375 C 216.589844 268.402344 216.917969 267.957031 217.269531 267.527344 C 217.621094 267.101562 217.992188 266.691406 218.382812 266.300781 C 218.777344 265.910156 219.1875 265.539062 219.613281 265.1875 C 220.042969 264.835938 220.488281 264.507812 220.949219 264.199219 C 221.40625 263.890625 221.882812 263.605469 222.371094 263.347656 C 222.859375 263.085938 223.359375 262.847656 223.871094 262.636719 C 224.382812 262.425781 224.902344 262.238281 225.433594 262.078125 C 225.960938 261.917969 226.5 261.78125 227.042969 261.671875 C 227.585938 261.5625 228.132812 261.484375 228.683594 261.429688 C 229.234375 261.375 229.785156 261.34375 230.339844 261.34375 L 292.789062 261.34375 C 293.339844 261.34375 293.894531 261.375 294.445312 261.429688 C 294.992188 261.484375 295.539062 261.566406 296.082031 261.671875 C 296.625 261.78125 297.164062 261.917969 297.691406 262.078125 C 298.222656 262.238281 298.742188 262.425781 299.253906 262.636719 C 299.765625 262.847656 300.261719 263.085938 300.75 263.347656 C 301.238281 263.609375 301.714844 263.890625 302.171875 264.199219 C 302.632812 264.507812 303.078125 264.835938 303.503906 265.1875 C 303.933594 265.539062 304.34375 265.910156 304.734375 266.300781 C 305.125 266.691406 305.496094 267.101562 305.847656 267.53125 C 306.199219 267.957031 306.527344 268.402344 306.835938 268.863281 C 307.144531 269.324219 307.429688 269.796875 307.6875 270.285156 C 307.949219 270.773438 308.1875 271.273438 308.398438 271.78125 C 308.609375 272.292969 308.796875 272.816406 308.957031 273.34375 C 309.121094 273.875 309.253906 274.410156 309.363281 274.953125 C 309.472656 275.496094 309.554688 276.042969 309.609375 276.59375 C 309.664062 277.144531 309.691406 277.695312 309.691406 278.25 Z M 386.738281 277.410156 C 386.738281 277.960938 386.710938 278.515625 386.652344 279.066406 C 386.597656 279.617188 386.515625 280.164062 386.40625 280.707031 C 386.296875 281.25 386.164062 281.785156 386 282.316406 C 385.839844 282.84375 385.652344 283.363281 385.4375 283.875 C 385.226562 284.386719 384.988281 284.886719 384.726562 285.375 C 384.464844 285.863281 384.179688 286.335938 383.871094 286.796875 C 383.566406 287.257812 383.234375 287.699219 382.882812 288.128906 C 382.53125 288.554688 382.160156 288.964844 381.769531 289.355469 C 381.375 289.75 380.964844 290.121094 380.539062 290.46875 C 380.109375 290.820312 379.664062 291.152344 379.207031 291.457031 C 378.746094 291.765625 378.269531 292.050781 377.78125 292.3125 C 377.292969 292.574219 376.792969 292.808594 376.28125 293.019531 C 375.769531 293.234375 375.25 293.417969 374.722656 293.582031 C 374.191406 293.742188 373.65625 293.875 373.113281 293.984375 C 372.570312 294.09375 372.023438 294.175781 371.472656 294.230469 C 370.917969 294.285156 370.367188 294.3125 369.8125 294.3125 C 369.386719 294.3125 368.972656 294.394531 368.578125 294.558594 C 368.183594 294.722656 367.832031 294.957031 367.53125 295.257812 C 367.226562 295.5625 366.992188 295.910156 366.828125 296.308594 C 366.664062 296.703125 366.582031 297.113281 366.582031 297.542969 L 366.582031 317.460938 L 330.835938 294.828125 C 330.308594 294.480469 329.726562 294.308594 329.09375 294.3125 L 316.171875 294.3125 L 316.171875 278.25 C 316.171875 277.484375 316.132812 276.71875 316.058594 275.960938 C 315.984375 275.199219 315.871094 274.441406 315.71875 273.691406 C 315.570312 272.941406 315.382812 272.199219 315.164062 271.46875 C 314.941406 270.738281 314.683594 270.015625 314.390625 269.3125 C 314.09375 268.605469 313.769531 267.914062 313.40625 267.238281 C 313.046875 266.566406 312.652344 265.910156 312.230469 265.273438 C 311.804688 264.636719 311.347656 264.023438 310.863281 263.433594 C 310.378906 262.839844 309.863281 262.273438 309.324219 261.734375 C 308.78125 261.191406 308.214844 260.679688 307.625 260.195312 C 307.035156 259.710938 306.421875 259.253906 305.785156 258.828125 C 305.148438 258.402344 304.492188 258.011719 303.816406 257.648438 C 303.144531 257.289062 302.453125 256.960938 301.746094 256.667969 C 301.039062 256.375 300.320312 256.117188 299.589844 255.894531 C 298.855469 255.671875 298.117188 255.488281 297.367188 255.335938 C 296.613281 255.1875 295.859375 255.074219 295.097656 255 C 294.335938 254.921875 293.574219 254.886719 292.808594 254.882812 L 290.417969 254.882812 L 290.417969 241.964844 C 290.417969 241.410156 290.445312 240.859375 290.5 240.308594 C 290.558594 239.757812 290.636719 239.210938 290.746094 238.667969 C 290.855469 238.125 290.988281 237.589844 291.152344 237.058594 C 291.3125 236.53125 291.5 236.007812 291.710938 235.5 C 291.921875 234.988281 292.160156 234.488281 292.421875 234 C 292.683594 233.511719 292.964844 233.039062 293.273438 232.578125 C 293.582031 232.117188 293.910156 231.675781 294.261719 231.246094 C 294.613281 230.816406 294.984375 230.410156 295.375 230.015625 C 295.765625 229.625 296.175781 229.253906 296.605469 228.902344 C 297.03125 228.550781 297.476562 228.222656 297.9375 227.914062 C 298.394531 227.609375 298.871094 227.324219 299.359375 227.0625 C 299.847656 226.800781 300.347656 226.566406 300.855469 226.351562 C 301.367188 226.140625 301.886719 225.953125 302.417969 225.792969 C 302.949219 225.632812 303.484375 225.496094 304.027344 225.386719 C 304.570312 225.28125 305.117188 225.199219 305.667969 225.144531 C 306.21875 225.089844 306.769531 225.0625 307.324219 225.058594 L 369.769531 225.058594 C 370.324219 225.0625 370.875 225.089844 371.425781 225.144531 C 371.980469 225.199219 372.527344 225.28125 373.070312 225.386719 C 373.613281 225.496094 374.148438 225.632812 374.679688 225.792969 C 375.207031 225.953125 375.726562 226.140625 376.238281 226.351562 C 376.75 226.5625 377.25 226.800781 377.738281 227.0625 C 378.226562 227.324219 378.703125 227.605469 379.164062 227.914062 C 379.621094 228.222656 380.066406 228.550781 380.496094 228.902344 C 380.921875 229.253906 381.332031 229.625 381.726562 230.015625 C 382.117188 230.40625 382.488281 230.816406 382.839844 231.246094 C 383.191406 231.671875 383.523438 232.117188 383.828125 232.578125 C 384.136719 233.035156 384.421875 233.511719 384.683594 234 C 384.945312 234.484375 385.183594 234.984375 385.394531 235.496094 C 385.609375 236.007812 385.796875 236.527344 385.957031 237.058594 C 386.121094 237.585938 386.253906 238.125 386.363281 238.667969 C 386.472656 239.210938 386.554688 239.757812 386.609375 240.308594 C 386.667969 240.859375 386.695312 241.410156 386.695312 241.964844 Z M 386.738281 277.410156 " fill-opacity="1" fill-rule="nonzero"/></g><path fill="#028a8c" d="M 264.449219 274.542969 C 264.175781 274 263.777344 273.566406 263.257812 273.246094 C 262.738281 272.925781 262.171875 272.765625 261.5625 272.765625 C 260.953125 272.765625 260.386719 272.925781 259.867188 273.246094 C 259.347656 273.566406 258.953125 274 258.675781 274.542969 L 238.757812 313.78125 C 238.539062 314.164062 238.402344 314.574219 238.351562 315.011719 C 238.300781 315.453125 238.339844 315.882812 238.464844 316.308594 C 238.59375 316.730469 238.796875 317.113281 239.082031 317.453125 C 239.363281 317.792969 239.703125 318.0625 240.097656 318.261719 C 240.488281 318.464844 240.90625 318.578125 241.347656 318.609375 C 241.789062 318.636719 242.21875 318.578125 242.636719 318.429688 C 243.050781 318.285156 243.421875 318.0625 243.75 317.761719 C 244.074219 317.460938 244.328125 317.113281 244.507812 316.707031 L 251.378906 303.183594 L 271.75 303.183594 L 278.53125 316.707031 C 278.714844 317.113281 278.964844 317.460938 279.292969 317.761719 C 279.617188 318.0625 279.988281 318.285156 280.40625 318.429688 C 280.820312 318.578125 281.25 318.636719 281.691406 318.609375 C 282.132812 318.578125 282.550781 318.464844 282.945312 318.261719 C 283.339844 318.0625 283.675781 317.792969 283.960938 317.453125 C 284.242188 317.113281 284.449219 316.730469 284.574219 316.308594 C 284.699219 315.882812 284.738281 315.453125 284.6875 315.011719 C 284.636719 314.574219 284.5 314.164062 284.28125 313.78125 Z M 254.652344 296.726562 L 261.5625 283.136719 L 268.453125 296.726562 Z M 254.652344 296.726562 " fill-opacity="1" fill-rule="nonzero"/><path fill="#028a8c" d="M 357.453125 274.847656 L 344.855469 266.363281 C 347.472656 262.226562 349.625 257.863281 351.316406 253.269531 L 355.621094 253.269531 C 356.050781 253.269531 356.464844 253.1875 356.859375 253.023438 C 357.253906 252.859375 357.605469 252.625 357.90625 252.324219 C 358.210938 252.019531 358.441406 251.671875 358.605469 251.277344 C 358.769531 250.878906 358.851562 250.46875 358.851562 250.039062 C 358.851562 249.609375 358.769531 249.199219 358.605469 248.804688 C 358.441406 248.40625 358.210938 248.058594 357.90625 247.753906 C 357.605469 247.453125 357.253906 247.21875 356.859375 247.054688 C 356.464844 246.890625 356.050781 246.808594 355.621094 246.808594 L 342.574219 246.808594 L 342.574219 240.089844 C 342.574219 239.664062 342.492188 239.25 342.328125 238.855469 C 342.164062 238.457031 341.929688 238.109375 341.628906 237.808594 C 341.324219 237.503906 340.976562 237.269531 340.578125 237.105469 C 340.183594 236.941406 339.773438 236.859375 339.34375 236.859375 C 338.914062 236.859375 338.503906 236.941406 338.105469 237.105469 C 337.710938 237.269531 337.363281 237.503906 337.058594 237.808594 C 336.757812 238.109375 336.523438 238.457031 336.359375 238.855469 C 336.195312 239.25 336.113281 239.664062 336.113281 240.089844 L 336.113281 246.808594 L 321.597656 246.808594 C 321.171875 246.808594 320.757812 246.890625 320.363281 247.054688 C 319.96875 247.21875 319.617188 247.453125 319.316406 247.753906 C 319.011719 248.058594 318.777344 248.40625 318.617188 248.804688 C 318.453125 249.199219 318.371094 249.609375 318.371094 250.039062 C 318.371094 250.46875 318.453125 250.878906 318.617188 251.277344 C 318.777344 251.671875 319.011719 252.019531 319.316406 252.324219 C 319.617188 252.625 319.96875 252.859375 320.363281 253.023438 C 320.757812 253.1875 321.171875 253.269531 321.597656 253.269531 L 344.445312 253.269531 C 343.066406 256.5625 341.417969 259.714844 339.496094 262.722656 L 331.375 257.253906 C 331.011719 257.011719 330.617188 256.851562 330.191406 256.769531 C 329.765625 256.683594 329.335938 256.6875 328.910156 256.773438 C 328.484375 256.859375 328.089844 257.023438 327.730469 257.269531 C 327.371094 257.511719 327.070312 257.8125 326.828125 258.175781 C 326.589844 258.539062 326.425781 258.933594 326.34375 259.363281 C 326.261719 259.789062 326.265625 260.214844 326.351562 260.640625 C 326.4375 261.070312 326.605469 261.460938 326.847656 261.824219 C 327.089844 262.183594 327.394531 262.484375 327.757812 262.722656 L 335.769531 268.105469 C 333.257812 271.28125 330.480469 274.203125 327.433594 276.871094 C 327.113281 277.15625 326.859375 277.492188 326.675781 277.878906 C 326.488281 278.265625 326.382812 278.671875 326.355469 279.101562 C 326.332031 279.53125 326.390625 279.949219 326.53125 280.351562 C 326.671875 280.757812 326.882812 281.121094 327.167969 281.445312 C 327.453125 281.765625 327.789062 282.019531 328.175781 282.207031 C 328.5625 282.394531 328.972656 282.5 329.398438 282.527344 C 329.828125 282.550781 330.246094 282.492188 330.652344 282.351562 C 331.058594 282.214844 331.421875 282 331.742188 281.714844 C 335.203125 278.679688 338.355469 275.347656 341.195312 271.722656 L 353.898438 280.335938 C 354.441406 280.699219 355.035156 280.878906 355.6875 280.875 C 356.03125 280.875 356.367188 280.820312 356.695312 280.710938 C 357.023438 280.601562 357.324219 280.445312 357.601562 280.242188 C 357.878906 280.035156 358.117188 279.792969 358.316406 279.507812 C 358.515625 279.226562 358.667969 278.921875 358.765625 278.59375 C 358.867188 278.261719 358.914062 277.925781 358.910156 277.582031 C 358.902344 277.234375 358.839844 276.902344 358.726562 276.574219 C 358.613281 276.25 358.449219 275.949219 358.238281 275.675781 C 358.03125 275.402344 357.78125 275.167969 357.496094 274.976562 Z M 357.453125 274.847656 " fill-opacity="1" fill-rule="nonzero"/><path fill="#028a8c" d="M 262.097656 447.976562 C 293.910156 457.4375 328.40625 432.222656 327.910156 398.128906 C 325.070312 329.480469 227.125 329.484375 224.292969 398.128906 C 224.292969 421.816406 240.3125 441.871094 262.097656 447.976562 Z M 262.097656 447.976562 " fill-opacity="1" fill-rule="nonzero"/><path fill="#028a8c" d="M 359.605469 530.964844 C 352.804688 491.085938 317.9375 460.65625 276.101562 460.65625 C 228.847656 460.308594 189.289062 501.011719 191.675781 547.214844 C 192.421875 549.519531 194.613281 551.074219 197.089844 551.074219 L 355.109375 551.074219 C 364.617188 550.273438 359.914062 537.007812 359.605469 530.964844 Z M 359.605469 530.964844 " fill-opacity="1" fill-rule="nonzero"/><path fill="#028a8c" d="M 376.664062 465.152344 C 397.523438 465.152344 414.523438 448.152344 414.523438 427.289062 C 412.625 377.207031 340.695312 377.21875 338.800781 427.289062 C 338.800781 448.152344 355.800781 465.152344 376.664062 465.152344 Z M 376.664062 465.152344 " fill-opacity="1" fill-rule="nonzero"/><g clip-path="url(#5bb35377d7)"><path fill="#028a8c" d="M 376.664062 469.183594 C 365.945312 469.183594 355.339844 472.007812 346.121094 477.367188 C 348.828125 480.191406 351.304688 483.246094 353.609375 486.417969 C 364.007812 500.445312 370.5 517.878906 371.765625 535.6875 C 371.765625 535.6875 431.699219 535.6875 431.699219 535.6875 C 434.867188 535.6875 437.460938 533.097656 437.460938 529.925781 C 437.460938 496.445312 410.203125 469.183594 376.664062 469.183594 Z M 376.664062 469.183594 " fill-opacity="1" fill-rule="nonzero"/></g><path fill="#028a8c" d="M 175.539062 465.152344 C 196.398438 465.152344 213.402344 448.152344 213.402344 427.289062 C 211.5 377.207031 139.570312 377.21875 137.675781 427.289062 C 137.675781 448.152344 154.675781 465.152344 175.539062 465.152344 Z M 175.539062 465.152344 " fill-opacity="1" fill-rule="nonzero"/><g clip-path="url(#cf10902ea3)"><path fill="#028a8c" d="M 206.082031 477.367188 C 166.785156 453.675781 113.921875 483.96875 114.742188 529.925781 C 114.742188 533.097656 117.332031 535.6875 120.503906 535.6875 L 180.4375 535.6875 C 181.996094 513.820312 191.269531 493.0625 206.082031 477.367188 Z M 206.082031 477.367188 " fill-opacity="1" fill-rule="nonzero"/></g><path fill="#028a8c" d="M 464.339844 401.664062 C 467.359375 398.378906 468.304688 395.21875 468.921875 392.269531 L 466.632812 391.726562 C 457.335938 393.144531 449.089844 393.847656 441.597656 393.851562 L 441.589844 393.851562 C 440.03125 393.847656 438.527344 393.808594 437.058594 393.746094 L 437.058594 413.894531 C 452.6875 410.46875 460.421875 405.925781 464.339844 401.664062 Z M 464.339844 401.664062 " fill-opacity="1" fill-rule="nonzero"/><g clip-path="url(#aaa5ea679f)"><path fill="#028a8c" d="M 510.042969 624.515625 C 521.988281 624.515625 531.671875 614.839844 531.671875 602.890625 L 531.671875 325.652344 C 540.585938 324.667969 553.21875 322.78125 567.628906 319.203125 C 595.308594 312.253906 629.855469 299.15625 656.585938 272.542969 C 662.050781 267.078125 662.050781 258.21875 656.585938 252.753906 C 651.121094 247.292969 642.261719 247.292969 636.796875 252.753906 C 615.710938 273.953125 585.75 285.898438 560.863281 292.042969 C 548.453125 295.136719 537.382812 296.824219 529.503906 297.730469 C 525.746094 298.160156 522.742188 298.414062 520.632812 298.558594 C 519.828125 298.40625 519 298.320312 518.152344 298.320312 L 450.574219 298.320312 C 450.246094 298.320312 449.925781 298.347656 449.601562 298.371094 C 449.558594 298.371094 449.515625 298.363281 449.472656 298.363281 C 441.601562 298.527344 435.773438 301.433594 430.0625 304.902344 C 421.640625 310.261719 413.789062 317.851562 407.390625 326.667969 C 401.160156 335.527344 395.988281 345.425781 395.777344 357.320312 C 395.777344 357.34375 395.773438 357.367188 395.773438 357.390625 C 395.765625 361.855469 396.675781 366.660156 398.933594 371.136719 C 402.292969 377.933594 408.601562 383.183594 415.851562 386.097656 C 423.160156 389.085938 431.546875 390.332031 441.601562 390.355469 C 450.230469 390.347656 460.136719 389.382812 471.710938 387.355469 C 479.320312 386.019531 484.410156 378.765625 483.074219 371.15625 C 481.742188 363.542969 474.488281 358.457031 466.878906 359.792969 C 456.519531 361.609375 448.121094 362.363281 441.601562 362.363281 C 431.417969 362.421875 426.117188 360.355469 424.726562 359.292969 C 423.976562 358.753906 423.996094 358.625 423.929688 358.554688 C 423.902344 358.472656 423.769531 358.25 423.761719 357.390625 C 423.757812 357.21875 423.761719 357.019531 423.78125 356.800781 C 423.90625 355.136719 424.707031 352.171875 426.46875 348.855469 C 428.828125 344.253906 432.824219 339.125 437.058594 334.980469 L 437.058594 358.730469 C 438.300781 358.8125 439.664062 358.863281 441.179688 358.863281 L 441.582031 358.863281 C 448.460938 358.863281 456.75 358.015625 466.277344 356.347656 C 467.277344 356.167969 468.300781 356.082031 469.3125 356.082031 C 470.335938 356.082031 471.34375 356.175781 472.324219 356.347656 L 476.085938 336.472656 C 473.046875 333.074219 471.660156 328.296875 472.789062 323.523438 C 474.628906 315.773438 482.402344 310.972656 490.15625 312.8125 C 497.914062 314.652344 502.710938 322.425781 500.875 330.179688 C 499.742188 334.953125 496.359375 338.597656 492.117188 340.273438 L 484.871094 365.636719 C 485.640625 367.15625 486.214844 368.800781 486.519531 370.554688 C 487.328125 375.152344 486.292969 379.796875 483.609375 383.621094 C 482.1875 385.648438 480.386719 387.304688 478.324219 388.546875 L 476.734375 394.121094 L 472.328125 393.074219 C 471.660156 396.246094 470.46875 400.207031 466.910156 404.042969 C 462.167969 409.148438 453.539062 413.9375 437.054688 417.476562 L 437.054688 602.890625 C 437.054688 614.839844 446.742188 624.515625 458.679688 624.515625 C 470.625 624.515625 480.308594 614.839844 480.308594 602.890625 L 480.308594 444.992188 L 488.417969 444.992188 L 488.417969 602.890625 C 488.417969 614.835938 498.105469 624.515625 510.042969 624.515625 Z M 510.042969 624.515625 " fill-opacity="1" fill-rule="nonzero"/></g><g clip-path="url(#c27a19d332)"><path fill="#028a8c" d="M 523.722656 248.996094 C 523.722656 250.285156 523.660156 251.570312 523.535156 252.851562 C 523.40625 254.136719 523.21875 255.410156 522.964844 256.671875 C 522.714844 257.9375 522.402344 259.1875 522.027344 260.417969 C 521.652344 261.652344 521.21875 262.867188 520.726562 264.054688 C 520.234375 265.246094 519.683594 266.410156 519.074219 267.546875 C 518.46875 268.683594 517.804688 269.789062 517.089844 270.859375 C 516.375 271.933594 515.605469 272.964844 514.789062 273.960938 C 513.972656 274.960938 513.105469 275.914062 512.195312 276.824219 C 511.285156 277.734375 510.328125 278.601562 509.332031 279.417969 C 508.335938 280.234375 507.304688 281.003906 506.230469 281.71875 C 505.160156 282.433594 504.054688 283.097656 502.917969 283.703125 C 501.78125 284.3125 500.617188 284.863281 499.425781 285.355469 C 498.234375 285.847656 497.023438 286.28125 495.789062 286.65625 C 494.558594 287.03125 493.308594 287.34375 492.042969 287.59375 C 490.78125 287.847656 489.507812 288.035156 488.222656 288.164062 C 486.941406 288.289062 485.65625 288.351562 484.367188 288.351562 C 483.078125 288.351562 481.792969 288.289062 480.507812 288.164062 C 479.226562 288.035156 477.953125 287.847656 476.6875 287.59375 C 475.421875 287.34375 474.175781 287.03125 472.941406 286.65625 C 471.707031 286.28125 470.496094 285.847656 469.304688 285.355469 C 468.113281 284.863281 466.949219 284.3125 465.8125 283.703125 C 464.675781 283.097656 463.574219 282.433594 462.5 281.71875 C 461.429688 281.003906 460.394531 280.234375 459.398438 279.417969 C 458.402344 278.601562 457.449219 277.734375 456.535156 276.824219 C 455.625 275.914062 454.761719 274.960938 453.941406 273.960938 C 453.125 272.964844 452.359375 271.933594 451.640625 270.859375 C 450.925781 269.789062 450.265625 268.683594 449.65625 267.546875 C 449.050781 266.410156 448.5 265.246094 448.003906 264.054688 C 447.511719 262.867188 447.078125 261.652344 446.703125 260.417969 C 446.328125 259.1875 446.015625 257.9375 445.765625 256.671875 C 445.515625 255.410156 445.324219 254.136719 445.199219 252.851562 C 445.074219 251.570312 445.007812 250.285156 445.007812 248.996094 C 445.007812 247.707031 445.074219 246.421875 445.199219 245.136719 C 445.324219 243.855469 445.515625 242.582031 445.765625 241.316406 C 446.015625 240.050781 446.328125 238.804688 446.703125 237.570312 C 447.078125 236.335938 447.511719 235.125 448.003906 233.933594 C 448.5 232.742188 449.050781 231.578125 449.65625 230.441406 C 450.265625 229.304688 450.925781 228.203125 451.640625 227.128906 C 452.359375 226.058594 453.125 225.023438 453.941406 224.027344 C 454.761719 223.03125 455.625 222.078125 456.535156 221.164062 C 457.449219 220.253906 458.402344 219.390625 459.398438 218.570312 C 460.394531 217.753906 461.429688 216.988281 462.5 216.269531 C 463.574219 215.554688 464.675781 214.894531 465.8125 214.285156 C 466.949219 213.679688 468.113281 213.128906 469.304688 212.632812 C 470.496094 212.140625 471.707031 211.707031 472.941406 211.332031 C 474.175781 210.957031 475.421875 210.644531 476.6875 210.394531 C 477.953125 210.144531 479.226562 209.953125 480.507812 209.828125 C 481.792969 209.703125 483.078125 209.636719 484.367188 209.636719 C 485.65625 209.636719 486.941406 209.703125 488.222656 209.828125 C 489.507812 209.953125 490.78125 210.144531 492.042969 210.394531 C 493.308594 210.644531 494.558594 210.957031 495.789062 211.332031 C 497.023438 211.707031 498.234375 212.140625 499.425781 212.632812 C 500.617188 213.128906 501.78125 213.679688 502.917969 214.285156 C 504.054688 214.894531 505.160156 215.554688 506.230469 216.269531 C 507.304688 216.988281 508.335938 217.753906 509.332031 218.570312 C 510.328125 219.390625 511.285156 220.253906 512.195312 221.164062 C 513.105469 222.078125 513.972656 223.03125 514.789062 224.027344 C 515.605469 225.023438 516.375 226.058594 517.089844 227.128906 C 517.804688 228.203125 518.46875 229.304688 519.074219 230.441406 C 519.683594 231.578125 520.234375 232.742188 520.726562 233.933594 C 521.21875 235.125 521.652344 236.335938 522.027344 237.570312 C 522.402344 238.804688 522.714844 240.050781 522.964844 241.316406 C 523.21875 242.582031 523.40625 243.855469 523.535156 245.136719 C 523.660156 246.421875 523.722656 247.707031 523.722656 248.996094 Z M 523.722656 248.996094 " fill-opacity="1" fill-rule="nonzero"/></g><g clip-path="url(#08d970402b)"><path fill="#028a8c" d="M 434.148438 414.507812 C 432.273438 414.882812 430.289062 415.238281 428.199219 415.582031 C 385.328125 422.699219 374.574219 466.355469 374.515625 466.492188 L 377.914062 467.335938 C 377.914062 467.328125 378.539062 464.792969 380.152344 460.765625 C 385.023438 448.625 398.476562 423.953125 428.761719 419.035156 C 430.890625 418.6875 432.914062 418.320312 434.835938 417.9375 L 434.1875 414.667969 L 434.15625 414.511719 Z M 434.148438 414.507812 " fill-opacity="1" fill-rule="nonzero"/></g></svg>