<svg id="Layer_1" data-name="Layer 1" xmlns="http://www.w3.org/2000/svg" viewBox="0 0 408.41 72.15"><defs><style>.cls-1{fill:#fff;}</style></defs><path class="cls-1" d="M115.69,64h8V13.83h-8v-7h17l31.57,46a37.32,37.32,0,0,1,2.18,4.64h.28a46.79,46.79,0,0,1-.46-5.18V13.83h-8.19v-7h25.39v7h-8.1V71.06h-8.92L134.88,25a26.91,26.91,0,0,1-2.18-4.64h-.27a36.2,36.2,0,0,1,.36,5.19V64h8.28v7.1H115.69Z" transform="translate(0)"/><path class="cls-1" d="M191.2,31.84h-7.73V25H200V52.68c0,6.37,1.27,11.46,8.64,11.46,9.19,0,14.92-8.82,14.92-17.92V31.84h-7.73V25h16.55v37.3a1.82,1.82,0,0,0,2,2h4.82v6.74h-9.56c-4,0-5.82-1.82-5.82-5.1V64a20.1,20.1,0,0,1,.18-2.73h-.18A18.81,18.81,0,0,1,206.3,72.15c-9.91,0-15.1-5.46-15.1-17.65Z" transform="translate(0)"/><path class="cls-1" d="M247,13.65h-7.73V6.82H255.8V28.11a25,25,0,0,1-.28,3.82h.18s4.1-8,14.83-8c12.47,0,20.29,9.82,20.29,24.11,0,14.65-8.82,24.11-21,24.11a16.07,16.07,0,0,1-14.56-8.37h-.18a25,25,0,0,1,.27,3.64v3.64H247Zm21.65,50.86c7.19,0,13.2-5.92,13.2-16.38,0-10-5.37-16.47-13-16.47-6.82,0-13.28,4.82-13.28,16.56C255.52,56.41,259.8,64.51,268.62,64.51Z" transform="translate(0)"/><path class="cls-1" d="M321.53,42.76h2.91V41c0-7.28-4.18-9.82-9.83-9.82-7.27,0-13.19,4.46-13.19,4.46l-3.54-6.28a29.54,29.54,0,0,1,17.46-5.46c11.74,0,17.93,6.09,17.93,17.74V62.23a1.77,1.77,0,0,0,2,2h4.64v6.83h-9.19c-4.1,0-5.73-2-5.73-5v-.63a11.4,11.4,0,0,1,.36-3h-.18s-4,9.74-15.2,9.74c-7.64,0-15.28-4.46-15.28-13.92C294.69,43.76,313.89,42.76,321.53,42.76Zm-9.64,22.56c7.82,0,12.64-8,12.64-14.92V48.49h-2.27c-4.19,0-18.65.19-18.65,9C303.61,61.59,306.61,65.32,311.89,65.32Z" transform="translate(0)"/><path class="cls-1" d="M343.77,64.23h6.92V33.85a1.79,1.79,0,0,0-2-2H343V25h10.37c4,0,5.91,1.64,5.91,5.37V33.3a26.89,26.89,0,0,1-.18,3.18h.18c2.09-6.73,7.46-12,14.55-12a15,15,0,0,1,2.28.19v8.73a11.73,11.73,0,0,0-2.55-.27c-9.82,0-14,9.91-14,18.92V64.23h6.82v6.83H343.77Z" transform="translate(0)"/><path class="cls-1" d="M387.67,31.84h-7.73V25h7.91V12.37h8.65V25h11v6.82h-11V53.41c0,9.37,6.36,10.55,9.82,10.55,1.28,0,2.09-.09,2.09-.09v7.37a25,25,0,0,1-3.18.18c-5.82,0-17.56-1.82-17.56-17.2Z" transform="translate(0)"/><path class="cls-1" d="M84.63,26.47a23,23,0,0,0-41.34-17,23.69,23.69,0,0,0-3.06-.23A23,23,0,0,0,17.23,32a19.6,19.6,0,0,0,2.38,39.06h57a23,23,0,0,0,8-44.59ZM47.29,57.16h-2l-7-10.24h-8V35.26h8l7-10.24h2Zm5.31-8.3a8.25,8.25,0,0,0,0-15.5L54.91,30a12.24,12.24,0,0,1,0,22.24Zm8,11.71-2.27-3.32a18.29,18.29,0,0,0,0-32.28l2.27-3.31a22.28,22.28,0,0,1,0,38.91Z" transform="translate(0)"/></svg>