<?xml version="1.0" encoding="utf-8"?>
<!DOCTYPE svg PUBLIC "-//W3C//DTD SVG 20010904//EN" "http://www.w3.org/TR/2001/REC-SVG-20010904/DTD/svg10.dtd">
<svg version="1.0" xmlns="http://www.w3.org/2000/svg" width="750px" height="292px" viewBox="0 0 750 292" preserveAspectRatio="xMidYMid meet">
 <g fill="#000000">
  <path d="M664 288.50 c-7.50 -2 -14.30 -5.15 -20.35 -9.45 -5.15 -3.65 -38.65 -36.05 -38.65 -37.40 0 -0.30 -0.30 -0.65 -0.70 -0.80 -1.45 -0.55 -2.95 -5.85 -2.95 -10.60 -0.05 -4.30 0.85 -9.25 1.65 -9.25 0.20 0 0.55 -0.55 0.70 -1.20 0.15 -0.65 0.70 -1.30 1.25 -1.45 0.55 -0.10 1.05 -0.75 1.15 -1.40 0.10 -0.80 0.55 -1.25 1.30 -1.35 0.60 -0.10 1.10 -0.50 1.10 -0.90 0 -0.40 0.35 -0.70 0.75 -0.70 0.40 0 0.75 -0.20 0.75 -0.45 0 -0.95 5.25 -2.25 9.05 -2.25 2.10 -0.05 3.65 -0.15 3.45 -0.30 -0.55 -0.35 -5 -9.35 -5 -10.10 0 -0.35 -0.55 -1.30 -1.25 -2.10 -0.65 -0.80 -1.35 -1.85 -1.50 -2.35 -0.20 -0.55 -0.60 -0.95 -0.95 -0.95 -0.40 0 -0.75 -0.85 -0.90 -2.10 -0.15 -1.35 -1.55 -4.55 -3.75 -8.65 -1.95 -3.55 -5.65 -10.65 -8.20 -15.75 l-4.70 -9.25 0 -6 c0 -7.05 0.70 -9.15 4.45 -13.15 3.65 -3.90 6 -4.80 12.75 -5 6.25 -0.20 8.50 0.35 12.40 3 3.05 2.05 5.15 5.40 12.15 19.35 l2.05 4.15 1.60 -1.50 c4.75 -4.50 14.20 -6 20.50 -3.20 1.30 0.55 2.35 0.85 2.35 0.60 0 -0.85 5.60 -6 6.55 -6 0.50 0 0.95 -0.20 0.95 -0.45 0 -0.70 2.75 -1.50 6.15 -1.85 4.10 -0.40 8.90 0.55 12.15 2.35 1.45 0.80 2.95 1.45 3.30 1.45 0.35 0 1.20 -0.70 1.90 -1.55 2.05 -2.55 2.55 -2.95 3.50 -2.95 0.50 0 1.30 -0.35 1.70 -0.80 2.15 -2.10 11.95 -1.95 16.55 0.30 2.95 1.45 6.35 4.50 7.50 6.80 0.55 1.10 1.15 2.05 1.30 2.20 0.15 0.15 2.95 5.55 6.25 12 3.25 6.45 6.10 11.85 6.25 12 0.95 0.75 8.65 16.95 9.95 20.90 l1.55 4.65 -0.15 15.60 -0.15 15.60 -1.60 4.35 c-3.35 9.20 -8.20 16.90 -14.85 23.60 -6.75 6.75 -10.05 9.10 -19.10 13.60 -3.30 1.65 -6.05 3.10 -6.20 3.30 -0.45 0.60 -6.80 3.30 -11.10 4.75 -4.05 1.30 -4.55 1.35 -16.65 1.50 -11.20 0.10 -12.90 0.05 -16.25 -0.85z m19.65 -9.55 c4.85 -0.70 10.25 -2.20 14 -3.90 6.20 -2.80 17.65 -9.25 21.20 -11.90 10.65 -8 18.35 -20.50 20.85 -33.70 1.40 -7.50 0.70 -14.80 -2.25 -23.10 -0.95 -2.65 -5.75 -12.35 -9.45 -19.10 -0.75 -1.35 -3.80 -7.20 -6.75 -13 -2.95 -5.75 -5.95 -11.25 -6.65 -12.15 -1.50 -2.05 -3.90 -3.60 -5.60 -3.60 -3.55 0.05 -7.75 4.60 -7.30 7.90 0.15 0.90 3.20 7.25 6.75 14.10 6.40 12.25 6.55 12.55 6.55 15.70 0 2.90 -0.15 3.35 -1.30 4.25 -1.75 1.35 -6.10 1.45 -7.60 0.20 -0.95 -0.90 -1.90 -2.65 -11.60 -21.40 -7.05 -13.65 -8.10 -15.35 -10.40 -16.65 -3.10 -1.75 -5.35 -1.25 -8.20 1.75 -1.85 1.95 -2.45 3.75 -1.90 5.65 0.25 0.85 3.85 8.10 8 16.05 7.10 13.70 7.50 14.60 7.50 17.30 0 4.05 -1.10 5.15 -5.25 5.15 -2.55 0 -3.25 -0.20 -4.10 -1.10 -0.55 -0.65 -5.05 -8.90 -9.95 -18.40 -9.35 -18 -11.35 -21 -14.55 -21.70 -2.90 -0.65 -6.55 1.85 -7.95 5.45 l-0.80 2.20 8.55 16.55 c8.50 16.35 8.55 16.50 8.55 19.75 0 4.25 -0.95 5.25 -5.05 5.25 -2.30 0 -3.05 -0.20 -3.95 -1.10 -1 -1.10 -5.65 -9.85 -18.70 -35.15 -10.90 -21.05 -15.15 -29.05 -16.30 -30.55 -1.30 -1.70 -4 -3.30 -5.65 -3.35 -3.20 -0.05 -7.35 4.05 -7.35 7.30 0 0.75 1.55 4.30 3.45 7.95 7.30 14.20 10.85 21.05 16.05 30.90 3 5.65 8.95 17 13.20 25.25 7.65 14.65 7.80 15.05 7.80 18.10 0 3.70 -0.50 4.15 -4.80 4.15 l-2.85 0 -8.05 -7.95 c-4.40 -4.35 -8.55 -8.20 -9.15 -8.50 -2.50 -1.30 -6 0.05 -8.20 3.10 -1.60 2.20 -1.85 4.20 -0.75 6.25 0.70 1.30 18.45 19.10 30.30 30.40 9.80 9.35 17.30 13.30 29.10 15.45 4.65 0.85 6.15 0.85 10.55 0.20z"/>
  <path d="M560.55 182.50 c-0.65 -0.30 -1.50 -0.90 -1.85 -1.40 -0.80 -1 -0.90 -5.75 -0.20 -7.10 0.50 -1 3.65 -2.75 18.60 -10.45 8.70 -4.50 10.05 -5.05 12.35 -5.05 3.75 0 5.05 1.40 5.05 5.40 0 2.40 -0.20 3.10 -1.10 3.95 -0.65 0.60 -7.05 4.15 -14.30 7.95 -13.45 7 -15.80 7.85 -18.55 6.70z"/>
  <path d="M570.60 145.80 c-8.05 -2.55 -15.05 -5.05 -15.60 -5.55 -0.80 -0.70 -1 -1.55 -1 -4.10 0 -3.65 0.85 -4.90 3.70 -5.45 2.20 -0.40 2.25 -0.35 14.05 3.35 22 7 20.95 6.40 20.65 11.10 -0.25 3.70 -1.40 4.90 -4.75 5.15 -1.95 0.20 -5 -0.65 -17.05 -4.50z"/>
  <path d="M632.05 143.20 c-1.50 -1.90 -1.45 -6.20 0.10 -7.85 0.60 -0.70 4.70 -3.10 9.10 -5.35 4.40 -2.25 10.25 -5.35 13.05 -6.80 4.50 -2.40 5.40 -2.70 8.10 -2.70 2.70 0 3.15 0.15 4.05 1.30 1.25 1.60 1.45 5.90 0.30 7.55 -0.40 0.55 -6.80 4.20 -14.25 8.10 -12.95 6.75 -13.60 7.05 -16.45 7.05 -2.60 0 -3.10 -0.15 -4 -1.30z"/>
  <path d="M597.90 134.90 c-0.45 -0.35 -2.10 -3.10 -3.65 -6.15 -12.10 -23.15 -11.25 -21.35 -11.25 -24.65 0 -2.70 0.15 -3.15 1.30 -4.05 1.45 -1.15 5.50 -1.45 7.20 -0.55 0.50 0.25 2.30 3.15 4.05 6.35 11.50 21.75 11.45 21.60 11.45 24.75 0 3.80 -1.20 4.90 -5.30 4.90 -1.65 0 -3.35 -0.30 -3.80 -0.60z"/>
  <path d="M618 131 c-1.25 -1.25 -1.70 -3.05 -1.35 -5.35 0.65 -4 9 -29.95 10 -31 0.85 -0.95 1.55 -1.15 4.10 -1.15 4.10 0 5.25 1.10 5.25 5.05 0 3.70 -8.55 31.25 -10.10 32.60 -1.50 1.25 -6.55 1.20 -7.90 -0.15z"/>
 </g>
 <g fill="#333333">
  <path d="M0 201.25 c0 -89.30 0 -90.75 0.95 -90.75 0.80 0 1.05 0.50 1.30 2.90 1.45 13.25 6.85 28 14.45 39.75 14.55 22.50 39.10 37.90 65.80 41.35 3.05 0.40 77 0.50 262 0.40 l257.75 -0.15 6 -1.35 c7.20 -1.65 7.25 -1.65 7.25 -0.40 0 0.55 0.25 1 0.55 1 0.25 0 0.35 0.25 0.20 0.50 -0.15 0.30 -0.05 0.50 0.25 0.50 0.30 0 0.40 0.25 0.25 0.50 -0.15 0.30 -0.05 0.50 0.25 0.50 0.30 0 0.40 0.20 0.25 0.50 -0.15 0.25 -0.10 0.50 0.10 0.50 0.60 0 2.20 2.80 1.80 3.20 -0.15 0.15 -0.05 0.30 0.30 0.30 0.35 0 0.45 0.25 0.30 0.50 -0.15 0.30 -0.05 0.50 0.25 0.50 0.30 0 0.40 0.20 0.25 0.50 -0.15 0.25 -0.05 0.50 0.25 0.50 0.30 0 0.40 0.20 0.25 0.50 -0.15 0.30 -0.05 0.50 0.25 0.50 0.30 0 0.40 0.25 0.25 0.50 -0.15 0.30 -0.05 0.50 0.25 0.50 0.30 0 0.40 0.25 0.25 0.50 -0.15 0.30 -0.05 0.50 0.25 0.50 0.30 0 0.40 0.20 0.25 0.50 -0.15 0.30 -0.05 0.50 0.25 0.50 0.30 0 0.40 0.20 0.25 0.50 -0.15 0.30 -0.05 0.50 0.25 0.50 0.30 0 0.40 0.20 0.25 0.50 -0.15 0.25 -0.05 0.50 0.25 0.50 0.30 0 0.40 0.25 0.25 0.50 -0.15 0.30 -0.05 0.50 0.20 0.50 0.30 0 0.55 0.35 0.55 0.75 0 0.40 0.25 0.75 0.55 0.75 0.25 0 0.35 0.20 0.20 0.50 -0.15 0.30 -0.05 0.50 0.25 0.50 0.30 0 0.40 0.20 0.25 0.50 -0.15 0.25 0 0.50 0.35 0.55 0.35 0 0.20 0.20 -0.35 0.40 -0.55 0.25 -1.20 0.30 -1.50 0.15 -0.25 -0.20 -1.10 -0.25 -1.85 -0.15 -0.70 0.05 -1.45 -0.10 -1.65 -0.40 -0.40 -0.70 -2.25 -0.70 -2.25 0 0 0.35 -0.45 0.45 -1.20 0.25 -1.40 -0.35 -5.95 1.10 -5.50 1.75 0.15 0.25 -0.20 0.45 -0.75 0.45 -0.60 0 -1.05 0.30 -1.05 0.70 0 0.40 -0.45 0.80 -1 0.90 -0.60 0.10 -1 0.25 -0.95 0.40 0.25 0.60 -1.15 2.50 -1.85 2.50 -0.40 0 -0.60 0.25 -0.45 0.50 0.15 0.30 0.10 0.50 -0.20 0.50 -0.30 0 -0.40 0.35 -0.25 0.75 0.20 0.45 0 0.75 -0.50 0.75 -0.50 0 -0.65 0.30 -0.50 0.75 0.20 0.40 0.05 0.75 -0.25 0.75 -0.30 0 -0.40 0.35 -0.25 0.75 0.20 0.40 0.05 0.75 -0.20 0.75 -0.35 0 -0.40 0.70 -0.25 1.80 0.20 1.25 0.10 1.95 -0.40 2.25 -0.60 0.40 -0.60 0.50 0 0.90 0.45 0.30 0.60 0.95 0.40 2 -0.20 0.95 -0.10 1.55 0.20 1.55 0.30 0 0.45 0.35 0.25 0.75 -0.15 0.40 -0.05 0.75 0.25 0.75 0.30 0 0.45 0.35 0.25 0.75 -0.15 0.40 -0.05 0.75 0.25 0.75 0.30 0 0.35 0.25 0.20 0.50 -0.15 0.30 -0.05 0.50 0.25 0.50 0.30 0 0.40 0.25 0.25 0.50 -0.15 0.30 0.05 0.65 0.45 0.80 0.45 0.15 0.80 0.55 0.80 0.85 0 1.35 33.50 33.75 38.65 37.40 6.55 4.65 15.45 8.55 22.75 9.95 1.90 0.40 6.45 0.50 13.15 0.35 8.75 -0.20 10.70 -0.35 13.70 -1.35 5.20 -1.65 11.80 -4.55 11.45 -5.05 -0.15 -0.25 0.10 -0.45 0.55 -0.45 2.20 0 19 -9.65 18.45 -10.60 -0.15 -0.20 0.10 -0.40 0.50 -0.40 0.95 0 8.40 -6.95 8.05 -7.50 -0.15 -0.25 0.15 -0.55 0.60 -0.70 0.95 -0.35 3.35 -3.30 3.35 -4.10 0 -0.25 0.40 -0.80 0.90 -1.20 0.45 -0.40 0.90 -1.10 1 -1.50 0.10 -0.40 0.55 -1.05 1.05 -1.45 0.50 -0.35 0.80 -0.95 0.65 -1.35 -0.15 -0.40 -0.05 -0.70 0.20 -0.70 1.20 0 6.50 -12.95 6.65 -16.30 0.05 -0.85 0.50 -1.95 0.95 -2.45 0.85 -0.90 0.90 0.50 0.90 29.15 l0 30.10 -375 0 -375 0 0 -90.75z"/>
  <path d="M748.50 209.15 c-1.05 -4.90 -2.95 -9.60 -7.10 -17.90 -2.25 -4.40 -4.20 -8.10 -4.35 -8.25 -0.15 -0.15 -3 -5.55 -6.25 -12 -3.30 -6.45 -6.10 -11.85 -6.25 -12 -0.20 -0.15 -0.55 -0.80 -0.85 -1.50 -1.25 -2.75 -6.25 -7.30 -8.60 -7.75 -0.45 -0.10 -0.90 -0.20 -0.95 -0.25 -0.10 -0.10 -0.35 -0.15 -0.60 -0.20 -0.25 0 -0.60 -0.20 -0.80 -0.40 -0.20 -0.20 -0.65 -0.20 -1.05 -0.05 -0.40 0.15 -1.40 0 -2.25 -0.35 -0.95 -0.40 -1.65 -0.50 -1.85 -0.20 -0.20 0.30 -1.25 0.50 -2.40 0.50 -1.30 0 -2.35 0.30 -2.90 0.85 -0.50 0.45 -1.30 0.85 -1.80 0.85 -0.95 0 -1.45 0.40 -3.50 2.95 -0.70 0.85 -1.55 1.55 -1.90 1.55 -0.35 0 -0.55 0.20 -0.35 0.45 0.15 0.30 -0.15 0.70 -0.60 1 -0.70 0.35 -1.20 0.20 -2.15 -0.70 -2.50 -2.35 -6 -3.90 -8.60 -3.80 -0.75 0.05 -1.45 -0.15 -1.65 -0.45 -0.40 -0.65 -2.75 -0.65 -2.75 0.05 0 0.30 -0.45 0.40 -1 0.20 -1.15 -0.35 -4.50 0.60 -4.50 1.30 0 0.25 -0.45 0.45 -1 0.45 -0.50 0 -1.95 1 -3.15 2.25 -1.25 1.25 -2.15 2.25 -2.05 2.25 0.30 0 -1.20 2.90 -1.70 3.15 -0.20 0.15 -0.75 -0.05 -1.25 -0.40 -0.90 -0.65 -0.90 -0.75 -0.05 -2.60 0.50 -1.05 1.95 -3.55 3.25 -5.50 8.10 -12.45 12.95 -26.75 14.45 -42.40 1.40 -14.65 -2.10 -31.90 -9.40 -46.35 -12.25 -24.25 -33.55 -41.60 -59.60 -48.65 -10.85 -2.90 5.60 -2.75 -271.10 -2.75 -181.90 0 -255.30 0.15 -259 0.55 -13.10 1.40 -28.60 7.20 -40.25 15.05 -12.90 8.65 -23.35 20.40 -30.70 34.60 -5.60 10.80 -8.10 19 -9.70 31.95 -0.25 1.90 -0.50 2.35 -1.30 2.35 -0.95 0 -0.95 -0.85 -0.95 -48.50 l0 -48.50 375 0 375 0 0 106 c0 58.30 -0.20 106 -0.40 106 -0.25 0 -0.75 -1.30 -1.10 -2.85z"/>
 </g>
 <g fill="#52d2c4">
  <path d="M334.85 196.50 l-255.10 -0.25 -4.75 -1.15 c-10.10 -2.40 -16.45 -4.55 -23.30 -8 -22.50 -11.30 -39.25 -30.70 -46.95 -54.35 -1.95 -5.95 -2.65 -9.05 -4.20 -18.80 -0.65 -4.05 -0.70 -16.75 -0.10 -19.60 0.25 -1.15 0.75 -3.95 1.05 -6.25 2.20 -16.20 11.20 -34.50 23.35 -47.55 4.45 -4.80 10.95 -10.40 16.30 -13.95 11.65 -7.85 27.15 -13.65 40.25 -15.05 3.70 -0.40 77.50 -0.55 260.50 -0.55 278.35 0 261.70 -0.15 272.60 2.75 26.05 7.05 47.35 24.40 59.60 48.65 4.55 8.95 7.10 16.95 8.65 27.10 3.55 23.65 -1.45 45.85 -15.05 66.80 l-2.95 4.55 -2.95 -1.40 c-3.80 -1.80 -6.65 -2.20 -10.15 -1.50 -3.95 0.75 -6.85 2.40 -9.50 5.20 -1.25 1.35 -2.45 2.25 -2.65 2 -0.20 -0.20 -2.50 -4.60 -5.15 -9.75 -5.65 -11.10 -7.15 -13.40 -10 -15.30 -3.65 -2.50 -6.30 -3.25 -10.95 -3 -5.05 0.20 -7.90 1.50 -11.20 5 -3.50 3.75 -4.45 6.30 -4.45 11.65 l0.05 4.50 4.65 9.25 c2.60 5.10 6.10 11.85 7.75 15 4.10 7.60 5.45 10.50 5.15 10.80 -0.85 0.85 -12.40 2.80 -18.50 3.10 -3.80 0.20 -121.70 0.25 -262 0.10z m243.90 -22.80 c6.60 -3.45 12.50 -6.75 13.15 -7.35 0.65 -0.60 1.10 -1.60 1.10 -2.45 0 -1.75 -2 -3.90 -3.55 -3.90 -0.60 0 -5.50 2.25 -10.85 5.05 -19.05 9.85 -19.10 9.90 -19.10 12.55 0.05 2.70 2.75 4.20 5.50 3.05 0.95 -0.35 7.15 -3.50 13.75 -6.95z m-350.95 -12.20 c1.55 -0.50 3.75 -1.70 4.95 -2.60 2.10 -1.60 2.15 -1.70 1.30 -2.55 -0.85 -0.85 -0.95 -0.85 -3.35 0.50 -2.15 1.20 -3.10 1.40 -7.55 1.55 -5.85 0.25 -7.70 -0.20 -10.55 -2.70 -2.75 -2.35 -4.10 -5.95 -4.10 -11.10 0 -2.10 0.20 -4.60 0.50 -5.55 0.75 -2.70 2.95 -5.50 5.45 -6.95 2.10 -1.25 2.75 -1.35 7.55 -1.35 4.65 0 5.55 0.15 7.85 1.30 l2.65 1.30 1.05 -1.15 1.05 -1.10 -1.95 -1.30 c-3.40 -2.25 -6.05 -2.95 -11.15 -3 -4.15 -0.05 -5.10 0.10 -7.50 1.25 -5.60 2.70 -9.30 7.45 -10.50 13.70 -0.95 4.95 0.85 10.95 4.45 14.90 4.80 5.30 13 7.30 19.85 4.85z m26.20 -24.75 l0 -25.75 -2.75 0 -2.75 0 0 25.75 0 25.75 2.75 0 2.75 0 0 -25.75z m21 7.75 l0 -18 -2.45 0 c-1.75 0 -2.55 0.20 -2.75 0.80 -0.15 0.45 -0.30 8.55 -0.30 18 l0 17.20 2.75 0 2.75 0 0 -18z m37.70 16.60 c1.40 -0.65 3.25 -1.70 4.20 -2.40 1.55 -1.20 1.60 -1.35 0.90 -2.15 -0.75 -0.85 -0.95 -0.80 -3.40 0.40 -2.20 1.10 -3.45 1.30 -7.95 1.45 -4.55 0.20 -5.55 0.05 -7.25 -0.80 -2.75 -1.40 -4.60 -3.25 -5.70 -5.70 -1.35 -3 -1.40 -11.75 -0.05 -14.70 1.25 -2.80 4.55 -5.50 7.65 -6.25 3.80 -0.90 9.75 -0.35 12.85 1.20 l2.55 1.30 0.75 -1.05 c0.90 -1.35 0.40 -2.05 -2.45 -3.50 -15 -7.65 -31.55 5 -27 20.65 1.60 5.50 6.35 10.45 11.75 12.25 3.25 1.05 10.05 0.70 13.15 -0.70z m25.05 0.30 c0.20 -0.55 0.20 -3 0.05 -5.35 l-0.30 -4.30 3.30 -3.35 c2.90 -3 3.55 -3.40 5.15 -3.40 1.80 0.05 1.85 0.05 7.30 8.75 l5.50 8.75 2.40 0 c1.30 0 2.35 -0.10 2.35 -0.20 0 -0.15 -2.90 -4.70 -6.50 -10.20 -8.40 -12.85 -8.35 -11.85 -1 -19.60 l5.45 -5.75 -1.65 -0.15 c-1.50 -0.15 -2.20 0.45 -10.05 8.40 -7.95 8 -8.55 8.50 -10.30 8.50 l-1.90 0 0.10 -16.10 0.10 -16.15 -2.60 -0.15 -2.65 -0.15 0 25.75 0 25.80 2.45 0 c2.10 0 2.55 -0.15 2.80 -1.10z m62.75 -10.35 l0 -11.45 1.40 -2.65 c1 -1.95 2.05 -3.10 3.85 -4.20 2.25 -1.40 2.75 -1.50 7.20 -1.50 4.15 0 5.05 0.15 6.65 1.15 1 0.65 2.35 2 3 3 1.10 1.80 1.15 2.30 1.30 14.50 l0.20 12.60 2.40 0 2.40 0 0.35 -5.85 c0.50 -8 0 -18.25 -1.05 -21.50 -1.65 -5.05 -6.70 -8.65 -12.20 -8.65 -4.20 0 -9.65 2.70 -11.40 5.60 -0.65 1.10 -1.20 1.40 -2.45 1.40 l-1.65 0 -0.10 -11.10 -0.15 -11.15 -2.60 -0.15 -2.65 -0.15 0 25.75 0 25.80 2.75 0 2.75 0 0 -11.45z m65.65 9.80 c1.60 -0.70 3.45 -1.75 4.10 -2.25 1.05 -0.85 1.10 -1.05 0.45 -1.70 -0.65 -0.65 -1.05 -0.60 -3.35 0.55 -3.15 1.50 -10.05 2.05 -13.60 1.05 -4.50 -1.25 -8.25 -5.90 -8.25 -10.25 l0 -2.25 14.45 0 c12.75 0 14.50 -0.10 14.75 -0.80 0.45 -1.15 -0.60 -7.10 -1.70 -9.55 -1.35 -3 -4.65 -6.35 -7.65 -7.70 -3.90 -1.75 -10.50 -1.70 -14.45 0.15 -10.45 4.90 -13.95 17.30 -7.60 26.75 2 2.90 5.90 5.85 9.25 6.95 3.55 1.15 10.05 0.70 13.60 -0.95z m25.95 -9.70 c0.15 -10.65 0.20 -11.55 1.25 -13.45 1.95 -3.65 4.85 -5.55 9.40 -6.15 l2.50 -0.30 0.15 -2.40 c0.15 -2.35 0.10 -2.40 -1 -2.10 -3.05 0.95 -4.60 1.90 -6.90 4.25 -1.85 1.90 -2.80 2.50 -3.95 2.50 l-1.55 0 0 -3.50 0 -3.50 -2.45 0 c-1.75 0 -2.55 0.20 -2.75 0.80 -0.15 0.45 -0.30 8.55 -0.30 18 l0 17.20 2.70 0 2.75 0 0.15 -11.35z m46.05 9.70 c1.60 -0.70 3.45 -1.75 4.10 -2.25 1.05 -0.85 1.10 -1.05 0.45 -1.70 -0.65 -0.65 -1.05 -0.60 -3.35 0.55 -3.15 1.50 -10.05 2.05 -13.60 1.05 -4.50 -1.25 -8.25 -5.90 -8.25 -10.25 l0 -2.25 14.45 0 c12.75 0 14.50 -0.10 14.75 -0.80 0.45 -1.15 -0.60 -7.10 -1.70 -9.55 -1.35 -3 -4.65 -6.35 -7.65 -7.70 -3.90 -1.75 -10.50 -1.70 -14.45 0.15 -10.45 4.90 -13.95 17.30 -7.60 26.75 2 2.90 5.90 5.85 9.25 6.95 3.55 1.15 10.05 0.70 13.60 -0.95z m51.45 -13.30 c1.40 -1.30 1.65 -3.65 0.45 -4.85 -1 -1.10 -2.85 -1.75 -19.80 -7.15 -11.90 -3.75 -12.05 -3.75 -13.75 -2.05 -1.30 1.30 -1.30 4.05 0 5.25 1.30 1.15 29.95 10.30 31.25 9.90 0.55 -0.15 1.40 -0.65 1.85 -1.10z m61.40 -11.60 c7.45 -3.90 13.85 -7.55 14.25 -8.10 1.05 -1.50 0.95 -3 -0.30 -4.55 -1.55 -1.95 -3.35 -1.70 -9.15 1.40 -2.80 1.45 -8.65 4.55 -13.05 6.80 -8.25 4.25 -10.25 5.75 -10.25 7.70 0 1.85 1.85 3.80 3.55 3.80 0.90 0 6.50 -2.65 14.95 -7.05z m-46.65 -3.05 c2.20 -2.05 2.40 -1.60 -10.30 -25.55 -3.80 -7.15 -5.25 -8.15 -8.25 -5.80 -2.10 1.65 -1.75 3.25 2.90 12.15 2.30 4.45 5.45 10.55 7.05 13.55 1.55 3.05 3.20 5.80 3.65 6.15 1.25 0.95 3.65 0.70 4.95 -0.50z m20.05 -3.25 c0.75 -0.65 2.45 -5.35 5.55 -15.35 2.50 -8 4.55 -15.05 4.55 -15.75 0 -3.10 -4.25 -4.75 -6.35 -2.40 -0.90 1 -2.90 7 -8.20 24.50 -1.80 5.95 -1.90 6.50 -1.20 7.85 0.40 0.75 1 1.50 1.35 1.65 1.35 0.55 3.35 0.30 4.30 -0.50z m-349.90 -13.90 c1 -1.05 1.10 -1.50 0.70 -2.60 -0.25 -0.75 -1.05 -1.70 -1.80 -2.10 -1.25 -0.75 -1.45 -0.70 -2.60 0.40 -1.55 1.45 -1.65 3.20 -0.30 4.55 1.35 1.35 2.60 1.25 4 -0.25z m29.50 -51.50 l0 -18.25 1.70 0 c1.60 0 2 0.40 6.60 6.65 2.70 3.60 8.80 11.85 13.60 18.25 l8.65 11.60 2.70 0 2.75 0 0 -23.95 c0 -26.65 0.30 -24.55 -3.55 -24.55 l-1.95 0 0 18.25 0 18.25 -1.90 0 c-1.40 0 -2.05 -0.30 -2.60 -1.20 -0.40 -0.60 -6.50 -8.85 -13.50 -18.25 l-12.70 -17.05 -2.65 0 -2.65 0 0 24.25 0 24.25 2.75 0 2.75 0 0 -18.25z m75.15 16.55 c5.55 -2.70 9.25 -7.60 10.40 -13.85 0.75 -4.15 -0.30 -8.55 -2.95 -12.40 -7.90 -11.60 -26 -10.30 -32.20 2.35 -1.50 3 -1.65 3.75 -1.65 7.60 0 4.95 1.35 8.45 4.55 11.95 3.85 4.30 8.40 6.10 14.75 5.90 3.45 -0.10 4.80 -0.40 7.10 -1.55z m37.95 -2.15 c0.75 -2.15 3 -8.60 4.95 -14.30 l3.60 -10.40 1.70 0.15 1.70 0.15 4 11.75 c2.20 6.45 4.40 12.80 4.80 14.15 l0.80 2.35 2.85 0 2.85 0 5.15 -14.10 c2.80 -7.80 5.75 -15.90 6.55 -18.05 l1.45 -3.90 -2.30 0.15 -2.30 0.15 -4.80 14.90 -4.80 14.85 -1.75 0 -1.80 0 -4.45 -13.90 c-2.40 -7.60 -4.60 -14.35 -4.85 -15 -0.40 -1.05 -0.70 -1.15 -3.30 -1 -2.80 0.15 -2.80 0.15 -3.45 2.15 -0.35 1.10 -2.30 7.30 -4.40 13.75 -2.05 6.45 -3.85 12.25 -4.05 12.90 -0.30 0.95 -0.60 1.15 -2.15 1 l-1.75 -0.15 -5 -14.85 -4.95 -14.90 -2.15 0 -2.20 0 0.95 2.65 c0.50 1.40 3.20 8.80 6 16.35 2.80 7.55 5.35 14.50 5.65 15.40 0.50 1.55 0.60 1.60 3.30 1.60 l2.80 0 1.35 -3.85z"/>
  <path d="M445.50 140.50 c0 -4.20 2.65 -8.05 6.60 -9.70 2.25 -0.95 8.95 -1.05 11.45 -0.20 4.25 1.40 6.95 5.30 6.95 9.90 l0 2.50 -12.50 0 -12.50 0 0 -2.50z"/>
  <path d="M517.50 140.50 c0 -4.20 2.65 -8.05 6.60 -9.70 2.25 -0.95 8.95 -1.05 11.45 -0.20 4.25 1.40 6.95 5.30 6.95 9.90 l0 2.50 -12.50 0 -12.50 0 0 -2.50z"/>
  <path d="M363.20 76.90 c-1.75 -1.20 -2.85 -2.45 -3.80 -4.35 -1.25 -2.45 -1.40 -3.25 -1.40 -8 0 -6.25 0.75 -8.30 3.90 -11.15 2.45 -2.25 4.70 -2.90 9.60 -2.90 8.55 0 13 4.70 13 13.80 0 5.50 -0.65 7.70 -3.20 10.55 -2.75 3.10 -4.25 3.65 -10.50 3.65 -5 0 -5.25 -0.05 -7.60 -1.60z"/>
 </g>
 <g fill="#ffffff">
  <path d="M671.60 280.25 c-7.65 -1.40 -14.35 -4.05 -20.45 -8.10 -3.05 -2 -19.30 -17.40 -31.75 -29.95 -6.05 -6.20 -7.40 -7.80 -7.90 -9.60 -1.70 -6.55 4.55 -12.85 11 -11.10 1.90 0.50 3.50 1.85 10.55 8.80 8.65 8.50 9.45 9.05 12 7.70 2.10 -1.15 1.30 -3.10 -9.60 -24 -5.80 -11.15 -12.35 -23.60 -14.50 -27.75 -2.15 -4.10 -5.35 -10.30 -7.20 -13.75 -7.20 -13.65 -8.50 -16.60 -8.45 -19 0.05 -2.90 1.65 -5.85 4.10 -7.50 3.65 -2.45 9.35 -1.40 12.10 2.20 1.15 1.50 5.40 9.50 16.30 30.55 13.05 25.30 17.70 34.05 18.70 35.15 2.30 2.30 6 0.65 6 -2.65 0 -1.30 -2.30 -6.15 -8.50 -18.15 -9.25 -17.80 -9.40 -18.30 -7.55 -22.40 1.75 -3.85 5.85 -5.80 10.30 -5 3.55 0.70 5.30 3.20 14.95 21.80 4.90 9.50 9.40 17.75 9.95 18.40 2.15 2.30 6.35 0.65 6.35 -2.55 0 -0.75 -3.40 -7.85 -7.75 -16.25 -8.15 -15.65 -8.90 -17.80 -7.80 -21.25 0.75 -2.25 3.95 -5.15 6.40 -5.80 2.20 -0.60 4.75 -0.15 7.15 1.25 1.85 1.10 3.35 3.60 10 16.45 9.70 18.75 10.65 20.50 11.60 21.40 1.35 1.15 2.95 1.10 4.60 -0.20 2.35 -1.85 1.90 -3.25 -5.30 -17.05 -6.05 -11.55 -6.65 -12.90 -6.80 -15.65 -0.10 -2.40 0.10 -3.40 1 -5 2.25 -3.85 7.90 -5.55 11.80 -3.55 2.35 1.20 3.80 3.35 8.55 12.60 2.40 4.65 5.85 11.25 7.65 14.70 9.75 18.55 10.15 19.50 11.90 27.30 4.10 18.55 -4.40 40.15 -20.65 52.35 -3.55 2.65 -15 9.10 -21.20 11.90 -8.55 3.85 -19 5.25 -27.55 3.70z"/>
  <path d="M217.70 164 c-10.80 -1.55 -17.75 -11.70 -15.80 -23.10 1.50 -8.70 7.50 -14.65 16 -15.80 3.50 -0.50 8.70 0 12.15 1.15 2.60 0.85 6.35 3.35 6.75 4.50 0.15 0.40 -0.65 1.80 -1.80 3.15 l-2.10 2.45 -2.45 -1.65 c-6.15 -4.10 -14.45 -3.15 -18.10 2.20 -4.75 6.80 -1.80 17.20 5.55 19.65 2.35 0.80 8.40 0.35 10.60 -0.80 0.95 -0.50 2.40 -1.45 3.20 -2.10 l1.45 -1.20 2.25 2.20 c2.55 2.55 2.45 3 -1.15 5.75 -3.90 3 -10.55 4.45 -16.55 3.60z"/>
  <path d="M303 164.20 c-4.35 -0.65 -6.80 -1.45 -9.45 -3.25 -5.30 -3.55 -8.05 -9.15 -8.05 -16.50 0 -7.30 2.65 -12.60 8.20 -16.40 6.95 -4.80 20.30 -3.90 25.90 1.70 l1.40 1.35 -2.05 2.45 c-2.15 2.55 -2.95 2.90 -3.90 1.75 -0.95 -1.15 -4.75 -2.75 -7.45 -3.10 -3.60 -0.45 -7.10 0.50 -9.60 2.70 -2.95 2.50 -4 5 -4 9.60 0 5.75 1.95 9.20 6.60 11.55 3.70 1.90 11.30 0.85 14.55 -2.05 l1.70 -1.45 2.05 2.10 c1.15 1.20 2.10 2.40 2.10 2.70 0 0.75 -3.15 3.45 -5.40 4.60 -3.15 1.60 -9.30 2.70 -12.60 2.25z"/>
  <path d="M456 164.20 c-9.15 -1.40 -14.60 -5.75 -16.80 -13.40 -1.30 -4.70 -0.80 -11.35 1.25 -15.50 3.65 -7.45 11.55 -11.35 20.75 -10.25 6.35 0.80 11.05 4.05 13.35 9.25 1.15 2.60 2.25 9.95 1.75 11.85 l-0.30 1.35 -14.50 0 c-16.15 0 -15.40 -0.20 -13.50 3.45 2.05 4.05 6.35 6.55 11.20 6.55 2.75 0 7.55 -1.60 9.05 -3 0.60 -0.55 1.30 -1 1.55 -1 0.65 0 4.20 3.65 4.20 4.35 0 1.25 -5.65 4.65 -9.25 5.55 -2.50 0.65 -7.10 1.05 -8.75 0.80z m13 -23.70 c0 -1.65 -2.35 -5.85 -3.85 -6.90 -4.50 -3.10 -11.05 -2.75 -14.80 0.80 -1.70 1.60 -3.35 4.60 -3.35 6.10 0 1 0.25 1 11 1 10.75 0 11 -0.05 11 -1z"/>
  <path d="M528 164.20 c-9.15 -1.40 -14.60 -5.75 -16.80 -13.40 -1.30 -4.70 -0.80 -11.35 1.25 -15.50 3.65 -7.45 11.55 -11.35 20.75 -10.25 6.35 0.80 11.05 4.05 13.35 9.25 1.15 2.60 2.25 9.95 1.75 11.85 l-0.30 1.35 -14.50 0 c-16.15 0 -15.40 -0.20 -13.50 3.45 2.05 4.05 6.35 6.55 11.20 6.55 2.75 0 7.55 -1.60 9.05 -3 0.60 -0.55 1.30 -1 1.55 -1 0.65 0 4.20 3.65 4.20 4.35 0 1.25 -5.65 4.65 -9.25 5.55 -2.50 0.65 -7.10 1.05 -8.75 0.80z m13 -23.70 c0 -1.65 -2.35 -5.85 -3.85 -6.90 -4.50 -3.10 -11.05 -2.75 -14.80 0.80 -1.70 1.60 -3.35 4.60 -3.35 6.10 0 1 0.25 1 11 1 10.75 0 11 -0.05 11 -1z"/>
  <path d="M247 136.75 l0 -27.25 4.25 0 4.25 0 0 27.25 0 27.25 -4.25 0 -4.25 0 0 -27.25z"/>
  <path d="M268 145.30 c0 -10.30 0.15 -19.05 0.30 -19.50 0.25 -0.65 1.10 -0.80 4.25 -0.80 l3.95 0 0 19.50 0 19.50 -4.25 0 -4.25 0 0 -18.70z"/>
  <path d="M331 136.75 l0 -27.30 4.15 0.15 4.10 0.15 0 16.15 c0 8.85 0.15 16.10 0.30 16.10 0.15 0 4.05 -3.80 8.65 -8.50 l8.45 -8.50 4.70 0 4.75 0 -7.10 7.50 c-4.20 4.40 -7 7.75 -6.85 8.15 0.15 0.35 3.55 5.70 7.55 11.80 4 6.10 7.30 11.20 7.30 11.35 0 0.10 -2.20 0.20 -4.85 0.20 l-4.90 0 -5.50 -8.75 c-3 -4.80 -5.65 -8.75 -5.85 -8.75 -0.15 0 -1.75 1.45 -3.45 3.25 l-3.15 3.30 0.15 4.45 c0.20 6.60 0.25 6.50 -4.50 6.50 l-3.95 0 0 -27.25z"/>
  <path d="M393.50 136.75 l0 -27.30 4.15 0.15 4.10 0.15 0.25 11.15 c0.25 10.80 0.30 11.10 1.10 9.70 2.75 -4.65 11.55 -6.95 18.60 -4.90 3.50 1.05 6.80 4.25 8.05 7.95 0.80 2.25 0.95 4.40 1.05 15.85 0.05 7.30 -0.05 13.55 -0.15 13.90 -0.20 0.40 -1.50 0.60 -4.15 0.60 l-3.90 0 -0.20 -12.60 c-0.15 -12.20 -0.20 -12.70 -1.30 -14.50 -1.80 -2.90 -4.20 -4.10 -8.15 -4.10 -4.50 0 -7.55 1.80 -9.55 5.65 l-1.40 2.65 0 11.45 0 11.45 -4.25 0 -4.25 0 0 -27.25z"/>
  <path d="M485 145.30 c0 -10.30 0.15 -19.05 0.30 -19.50 0.25 -0.65 1.10 -0.80 4.25 -0.80 l3.95 0 0 3.50 0 3.50 2.70 -2.65 c2.85 -2.85 6 -4.35 9.15 -4.35 l1.70 0 -0.15 3.90 -0.15 3.85 -2.50 0.30 c-4.55 0.60 -7.45 2.50 -9.40 6.15 -1.05 1.90 -1.10 2.80 -1.25 13.45 l-0.15 11.35 -4.25 0 -4.20 0 0 -18.70z"/>
  <path d="M269.90 118.25 c-2.60 -1.45 -3 -5.75 -0.80 -8.10 1.20 -1.25 4.20 -1.55 6 -0.60 1.30 0.70 2.35 3.35 2.05 5.30 -0.50 3.15 -4.40 5 -7.25 3.40z"/>
  <path d="M367.30 83.95 c-9.25 -1.40 -15.60 -8.25 -16.15 -17.55 -0.50 -7.65 1.65 -13.10 6.70 -17.25 6.75 -5.45 19.15 -5.65 26.15 -0.50 5.90 4.40 8.65 12.45 6.95 20.45 -2.25 10.55 -11.95 16.65 -23.65 14.85z m8.85 -7.65 c2.20 -0.90 5.55 -4.75 6.25 -7.20 2 -6.60 -0.60 -13.35 -6.10 -15.90 -4.45 -2.10 -9.45 -1.40 -12.90 1.70 -2.90 2.60 -3.90 5.05 -3.90 9.65 0 5 1.65 8.45 5.20 10.85 2.20 1.45 2.75 1.60 6.10 1.60 2.05 0 4.45 -0.30 5.35 -0.70z"/>
  <path d="M297 58.25 l0 -25.75 4.15 0 4.15 0 12.70 17.05 c7 9.40 13.10 17.65 13.50 18.25 0.40 0.65 0.90 1.20 1.10 1.20 0.25 0 0.40 -8.20 0.40 -18.25 l0 -18.25 3.45 0 c1.90 0 3.80 0.15 4.25 0.30 0.70 0.25 0.80 3 0.80 25.75 l0 25.45 -4.25 0 -4.20 0 -8.65 -11.60 c-4.80 -6.40 -10.90 -14.70 -13.65 -18.40 l-5 -6.70 -0.15 18.35 -0.10 18.35 -4.25 0 -4.25 0 0 -25.75z"/>
  <path d="M408.15 82.40 c-0.30 -0.90 -3.50 -9.60 -7.10 -19.35 -3.60 -9.75 -6.55 -17.80 -6.55 -17.90 0 -0.10 1.90 -0.15 4.20 -0.15 l4.20 0 4.85 14.65 c2.70 8 5.05 14.80 5.25 15.05 0.25 0.20 0.55 -0.15 0.75 -0.75 0.20 -0.65 2 -6.50 4.05 -12.95 2.10 -6.45 4.05 -12.65 4.40 -13.75 l0.65 -2 4.30 -0.15 c4.15 -0.15 4.40 -0.10 4.80 1 0.25 0.65 2.45 7.40 4.85 15 2.45 7.65 4.55 13.90 4.75 13.90 0.15 0 2.40 -6.70 5.05 -14.85 l4.80 -14.90 4.35 -0.15 c4.05 -0.15 4.35 -0.05 4 0.75 -0.15 0.50 -3.40 9.30 -7.10 19.55 l-6.80 18.60 -4.35 0 -4.35 0 -0.80 -2.35 c-2.45 -7.40 -8.80 -25.80 -9 -25.95 -0.10 -0.15 -1.85 4.45 -3.80 10.15 -1.95 5.70 -4.20 12.15 -4.95 14.30 l-1.35 3.85 -4.30 0 -4.30 0 -0.50 -1.60z"/>
 </g>
</svg>