<svg height="292" preserveAspectRatio="xMidYMid meet" viewBox="0 0 750 292" width="750" xmlns="http://www.w3.org/2000/svg"><g><path d="m664 288.5c-7.5-2-14.3-5.15-20.35-9.45-5.15-3.65-38.65-36.05-38.65-37.4 0-.3-.3-.65-.7-.8-1.45-.55-2.95-5.85-2.95-10.6-.05-4.3.85-9.25 1.65-9.25.2 0 .55-.55.7-1.2s.7-1.3 1.25-1.45c.55-.1 1.05-.75 1.15-1.4.1-.8.55-1.25 1.3-1.35.6-.1 1.1-.5 1.1-.9s.35-.7.75-.7.75-.2.75-.45c0-.95 5.25-2.25 9.05-2.25 2.1-.05 3.65-.15 3.45-.3-.55-.35-5-9.35-5-10.1 0-.35-.55-1.3-1.25-2.1-.65-.8-1.35-1.85-1.5-2.35-.2-.55-.6-.95-.95-.95-.4 0-.75-.85-.9-2.1-.15-1.35-1.55-4.55-3.75-8.65-1.95-3.55-5.65-10.65-8.2-15.75l-4.7-9.25v-6c0-7.05.7-9.15 4.45-13.15 3.65-3.9 6-4.8 12.75-5 6.25-.2 8.5.35 12.4 3 3.05 2.05 5.15 5.4 12.15 19.35l2.05 4.15 1.6-1.5c4.75-4.5 14.2-6 20.5-3.2 1.3.55 2.35.85 2.35.6 0-.85 5.6-6 6.55-6 .5 0 .95-.2.95-.45 0-.7 2.75-1.5 6.15-1.85 4.1-.4 8.9.55 12.15 2.35 1.45.8 2.95 1.45 3.3 1.45s1.2-.7 1.9-1.55c2.05-2.55 2.55-2.95 3.5-2.95.5 0 1.3-.35 1.7-.8 2.15-2.1 11.95-1.95 16.55.3 2.95 1.45 6.35 4.5 7.5 6.8.55 1.1 1.15 2.05 1.3 2.2s2.95 5.55 6.25 12c3.25 6.45 6.1 11.85 6.25 12 .95.75 8.65 16.95 9.95 20.9l1.55 4.65-.15 15.6-.15 15.6-1.6 4.35c-3.35 9.2-8.2 16.9-14.85 23.6-6.75 6.75-10.05 9.1-19.1 13.6-3.3 1.65-6.05 3.1-6.2 3.3-.45.6-6.8 3.3-11.1 4.75-4.05 1.3-4.55 1.35-16.65 1.5-11.2.1-12.9.05-16.25-.85zm19.65-9.55c4.85-.7 10.25-2.2 14-3.9 6.2-2.8 17.65-9.25 21.2-11.9 10.65-8 18.35-20.5 20.85-33.7 1.4-7.5.7-14.8-2.25-23.1-.95-2.65-5.75-12.35-9.45-19.1-.75-1.35-3.8-7.2-6.75-13-2.95-5.75-5.95-11.25-6.65-12.15-1.5-2.05-3.9-3.6-5.6-3.6-3.55.05-7.75 4.6-7.3 7.9.15.9 3.2 7.25 6.75 14.1 6.4 12.25 6.55 12.55 6.55 15.7 0 2.9-.15 3.35-1.3 4.25-1.75 1.35-6.1 1.45-7.6.2-.95-.9-1.9-2.65-11.6-21.4-7.05-13.65-8.1-15.35-10.4-16.65-3.1-1.75-5.35-1.25-8.2 1.75-1.85 1.95-2.45 3.75-1.9 5.65.25.85 3.85 8.1 8 16.05 7.1 13.7 7.5 14.6 7.5 17.3 0 4.05-1.1 5.15-5.25 5.15-2.55 0-3.25-.2-4.1-1.1-.55-.65-5.05-8.9-9.95-18.4-9.35-18-11.35-21-14.55-21.7-2.9-.65-6.55 1.85-7.95 5.45l-.8 2.2 8.55 16.55c8.5 16.35 8.55 16.5 8.55 19.75 0 4.25-.95 5.25-5.05 5.25-2.3 0-3.05-.2-3.95-1.1-1-1.1-5.65-9.85-18.7-35.15-10.9-21.05-15.15-29.05-16.3-30.55-1.3-1.7-4-3.3-5.65-3.35-3.2-.05-7.35 4.05-7.35 7.3 0 .75 1.55 4.3 3.45 7.95 7.3 14.2 10.85 21.05 16.05 30.9 3 5.65 8.95 17 13.2 25.25 7.65 14.65 7.8 15.05 7.8 18.1 0 3.7-.5 4.15-4.8 4.15h-2.85l-8.05-7.95c-4.4-4.35-8.55-8.2-9.15-8.5-2.5-1.3-6 .05-8.2 3.1-1.6 2.2-1.85 4.2-.75 6.25.7 1.3 18.45 19.1 30.3 30.4 9.8 9.35 17.3 13.3 29.1 15.45 4.65.85 6.15.85 10.55.2z"/><path d="m560.55 182.5c-.65-.3-1.5-.9-1.85-1.4-.8-1-.9-5.75-.2-7.1.5-1 3.65-2.75 18.6-10.45 8.7-4.5 10.05-5.05 12.35-5.05 3.75 0 5.05 1.4 5.05 5.4 0 2.4-.2 3.1-1.1 3.95-.65.6-7.05 4.15-14.3 7.95-13.45 7-15.8 7.85-18.55 6.7z"/><path d="m570.6 145.8c-8.05-2.55-15.05-5.05-15.6-5.55-.8-.7-1-1.55-1-4.1 0-3.65.85-4.9 3.7-5.45 2.2-.4 2.25-.35 14.05 3.35 22 7 20.95 6.4 20.65 11.1-.25 3.7-1.4 4.9-4.75 5.15-1.95.2-5-.65-17.05-4.5z"/><path d="m632.05 143.2c-1.5-1.9-1.45-6.2.1-7.85.6-.7 4.7-3.1 9.1-5.35s10.25-5.35 13.05-6.8c4.5-2.4 5.4-2.7 8.1-2.7s3.15.15 4.05 1.3c1.25 1.6 1.45 5.9.3 7.55-.4.55-6.8 4.2-14.25 8.1-12.95 6.75-13.6 7.05-16.45 7.05-2.6 0-3.1-.15-4-1.3z"/><path d="m597.9 134.9c-.45-.35-2.1-3.1-3.65-6.15-12.1-23.15-11.25-21.35-11.25-24.65 0-2.7.15-3.15 1.3-4.05 1.45-1.15 5.5-1.45 7.2-.55.5.25 2.3 3.15 4.05 6.35 11.5 21.75 11.45 21.6 11.45 24.75 0 3.8-1.2 4.9-5.3 4.9-1.65 0-3.35-.3-3.8-.6z"/><path d="m618 131c-1.25-1.25-1.7-3.05-1.35-5.35.65-4 9-29.95 10-31 .85-.95 1.55-1.15 4.1-1.15 4.1 0 5.25 1.1 5.25 5.05 0 3.7-8.55 31.25-10.1 32.6-1.5 1.25-6.55 1.2-7.9-.15z"/></g><g fill="#333"><path d="m0 201.25c0-89.3 0-90.75.95-90.75.8 0 1.05.5 1.3 2.9 1.45 13.25 6.85 28 14.45 39.75 14.55 22.5 39.1 37.9 65.8 41.35 3.05.4 77 .5 262 .4l257.75-.15 6-1.35c7.2-1.65 7.25-1.65 7.25-.4 0 .55.25 1 .55 1 .25 0 .35.25.2.5-.15.3-.05.5.25.5s.4.25.25.5c-.15.3-.05.5.25.5s.4.2.25.5c-.15.25-.1.5.1.5.6 0 2.2 2.8 1.8 3.2-.15.15-.05.3.3.3s.45.25.3.5c-.15.3-.05.5.25.5s.4.2.25.5c-.15.25-.05.5.25.5s.4.2.25.5-.05.5.25.5.4.25.25.5c-.15.3-.05.5.25.5s.4.25.25.5c-.15.3-.05.5.25.5s.4.2.25.5-.05.5.25.5.4.2.25.5-.05.5.25.5.4.2.25.5c-.15.25-.05.5.25.5s.4.25.25.5c-.15.3-.05.5.2.5.3 0 .55.35.55.75s.25.75.55.75c.25 0 .35.2.2.5s-.05.5.25.5.4.2.25.5c-.15.25 0 .5.35.55.35 0 .2.2-.35.4-.55.25-1.2.3-1.5.15-.25-.2-1.1-.25-1.85-.15-.7.05-1.45-.1-1.65-.4-.4-.7-2.25-.7-2.25 0 0 .35-.45.45-1.2.25-1.4-.35-5.95 1.1-5.5 1.75.15.25-.2.45-.75.45-.6 0-1.05.3-1.05.7s-.45.8-1 .9c-.6.1-1 .25-.95.4.25.6-1.15 2.5-1.85 2.5-.4 0-.6.25-.45.5.15.3.1.5-.2.5s-.4.35-.25.75c.2.45 0 .75-.5.75s-.65.3-.5.75c.2.4.05.75-.25.75s-.4.35-.25.75c.2.4.05.75-.2.75-.35 0-.4.7-.25 1.8.2 1.25.1 1.95-.4 2.25-.6.4-.6.5 0 .9.45.3.6.95.4 2-.2.95-.1 1.55.2 1.55s.45.35.25.75c-.15.4-.05.75.25.75s.45.35.25.75c-.15.4-.05.75.25.75s.35.25.2.5c-.15.3-.05.5.25.5s.4.25.25.5c-.15.3.05.65.45.8.45.15.8.55.8.85 0 1.35 33.5 33.75 38.65 37.4 6.55 4.65 15.45 8.55 22.75 9.95 1.9.4 6.45.5 13.15.35 8.75-.2 10.7-.35 13.7-1.35 5.2-1.65 11.8-4.55 11.45-5.05-.15-.25.1-.45.55-.45 2.2 0 19-9.65 18.45-10.6-.15-.2.1-.4.5-.4.95 0 8.4-6.95 8.05-7.5-.15-.25.15-.55.6-.7.95-.35 3.35-3.3 3.35-4.1 0-.25.4-.8.9-1.2.45-.4.9-1.1 1-1.5s.55-1.05 1.05-1.45c.5-.35.8-.95.65-1.35s-.05-.7.2-.7c1.2 0 6.5-12.95 6.65-16.3.05-.85.5-1.95.95-2.45.85-.9.9.5.9 29.15v30.1h-375-375v-90.75z"/><path d="m748.5 209.15c-1.05-4.9-2.95-9.6-7.1-17.9-2.25-4.4-4.2-8.1-4.35-8.25s-3-5.55-6.25-12c-3.3-6.45-6.1-11.85-6.25-12-.2-.15-.55-.8-.85-1.5-1.25-2.75-6.25-7.3-8.6-7.75-.45-.1-.9-.2-.95-.25-.1-.1-.35-.15-.6-.2-.25 0-.6-.2-.8-.4s-.65-.2-1.05-.05-1.4 0-2.25-.35c-.95-.4-1.65-.5-1.85-.2s-1.25.5-2.4.5c-1.3 0-2.35.3-2.9.85-.5.45-1.3.85-1.8.85-.95 0-1.45.4-3.5 2.95-.7.85-1.55 1.55-1.9 1.55s-.55.2-.35.45c.15.3-.15.7-.6 1-.7.35-1.2.2-2.15-.7-2.5-2.35-6-3.9-8.6-3.8-.75.05-1.45-.15-1.65-.45-.4-.65-2.75-.65-2.75.05 0 .3-.45.4-1 .2-1.15-.35-4.5.6-4.5 1.3 0 .25-.45.45-1 .45-.5 0-1.95 1-3.15 2.25-1.25 1.25-2.15 2.25-2.05 2.25.3 0-1.2 2.9-1.7 3.15-.2.15-.75-.05-1.25-.4-.9-.65-.9-.75-.05-2.6.5-1.05 1.95-3.55 3.25-5.5 8.1-12.45 12.95-26.75 14.45-42.4 1.4-14.65-2.1-31.9-9.4-46.35-12.25-24.25-33.55-41.6-59.6-48.65-10.85-2.9 5.6-2.75-271.1-2.75-181.9 0-255.3.15-259 .55-13.1 1.4-28.6 7.2-40.25 15.05-12.9 8.65-23.35 20.4-30.7 34.6-5.6 10.8-8.1 19-9.7 31.95-.25 1.9-.5 2.35-1.3 2.35-.95 0-.95-.85-.95-48.5v-48.5h375 375v106c0 58.3-.2 106-.4 106-.25 0-.75-1.3-1.1-2.85z"/></g><g fill="#52d2c4"><path d="m334.85 196.5-255.1-.25-4.75-1.15c-10.1-2.4-16.45-4.55-23.3-8-22.5-11.3-39.25-30.7-46.95-54.35-1.95-5.95-2.65-9.05-4.2-18.8-.65-4.05-.7-16.75-.1-19.6.25-1.15.75-3.95 1.05-6.25 2.2-16.2 11.2-34.5 23.35-47.55 4.45-4.8 10.95-10.4 16.3-13.95 11.65-7.85 27.15-13.65 40.25-15.05 3.7-.4 77.5-.55 260.5-.55 278.35 0 261.7-.15 272.6 2.75 26.05 7.05 47.35 24.4 59.6 48.65 4.55 8.95 7.1 16.95 8.65 27.1 3.55 23.65-1.45 45.85-15.05 66.8l-2.95 4.55-2.95-1.4c-3.8-1.8-6.65-2.2-10.15-1.5-3.95.75-6.85 2.4-9.5 5.2-1.25 1.35-2.45 2.25-2.65 2-.2-.2-2.5-4.6-5.15-9.75-5.65-11.1-7.15-13.4-10-15.3-3.65-2.5-6.3-3.25-10.95-3-5.05.2-7.9 1.5-11.2 5-3.5 3.75-4.45 6.3-4.45 11.65l.05 4.5 4.65 9.25c2.6 5.1 6.1 11.85 7.75 15 4.1 7.6 5.45 10.5 5.15 10.8-.85.85-12.4 2.8-18.5 3.1-3.8.2-121.7.25-262 .1zm243.9-22.8c6.6-3.45 12.5-6.75 13.15-7.35s1.1-1.6 1.1-2.45c0-1.75-2-3.9-3.55-3.9-.6 0-5.5 2.25-10.85 5.05-19.05 9.85-19.1 9.9-19.1 12.55.05 2.7 2.75 4.2 5.5 3.05.95-.35 7.15-3.5 13.75-6.95zm-350.95-12.2c1.55-.5 3.75-1.7 4.95-2.6 2.1-1.6 2.15-1.7 1.3-2.55s-.95-.85-3.35.5c-2.15 1.2-3.1 1.4-7.55 1.55-5.85.25-7.7-.2-10.55-2.7-2.75-2.35-4.1-5.95-4.1-11.1 0-2.1.2-4.6.5-5.55.75-2.7 2.95-5.5 5.45-6.95 2.1-1.25 2.75-1.35 7.55-1.35 4.65 0 5.55.15 7.85 1.3l2.65 1.3 1.05-1.15 1.05-1.1-1.95-1.3c-3.4-2.25-6.05-2.95-11.15-3-4.15-.05-5.1.1-7.5 1.25-5.6 2.7-9.3 7.45-10.5 13.7-.95 4.95.85 10.95 4.45 14.9 4.8 5.3 13 7.3 19.85 4.85zm26.2-24.75v-25.75h-2.75-2.75v25.75 25.75h2.75 2.75zm21 7.75v-18h-2.45c-1.75 0-2.55.2-2.75.8-.15.45-.3 8.55-.3 18v17.2h2.75 2.75zm37.7 16.6c1.4-.65 3.25-1.7 4.2-2.4 1.55-1.2 1.6-1.35.9-2.15-.75-.85-.95-.8-3.4.4-2.2 1.1-3.45 1.3-7.95 1.45-4.55.2-5.55.05-7.25-.8-2.75-1.4-4.6-3.25-5.7-5.7-1.35-3-1.4-11.75-.05-14.7 1.25-2.8 4.55-5.5 7.65-6.25 3.8-.9 9.75-.35 12.85 1.2l2.55 1.3.75-1.05c.9-1.35.4-2.05-2.45-3.5-15-7.65-31.55 5-27 20.65 1.6 5.5 6.35 10.45 11.75 12.25 3.25 1.05 10.05.7 13.15-.7zm25.05.3c.2-.55.2-3 .05-5.35l-.3-4.3 3.3-3.35c2.9-3 3.55-3.4 5.15-3.4 1.8.05 1.85.05 7.3 8.75l5.5 8.75h2.4c1.3 0 2.35-.1 2.35-.2 0-.15-2.9-4.7-6.5-10.2-8.4-12.85-8.35-11.85-1-19.6l5.45-5.75-1.65-.15c-1.5-.15-2.2.45-10.05 8.4-7.95 8-8.55 8.5-10.3 8.5h-1.9l.1-16.1.1-16.15-2.6-.15-2.65-.15v25.75 25.8h2.45c2.1 0 2.55-.15 2.8-1.1zm62.75-10.35v-11.45l1.4-2.65c1-1.95 2.05-3.1 3.85-4.2 2.25-1.4 2.75-1.5 7.2-1.5 4.15 0 5.05.15 6.65 1.15 1 .65 2.35 2 3 3 1.1 1.8 1.15 2.3 1.3 14.5l.2 12.6h2.4 2.4l.35-5.85c.5-8 0-18.25-1.05-21.5-1.65-5.05-6.7-8.65-12.2-8.65-4.2 0-9.65 2.7-11.4 5.6-.65 1.1-1.2 1.4-2.45 1.4h-1.65l-.1-11.1-.15-11.15-2.6-.15-2.65-.15v25.75 25.8h2.75 2.75zm65.65 9.8c1.6-.7 3.45-1.75 4.1-2.25 1.05-.85 1.1-1.05.45-1.7s-1.05-.6-3.35.55c-3.15 1.5-10.05 2.05-13.6 1.05-4.5-1.25-8.25-5.9-8.25-10.25v-2.25h14.45c12.75 0 14.5-.1 14.75-.8.45-1.15-.6-7.1-1.7-9.55-1.35-3-4.65-6.35-7.65-7.7-3.9-1.75-10.5-1.7-14.45.15-10.45 4.9-13.95 17.3-7.6 26.75 2 2.9 5.9 5.85 9.25 6.95 3.55 1.15 10.05.7 13.6-.95zm25.95-9.7c.15-10.65.2-11.55 1.25-13.45 1.95-3.65 4.85-5.55 9.4-6.15l2.5-.3.15-2.4c.15-2.35.1-2.4-1-2.1-3.05.95-4.6 1.9-6.9 4.25-1.85 1.9-2.8 2.5-3.95 2.5h-1.55v-3.5-3.5h-2.45c-1.75 0-2.55.2-2.75.8-.15.45-.3 8.55-.3 18v17.2h2.7 2.75zm46.05 9.7c1.6-.7 3.45-1.75 4.1-2.25 1.05-.85 1.1-1.05.45-1.7s-1.05-.6-3.35.55c-3.15 1.5-10.05 2.05-13.6 1.05-4.5-1.25-8.25-5.9-8.25-10.25v-2.25h14.45c12.75 0 14.5-.1 14.75-.8.45-1.15-.6-7.1-1.7-9.55-1.35-3-4.65-6.35-7.65-7.7-3.9-1.75-10.5-1.7-14.45.15-10.45 4.9-13.95 17.3-7.6 26.75 2 2.9 5.9 5.85 9.25 6.95 3.55 1.15 10.05.7 13.6-.95zm51.45-13.3c1.4-1.3 1.65-3.65.45-4.85-1-1.1-2.85-1.75-19.8-7.15-11.9-3.75-12.05-3.75-13.75-2.05-1.3 1.3-1.3 4.05 0 5.25 1.3 1.15 29.95 10.3 31.25 9.9.55-.15 1.4-.65 1.85-1.1zm61.4-11.6c7.45-3.9 13.85-7.55 14.25-8.1 1.05-1.5.95-3-.3-4.55-1.55-1.95-3.35-1.7-9.15 1.4-2.8 1.45-8.65 4.55-13.05 6.8-8.25 4.25-10.25 5.75-10.25 7.7 0 1.85 1.85 3.8 3.55 3.8.9 0 6.5-2.65 14.95-7.05zm-46.65-3.05c2.2-2.05 2.4-1.6-10.3-25.55-3.8-7.15-5.25-8.15-8.25-5.8-2.1 1.65-1.75 3.25 2.9 12.15 2.3 4.45 5.45 10.55 7.05 13.55 1.55 3.05 3.2 5.8 3.65 6.15 1.25.95 3.65.7 4.95-.5zm20.05-3.25c.75-.65 2.45-5.35 5.55-15.35 2.5-8 4.55-15.05 4.55-15.75 0-3.1-4.25-4.75-6.35-2.4-.9 1-2.9 7-8.2 24.5-1.8 5.95-1.9 6.5-1.2 7.85.4.75 1 1.5 1.35 1.65 1.35.55 3.35.3 4.3-.5zm-349.9-13.9c1-1.05 1.1-1.5.7-2.6-.25-.75-1.05-1.7-1.8-2.1-1.25-.75-1.45-.7-2.6.4-1.55 1.45-1.65 3.2-.3 4.55s2.6 1.25 4-.25zm29.5-51.5v-18.25h1.7c1.6 0 2 .4 6.6 6.65 2.7 3.6 8.8 11.85 13.6 18.25l8.65 11.6h2.7 2.75v-23.95c0-26.65.3-24.55-3.55-24.55h-1.95v18.25 18.25h-1.9c-1.4 0-2.05-.3-2.6-1.2-.4-.6-6.5-8.85-13.5-18.25l-12.7-17.05h-2.65-2.65v24.25 24.25h2.75 2.75zm75.15 16.55c5.55-2.7 9.25-7.6 10.4-13.85.75-4.15-.3-8.55-2.95-12.4-7.9-11.6-26-10.3-32.2 2.35-1.5 3-1.65 3.75-1.65 7.6 0 4.95 1.35 8.45 4.55 11.95 3.85 4.3 8.4 6.1 14.75 5.9 3.45-.1 4.8-.4 7.1-1.55zm37.95-2.15c.75-2.15 3-8.6 4.95-14.3l3.6-10.4 1.7.15 1.7.15 4 11.75c2.2 6.45 4.4 12.8 4.8 14.15l.8 2.35h2.85 2.85l5.15-14.1c2.8-7.8 5.75-15.9 6.55-18.05l1.45-3.9-2.3.15-2.3.15-4.8 14.9-4.8 14.85h-1.75-1.8l-4.45-13.9c-2.4-7.6-4.6-14.35-4.85-15-.4-1.05-.7-1.15-3.3-1-2.8.15-2.8.15-3.45 2.15-.35 1.1-2.3 7.3-4.4 13.75-2.05 6.45-3.85 12.25-4.05 12.9-.3.95-.6 1.15-2.15 1l-1.75-.15-5-14.85-4.95-14.9h-2.15-2.2l.95 2.65c.5 1.4 3.2 8.8 6 16.35s5.35 14.5 5.65 15.4c.5 1.55.6 1.6 3.3 1.6h2.8z"/><path d="m445.5 140.5c0-4.2 2.65-8.05 6.6-9.7 2.25-.95 8.95-1.05 11.45-.2 4.25 1.4 6.95 5.3 6.95 9.9v2.5h-12.5-12.5z"/><path d="m517.5 140.5c0-4.2 2.65-8.05 6.6-9.7 2.25-.95 8.95-1.05 11.45-.2 4.25 1.4 6.95 5.3 6.95 9.9v2.5h-12.5-12.5z"/><path d="m363.2 76.9c-1.75-1.2-2.85-2.45-3.8-4.35-1.25-2.45-1.4-3.25-1.4-8 0-6.25.75-8.3 3.9-11.15 2.45-2.25 4.7-2.9 9.6-2.9 8.55 0 13 4.7 13 13.8 0 5.5-.65 7.7-3.2 10.55-2.75 3.1-4.25 3.65-10.5 3.65-5 0-5.25-.05-7.6-1.6z"/></g><g fill="#fff"><path d="m671.6 280.25c-7.65-1.4-14.35-4.05-20.45-8.1-3.05-2-19.3-17.4-31.75-29.95-6.05-6.2-7.4-7.8-7.9-9.6-1.7-6.55 4.55-12.85 11-11.1 1.9.5 3.5 1.85 10.55 8.8 8.65 8.5 9.45 9.05 12 7.7 2.1-1.15 1.3-3.1-9.6-24-5.8-11.15-12.35-23.6-14.5-27.75-2.15-4.1-5.35-10.3-7.2-13.75-7.2-13.65-8.5-16.6-8.45-19 .05-2.9 1.65-5.85 4.1-7.5 3.65-2.45 9.35-1.4 12.1 2.2 1.15 1.5 5.4 9.5 16.3 30.55 13.05 25.3 17.7 34.05 18.7 35.15 2.3 2.3 6 .65 6-2.65 0-1.3-2.3-6.15-8.5-18.15-9.25-17.8-9.4-18.3-7.55-22.4 1.75-3.85 5.85-5.8 10.3-5 3.55.7 5.3 3.2 14.95 21.8 4.9 9.5 9.4 17.75 9.95 18.4 2.15 2.3 6.35.65 6.35-2.55 0-.75-3.4-7.85-7.75-16.25-8.15-15.65-8.9-17.8-7.8-21.25.75-2.25 3.95-5.15 6.4-5.8 2.2-.6 4.75-.15 7.15 1.25 1.85 1.1 3.35 3.6 10 16.45 9.7 18.75 10.65 20.5 11.6 21.4 1.35 1.15 2.95 1.1 4.6-.2 2.35-1.85 1.9-3.25-5.3-17.05-6.05-11.55-6.65-12.9-6.8-15.65-.1-2.4.1-3.4 1-5 2.25-3.85 7.9-5.55 11.8-3.55 2.35 1.2 3.8 3.35 8.55 12.6 2.4 4.65 5.85 11.25 7.65 14.7 9.75 18.55 10.15 19.5 11.9 27.3 4.1 18.55-4.4 40.15-20.65 52.35-3.55 2.65-15 9.1-21.2 11.9-8.55 3.85-19 5.25-27.55 3.7z"/><path d="m217.7 164c-10.8-1.55-17.75-11.7-15.8-23.1 1.5-8.7 7.5-14.65 16-15.8 3.5-.5 8.7 0 12.15 1.15 2.6.85 6.35 3.35 6.75 4.5.15.4-.65 1.8-1.8 3.15l-2.1 2.45-2.45-1.65c-6.15-4.1-14.45-3.15-18.1 2.2-4.75 6.8-1.8 17.2 5.55 19.65 2.35.8 8.4.35 10.6-.8.95-.5 2.4-1.45 3.2-2.1l1.45-1.2 2.25 2.2c2.55 2.55 2.45 3-1.15 5.75-3.9 3-10.55 4.45-16.55 3.6z"/><path d="m303 164.2c-4.35-.65-6.8-1.45-9.45-3.25-5.3-3.55-8.05-9.15-8.05-16.5 0-7.3 2.65-12.6 8.2-16.4 6.95-4.8 20.3-3.9 25.9 1.7l1.4 1.35-2.05 2.45c-2.15 2.55-2.95 2.9-3.9 1.75s-4.75-2.75-7.45-3.1c-3.6-.45-7.1.5-9.6 2.7-2.95 2.5-4 5-4 9.6 0 5.75 1.95 9.2 6.6 11.55 3.7 1.9 11.3.85 14.55-2.05l1.7-1.45 2.05 2.1c1.15 1.2 2.1 2.4 2.1 2.7 0 .75-3.15 3.45-5.4 4.6-3.15 1.6-9.3 2.7-12.6 2.25z"/><path d="m456 164.2c-9.15-1.4-14.6-5.75-16.8-13.4-1.3-4.7-.8-11.35 1.25-15.5 3.65-7.45 11.55-11.35 20.75-10.25 6.35.8 11.05 4.05 13.35 9.25 1.15 2.6 2.25 9.95 1.75 11.85l-.3 1.35h-14.5c-16.15 0-15.4-.2-13.5 3.45 2.05 4.05 6.35 6.55 11.2 6.55 2.75 0 7.55-1.6 9.05-3 .6-.55 1.3-1 1.55-1 .65 0 4.2 3.65 4.2 4.35 0 1.25-5.65 4.65-9.25 5.55-2.5.65-7.1 1.05-8.75.8zm13-23.7c0-1.65-2.35-5.85-3.85-6.9-4.5-3.1-11.05-2.75-14.8.8-1.7 1.6-3.35 4.6-3.35 6.1 0 1 .25 1 11 1s11-.05 11-1z"/><path d="m528 164.2c-9.15-1.4-14.6-5.75-16.8-13.4-1.3-4.7-.8-11.35 1.25-15.5 3.65-7.45 11.55-11.35 20.75-10.25 6.35.8 11.05 4.05 13.35 9.25 1.15 2.6 2.25 9.95 1.75 11.85l-.3 1.35h-14.5c-16.15 0-15.4-.2-13.5 3.45 2.05 4.05 6.35 6.55 11.2 6.55 2.75 0 7.55-1.6 9.05-3 .6-.55 1.3-1 1.55-1 .65 0 4.2 3.65 4.2 4.35 0 1.25-5.65 4.65-9.25 5.55-2.5.65-7.1 1.05-8.75.8zm13-23.7c0-1.65-2.35-5.85-3.85-6.9-4.5-3.1-11.05-2.75-14.8.8-1.7 1.6-3.35 4.6-3.35 6.1 0 1 .25 1 11 1s11-.05 11-1z"/><path d="m247 136.75v-27.25h4.25 4.25v27.25 27.25h-4.25-4.25z"/><path d="m268 145.3c0-10.3.15-19.05.3-19.5.25-.65 1.1-.8 4.25-.8h3.95v19.5 19.5h-4.25-4.25z"/><path d="m331 136.75v-27.3l4.15.15 4.1.15v16.15c0 8.85.15 16.1.3 16.1s4.05-3.8 8.65-8.5l8.45-8.5h4.7 4.75l-7.1 7.5c-4.2 4.4-7 7.75-6.85 8.15.15.35 3.55 5.7 7.55 11.8s7.3 11.2 7.3 11.35c0 .1-2.2.2-4.85.2h-4.9l-5.5-8.75c-3-4.8-5.65-8.75-5.85-8.75-.15 0-1.75 1.45-3.45 3.25l-3.15 3.3.15 4.45c.2 6.6.25 6.5-4.5 6.5h-3.95z"/><path d="m393.5 136.75v-27.3l4.15.15 4.1.15.25 11.15c.25 10.8.3 11.1 1.1 9.7 2.75-4.65 11.55-6.95 18.6-4.9 3.5 1.05 6.8 4.25 8.05 7.95.8 2.25.95 4.4 1.05 15.85.05 7.3-.05 13.55-.15 13.9-.2.4-1.5.6-4.15.6h-3.9l-.2-12.6c-.15-12.2-.2-12.7-1.3-14.5-1.8-2.9-4.2-4.1-8.15-4.1-4.5 0-7.55 1.8-9.55 5.65l-1.4 2.65v11.45 11.45h-4.25-4.25z"/><path d="m485 145.3c0-10.3.15-19.05.3-19.5.25-.65 1.1-.8 4.25-.8h3.95v3.5 3.5l2.7-2.65c2.85-2.85 6-4.35 9.15-4.35h1.7l-.15 3.9-.15 3.85-2.5.3c-4.55.6-7.45 2.5-9.4 6.15-1.05 1.9-1.1 2.8-1.25 13.45l-.15 11.35h-4.25-4.2z"/><path d="m269.9 118.25c-2.6-1.45-3-5.75-.8-8.1 1.2-1.25 4.2-1.55 6-.6 1.3.7 2.35 3.35 2.05 5.3-.5 3.15-4.4 5-7.25 3.4z"/><path d="m367.3 83.95c-9.25-1.4-15.6-8.25-16.15-17.55-.5-7.65 1.65-13.1 6.7-17.25 6.75-5.45 19.15-5.65 26.15-.5 5.9 4.4 8.65 12.45 6.95 20.45-2.25 10.55-11.95 16.65-23.65 14.85zm8.85-7.65c2.2-.9 5.55-4.75 6.25-7.2 2-6.6-.6-13.35-6.1-15.9-4.45-2.1-9.45-1.4-12.9 1.7-2.9 2.6-3.9 5.05-3.9 9.65 0 5 1.65 8.45 5.2 10.85 2.2 1.45 2.75 1.6 6.1 1.6 2.05 0 4.45-.3 5.35-.7z"/><path d="m297 58.25v-25.75h4.15 4.15l12.7 17.05c7 9.4 13.1 17.65 13.5 18.25.4.65.9 1.2 1.1 1.2.25 0 .4-8.2.4-18.25v-18.25h3.45c1.9 0 3.8.15 4.25.3.7.25.8 3 .8 25.75v25.45h-4.25-4.2l-8.65-11.6c-4.8-6.4-10.9-14.7-13.65-18.4l-5-6.7-.15 18.35-.1 18.35h-4.25-4.25z"/><path d="m408.15 82.4c-.3-.9-3.5-9.6-7.1-19.35s-6.55-17.8-6.55-17.9 1.9-.15 4.2-.15h4.2l4.85 14.65c2.7 8 5.05 14.8 5.25 15.05.25.2.55-.15.75-.75.2-.65 2-6.5 4.05-12.95 2.1-6.45 4.05-12.65 4.4-13.75l.65-2 4.3-.15c4.15-.15 4.4-.1 4.8 1 .25.65 2.45 7.4 4.85 15 2.45 7.65 4.55 13.9 4.75 13.9.15 0 2.4-6.7 5.05-14.85l4.8-14.9 4.35-.15c4.05-.15 4.35-.05 4 .75-.15.5-3.4 9.3-7.1 19.55l-6.8 18.6h-4.35-4.35l-.8-2.35c-2.45-7.4-8.8-25.8-9-25.95-.1-.15-1.85 4.45-3.8 10.15s-4.2 12.15-4.95 14.3l-1.35 3.85h-4.3-4.3z"/></g></svg>