<?xml version="1.0" encoding="utf-8"?>
<!DOCTYPE svg PUBLIC "-//W3C//DTD SVG 20010904//EN" "http://www.w3.org/TR/2001/REC-SVG-20010904/DTD/svg10.dtd">
<svg version="1.0" xmlns="http://www.w3.org/2000/svg" width="600px" height="100px" viewBox="0 0 600 100" preserveAspectRatio="xMidYMid meet">
 <g fill="#000000">
  <path d="M23.3 97 c-16 -3.3 -26.2 -19.4 -21.9 -34.3 2.2 -7.6 6.9 -13.4 13.8 -17.1 5.4 -2.9 5.8 -3.4 5.8 -6.7 0 -4.8 5.4 -15.3 9.4 -18.4 5.7 -4.4 11.7 -6.5 18.5 -6.5 5.9 0 6.7 -0.3 10.4 -3.6 12.9 -11.7 31.6 -11.6 44.5 0.1 5.3 4.7 9 12.7 9.9 20.7 0.6 6 0.9 6.5 6.3 11.8 7.5 7.3 10.4 14.5 9.8 24.5 -0.6 8.9 -3.9 15.6 -10.8 21.8 -8.9 8 -9.2 8.1 -53 8.3 -21.2 0.1 -40.4 -0.1 -42.7 -0.6z m64.8 -17.1 c1.2 -1.2 3.3 -4.6 4.8 -7.8 2.2 -4.7 2.6 -7 2.6 -14.1 0 -7.7 -0.4 -9.3 -3.3 -15.3 -3.5 -7 -6 -9.2 -9.2 -8.2 -3.3 1 -3.2 3.9 0.5 10.9 4.9 9.4 4.9 15.8 0 25.2 -4 7.7 -4 7.7 -1.9 9.8 2.1 2.2 4 2 6.5 -0.5z m-27.1 -21.9 c0 -20.8 -0.3 -21.4 -8.4 -14.1 -5.5 5 -7.2 5.8 -13.1 6.3 l-3 0.3 0 7.5 0 7.5 5.2 0.5 c4.5 0.5 5.8 1.2 10.7 5.9 8.2 7.7 8.6 7.1 8.6 -13.9z m13.1 14 c5.4 -3 7.7 -15.6 4 -22.9 -2.6 -4.9 -4.5 -6.5 -7.5 -5.7 -3.4 0.8 -4 3.3 -1.6 7.3 2.5 4.3 2.6 9.9 0 14.1 -2.4 3.9 -2.5 4.6 -0.4 6.6 1.8 1.9 2.8 2 5.5 0.6z"/>
  <path d="M294.8 94.1 c-4.5 -1.5 -8.4 -4.8 -10.4 -8.8 -1.6 -3.2 -2 -7 -2.4 -25.3 l-0.5 -21.5 -5.2 -0.3 -5.3 -0.3 0 -4 0 -3.9 10.9 0 10.9 0 0.4 23.3 c0.3 20.5 0.5 23.6 2.1 26.1 4.9 7.4 17.4 6.9 24.9 -1.1 5.6 -5.8 6.8 -10.4 6.8 -26 l0 -14.3 -5.5 0 -5.5 0 0 -4 0 -4 11.5 0 11.5 0 0.2 27.3 0.3 27.2 4.8 0.3 4.7 0.3 0 4 0 3.9 -8.8 0 c-10.7 0 -12.2 -1 -12.2 -8.6 l-0.1 -4.9 -2.2 3 c-5.9 8 -12.5 11.7 -21.7 12.1 -3.6 0.2 -7.7 0 -9.2 -0.5z"/>
  <path d="M387.3 93.4 c-2.4 -0.9 -5.9 -3.4 -8.2 -5.9 l-4.1 -4.5 0 5 0 5 -5.5 0 -5.5 0 0 -40 0 -40 -5.5 0 -5.5 0 0 -4.5 0 -4.5 11.5 0 11.6 0 -0.3 17.5 c-0.2 9.6 -0.1 17.5 0.1 17.5 0.2 0 1.9 -1.5 3.6 -3.3 5 -5.2 9.9 -7.1 18 -7.1 11 0 18.9 5 24 15.1 2.8 5.4 3 6.5 3 17.3 0 10.3 -0.3 12.1 -2.6 17.1 -6.4 13.5 -21.1 20 -34.6 15.3z m15.8 -10.7 c6.5 -3.5 10.1 -10.9 10.1 -20.9 0 -4.6 -0.6 -8.8 -1.6 -11.3 -3.9 -9.3 -12.6 -14 -21.5 -11.6 -9.2 2.5 -14.4 10.7 -14.4 22.8 0 18 13.4 28.3 27.4 21z"/>
  <path d="M448.6 93.5 c-14.7 -5.2 -17.1 -24.2 -3.9 -32.5 5.7 -3.6 15.9 -6 25.7 -6 l7.6 0 0 -3.5 c0 -5.4 -2.4 -10.1 -6.1 -12.1 -4.5 -2.3 -15.8 -1.5 -21.7 1.5 -4.8 2.5 -5.6 2.3 -7.8 -2.1 -1.5 -3 -1.5 -3.2 0.2 -4.5 4.4 -3.2 13 -5.6 20.9 -5.7 12.4 -0.1 19.2 3.2 23.8 11.8 1.9 3.7 2.2 6.1 2.7 24.1 l0.5 20 4.3 0.3 c4.2 0.3 4.2 0.3 4.2 4.3 l0 3.9 -8.3 0 c-10 0 -11.7 -1.2 -11.7 -8.1 l0 -4.4 -1.9 3.1 c-5.8 9.5 -17.8 13.7 -28.5 9.9z m18.2 -8.9 c6.5 -3.4 11.2 -11.2 11.2 -18.7 l0 -4.2 -8.7 0.5 c-14.6 0.9 -21.3 5 -21.3 13 0 3.2 0.7 4.7 3.4 7.4 2.9 2.9 4.1 3.4 8 3.4 2.6 0 5.9 -0.6 7.4 -1.4z"/>
  <path d="M585.2 92.1 c-6.2 -2.1 -8.7 -4.2 -11.6 -9.6 -1.9 -3.6 -2.1 -5.8 -2.4 -24.2 l-0.3 -20.3 -5.5 0 -5.4 0 0 -4 0 -4 5.5 0 5.5 0 0 -9 0 -9 6 0 6 0 0 9 0 9 7.5 0 7.5 0 0 4 0 4 -7.5 0 -7.5 0 0 18.1 c0 14.7 0.3 18.7 1.6 21.5 2 4.2 5.9 6.4 11.4 6.4 l4 0 0 5 0 5 -4.7 0 c-2.7 -0.1 -7.2 -0.9 -10.1 -1.9z"/>
  <path d="M169 88.5 l0 -4.5 5.5 0 5.5 0 0 -35.5 0 -35.5 -5.5 0 -5.5 0 0 -4.5 0 -4.5 11.3 0 11.4 0 22.1 31.9 c12.2 17.5 22.9 33.5 23.9 35.5 1.8 4 3.9 4.9 2.9 1.4 -0.3 -1.3 -0.6 -15.2 -0.6 -31 l0 -28.8 -5.5 0 -5.5 0 0 -4.5 0 -4.5 17.5 0 17.5 0 0 4.5 0 4.5 -6 0 -6 0 0 40 0 40.1 -6.2 -0.3 -6.2 -0.3 -21.9 -31.5 c-12 -17.3 -22.6 -33 -23.5 -34.7 -0.8 -1.8 -1.8 -3.3 -2.1 -3.3 -0.3 0 -0.5 13.7 -0.3 30.5 l0.3 30.5 5.9 0 6 0 0 4.5 0 4.5 -17.5 0 -17.5 0 0 -4.5z"/>
  <path d="M510 89 l0 -4 4.5 0 4.5 0 0 -22.9 c0 -25.3 0.3 -24.1 -6.6 -24.1 -3.3 0 -3.4 -0.1 -3.4 -4 l0 -4 8.8 0 c11.5 0 12.5 0.7 13 9.5 l0.4 6.7 1.8 -3.9 c3.4 -7.7 11.6 -13.3 19.4 -13.3 2.5 0 2.6 0.2 2.6 5.8 l0 5.8 -3.2 -0.4 c-4.3 -0.4 -11.4 3.3 -14.9 7.8 -4 5 -5.9 13.5 -5.9 26.2 l0 10.8 5 0 5 0 0 4 0 4 -15.5 0 -15.5 0 0 -4z"/>
 </g>
<g>
</g>
</svg>